<?xml version="1.0" encoding="utf-8"?>
<!-- Generator: Adobe Illustrator 15.0.2, SVG Export Plug-In . SVG Version: 6.00 Build 0)  -->
<!DOCTYPE svg PUBLIC "-//W3C//DTD SVG 1.1//EN" "http://www.w3.org/Graphics/SVG/1.1/DTD/svg11.dtd">
<svg version="1.1" xmlns="http://www.w3.org/2000/svg" xmlns:xlink="http://www.w3.org/1999/xlink" x="0px" y="0px" width="1024px"
	 height="480px" viewBox="664.5 752.5 1024 480" enable-background="new 664.5 752.5 1024 480" xml:space="preserve">
<g id="Layer_1">
	<g>
		<g>
			<path fill="#B2B3B4" d="M926.646,1127.938l4.293,9.028l-40.22,19.132l-4.295-9.029L926.646,1127.938z"/>
			<path fill="#B2B3B4" d="M923.117,1125.703c-0.723,9.057,6.018,16.967,15.075,17.689c6.887,0.55,13.077-3.236,15.99-9.062
				l-16.962-1.354l1.015-12.694l16.803,1.341c-2.071-5.996-7.502-10.512-14.227-11.049
				C931.755,1109.853,923.84,1116.646,923.117,1125.703z"/>
			<path fill="#B2B3B4" d="M895.394,1157.318c0.723-9.057-6.019-16.967-15.075-17.689c-6.887-0.55-13.078,3.237-15.989,9.061
				l16.961,1.354l-1.014,12.695l-16.804-1.342c2.072,5.996,7.502,10.512,14.227,11.05
				C886.756,1173.17,894.671,1166.375,895.394,1157.318z"/>
		</g>
		<g id="svg_232">
			<path id="svg_2" fill="#3C2417" d="M1114.97,886.943c-10.447-9.553-19.792,13.134-25.601,20.438
				c-1.893,2.376-5.227,4.787-7.991,7.282c-42.515-11.032-71.424-6.008-91.516,17.22c-3.204,3.701-5.724,9.375-8.646,13.881
				c-3.096-4.496-6.261-6.941-10.839-9.133c0.854-4.748,0.976-8.972,1.742-12.224c3.029-12.851,5.599-27.066,4.455-45.452
				c-0.973-15.673-6.085-27.608-11.586-39.213c-5.563-11.743-13.805-25.046-13.368-36.542c0.729-19.153,24.665-26.967,40.231-17.762
				c0,0,7.65,3.305,9.286,10.765c2.83,12.914,7.098,13.408,7.098,13.408c0.125,0,0.242-0.018,0.312-0.045
				c4.179-1.454,4.764-5.182,3.385-9.232c-7.905-23.255-28.225-26.546-28.225-26.546c-7.246-2.062-10.57-1.335-16.045,0
				c-10.618,3.853-23.525,12.845-24.062,28.521c-0.781,22.825,15.57,34.872,22.28,58.82c6.24,22.262,2.468,43.637-1.782,61.495
				c-0.757,3.182-1.636,7.188-2.938,11.493c-3.64-0.313-5.974-0.133-9.412,1.053c-0.078-5.486-2.05-11.959-2.68-17.047
				c-2.711-21.938-7.313-40.578-15.211-58.446c-2.523-5.713-5.556-17.955-9.545-24.016c1.08-2.216,2.075-5.234,3.021-9.679
				c9.788-45.983-11.24-36.601-11.667-27.416c-0.428,9.187,8.875,13.471-3.103,32.018c-9.438,14.613-1.686,14.722,2.031,14.109
				c11.42,20.182,19.628,45.533,23.271,72.941c0.953,7.165,4.141,19.727,3.165,24.109c-8.905,6.379-14.175,15.56-16.166,29.157
				c-0.107,0.728-0.218,1.39-0.334,2.008c-0.332,0.057-0.662,0.106-0.992,0.18c-6.38,1.398-11.542,5.698-14.915,11.658
				c-2.539-1.792-5.659-2.852-9.038-2.823c-8.399,0.075-15.15,6.754-15.08,14.921c0.07,8.169,6.936,14.729,15.334,14.661
				c1.855-0.021,3.626-0.374,5.267-0.98c0.051,0.269,0.1,0.53,0.158,0.801c0.889,4.048,2.317,7.799,4.15,11.146
				c-11.823,17.264-23.379,38.771-33.186,57.789c-0.933,1.801-1.203,4.136,0,6.239c6.233,15.231,12.502,30.424,20.047,44.346
				c-0.5,1.918-0.726,4.518-0.432,8.044c1.169,14.001,2.789,16,5.833,18.083c3.694,2.528,8.167-3.501,8.753-2.916
				c2.276,2.278,6.996-1.942,8.164-4.668c0.258-0.599,0.255-1.785,0.878-1.706c4.18,0.54,5.547-6.219,3.205-8.792
				c-4.278-4.709-9.659-9.9-14.952-12.215c-4.744-15.361-17.401-28.021-20.515-45.144c4.152-8.846,13.236-21.887,22.634-34.521
				c5.869,7.569,18.456,11.188,31.72,8.281c5.975-1.311,11.268-3.769,15.483-6.927c3.729,25.599,9.222,57.544,14.085,71.085
				c-2.026,1.777-4.332,4.806-5.084,9.683c-2.144,13.883-0.648,16.225,1.891,18.906c3.078,3.247,8.721-1.701,9.167-1.007
				c1.748,2.707,7.251-0.425,8.967-2.841c0.379-0.533,0.624-1.692,1.216-1.484c3.971,1.41,7.356-4.792,5.611-7.8
				c-3.47-5.99-6.339-14.311-12.449-16.943c0.176-8.771-4.099-23.733-4.961-30.458c-2.632-20.52-5.749-40.601-8.022-59.715
				c-0.522-4.382-0.354-9.294-0.72-13.916c10.767-5.622,19.335-18.163,21.603-33.676c1.246-8.493,2.105-13.136-0.316-20.191
				c2.191-6.211,3.516-12.596,6.697-16.805c8.409-11.125,21.462-22.768,38.944-23.822c15.925-0.96,29.012,6.499,44.912,6.317
				c0.421,0.435,0.924,0.874,1.514,1.314c8.395,6.272,15.748-8.856,15.748-8.856c12.437-12.221,27.061-23.954,19.118-31.217V886.943
				z"/>
			<g id="svg_3">
				<g>
					<path id="svg_4" fill="#FED09E" d="M1095.851,918.159c0,0-7.355,15.129-15.751,8.856c-9.744-7.286,4.444-13.585,9.267-19.635
						c5.81-7.304,15.152-29.99,25.601-20.438C1122.91,894.207,1108.285,905.94,1095.851,918.159z"/>
					<path id="svg_5" fill="#FED09E" d="M947.94,982.859c3.787,1.6,7.376,13.498,7.376,13.498c2.806,0.508,5.751,0.424,8.646-1.144
						c6.05-3.272,8.693-10.112,5.906-15.27c-2.79-5.163-9.96-6.693-16.01-3.424c-2.77,1.498-4.825,3.742-5.976,6.231L947.94,982.859
						L947.94,982.859z"/>
					<path id="svg_6" fill="#FED09E" d="M905.503,1009.324c-3.762-12.289,1.681-20.581,1.681-20.581
						c-6.345-2.99-13.522-1.113-16.025,4.195c-2.498,5.303,0.615,12.032,6.961,15.023c2.396,1.128,4.907,1.563,7.243,1.387"/>
					<path id="svg_7" fill="#FED09E" d="M927.341,825.979c9.79-45.982-11.238-36.6-11.664-27.416
						c-0.429,9.187,8.874,13.472-3.104,32.018c-11.981,18.55,3.741,13.729,3.741,13.729
						C921.124,839.892,924.46,839.514,927.341,825.979L927.341,825.979z"/>
					<path id="svg_8" fill="#FED09E" d="M901.688,1125.466c0,0-7.001-0.583-5.833,13.416c1.169,14,2.788,15.999,5.831,18.083
						c3.695,2.529,8.168-3.501,8.754-2.915c2.277,2.277,6.998-1.943,8.164-4.668c0.259-0.6,0.256-1.787,0.877-1.706
						c4.18,0.539,5.547-6.22,3.206-8.793C916.751,1132.347,908.688,1124.883,901.688,1125.466L901.688,1125.466z"/>
					<path id="svg_9" fill="#FED09E" d="M974.587,1117.25c0,0-7.094,2.581-8.53,11.886c-2.144,13.883-0.647,16.227,1.891,18.908
						c3.079,3.245,8.722-1.701,9.169-1.007c1.748,2.706,7.25-0.426,8.965-2.842c0.379-0.533,0.625-1.693,1.217-1.484
						c3.971,1.41,7.356-4.793,5.611-7.8C988.482,1127.269,985.036,1115.831,974.587,1117.25L974.587,1117.25z"/>
				</g>
				<g id="svg_10">
					<g id="svg_11">
						<path id="svg_12" fill="#FED09E" d="M966.798,1027.405c-1.425-6.494-6.794-11.415-14.103-13.918
							c0.501-3.197,0.436-6.585-0.314-10.008c-2.909-13.263-14.829-21.914-26.63-19.326c-11.799,2.588-19.007,15.434-16.099,28.696
							c0.749,3.421,2.108,6.528,3.901,9.223c-5.591,5.331-8.41,12.043-6.985,18.539c2.588,11.799,18.17,18.408,34.799,14.763
							C957.999,1051.727,969.384,1039.203,966.798,1027.405L966.798,1027.405z M923.117,1009.629
							c-1.817,0.818-4.243-0.627-5.409-3.228c-1.17-2.6-0.646-5.368,1.173-6.188c1.815-0.816,4.236,0.628,5.407,3.228
							C925.458,1006.041,924.934,1008.816,923.117,1009.629L923.117,1009.629z M931.369,996.64c1.909-0.332,3.866,1.728,4.366,4.603
							c0.506,2.876-0.636,5.484-2.545,5.814c-1.907,0.333-3.863-1.729-4.361-4.604C928.324,999.575,929.464,996.97,931.369,996.64
							L931.369,996.64z M935.434,1025.602c-3.483,0.761-6.772-0.734-7.344-3.348c-0.572-2.612,1.786-5.346,5.271-6.111
							c3.481-0.763,6.769,0.736,7.342,3.348C941.275,1022.099,938.917,1024.836,935.434,1025.602L935.434,1025.602z
							 M951.888,1043.193c-3.529,2.868-7.756,3.508-9.443,1.434c-1.686-2.078-0.191-6.082,3.339-8.95
							c3.529-2.866,7.754-3.504,9.44-1.431C956.91,1036.322,955.416,1040.327,951.888,1043.193L951.888,1043.193z"/>
					</g>
				</g>
			</g>
		</g>
		<path fill="#FFFF00" d="M937.187,990.05c-4.707,3.278-8.328,6.187-12.881,7.817c-4.553,1.633-10.059,0.309-29.096,4.356
			c-6.002,1.256,3.935-9.667,3.935-9.667s-5.462-21.196,5.955-28.795c0.489-0.384,1.765-2.581,3.431-3.616
			c1.082-0.709,2.922,0.491,4.063,0.019c1.931-0.682,2.348-1.977,3.875-3.227c2.778-2.261,6.933,1.283,8.574,1.1
			c2.947-0.359,1.404-0.118,4.124-1.012c2.111-0.645,4.388,1.876,5.624,2.394c6.993,2.789,12.398,9.127,14.124,20.076l0.729,3.692
			c0,0,2.639,1.666,2.972,2.594c0.329,0.926-2.312,0.526-2.312,0.526S942.818,985.174,937.187,990.05z"/>
		<path d="M910.807,961.398c0,0-0.451-1.062-1.733-0.805c0,0-2.186-0.604-3.669,9.087
			C905.404,969.681,910.234,961.468,910.807,961.398z"/>
		<path d="M921.618,958.189c0,0-2.804-1.961-4.04-1.209c-3.675,2.075-8.125,14.582-8.313,16.407
			c-0.245,2.263,4.555-7.972,6.057-9.64C915.963,962.986,916.749,961.174,921.618,958.189z"/>
		<path d="M932.791,959.527c0,0-2.062-1.395-3.071-1.38c-3.525,0.091-12.272,11.374-13.258,13.073c0,0,0.371,1.084,1.695-0.62
			C919.596,968.699,928.939,960.299,932.791,959.527z"/>
	</g>
	<text transform="matrix(0.5833 0 0 1 1075.373 871.9014)" fill="#3C2417" font-family="'DidactGothic'" font-size="100.3639">CONSTRUCTION ZONE</text>
	<text transform="matrix(1 0 0 1 1164.8389 1007.3047)" fill="#3C2417" font-family="'DidactGothic'" font-size="48">Work in progress.</text>
</g>
<g id="Layer_2" display="none">
	<g>
		<path fill="#B2B3B4" d="M1850.958,370.787v48h-196.055l-0.001-48H1850.958z"/>
		<path fill="#B2B3B4" d="M1841.157,357.227c-19.997,34.637-8.157,78.824,26.479,98.82c26.334,15.205,58.105,11.857,80.695-5.785
			l-64.865-37.451l28.029-48.547l64.263,37.101c3.103-27.75-9.948-55.972-35.663-70.817
			C1905.458,310.549,1861.155,322.59,1841.157,357.227z"/>
		<path fill="#B2B3B4" d="M1671.174,430.48c19.997-34.637,8.157-78.822-26.48-98.82c-26.334-15.205-58.105-11.857-80.695,5.785
			l64.866,37.45l-28.03,48.549l-64.262-37.101c-3.104,27.748,9.948,55.971,35.664,70.817
			C1606.872,477.158,1651.176,465.117,1671.174,430.48z"/>
	</g>
</g>
</svg>
