<?xml version="1.0" encoding="utf-8"?>
<!-- Generator: Adobe Illustrator 15.0.2, SVG Export Plug-In . SVG Version: 6.00 Build 0)  -->
<!DOCTYPE svg PUBLIC "-//W3C//DTD SVG 1.1//EN" "http://www.w3.org/Graphics/SVG/1.1/DTD/svg11.dtd">
<svg version="1.1" id="Layer_1" xmlns="http://www.w3.org/2000/svg" xmlns:xlink="http://www.w3.org/1999/xlink" x="0px" y="0px"
	 width="1024px" height="480px" viewBox="0 0 1024 480" enable-background="new 0 0 1024 480" xml:space="preserve">
<g id="Layer_1_1_">
	<g>
		<g>
			<path fill="#B2B3B4" d="M199.666,395.438l4.293,9.028l-40.221,19.132l-4.295-9.029L199.666,395.438z"/>
			<path fill="#B2B3B4" d="M196.137,393.203c-0.724,9.057,6.018,16.967,15.075,17.688c6.887,0.551,13.077-3.235,15.989-9.062
				l-16.962-1.354l1.016-12.693l16.803,1.341c-2.071-5.996-7.502-10.512-14.228-11.049
				C204.774,377.354,196.859,384.146,196.137,393.203z"/>
			<path fill="#B2B3B4" d="M168.413,424.818c0.724-9.058-6.019-16.968-15.074-17.689c-6.888-0.55-13.078,3.237-15.989,9.062
				l16.961,1.354l-1.014,12.695l-16.805-1.343c2.072,5.996,7.502,10.513,14.228,11.051
				C159.775,440.67,167.69,433.875,168.413,424.818z"/>
		</g>
		<g id="svg_232">
			<path id="svg_2" fill="#3C2417" d="M387.989,154.443c-10.446-9.554-19.792,13.134-25.601,20.438
				c-1.893,2.376-5.228,4.787-7.991,7.282c-42.515-11.032-71.424-6.008-91.516,17.22c-3.204,3.701-5.725,9.375-8.646,13.881
				c-3.096-4.496-6.261-6.94-10.839-9.133c0.854-4.748,0.977-8.972,1.742-12.224c3.029-12.852,5.599-27.066,4.455-45.452
				c-0.973-15.673-6.085-27.608-11.586-39.213c-5.563-11.743-13.805-25.046-13.368-36.542c0.729-19.153,24.665-26.968,40.231-17.763
				c0,0,7.649,3.306,9.285,10.766c2.83,12.914,7.099,13.408,7.099,13.408c0.125,0,0.242-0.019,0.312-0.045
				c4.18-1.454,4.765-5.183,3.386-9.232c-7.905-23.255-28.226-26.546-28.226-26.546c-7.246-2.062-10.57-1.335-16.045,0
				c-10.618,3.853-23.525,12.845-24.062,28.521c-0.781,22.825,15.569,34.872,22.279,58.82c6.24,22.262,2.469,43.637-1.781,61.495
				c-0.758,3.182-1.637,7.188-2.938,11.493c-3.64-0.313-5.974-0.133-9.412,1.053c-0.078-5.486-2.05-11.959-2.68-17.047
				c-2.711-21.938-7.313-40.578-15.211-58.446c-2.523-5.713-5.557-17.955-9.545-24.016c1.08-2.216,2.075-5.234,3.021-9.68
				c9.788-45.982-11.239-36.601-11.667-27.416c-0.428,9.188,8.875,13.472-3.103,32.019c-9.438,14.613-1.687,14.722,2.031,14.109
				c11.42,20.182,19.628,45.532,23.271,72.94c0.953,7.165,4.141,19.728,3.165,24.109c-8.905,6.379-14.175,15.56-16.166,29.156
				c-0.107,0.729-0.218,1.391-0.334,2.009c-0.332,0.057-0.662,0.105-0.992,0.18c-6.38,1.398-11.542,5.698-14.915,11.658
				c-2.539-1.792-5.659-2.853-9.038-2.823c-8.398,0.075-15.149,6.754-15.08,14.921c0.07,8.169,6.937,14.729,15.334,14.661
				c1.855-0.021,3.626-0.374,5.268-0.979c0.051,0.269,0.1,0.529,0.158,0.801c0.889,4.048,2.316,7.799,4.149,11.146
				c-11.822,17.265-23.379,38.771-33.186,57.789c-0.934,1.802-1.203,4.136,0,6.239c6.232,15.23,12.502,30.424,20.047,44.346
				c-0.5,1.918-0.727,4.519-0.432,8.044c1.169,14.001,2.789,16,5.833,18.083c3.693,2.528,8.167-3.501,8.753-2.916
				c2.275,2.278,6.996-1.941,8.164-4.668c0.258-0.599,0.255-1.785,0.878-1.706c4.18,0.54,5.547-6.219,3.205-8.792
				c-4.278-4.709-9.659-9.899-14.952-12.215c-4.744-15.361-17.401-28.021-20.516-45.144c4.152-8.847,13.236-21.888,22.635-34.521
				c5.868,7.569,18.455,11.188,31.72,8.281c5.975-1.312,11.268-3.77,15.482-6.927c3.729,25.599,9.223,57.544,14.085,71.085
				c-2.025,1.776-4.332,4.806-5.084,9.683c-2.144,13.883-0.647,16.225,1.892,18.906c3.078,3.247,8.721-1.701,9.167-1.007
				c1.748,2.707,7.251-0.426,8.967-2.841c0.379-0.533,0.624-1.692,1.216-1.484c3.971,1.41,7.356-4.792,5.611-7.8
				c-3.47-5.99-6.339-14.312-12.449-16.943c0.176-8.771-4.099-23.733-4.961-30.458c-2.632-20.52-5.749-40.601-8.022-59.715
				c-0.521-4.382-0.354-9.294-0.72-13.916c10.768-5.622,19.335-18.163,21.604-33.676c1.246-8.493,2.104-13.137-0.316-20.191
				c2.191-6.211,3.517-12.596,6.697-16.805c8.409-11.125,21.462-22.769,38.944-23.822c15.925-0.96,29.012,6.499,44.912,6.317
				c0.421,0.435,0.924,0.874,1.514,1.313c8.395,6.272,15.748-8.855,15.748-8.855c12.437-12.222,27.061-23.954,19.118-31.218v0.005
				H387.989z"/>
			<g id="svg_3">
				<g>
					<path id="svg_4" fill="#FED09E" d="M368.87,185.659c0,0-7.354,15.129-15.751,8.855c-9.744-7.286,4.444-13.585,9.268-19.635
						c5.81-7.304,15.151-29.99,25.601-20.438C395.93,161.707,381.305,173.44,368.87,185.659z"/>
					<path id="svg_5" fill="#FED09E" d="M220.96,250.359c3.786,1.6,7.376,13.498,7.376,13.498c2.806,0.508,5.751,0.424,8.646-1.145
						c6.05-3.271,8.693-10.112,5.906-15.27c-2.79-5.163-9.96-6.693-16.01-3.425c-2.771,1.498-4.825,3.742-5.977,6.231
						L220.96,250.359L220.96,250.359z"/>
					<path id="svg_6" fill="#FED09E" d="M178.522,276.824c-3.762-12.289,1.681-20.581,1.681-20.581
						c-6.345-2.99-13.521-1.113-16.024,4.194c-2.498,5.304,0.615,12.032,6.961,15.023c2.396,1.128,4.907,1.563,7.243,1.387"/>
					<path id="svg_7" fill="#FED09E" d="M200.36,93.479c9.79-45.981-11.237-36.6-11.664-27.416
						c-0.429,9.188,8.874,13.473-3.104,32.019c-11.981,18.55,3.741,13.729,3.741,13.729
						C194.144,107.392,197.479,107.014,200.36,93.479L200.36,93.479z"/>
					<path id="svg_8" fill="#FED09E" d="M174.707,392.966c0,0-7-0.583-5.832,13.416c1.169,14,2.787,15.999,5.83,18.083
						c3.695,2.529,8.168-3.501,8.755-2.915c2.276,2.277,6.997-1.942,8.163-4.668c0.26-0.6,0.257-1.787,0.878-1.706
						c4.18,0.539,5.547-6.22,3.206-8.793C189.771,399.847,181.707,392.383,174.707,392.966L174.707,392.966z"/>
					<path id="svg_9" fill="#FED09E" d="M247.606,384.75c0,0-7.094,2.581-8.53,11.886c-2.144,13.884-0.646,16.228,1.892,18.908
						c3.079,3.245,8.722-1.701,9.169-1.007c1.748,2.706,7.25-0.426,8.965-2.842c0.379-0.533,0.625-1.693,1.217-1.484
						c3.971,1.41,7.356-4.793,5.611-7.8C261.502,394.77,258.056,383.331,247.606,384.75L247.606,384.75z"/>
				</g>
				<g id="svg_10">
					<g id="svg_11">
						<path id="svg_12" fill="#FED09E" d="M239.817,294.905c-1.425-6.494-6.794-11.415-14.103-13.918
							c0.501-3.197,0.436-6.585-0.314-10.009c-2.909-13.263-14.829-21.913-26.63-19.325c-11.799,2.588-19.007,15.434-16.099,28.695
							c0.749,3.421,2.107,6.528,3.9,9.224c-5.591,5.331-8.41,12.043-6.984,18.539c2.588,11.799,18.17,18.407,34.799,14.763
							C231.019,319.227,242.403,306.703,239.817,294.905L239.817,294.905z M196.137,277.129c-1.817,0.818-4.243-0.627-5.409-3.228
							c-1.17-2.601-0.646-5.368,1.173-6.188c1.815-0.815,4.236,0.628,5.407,3.229C198.478,273.541,197.953,276.316,196.137,277.129
							L196.137,277.129z M204.389,264.14c1.909-0.332,3.866,1.729,4.366,4.604c0.506,2.876-0.637,5.483-2.545,5.813
							c-1.907,0.333-3.863-1.729-4.361-4.604C201.344,267.075,202.483,264.47,204.389,264.14L204.389,264.14z M208.453,293.102
							c-3.482,0.762-6.771-0.733-7.344-3.348c-0.572-2.612,1.786-5.346,5.271-6.111c3.48-0.763,6.769,0.736,7.342,3.349
							C214.295,289.599,211.937,292.336,208.453,293.102L208.453,293.102z M224.907,310.693c-3.528,2.867-7.756,3.508-9.442,1.434
							c-1.687-2.078-0.191-6.082,3.339-8.95c3.528-2.866,7.754-3.504,9.439-1.431C229.93,303.822,228.436,307.827,224.907,310.693
							L224.907,310.693z"/>
					</g>
				</g>
			</g>
		</g>
		<path fill="#FFFF00" d="M210.207,257.55c-4.707,3.278-8.328,6.188-12.882,7.817c-4.553,1.633-10.059,0.309-29.096,4.355
			c-6.002,1.256,3.935-9.667,3.935-9.667s-5.462-21.195,5.955-28.795c0.489-0.384,1.766-2.581,3.432-3.616
			c1.082-0.709,2.922,0.491,4.062,0.02c1.932-0.682,2.349-1.977,3.875-3.227c2.778-2.262,6.934,1.282,8.574,1.1
			c2.947-0.359,1.404-0.118,4.124-1.012c2.111-0.646,4.388,1.876,5.624,2.394c6.993,2.789,12.398,9.127,14.124,20.076l0.729,3.691
			c0,0,2.639,1.666,2.972,2.595c0.329,0.926-2.312,0.525-2.312,0.525S215.838,252.674,210.207,257.55z"/>
		<path d="M183.826,228.898c0,0-0.45-1.062-1.732-0.806c0,0-2.187-0.604-3.669,9.087
			C178.424,237.181,183.254,228.968,183.826,228.898z"/>
		<path d="M194.638,225.689c0,0-2.804-1.961-4.04-1.209c-3.675,2.074-8.125,14.582-8.313,16.406
			c-0.245,2.264,4.556-7.972,6.058-9.64C188.982,230.486,189.769,228.674,194.638,225.689z"/>
		<path d="M205.811,227.027c0,0-2.062-1.396-3.071-1.381c-3.524,0.092-12.271,11.375-13.258,13.073c0,0,0.371,1.084,1.695-0.62
			C192.615,236.199,201.959,227.799,205.811,227.027z"/>
	</g>
	<g enable-background="new    ">
		<path fill="#3C2417" d="M380.298,124.965c-3.629,10.695-8.06,16.042-13.289,16.042c-4.449,0-8.235-3.525-11.357-10.575
			c-3.122-7.051-4.683-15.419-4.683-25.104c0-9.686,1.561-18.086,4.683-25.204c3.122-7.116,6.908-10.677,11.357-10.677
			c4.839,0,9.035,4.715,12.587,14.14l-3.454,4.207c-2.693-7.613-5.737-11.421-9.133-11.421s-6.187,2.873-8.371,8.617
			c-2.187,5.744-3.278,12.523-3.278,20.338c0,7.815,1.092,14.562,3.278,20.238c2.185,5.678,4.976,8.516,8.371,8.516
			c3.668,0,6.829-4.207,9.484-12.624L380.298,124.965z"/>
		<path fill="#3C2417" d="M389.051,130.331c-3.454-7.116-5.181-15.451-5.181-25.003c0-9.551,1.727-17.918,5.181-25.104
			c3.454-7.185,7.444-10.777,11.972-10.777s8.519,3.593,11.973,10.777c3.453,7.186,5.181,15.553,5.181,25.104
			c0,9.552-1.728,17.887-5.181,25.003c-3.454,7.118-7.445,10.676-11.973,10.676S392.505,137.449,389.051,130.331z M388.495,105.328
			c0,7.615,1.219,14.311,3.658,20.088s5.396,8.666,8.869,8.666s6.43-2.889,8.869-8.666s3.659-12.473,3.659-20.088
			c0-7.682-1.229-14.426-3.688-20.237c-2.458-5.812-5.405-8.718-8.84-8.718s-6.381,2.905-8.84,8.718
			C389.725,90.902,388.495,97.646,388.495,105.328z"/>
		<path fill="#3C2417" d="M425.259,139.401V70.953h4.391l18.851,56.104V70.953h4.391v68.448H448.5l-18.851-55.902v55.902H425.259z"
			/>
		<path fill="#3C2417" d="M473.701,108.634c-4.229-1.937-7.438-4.475-9.625-7.614c-2.188-3.139-3.282-7.447-3.282-12.925
			c0-6.047,1.109-10.666,3.329-13.859c2.219-3.191,5.372-4.788,9.461-4.788c4.951,0,9.201,3.946,12.75,11.836l-3.235,4.707
			c-2.781-6.41-5.952-9.617-9.515-9.617c-3.016,0-5.17,0.936-6.461,2.806c-1.293,1.87-1.938,4.842-1.938,8.916
			c0,1.537,0.146,2.922,0.44,4.157c0.293,1.236,0.607,2.223,0.939,2.956c0.333,0.735,0.892,1.437,1.675,2.104
			c0.782,0.668,1.399,1.153,1.85,1.454c0.449,0.301,1.224,0.733,2.32,1.302c1.096,0.567,1.841,0.951,2.231,1.15
			c3.994,2.34,6.591,4.11,7.793,5.312c3.37,3.406,5.056,8.684,5.056,15.83c0,5.949-1.306,10.544-3.916,13.785
			c-2.61,3.242-6.195,4.861-10.754,4.861c-2.573,0-5.07-1.27-7.487-3.811c-2.419-2.54-4.446-5.982-6.086-10.328l3.454-4.207
			c1.169,3.34,2.671,6.078,4.504,8.216c1.833,2.137,3.705,3.205,5.615,3.205c3.524,0,6.118-0.952,7.783-2.855
			c1.664-1.904,2.496-4.858,2.496-8.866c0-3.939-0.716-6.828-2.145-8.666C479.525,111.857,477.108,110.17,473.701,108.634z"/>
		<path fill="#3C2417" d="M490.3,77.176v-6.223h27.105v6.223h-11.357v62.226h-4.391V77.176H490.3z"/>
		<path fill="#3C2417" d="M522.85,139.401V70.953h12.678c2.365,0,4.565,0.686,6.602,2.053c2.035,1.367,3.761,3.621,5.176,6.758
			c1.415,3.138,2.123,6.909,2.123,11.312c0,5.076-0.853,9.218-2.557,12.423c-1.704,3.206-3.896,5.41-6.576,6.611l9.817,29.291
			h-4.858l-9.467-28.303h-0.059h-8.488v28.303H522.85z M527.24,77.176v27.7h8.371c2.654,0,4.85-1.191,6.586-3.575
			s2.605-5.793,2.605-10.225s-0.869-7.855-2.605-10.273s-3.932-3.627-6.586-3.627H527.24z"/>
		<path fill="#3C2417" d="M556.511,110.998V70.953h4.625v40.045c0,6.825,0.783,12.38,2.349,16.661
			c1.566,4.282,4.013,6.423,7.34,6.423s5.774-2.141,7.34-6.423c1.566-4.281,2.35-9.836,2.35-16.661V70.953h4.624v40.045
			c0,9.569-1.261,16.962-3.784,22.181c-2.522,5.219-6.032,7.828-10.529,7.828c-4.519,0-8.034-2.609-10.546-7.828
			S556.511,120.567,556.511,110.998z"/>
		<path fill="#3C2417" d="M621.316,124.965c-3.629,10.695-8.06,16.042-13.289,16.042c-4.449,0-8.235-3.525-11.357-10.575
			c-3.122-7.051-4.683-15.419-4.683-25.104c0-9.686,1.561-18.086,4.683-25.204c3.122-7.116,6.908-10.677,11.357-10.677
			c4.839,0,9.035,4.715,12.587,14.14l-3.454,4.207c-2.693-7.613-5.737-11.421-9.133-11.421s-6.187,2.873-8.371,8.617
			c-2.187,5.744-3.278,12.523-3.278,20.338c0,7.815,1.092,14.562,3.278,20.238c2.185,5.678,4.976,8.516,8.371,8.516
			c3.668,0,6.829-4.207,9.484-12.624L621.316,124.965z"/>
		<path fill="#3C2417" d="M624.127,77.176v-6.223h27.105v6.223h-11.357v62.226h-4.391V77.176H624.127z"/>
		<path fill="#3C2417" d="M661.944,77.878v54.599h2.107v6.925h-8.605v-6.925h2.107V77.878h-2.107v-6.925h8.605v6.925H661.944z"/>
		<path fill="#3C2417" d="M674.443,130.331c-3.454-7.116-5.181-15.451-5.181-25.003c0-9.551,1.727-17.918,5.181-25.104
			c3.454-7.185,7.444-10.777,11.972-10.777s8.519,3.593,11.973,10.777c3.453,7.186,5.181,15.553,5.181,25.104
			c0,9.552-1.728,17.887-5.181,25.003c-3.454,7.118-7.445,10.676-11.973,10.676S677.897,137.449,674.443,130.331z M673.888,105.328
			c0,7.615,1.219,14.311,3.658,20.088s5.396,8.666,8.869,8.666s6.43-2.889,8.869-8.666s3.659-12.473,3.659-20.088
			c0-7.682-1.229-14.426-3.688-20.237c-2.458-5.812-5.405-8.718-8.84-8.718s-6.381,2.905-8.84,8.718
			C675.117,90.902,673.888,97.646,673.888,105.328z"/>
		<path fill="#3C2417" d="M710.651,139.401V70.953h4.391l18.851,56.104V70.953h4.391v68.448h-4.391l-18.851-55.902v55.902H710.651z"
			/>
		<path fill="#3C2417" d="M758.129,77.176v-6.223h24.939v7.527l-19.963,54.698h19.963v6.223h-24.939v-6.323l20.314-55.902H758.129z"
			/>
		<path fill="#3C2417" d="M791.937,130.331c-3.454-7.116-5.181-15.451-5.181-25.003c0-9.551,1.727-17.918,5.181-25.104
			c3.454-7.185,7.444-10.777,11.972-10.777s8.519,3.593,11.973,10.777c3.453,7.186,5.181,15.553,5.181,25.104
			c0,9.552-1.728,17.887-5.181,25.003c-3.454,7.118-7.445,10.676-11.973,10.676S795.391,137.449,791.937,130.331z M791.381,105.328
			c0,7.615,1.219,14.311,3.658,20.088s5.396,8.666,8.869,8.666s6.43-2.889,8.869-8.666s3.659-12.473,3.659-20.088
			c0-7.682-1.229-14.426-3.688-20.237c-2.458-5.812-5.405-8.718-8.84-8.718s-6.381,2.905-8.84,8.718
			C792.61,90.902,791.381,97.646,791.381,105.328z"/>
		<path fill="#3C2417" d="M828.146,139.401V70.953h4.391l18.851,56.104V70.953h4.391v68.448h-4.391l-18.851-55.902v55.902H828.146z"
			/>
		<path fill="#3C2417" d="M864.969,139.401V70.953h22.363v6.223h-17.973v21.879h14.05v6.223h-14.05v27.901h18.148v6.223H864.969z"/>
	</g>
	<g enable-background="new    ">
		<path fill="#3C2417" d="M451.346,274.805h-0.096l-12.336-32.736h7.297l3.312,25.824l6.912-25.824h3.696l5.979,22.3l7.845-22.3
			h7.295l-12.336,32.736h-3.744l-6.912-25.824L451.346,274.805z"/>
		<path fill="#3C2417" d="M481.131,271.997c-2.32-2.384-3.48-5.191-3.48-8.425c0-3.231,1.145-6.039,3.432-8.424
			c2.288-2.383,4.855-3.576,7.705-3.576c2.848,0,5.415,1.193,7.703,3.576c2.287,2.385,3.432,5.192,3.432,8.424
			c0,3.233-1.136,6.041-3.407,8.425c-2.272,2.384-4.816,3.575-7.632,3.575C486.034,275.572,483.45,274.381,481.131,271.997z
			 M483.291,257.213c-1.584,1.775-2.377,3.896-2.377,6.359c0,2.465,0.793,4.584,2.377,6.36s3.415,2.664,5.496,2.664
			c2.079,0,3.912-0.888,5.496-2.664s2.375-3.896,2.375-6.36c0-2.463-0.791-4.584-2.375-6.359c-1.584-1.776-3.417-2.664-5.496-2.664
			C486.706,254.549,484.875,255.437,483.291,257.213z"/>
		<path fill="#3C2417" d="M519.555,258.293c-1.025-2.496-2.865-3.744-5.521-3.744c-1.984,0-3.513,0.848-4.584,2.544
			c-1.072,1.696-1.608,3.856-1.608,6.479v11.232h-3.264v-22.464h3.264v1.775c1.696-1.695,3.76-2.544,6.192-2.544
			c4.192,0,7.024,1.761,8.496,5.28L519.555,258.293z"/>
		<path fill="#3C2417" d="M525.458,274.805v-34.848h3.265v21.312l8.879-8.928h4.705l-8.641,8.64l9.312,13.824h-3.984l-7.68-11.472
			l-2.592,2.544v8.928H525.458z"/>
		<path fill="#3C2417" d="M556.873,247.229c-0.496-0.495-0.744-1.111-0.744-1.848s0.248-1.352,0.744-1.849
			c0.496-0.495,1.111-0.743,1.848-0.743s1.352,0.248,1.849,0.743c0.495,0.497,0.744,1.112,0.744,1.849s-0.249,1.353-0.744,1.848
			c-0.497,0.497-1.112,0.744-1.849,0.744S557.369,247.726,556.873,247.229z M557.09,274.805v-22.464h3.264v22.464H557.09z"/>
		<path fill="#3C2417" d="M586.272,260.597v14.208h-3.265v-14.208c0-1.695-0.607-3.128-1.823-4.296
			c-1.217-1.168-2.832-1.752-4.849-1.752c-2.016,0-3.632,0.864-4.848,2.592c-1.217,1.729-1.824,3.872-1.824,6.432v11.232H566.4
			v-22.464h3.264v2.016c1.792-1.855,4.016-2.784,6.672-2.784c2.848,0,5.216,0.809,7.104,2.425
			C585.328,255.613,586.272,257.812,586.272,260.597z"/>
		<path fill="#3C2417" d="M606.048,271.78v12.576h-3.265v-32.016h3.265v2.976c2.271-2.496,4.896-3.744,7.872-3.744
			c2.848,0,5.416,1.193,7.703,3.576c2.288,2.385,3.433,5.192,3.433,8.424c0,3.233-1.136,6.041-3.407,8.425
			c-2.273,2.384-4.817,3.575-7.633,3.575C611.039,275.572,608.383,274.309,606.048,271.78z M608.424,257.213
			c-1.584,1.775-2.376,3.896-2.376,6.359c0,2.465,0.792,4.584,2.376,6.36s3.416,2.664,5.496,2.664s3.912-0.888,5.496-2.664
			s2.376-3.896,2.376-6.36c0-2.463-0.792-4.584-2.376-6.359c-1.584-1.776-3.416-2.664-5.496-2.664S610.008,255.437,608.424,257.213z
			"/>
		<path fill="#3C2417" d="M644.688,258.293c-1.025-2.496-2.865-3.744-5.521-3.744c-1.984,0-3.513,0.848-4.584,2.544
			c-1.072,1.696-1.608,3.856-1.608,6.479v11.232h-3.264v-22.464h3.264v1.775c1.696-1.695,3.76-2.544,6.192-2.544
			c4.192,0,7.024,1.761,8.496,5.28L644.688,258.293z"/>
		<path fill="#3C2417" d="M652.344,271.997c-2.32-2.384-3.48-5.191-3.48-8.425c0-3.231,1.145-6.039,3.432-8.424
			c2.288-2.383,4.855-3.576,7.705-3.576c2.848,0,5.415,1.193,7.703,3.576c2.287,2.385,3.432,5.192,3.432,8.424
			c0,3.233-1.136,6.041-3.407,8.425c-2.272,2.384-4.816,3.575-7.632,3.575C657.247,275.572,654.663,274.381,652.344,271.997z
			 M654.504,257.213c-1.584,1.775-2.377,3.896-2.377,6.359c0,2.465,0.793,4.584,2.377,6.36s3.415,2.664,5.496,2.664
			c2.079,0,3.912-0.888,5.496-2.664s2.375-3.896,2.375-6.36c0-2.463-0.791-4.584-2.375-6.359c-1.584-1.776-3.417-2.664-5.496-2.664
			C657.919,254.549,656.088,255.437,654.504,257.213z"/>
		<path fill="#3C2417" d="M677.879,271.997c-2.32-2.384-3.479-5.191-3.479-8.425c0-3.231,1.144-6.039,3.433-8.424
			c2.287-2.383,4.855-3.576,7.703-3.576c2.944,0,5.568,1.248,7.873,3.744v-2.976h3.264v21.6c0,3.487-0.904,6.104-2.713,7.849
			c-1.808,1.743-4.199,2.615-7.176,2.615h-7.392v-2.976h7.392c2.112,0,3.744-0.632,4.896-1.896c1.152-1.264,1.729-3.128,1.729-5.592
			v-2.063c-2.273,2.464-4.865,3.695-7.777,3.695C682.783,275.572,680.199,274.381,677.879,271.997z M680.039,257.213
			c-1.584,1.775-2.375,3.896-2.375,6.359c0,2.465,0.791,4.584,2.375,6.36s3.416,2.664,5.496,2.664s3.912-0.888,5.496-2.664
			s2.377-3.896,2.377-6.36c0-2.463-0.793-4.584-2.377-6.359c-1.584-1.776-3.416-2.664-5.496-2.664S681.623,255.437,680.039,257.213z
			"/>
		<path fill="#3C2417" d="M717.695,258.293c-1.025-2.496-2.865-3.744-5.521-3.744c-1.984,0-3.513,0.848-4.584,2.544
			c-1.072,1.696-1.608,3.856-1.608,6.479v11.232h-3.264v-22.464h3.264v1.775c1.696-1.695,3.76-2.544,6.192-2.544
			c4.192,0,7.024,1.761,8.496,5.28L717.695,258.293z"/>
		<path fill="#3C2417" d="M725.135,263.572c0,2.465,0.793,4.584,2.377,6.36s3.415,2.664,5.496,2.664c2.303,0,3.975-0.319,5.016-0.96
			c1.039-0.64,1.975-1.68,2.808-3.12l2.593,1.729c-1.186,1.792-2.529,3.128-4.033,4.008s-3.6,1.319-6.287,1.319
			c-2.849,0-5.433-1.191-7.752-3.575c-2.32-2.384-3.48-5.191-3.48-8.425c0-3.231,1.145-6.039,3.432-8.424
			c2.288-2.383,4.855-3.576,7.705-3.576c2.848,0,5.415,1.193,7.703,3.576c2.287,2.385,3.432,5.192,3.432,8.424H725.135z
			 M725.615,260.597h14.784c-0.544-1.76-1.505-3.208-2.88-4.344c-1.377-1.136-2.881-1.704-4.512-1.704
			c-1.633,0-3.137,0.568-4.513,1.704S726.159,258.837,725.615,260.597z"/>
		<path fill="#3C2417" d="M757.023,265.16c-0.119-0.036-0.462-0.107-1.028-0.214c-0.565-0.106-0.964-0.185-1.191-0.234
			c-0.229-0.05-0.646-0.147-1.254-0.295c-0.608-0.146-1.048-0.275-1.319-0.388c-0.272-0.111-0.656-0.271-1.152-0.479
			c-0.496-0.207-0.872-0.414-1.128-0.622c-0.257-0.208-0.56-0.464-0.912-0.767s-0.616-0.622-0.792-0.958s-0.328-0.719-0.455-1.15
			c-0.129-0.431-0.193-0.901-0.193-1.413c0-2.18,0.878-3.902,2.634-5.168s4.038-1.899,6.848-1.899c4.171,0,6.995,1.763,8.472,5.286
			l-2.93,1.444c-1.028-2.502-2.876-3.754-5.542-3.754c-2.024,0-3.566,0.368-4.627,1.104c-1.061,0.737-1.59,1.729-1.59,2.977
			c0,0.353,0.065,0.664,0.196,0.936c0.131,0.272,0.344,0.513,0.639,0.721c0.296,0.208,0.566,0.376,0.812,0.504
			s0.632,0.258,1.16,0.388c0.527,0.132,0.914,0.22,1.164,0.267c0.248,0.047,0.658,0.114,1.233,0.202
			c0.573,0.09,0.95,0.15,1.13,0.183c1.255,0.229,2.312,0.466,3.174,0.709s1.795,0.605,2.803,1.089s1.776,1.136,2.305,1.957
			c0.527,0.821,0.792,1.795,0.792,2.923c0,2.164-0.979,3.883-2.937,5.156s-4.38,1.91-7.268,1.91c-2.114,0-3.996-0.46-5.645-1.38
			c-1.648-0.922-2.825-2.223-3.528-3.905l2.928-1.444c0.479,1.124,1.265,2.029,2.354,2.72c1.089,0.689,2.386,1.034,3.892,1.034
			c2.057,0,3.727-0.395,5.012-1.185c1.285-0.789,1.928-1.765,1.928-2.926c0-0.354-0.064-0.676-0.191-0.967
			c-0.129-0.29-0.328-0.54-0.6-0.75c-0.273-0.209-0.528-0.386-0.769-0.531c-0.239-0.145-0.586-0.271-1.036-0.381
			c-0.451-0.109-0.822-0.2-1.11-0.271c-0.29-0.07-0.694-0.151-1.216-0.243C757.562,265.253,757.209,265.191,757.023,265.16z"/>
		<path fill="#3C2417" d="M779.295,265.16c-0.119-0.036-0.462-0.107-1.028-0.214c-0.565-0.106-0.964-0.185-1.191-0.234
			c-0.229-0.05-0.646-0.147-1.254-0.295c-0.608-0.146-1.048-0.275-1.319-0.388c-0.272-0.111-0.656-0.271-1.152-0.479
			c-0.496-0.207-0.872-0.414-1.128-0.622c-0.257-0.208-0.56-0.464-0.912-0.767s-0.616-0.622-0.792-0.958s-0.328-0.719-0.455-1.15
			c-0.129-0.431-0.193-0.901-0.193-1.413c0-2.18,0.878-3.902,2.634-5.168s4.038-1.899,6.848-1.899c4.171,0,6.995,1.763,8.472,5.286
			l-2.93,1.444c-1.028-2.502-2.876-3.754-5.542-3.754c-2.024,0-3.566,0.368-4.627,1.104c-1.061,0.737-1.59,1.729-1.59,2.977
			c0,0.353,0.065,0.664,0.196,0.936c0.131,0.272,0.344,0.513,0.639,0.721c0.296,0.208,0.566,0.376,0.812,0.504
			s0.632,0.258,1.16,0.388c0.527,0.132,0.914,0.22,1.164,0.267c0.248,0.047,0.658,0.114,1.233,0.202
			c0.573,0.09,0.95,0.15,1.13,0.183c1.255,0.229,2.312,0.466,3.174,0.709s1.795,0.605,2.803,1.089s1.776,1.136,2.305,1.957
			c0.527,0.821,0.792,1.795,0.792,2.923c0,2.164-0.979,3.883-2.937,5.156s-4.38,1.91-7.268,1.91c-2.114,0-3.996-0.46-5.645-1.38
			c-1.648-0.922-2.825-2.223-3.528-3.905l2.928-1.444c0.479,1.124,1.265,2.029,2.354,2.72c1.089,0.689,2.386,1.034,3.892,1.034
			c2.057,0,3.727-0.395,5.012-1.185c1.285-0.789,1.928-1.765,1.928-2.926c0-0.354-0.064-0.676-0.191-0.967
			c-0.129-0.29-0.328-0.54-0.6-0.75c-0.273-0.209-0.528-0.386-0.769-0.531c-0.239-0.145-0.586-0.271-1.036-0.381
			c-0.451-0.109-0.822-0.2-1.11-0.271c-0.29-0.07-0.694-0.151-1.216-0.243C779.834,265.253,779.48,265.191,779.295,265.16z"/>
		<path fill="#3C2417" d="M793.102,274.421c-0.513-0.512-0.768-1.136-0.768-1.872s0.255-1.352,0.768-1.848
			c0.512-0.496,1.119-0.744,1.824-0.744c0.703,0,1.311,0.248,1.824,0.744c0.511,0.496,0.768,1.111,0.768,1.848
			s-0.257,1.36-0.768,1.872c-0.514,0.512-1.121,0.768-1.824,0.768C794.221,275.188,793.613,274.933,793.102,274.421z"/>
	</g>
</g>
<g id="Layer_2" display="none">
	<g display="inline">
		<path fill="#B2B3B4" d="M1850.958,370.787v48h-196.055l-0.001-48H1850.958z"/>
		<path fill="#B2B3B4" d="M1841.157,357.227c-19.997,34.638-8.157,78.824,26.479,98.82c26.334,15.205,58.105,11.857,80.695-5.785
			l-64.865-37.451l28.029-48.547l64.263,37.102c3.104-27.75-9.947-55.973-35.663-70.817
			C1905.458,310.549,1861.155,322.59,1841.157,357.227z"/>
		<path fill="#B2B3B4" d="M1671.174,430.48c19.997-34.638,8.157-78.822-26.479-98.82c-26.334-15.205-58.105-11.857-80.695,5.785
			l64.866,37.449l-28.03,48.55l-64.262-37.102c-3.104,27.748,9.948,55.972,35.664,70.817
			C1606.872,477.158,1651.176,465.117,1671.174,430.48z"/>
	</g>
</g>
</svg>
