<?xml version="1.0" encoding="utf-8"?>
<!-- Generator: Adobe Illustrator 15.0.2, SVG Export Plug-In . SVG Version: 6.00 Build 0)  -->
<!DOCTYPE svg PUBLIC "-//W3C//DTD SVG 1.1//EN" "http://www.w3.org/Graphics/SVG/1.1/DTD/svg11.dtd">
<svg version="1.1" id="Layer_1" xmlns="http://www.w3.org/2000/svg" xmlns:xlink="http://www.w3.org/1999/xlink" x="0px" y="0px"
	 width="540px" height="180px" viewBox="0 0 540 180" enable-background="new 0 0 540 180" xml:space="preserve">
<g>
	<g>
		<defs>
			<rect id="SVGID_1_" x="56.566" y="15.621" width="400.24" height="111.07"/>
		</defs>
		<clipPath id="SVGID_2_">
			<use xlink:href="#SVGID_1_"  overflow="visible"/>
		</clipPath>
		
			<line clip-path="url(#SVGID_2_)" fill="none" stroke="#FAFAFA" stroke-width="1.06" stroke-linejoin="round" stroke-miterlimit="10" x1="56.566" y1="109.021" x2="456.816" y2="109.021"/>
	</g>
	<g>
		<defs>
			<rect id="SVGID_3_" x="56.566" y="15.621" width="400.24" height="111.07"/>
		</defs>
		<clipPath id="SVGID_4_">
			<use xlink:href="#SVGID_3_"  overflow="visible"/>
		</clipPath>
		
			<line clip-path="url(#SVGID_4_)" fill="none" stroke="#FAFAFA" stroke-width="1.06" stroke-linejoin="round" stroke-miterlimit="10" x1="56.566" y1="83.781" x2="456.816" y2="83.781"/>
	</g>
	<g>
		<defs>
			<rect id="SVGID_5_" x="56.566" y="15.621" width="400.24" height="111.07"/>
		</defs>
		<clipPath id="SVGID_6_">
			<use xlink:href="#SVGID_5_"  overflow="visible"/>
		</clipPath>
		
			<line clip-path="url(#SVGID_6_)" fill="none" stroke="#FAFAFA" stroke-width="1.06" stroke-linejoin="round" stroke-miterlimit="10" x1="56.566" y1="58.531" x2="456.816" y2="58.531"/>
	</g>
	<g>
		<defs>
			<rect id="SVGID_7_" x="56.566" y="15.621" width="400.24" height="111.07"/>
		</defs>
		<clipPath id="SVGID_8_">
			<use xlink:href="#SVGID_7_"  overflow="visible"/>
		</clipPath>
		
			<line clip-path="url(#SVGID_8_)" fill="none" stroke="#FAFAFA" stroke-width="1.06" stroke-linejoin="round" stroke-miterlimit="10" x1="56.566" y1="33.291" x2="456.816" y2="33.291"/>
	</g>
	<g>
		<defs>
			<rect id="SVGID_9_" x="56.566" y="15.621" width="400.24" height="111.07"/>
		</defs>
		<clipPath id="SVGID_10_">
			<use xlink:href="#SVGID_9_"  overflow="visible"/>
		</clipPath>
		
			<line clip-path="url(#SVGID_10_)" fill="none" stroke="#E5E5E5" stroke-width="0.43" stroke-linejoin="round" stroke-miterlimit="10" x1="56.566" y1="121.641" x2="456.816" y2="121.641"/>
	</g>
	<g>
		<defs>
			<rect id="SVGID_11_" x="56.566" y="15.621" width="400.24" height="111.07"/>
		</defs>
		<clipPath id="SVGID_12_">
			<use xlink:href="#SVGID_11_"  overflow="visible"/>
		</clipPath>
		
			<line clip-path="url(#SVGID_12_)" fill="none" stroke="#E5E5E5" stroke-width="0.43" stroke-linejoin="round" stroke-miterlimit="10" x1="56.566" y1="96.4" x2="456.816" y2="96.4"/>
	</g>
	<g>
		<defs>
			<rect id="SVGID_13_" x="56.566" y="15.621" width="400.24" height="111.07"/>
		</defs>
		<clipPath id="SVGID_14_">
			<use xlink:href="#SVGID_13_"  overflow="visible"/>
		</clipPath>
		
			<line clip-path="url(#SVGID_14_)" fill="none" stroke="#E5E5E5" stroke-width="0.43" stroke-linejoin="round" stroke-miterlimit="10" x1="56.566" y1="71.151" x2="456.816" y2="71.151"/>
	</g>
	<g>
		<defs>
			<rect id="SVGID_15_" x="56.566" y="15.621" width="400.24" height="111.07"/>
		</defs>
		<clipPath id="SVGID_16_">
			<use xlink:href="#SVGID_15_"  overflow="visible"/>
		</clipPath>
		
			<line clip-path="url(#SVGID_16_)" fill="none" stroke="#E5E5E5" stroke-width="0.43" stroke-linejoin="round" stroke-miterlimit="10" x1="56.566" y1="45.911" x2="456.816" y2="45.911"/>
	</g>
	<g>
		<defs>
			<rect id="SVGID_17_" x="56.566" y="15.621" width="400.24" height="111.07"/>
		</defs>
		<clipPath id="SVGID_18_">
			<use xlink:href="#SVGID_17_"  overflow="visible"/>
		</clipPath>
		
			<line clip-path="url(#SVGID_18_)" fill="none" stroke="#E5E5E5" stroke-width="0.43" stroke-linejoin="round" stroke-miterlimit="10" x1="56.566" y1="20.671" x2="456.816" y2="20.671"/>
	</g>
	<g>
		<defs>
			<rect id="SVGID_19_" x="56.566" y="15.621" width="400.24" height="111.07"/>
		</defs>
		<clipPath id="SVGID_20_">
			<use xlink:href="#SVGID_19_"  overflow="visible"/>
		</clipPath>
		
			<line clip-path="url(#SVGID_20_)" fill="none" stroke="#E5E5E5" stroke-width="0.43" stroke-linejoin="round" stroke-miterlimit="10" x1="89.926" y1="126.691" x2="89.926" y2="15.621"/>
	</g>
	<g>
		<defs>
			<rect id="SVGID_21_" x="56.566" y="15.621" width="400.24" height="111.07"/>
		</defs>
		<clipPath id="SVGID_22_">
			<use xlink:href="#SVGID_21_"  overflow="visible"/>
		</clipPath>
		
			<line clip-path="url(#SVGID_22_)" fill="none" stroke="#E5E5E5" stroke-width="0.43" stroke-linejoin="round" stroke-miterlimit="10" x1="145.516" y1="126.691" x2="145.516" y2="15.621"/>
	</g>
	<g>
		<defs>
			<rect id="SVGID_23_" x="56.566" y="15.621" width="400.24" height="111.07"/>
		</defs>
		<clipPath id="SVGID_24_">
			<use xlink:href="#SVGID_23_"  overflow="visible"/>
		</clipPath>
		
			<line clip-path="url(#SVGID_24_)" fill="none" stroke="#E5E5E5" stroke-width="0.43" stroke-linejoin="round" stroke-miterlimit="10" x1="201.106" y1="126.691" x2="201.106" y2="15.621"/>
	</g>
	<g>
		<defs>
			<rect id="SVGID_25_" x="56.566" y="15.621" width="400.24" height="111.07"/>
		</defs>
		<clipPath id="SVGID_26_">
			<use xlink:href="#SVGID_25_"  overflow="visible"/>
		</clipPath>
		
			<line clip-path="url(#SVGID_26_)" fill="none" stroke="#E5E5E5" stroke-width="0.43" stroke-linejoin="round" stroke-miterlimit="10" x1="256.687" y1="126.691" x2="256.687" y2="15.621"/>
	</g>
	<g>
		<defs>
			<rect id="SVGID_27_" x="56.566" y="15.621" width="400.24" height="111.07"/>
		</defs>
		<clipPath id="SVGID_28_">
			<use xlink:href="#SVGID_27_"  overflow="visible"/>
		</clipPath>
		
			<line clip-path="url(#SVGID_28_)" fill="none" stroke="#E5E5E5" stroke-width="0.43" stroke-linejoin="round" stroke-miterlimit="10" x1="312.276" y1="126.691" x2="312.276" y2="15.621"/>
	</g>
	<g>
		<defs>
			<rect id="SVGID_29_" x="56.566" y="15.621" width="400.24" height="111.07"/>
		</defs>
		<clipPath id="SVGID_30_">
			<use xlink:href="#SVGID_29_"  overflow="visible"/>
		</clipPath>
		
			<line clip-path="url(#SVGID_30_)" fill="none" stroke="#E5E5E5" stroke-width="0.43" stroke-linejoin="round" stroke-miterlimit="10" x1="367.866" y1="126.691" x2="367.866" y2="15.621"/>
	</g>
	<g>
		<defs>
			<rect id="SVGID_31_" x="56.566" y="15.621" width="400.24" height="111.07"/>
		</defs>
		<clipPath id="SVGID_32_">
			<use xlink:href="#SVGID_31_"  overflow="visible"/>
		</clipPath>
		
			<line clip-path="url(#SVGID_32_)" fill="none" stroke="#E5E5E5" stroke-width="0.43" stroke-linejoin="round" stroke-miterlimit="10" x1="423.456" y1="126.691" x2="423.456" y2="15.621"/>
	</g>
	<g>
		<defs>
			<rect id="SVGID_33_" x="56.566" y="15.621" width="400.24" height="111.07"/>
		</defs>
		<clipPath id="SVGID_34_">
			<use xlink:href="#SVGID_33_"  overflow="visible"/>
		</clipPath>
		<rect x="64.906" y="109.73" clip-path="url(#SVGID_34_)" fill="#587582" width="50.03" height="11.91"/>
	</g>
	<g>
		<defs>
			<rect id="SVGID_35_" x="56.566" y="15.621" width="400.24" height="111.07"/>
		</defs>
		<clipPath id="SVGID_36_">
			<use xlink:href="#SVGID_35_"  overflow="visible"/>
		</clipPath>
		<rect x="64.906" y="20.671" clip-path="url(#SVGID_36_)" fill="#E1E9ED" width="50.03" height="89.05"/>
	</g>
	<g>
		<defs>
			<rect id="SVGID_37_" x="56.566" y="15.621" width="400.24" height="111.07"/>
		</defs>
		<clipPath id="SVGID_38_">
			<use xlink:href="#SVGID_37_"  overflow="visible"/>
		</clipPath>
		<rect x="120.497" y="109.521" clip-path="url(#SVGID_38_)" fill="#587582" width="50.03" height="12.119"/>
	</g>
	<g>
		<defs>
			<rect id="SVGID_39_" x="56.566" y="15.621" width="400.24" height="111.07"/>
		</defs>
		<clipPath id="SVGID_40_">
			<use xlink:href="#SVGID_39_"  overflow="visible"/>
		</clipPath>
		<rect x="120.497" y="20.671" clip-path="url(#SVGID_40_)" fill="#E1E9ED" width="50.03" height="88.851"/>
	</g>
	<g>
		<defs>
			<rect id="SVGID_41_" x="56.566" y="15.621" width="400.24" height="111.07"/>
		</defs>
		<clipPath id="SVGID_42_">
			<use xlink:href="#SVGID_41_"  overflow="visible"/>
		</clipPath>
		<rect x="176.086" y="116.592" clip-path="url(#SVGID_42_)" fill="#587582" width="50.03" height="5.049"/>
	</g>
	<g>
		<defs>
			<rect id="SVGID_43_" x="56.566" y="15.621" width="400.24" height="111.07"/>
		</defs>
		<clipPath id="SVGID_44_">
			<use xlink:href="#SVGID_43_"  overflow="visible"/>
		</clipPath>
		<rect x="176.086" y="20.671" clip-path="url(#SVGID_44_)" fill="#E1E9ED" width="50.03" height="95.92"/>
	</g>
	<g>
		<defs>
			<rect id="SVGID_45_" x="56.566" y="15.621" width="400.24" height="111.07"/>
		</defs>
		<clipPath id="SVGID_46_">
			<use xlink:href="#SVGID_45_"  overflow="visible"/>
		</clipPath>
		<rect x="231.676" y="115.582" clip-path="url(#SVGID_46_)" fill="#587582" width="50.031" height="6.059"/>
	</g>
	<g>
		<defs>
			<rect id="SVGID_47_" x="56.566" y="15.621" width="400.24" height="111.07"/>
		</defs>
		<clipPath id="SVGID_48_">
			<use xlink:href="#SVGID_47_"  overflow="visible"/>
		</clipPath>
		<rect x="231.676" y="20.671" clip-path="url(#SVGID_48_)" fill="#E1E9ED" width="50.031" height="94.911"/>
	</g>
	<g>
		<defs>
			<rect id="SVGID_49_" x="56.566" y="15.621" width="400.24" height="111.07"/>
		</defs>
		<clipPath id="SVGID_50_">
			<use xlink:href="#SVGID_49_"  overflow="visible"/>
		</clipPath>
		<rect x="287.267" y="114.57" clip-path="url(#SVGID_50_)" fill="#587582" width="50.028" height="7.07"/>
	</g>
	<g>
		<defs>
			<rect id="SVGID_51_" x="56.566" y="15.621" width="400.24" height="111.07"/>
		</defs>
		<clipPath id="SVGID_52_">
			<use xlink:href="#SVGID_51_"  overflow="visible"/>
		</clipPath>
		<rect x="287.267" y="20.671" clip-path="url(#SVGID_52_)" fill="#E1E9ED" width="50.028" height="93.899"/>
	</g>
	<g>
		<defs>
			<rect id="SVGID_53_" x="56.566" y="15.621" width="400.24" height="111.07"/>
		</defs>
		<clipPath id="SVGID_54_">
			<use xlink:href="#SVGID_53_"  overflow="visible"/>
		</clipPath>
		<rect x="398.446" y="103.471" clip-path="url(#SVGID_54_)" fill="#587582" width="50.03" height="18.17"/>
	</g>
	<g>
		<defs>
			<rect id="SVGID_55_" x="56.566" y="15.621" width="400.24" height="111.07"/>
		</defs>
		<clipPath id="SVGID_56_">
			<use xlink:href="#SVGID_55_"  overflow="visible"/>
		</clipPath>
		<rect x="398.446" y="20.671" clip-path="url(#SVGID_56_)" fill="#E1E9ED" width="50.03" height="82.79"/>
	</g>
	<g>
		<defs>
			<rect id="SVGID_57_" x="56.566" y="15.621" width="400.24" height="111.07"/>
		</defs>
		<clipPath id="SVGID_58_">
			<use xlink:href="#SVGID_57_"  overflow="visible"/>
		</clipPath>
		
			<rect x="56.566" y="15.621" clip-path="url(#SVGID_58_)" fill="none" stroke="#7F7F7F" stroke-width="1.06" stroke-linecap="round" stroke-linejoin="round" stroke-miterlimit="10" width="400.24" height="111.07"/>
	</g>
</g>
<text transform="matrix(1 0 0 1 43.9263 125.2305)" font-family="'Helvetica'" font-size="10">0</text>
<text transform="matrix(1 0 0 1 38.3662 99.9902)" font-family="'Helvetica'" font-size="10">25</text>
<text transform="matrix(1 0 0 1 38.3662 74.7402)" font-family="'Helvetica'" font-size="10">50</text>
<text transform="matrix(1 0 0 1 38.3662 49.501)" font-family="'Helvetica'" font-size="10">75</text>
<text transform="matrix(1 0 0 1 32.8062 24.2607)" font-family="'Helvetica'" font-size="10">100</text>
<line fill="none" stroke="#000000" stroke-width="1.06" stroke-linejoin="round" stroke-miterlimit="10" x1="52.316" y1="121.641" x2="56.566" y2="121.641"/>
<line fill="none" stroke="#000000" stroke-width="1.06" stroke-linejoin="round" stroke-miterlimit="10" x1="52.316" y1="96.4" x2="56.566" y2="96.4"/>
<line fill="none" stroke="#000000" stroke-width="1.06" stroke-linejoin="round" stroke-miterlimit="10" x1="52.316" y1="71.151" x2="56.566" y2="71.151"/>
<line fill="none" stroke="#000000" stroke-width="1.06" stroke-linejoin="round" stroke-miterlimit="10" x1="52.316" y1="45.911" x2="56.566" y2="45.911"/>
<line fill="none" stroke="#000000" stroke-width="1.06" stroke-linejoin="round" stroke-miterlimit="10" x1="52.316" y1="20.671" x2="56.566" y2="20.671"/>
<line fill="none" stroke="#000000" stroke-width="1.06" stroke-linejoin="round" stroke-miterlimit="10" x1="89.926" y1="130.941" x2="89.926" y2="126.691"/>
<line fill="none" stroke="#000000" stroke-width="1.06" stroke-linejoin="round" stroke-miterlimit="10" x1="145.516" y1="130.941" x2="145.516" y2="126.691"/>
<line fill="none" stroke="#000000" stroke-width="1.06" stroke-linejoin="round" stroke-miterlimit="10" x1="201.106" y1="130.941" x2="201.106" y2="126.691"/>
<line fill="none" stroke="#000000" stroke-width="1.06" stroke-linejoin="round" stroke-miterlimit="10" x1="256.687" y1="130.941" x2="256.687" y2="126.691"/>
<line fill="none" stroke="#000000" stroke-width="1.06" stroke-linejoin="round" stroke-miterlimit="10" x1="312.276" y1="130.941" x2="312.276" y2="126.691"/>
<line fill="none" stroke="#000000" stroke-width="1.06" stroke-linejoin="round" stroke-miterlimit="10" x1="367.866" y1="130.941" x2="367.866" y2="126.691"/>
<line fill="none" stroke="#000000" stroke-width="1.06" stroke-linejoin="round" stroke-miterlimit="10" x1="423.456" y1="130.941" x2="423.456" y2="126.691"/>
<text transform="matrix(0.866 0.5 -0.5 0.866 84.3306 140.7451)" font-family="'Helvetica-Oblique'" font-size="10">Macaca</text>
<text transform="matrix(0.866 0.5 -0.5 0.866 139.9204 140.7451)" font-family="'Helvetica-Oblique'" font-size="10">Theropithecus</text>
<text transform="matrix(0.866 0.5 -0.5 0.866 195.5107 140.7451)" font-family="'Helvetica-Oblique'" font-size="10">Mand</text>
<text transform="matrix(0.866 0.5 -0.5 0.866 217.1743 153.252)" font-family="'Helvetica-Oblique'" font-size="10">r</text>
<text transform="matrix(0.866 0.5 -0.5 0.866 220.1782 154.9883)" font-family="'Helvetica-Oblique'" font-size="10">illus</text>
<text transform="matrix(0.866 0.5 -0.5 0.866 251.0908 140.7451)" font-family="'Helvetica-Oblique'" font-size="10">Cercoce</text>
<text transform="matrix(0.866 0.5 -0.5 0.866 283.3379 159.3613)" font-family="'Helvetica-Oblique'" font-size="10">b</text>
<text transform="matrix(0.866 0.5 -0.5 0.866 287.9814 162.043)" font-family="'Helvetica-Oblique'" font-size="10">us</text>
<text transform="matrix(0.866 0.5 -0.5 0.866 306.6807 140.7461)" font-family="'Helvetica-Oblique'" font-size="10">Lophoce</text>
<text transform="matrix(0.866 0.5 -0.5 0.866 339.9082 159.9277)" font-family="'Helvetica-Oblique'" font-size="10">b</text>
<text transform="matrix(0.866 0.5 -0.5 0.866 344.5508 162.6094)" font-family="'Helvetica-Oblique'" font-size="10">us</text>
<text transform="matrix(0.866 0.5 -0.5 0.866 362.2705 140.7441)" font-family="'Helvetica-Oblique'" font-size="10">Rung</text>
<text transform="matrix(0.866 0.5 -0.5 0.866 382.9727 152.6963)" font-family="'Helvetica-Oblique'" font-size="10">w</text>
<text transform="matrix(0.866 0.5 -0.5 0.866 389.1406 156.2588)" font-family="'Helvetica-Oblique'" font-size="10">ece</text>
<text transform="matrix(0.866 0.5 -0.5 0.866 403.1025 164.3213)" font-family="'Helvetica-Oblique'" font-size="10">b</text>
<text transform="matrix(0.866 0.5 -0.5 0.866 407.7461 167)" font-family="'Helvetica-Oblique'" font-size="10">us</text>
<text transform="matrix(0.866 0.5 -0.5 0.866 417.8604 140.7451)" font-family="'Helvetica-Oblique'" font-size="10">P</text>
<text transform="matrix(0.866 0.5 -0.5 0.866 423.2988 143.8848)" font-family="'Helvetica-Oblique'" font-size="10">apio</text>
<text transform="matrix(-6.123234e-17 -1 1 -6.123234e-17 29.2061 101.541)" font-family="'Helvetica'" font-size="12">P</text>
<text transform="matrix(-6.123234e-17 -1 1 -6.123234e-17 29.2061 94.125)" font-family="'Helvetica'" font-size="12">ercentage</text>
<text transform="matrix(1 0 0 1 471.0957 55.3018)" font-family="'Helvetica-Bold'" font-size="10">Activity</text>
<rect x="471.096" y="59.621" fill="#FFFFFF" width="17.279" height="17.28"/>
<rect x="471.096" y="59.621" fill="none" stroke="#CCCCCC" stroke-width="1.06" stroke-linecap="round" stroke-linejoin="round" stroke-miterlimit="10" width="17.279" height="17.28"/>
<rect x="471.096" y="59.621" fill="#587582" width="17.279" height="17.28"/>
<rect x="471.096" y="76.901" fill="#FFFFFF" width="17.279" height="17.281"/>
<rect x="471.096" y="76.901" fill="none" stroke="#CCCCCC" stroke-width="1.06" stroke-linecap="round" stroke-linejoin="round" stroke-miterlimit="10" width="17.279" height="17.281"/>
<rect x="471.096" y="76.901" fill="#E1E9ED" width="17.279" height="17.281"/>
<text transform="matrix(1 0 0 1 490.5361 71.8516)" font-family="'Helvetica'" font-size="10">Groom</text>
<text transform="matrix(1 0 0 1 490.5361 89.1309)" font-family="'Helvetica'" font-size="10">Other</text>
<text transform="matrix(1 0 0 1 112.2476 12.0215)" font-family="'Helvetica'" font-size="14">&quot;Groom&quot; percentage </text>
<text transform="matrix(1 0 0 1 242.8076 12.0215)" font-family="'Helvetica'" font-size="14">b</text>
<text transform="matrix(1 0 0 1 250.3135 12.0215)" font-family="'Helvetica'" font-size="14">y ge</text>
<text transform="matrix(1 0 0 1 276.7754 12.0215)" font-family="'Helvetica'" font-size="14">n</text>
<text transform="matrix(1 0 0 1 284.4199 12.0215)" font-family="'Helvetica'" font-size="14">us (tribe Papionini)</text>
</svg>
