<?xml version="1.0" encoding="utf-8"?>
<!-- Generator: Adobe Illustrator 15.0.2, SVG Export Plug-In . SVG Version: 6.00 Build 0)  -->
<!DOCTYPE svg PUBLIC "-//W3C//DTD SVG 1.1//EN" "http://www.w3.org/Graphics/SVG/1.1/DTD/svg11.dtd">
<svg version="1.1" id="Layer_1" xmlns="http://www.w3.org/2000/svg" xmlns:xlink="http://www.w3.org/1999/xlink" x="0px" y="0px"
	 width="720px" height="420px" viewBox="40 -10 720 420" enable-background="new 40 -10 720 420" xml:space="preserve">
<path fill="none" stroke="#000000" stroke-miterlimit="10" d="M403.916,140.25h45c5.523,0,10,4.477,10,10v3c0,5.523-4.477,10-10,10
	h-45c-5.521,0-10-4.477-10-10v-3C393.916,144.727,398.395,140.25,403.916,140.25z"/>
<path d="M404.379,148.131c0.486,0.243,0.859,0.559,1.113,0.946c0.246,0.369,0.41,0.8,0.492,1.292
	c0.074,0.338,0.109,0.875,0.109,1.613h-5.365c0.021,0.742,0.197,1.339,0.525,1.787c0.328,0.449,0.836,0.674,1.525,0.674
	c0.643,0,1.154-0.212,1.537-0.636c0.219-0.246,0.375-0.53,0.465-0.854h1.211c-0.033,0.27-0.139,0.568-0.318,0.898
	c-0.18,0.331-0.381,0.602-0.605,0.811c-0.373,0.365-0.836,0.611-1.387,0.738c-0.297,0.072-0.631,0.109-1.006,0.109
	c-0.91,0-1.684-0.332-2.316-0.994c-0.635-0.664-0.951-1.592-0.951-2.786c0-1.176,0.32-2.13,0.957-2.864
	c0.639-0.734,1.473-1.101,2.502-1.101C403.387,147.765,403.891,147.887,404.379,148.131z M404.83,151.005
	c-0.051-0.533-0.166-0.96-0.35-1.278c-0.336-0.592-0.9-0.889-1.688-0.889c-0.566,0-1.039,0.204-1.422,0.611
	c-0.383,0.408-0.586,0.927-0.609,1.556H404.83z M406.908,147.929h1.592l1.682,2.577l1.703-2.577l1.496,0.034l-2.467,3.534
	l2.576,3.753h-1.572l-1.818-2.748l-1.764,2.748h-1.559l2.578-3.753L406.908,147.929z M415.254,148.024h1.43v1.49h-1.43V148.024z
	 M415.254,153.76h1.43v1.49h-1.43V153.76z M423.328,149.809c0.637,0,1.143-0.127,1.514-0.383s0.557-0.715,0.557-1.381
	c0-0.715-0.26-1.203-0.779-1.463c-0.277-0.137-0.648-0.205-1.113-0.205h-3.322v3.432H423.328z M418.822,145.208h4.648
	c0.766,0,1.396,0.112,1.895,0.335c0.943,0.428,1.414,1.219,1.414,2.372c0,0.602-0.123,1.094-0.373,1.477
	c-0.248,0.383-0.596,0.69-1.041,0.923c0.391,0.16,0.686,0.369,0.885,0.629s0.309,0.682,0.332,1.265l0.047,1.347
	c0.014,0.383,0.047,0.668,0.096,0.854c0.082,0.319,0.229,0.524,0.438,0.615v0.226h-1.668c-0.045-0.086-0.082-0.198-0.109-0.335
	s-0.049-0.401-0.068-0.793l-0.082-1.675c-0.031-0.656-0.275-1.096-0.73-1.319c-0.26-0.123-0.668-0.185-1.225-0.185h-3.096v4.307
	h-1.361V145.208z M429.938,154.143c0.26,0.205,0.568,0.308,0.924,0.308c0.432,0,0.852-0.101,1.258-0.301
	c0.684-0.333,1.025-0.878,1.025-1.634v-0.991c-0.15,0.096-0.344,0.175-0.582,0.239c-0.236,0.064-0.469,0.109-0.697,0.137
	l-0.744,0.096c-0.447,0.059-0.781,0.152-1.006,0.28c-0.377,0.214-0.566,0.556-0.566,1.025
	C429.549,153.657,429.678,153.938,429.938,154.143z M432.529,150.813c0.281-0.036,0.471-0.155,0.566-0.355
	c0.055-0.109,0.082-0.267,0.082-0.472c0-0.42-0.148-0.724-0.447-0.912c-0.299-0.189-0.727-0.284-1.281-0.284
	c-0.643,0-1.1,0.173-1.367,0.52c-0.15,0.191-0.248,0.476-0.295,0.854h-1.148c0.023-0.902,0.316-1.53,0.879-1.883
	c0.562-0.354,1.215-0.53,1.959-0.53c0.861,0,1.561,0.164,2.098,0.492c0.533,0.328,0.801,0.839,0.801,1.531v4.218
	c0,0.127,0.025,0.23,0.078,0.308s0.162,0.116,0.332,0.116c0.055,0,0.115-0.004,0.184-0.01c0.068-0.008,0.143-0.018,0.219-0.031
	v0.909c-0.191,0.055-0.336,0.089-0.438,0.103c-0.1,0.014-0.236,0.021-0.41,0.021c-0.424,0-0.73-0.15-0.922-0.451
	c-0.102-0.159-0.172-0.386-0.213-0.677c-0.25,0.328-0.609,0.613-1.08,0.854c-0.469,0.241-0.986,0.362-1.551,0.362
	c-0.68,0-1.234-0.206-1.664-0.619c-0.432-0.412-0.646-0.928-0.646-1.548c0-0.679,0.211-1.206,0.635-1.579s0.98-0.604,1.668-0.69
	L432.529,150.813z M436.965,145.693c0.287-0.42,0.842-0.629,1.662-0.629c0.076,0,0.156,0.002,0.238,0.007s0.176,0.011,0.281,0.021
	v1.121c-0.129-0.01-0.221-0.015-0.277-0.018c-0.057-0.002-0.111-0.003-0.16-0.003c-0.375,0-0.598,0.097-0.67,0.29
	c-0.074,0.194-0.109,0.688-0.109,1.48h1.217v0.971h-1.23v6.316h-1.217v-6.316h-1.02v-0.971h1.02v-1.148
	C436.717,146.305,436.807,145.93,436.965,145.693z M440.281,147.963h1.25v7.287h-1.25V147.963z M440.281,145.208h1.25v1.395h-1.25
	V145.208z M443.363,145.208h1.184v5.831l3.158-3.11h1.572l-2.803,2.741l2.959,4.58h-1.572l-2.283-3.691l-1.031,0.943v2.748h-1.184
	V145.208z M450.391,147.963h1.252v7.287h-1.252V147.963z M450.391,145.208h1.252v1.395h-1.252V145.208z"/>
<rect x="223.916" y="94.75" fill="none" stroke="#000000" stroke-miterlimit="10" stroke-opacity="0" width="71" height="21"/>
<path d="M233.598,102.647c0.418,0.209,0.736,0.479,0.955,0.812c0.211,0.316,0.352,0.686,0.422,1.107
	c0.062,0.289,0.094,0.75,0.094,1.383h-4.6c0.02,0.637,0.17,1.147,0.451,1.532s0.717,0.577,1.307,0.577
	c0.551,0,0.99-0.182,1.318-0.545c0.188-0.211,0.32-0.455,0.398-0.732h1.037c-0.027,0.23-0.117,0.487-0.271,0.771
	s-0.328,0.515-0.52,0.694c-0.32,0.312-0.717,0.523-1.189,0.633c-0.254,0.062-0.541,0.094-0.861,0.094
	c-0.781,0-1.443-0.284-1.986-0.853s-0.814-1.364-0.814-2.388c0-1.008,0.273-1.826,0.82-2.455s1.262-0.943,2.145-0.943
	C232.748,102.334,233.18,102.438,233.598,102.647z M233.984,105.111c-0.043-0.457-0.143-0.822-0.299-1.096
	c-0.289-0.508-0.771-0.762-1.447-0.762c-0.484,0-0.891,0.175-1.219,0.524s-0.502,0.794-0.521,1.333H233.984z M235.766,102.475h1.365
	l1.441,2.209l1.459-2.209l1.283,0.029l-2.115,3.029l2.209,3.217h-1.348l-1.559-2.355l-1.512,2.355h-1.336l2.209-3.217
	L235.766,102.475z M242.92,102.557h1.225v1.277h-1.225V102.557z M242.92,107.473h1.225v1.277h-1.225V107.473z M245.809,100.143h1.67
	l2.473,7.277l2.455-7.277h1.652v8.607h-1.107v-5.08c0-0.176,0.004-0.467,0.012-0.873s0.012-0.842,0.012-1.307l-2.455,7.26h-1.154
	l-2.473-7.26v0.264c0,0.211,0.006,0.532,0.016,0.964s0.014,0.749,0.014,0.952v5.08h-1.113V100.143z M256.836,107.801
	c0.223,0.176,0.486,0.264,0.791,0.264c0.371,0,0.73-0.086,1.078-0.258c0.586-0.285,0.879-0.752,0.879-1.4v-0.85
	c-0.129,0.082-0.295,0.15-0.498,0.205s-0.402,0.094-0.598,0.117l-0.639,0.082c-0.383,0.051-0.67,0.131-0.861,0.24
	c-0.324,0.184-0.486,0.477-0.486,0.879C256.502,107.385,256.613,107.625,256.836,107.801z M259.057,104.947
	c0.242-0.031,0.404-0.133,0.486-0.305c0.047-0.094,0.07-0.229,0.07-0.404c0-0.359-0.127-0.62-0.383-0.782s-0.623-0.243-1.1-0.243
	c-0.551,0-0.941,0.148-1.172,0.445c-0.129,0.164-0.213,0.408-0.252,0.732h-0.984c0.02-0.773,0.271-1.312,0.754-1.614
	s1.041-0.454,1.678-0.454c0.738,0,1.338,0.141,1.799,0.422c0.457,0.281,0.686,0.719,0.686,1.312v3.615
	c0,0.109,0.023,0.197,0.068,0.264s0.139,0.1,0.283,0.1c0.047,0,0.1-0.003,0.158-0.009s0.121-0.015,0.188-0.026v0.779
	c-0.164,0.047-0.289,0.076-0.375,0.088s-0.203,0.018-0.352,0.018c-0.363,0-0.627-0.129-0.791-0.387
	c-0.086-0.137-0.146-0.33-0.182-0.58c-0.215,0.281-0.523,0.525-0.926,0.732s-0.846,0.311-1.33,0.311
	c-0.582,0-1.057-0.177-1.426-0.53s-0.555-0.796-0.555-1.327c0-0.582,0.182-1.033,0.545-1.354s0.84-0.518,1.43-0.592L259.057,104.947
	z M262.367,102.475h1.002v0.891c0.297-0.367,0.611-0.631,0.943-0.791s0.701-0.24,1.107-0.24c0.891,0,1.492,0.311,1.805,0.932
	c0.172,0.34,0.258,0.826,0.258,1.459v4.025h-1.072v-3.955c0-0.383-0.057-0.691-0.17-0.926c-0.188-0.391-0.527-0.586-1.02-0.586
	c-0.25,0-0.455,0.025-0.615,0.076c-0.289,0.086-0.543,0.258-0.762,0.516c-0.176,0.207-0.289,0.421-0.342,0.642
	s-0.08,0.536-0.08,0.946v3.287h-1.055V102.475z M270.137,107.373c0.285,0.453,0.742,0.68,1.371,0.68c0.488,0,0.891-0.21,1.205-0.63
	s0.471-1.022,0.471-1.808c0-0.793-0.162-1.38-0.486-1.761s-0.725-0.571-1.201-0.571c-0.531,0-0.961,0.203-1.291,0.609
	s-0.496,1.004-0.496,1.793C269.709,106.357,269.852,106.92,270.137,107.373z M272.504,102.668c0.188,0.117,0.4,0.322,0.639,0.615
	v-3.17h1.014v8.637h-0.949v-0.873c-0.246,0.387-0.537,0.666-0.873,0.838s-0.721,0.258-1.154,0.258c-0.699,0-1.305-0.294-1.816-0.882
	s-0.768-1.37-0.768-2.347c0-0.914,0.234-1.706,0.701-2.376s1.133-1.005,2-1.005C271.777,102.363,272.18,102.465,272.504,102.668z
	 M275.744,102.475h1.002v1.084c0.082-0.211,0.283-0.468,0.604-0.771s0.689-0.454,1.107-0.454c0.02,0,0.053,0.002,0.1,0.006
	s0.127,0.012,0.24,0.023v1.113c-0.062-0.012-0.119-0.02-0.172-0.023s-0.111-0.006-0.174-0.006c-0.531,0-0.939,0.171-1.225,0.513
	s-0.428,0.735-0.428,1.181v3.609h-1.055V102.475z M279.711,102.504h1.072v6.246h-1.072V102.504z M279.711,100.143h1.072v1.195
	h-1.072V100.143z M282.406,100.143h1.055v8.607h-1.055V100.143z M285.072,100.143h1.055v8.607h-1.055V100.143z"/>
<rect x="222.416" y="188.75" fill="none" stroke="#000000" stroke-miterlimit="10" stroke-opacity="0" width="89" height="21"/>
<path d="M229.285,201.373c0.285,0.453,0.742,0.68,1.371,0.68c0.488,0,0.891-0.21,1.205-0.63s0.471-1.022,0.471-1.808
	c0-0.793-0.162-1.38-0.486-1.761s-0.725-0.571-1.201-0.571c-0.531,0-0.961,0.203-1.291,0.609s-0.496,1.004-0.496,1.793
	C228.857,200.357,229,200.92,229.285,201.373z M231.652,196.668c0.188,0.117,0.4,0.322,0.639,0.615v-3.17h1.014v8.637h-0.949v-0.873
	c-0.246,0.387-0.537,0.666-0.873,0.838s-0.721,0.258-1.154,0.258c-0.699,0-1.305-0.294-1.816-0.882s-0.768-1.37-0.768-2.347
	c0-0.914,0.234-1.706,0.701-2.376s1.133-1.005,2-1.005C230.926,196.363,231.328,196.465,231.652,196.668z M235.35,196.475
	l1.207,4.945l1.225-4.945h1.184l1.23,4.916l1.283-4.916h1.055l-1.822,6.275h-1.096l-1.277-4.857l-1.236,4.857h-1.096l-1.811-6.275
	H235.35z M247.676,196.809c0.443,0.344,0.709,0.936,0.799,1.775h-1.025c-0.062-0.387-0.205-0.708-0.428-0.964
	s-0.58-0.384-1.072-0.384c-0.672,0-1.152,0.328-1.441,0.984c-0.188,0.426-0.281,0.951-0.281,1.576c0,0.629,0.133,1.158,0.398,1.588
	s0.684,0.645,1.254,0.645c0.438,0,0.785-0.134,1.041-0.401s0.432-0.634,0.529-1.099h1.025c-0.117,0.832-0.41,1.44-0.879,1.825
	s-1.068,0.577-1.799,0.577c-0.82,0-1.475-0.3-1.963-0.899s-0.732-1.349-0.732-2.247c0-1.102,0.268-1.959,0.803-2.572
	s1.217-0.92,2.045-0.92C246.656,196.293,247.232,196.465,247.676,196.809z M250.086,196.557h1.225v1.277h-1.225V196.557z
	 M250.086,201.473h1.225v1.277h-1.225V201.473z M260.094,195.373c0.57,0.762,0.855,1.736,0.855,2.924
	c0,1.285-0.326,2.354-0.979,3.205c-0.766,1-1.857,1.5-3.275,1.5c-1.324,0-2.365-0.438-3.123-1.312
	c-0.676-0.844-1.014-1.91-1.014-3.199c0-1.164,0.289-2.16,0.867-2.988c0.742-1.062,1.84-1.594,3.293-1.594
	C258.238,193.908,259.363,194.396,260.094,195.373z M259.066,200.854c0.459-0.736,0.688-1.583,0.688-2.54
	c0-1.012-0.264-1.826-0.793-2.443s-1.254-0.926-2.172-0.926c-0.891,0-1.617,0.306-2.18,0.917s-0.844,1.513-0.844,2.704
	c0,0.953,0.242,1.757,0.725,2.411s1.264,0.981,2.346,0.981C257.863,201.959,258.607,201.591,259.066,200.854z M262.227,196.475
	h1.002v1.084c0.082-0.211,0.283-0.468,0.604-0.771s0.689-0.454,1.107-0.454c0.02,0,0.053,0.002,0.1,0.006s0.127,0.012,0.24,0.023
	v1.113c-0.062-0.012-0.119-0.02-0.172-0.023s-0.111-0.006-0.174-0.006c-0.531,0-0.939,0.171-1.225,0.513s-0.428,0.735-0.428,1.181
	v3.609h-1.055V196.475z M269.697,196.727c0.199,0.137,0.402,0.336,0.609,0.598v-0.791h0.973v5.707c0,0.797-0.117,1.426-0.352,1.887
	c-0.438,0.852-1.264,1.277-2.479,1.277c-0.676,0-1.244-0.151-1.705-0.454s-0.719-0.776-0.773-1.421h1.072
	c0.051,0.281,0.152,0.498,0.305,0.65c0.238,0.234,0.613,0.352,1.125,0.352c0.809,0,1.338-0.285,1.588-0.855
	c0.148-0.336,0.217-0.936,0.205-1.799c-0.211,0.32-0.465,0.559-0.762,0.715s-0.689,0.234-1.178,0.234
	c-0.68,0-1.273-0.241-1.783-0.724s-0.766-1.28-0.766-2.394c0-1.051,0.258-1.871,0.771-2.461s1.133-0.885,1.859-0.885
	C268.9,196.363,269.33,196.484,269.697,196.727z M269.826,197.857c-0.32-0.375-0.729-0.562-1.225-0.562
	c-0.742,0-1.25,0.348-1.523,1.043c-0.145,0.371-0.217,0.857-0.217,1.459c0,0.707,0.145,1.245,0.432,1.614s0.672,0.554,1.156,0.554
	c0.758,0,1.291-0.342,1.6-1.025c0.172-0.387,0.258-0.838,0.258-1.354C270.307,198.809,270.146,198.232,269.826,197.857z
	 M274.01,201.801c0.223,0.176,0.486,0.264,0.791,0.264c0.371,0,0.73-0.086,1.078-0.258c0.586-0.285,0.879-0.752,0.879-1.4v-0.85
	c-0.129,0.082-0.295,0.15-0.498,0.205s-0.402,0.094-0.598,0.117l-0.639,0.082c-0.383,0.051-0.67,0.131-0.861,0.24
	c-0.324,0.184-0.486,0.477-0.486,0.879C273.676,201.385,273.787,201.625,274.01,201.801z M276.23,198.947
	c0.242-0.031,0.404-0.133,0.486-0.305c0.047-0.094,0.07-0.229,0.07-0.404c0-0.359-0.127-0.62-0.383-0.782s-0.623-0.243-1.1-0.243
	c-0.551,0-0.941,0.148-1.172,0.445c-0.129,0.164-0.213,0.408-0.252,0.732h-0.984c0.02-0.773,0.271-1.312,0.754-1.614
	s1.041-0.454,1.678-0.454c0.738,0,1.338,0.141,1.799,0.422c0.457,0.281,0.686,0.719,0.686,1.312v3.615
	c0,0.109,0.023,0.197,0.068,0.264s0.139,0.1,0.283,0.1c0.047,0,0.1-0.003,0.158-0.009s0.121-0.015,0.188-0.026v0.779
	c-0.164,0.047-0.289,0.076-0.375,0.088s-0.203,0.018-0.352,0.018c-0.363,0-0.627-0.129-0.791-0.387
	c-0.086-0.137-0.146-0.33-0.182-0.58c-0.215,0.281-0.523,0.525-0.926,0.732s-0.846,0.311-1.33,0.311
	c-0.582,0-1.057-0.177-1.426-0.53s-0.555-0.796-0.555-1.327c0-0.582,0.182-1.033,0.545-1.354s0.84-0.518,1.43-0.592L276.23,198.947z
	 M279.541,196.475h1.002v0.891c0.297-0.367,0.611-0.631,0.943-0.791s0.701-0.24,1.107-0.24c0.891,0,1.492,0.311,1.805,0.932
	c0.172,0.34,0.258,0.826,0.258,1.459v4.025h-1.072v-3.955c0-0.383-0.057-0.691-0.17-0.926c-0.188-0.391-0.527-0.586-1.02-0.586
	c-0.25,0-0.455,0.025-0.615,0.076c-0.289,0.086-0.543,0.258-0.762,0.516c-0.176,0.207-0.289,0.421-0.342,0.642
	s-0.08,0.536-0.08,0.946v3.287h-1.055V196.475z M286.215,196.504h1.072v6.246h-1.072V196.504z M286.215,194.143h1.072v1.195h-1.072
	V194.143z M289.508,200.781c0.031,0.352,0.119,0.621,0.264,0.809c0.266,0.34,0.727,0.51,1.383,0.51c0.391,0,0.734-0.085,1.031-0.255
	s0.445-0.433,0.445-0.788c0-0.27-0.119-0.475-0.357-0.615c-0.152-0.086-0.453-0.186-0.902-0.299l-0.838-0.211
	c-0.535-0.133-0.93-0.281-1.184-0.445c-0.453-0.285-0.68-0.68-0.68-1.184c0-0.594,0.215-1.074,0.643-1.441s1.002-0.551,1.725-0.551
	c0.945,0,1.627,0.277,2.045,0.832c0.262,0.352,0.389,0.73,0.381,1.137h-0.996c-0.02-0.238-0.104-0.455-0.252-0.65
	c-0.242-0.277-0.662-0.416-1.26-0.416c-0.398,0-0.699,0.076-0.904,0.229s-0.309,0.354-0.309,0.604c0,0.273,0.135,0.492,0.404,0.656
	c0.156,0.098,0.387,0.184,0.691,0.258l0.697,0.17c0.758,0.184,1.266,0.361,1.523,0.533c0.41,0.27,0.615,0.693,0.615,1.271
	c0,0.559-0.211,1.041-0.635,1.447s-1.07,0.609-1.938,0.609c-0.934,0-1.594-0.212-1.982-0.636s-0.598-0.948-0.625-1.573H289.508z
	 M294.881,196.475h1.043v0.891c0.25-0.309,0.477-0.533,0.68-0.674c0.348-0.238,0.742-0.357,1.184-0.357
	c0.5,0,0.902,0.123,1.207,0.369c0.172,0.141,0.328,0.348,0.469,0.621c0.234-0.336,0.51-0.585,0.826-0.747s0.672-0.243,1.066-0.243
	c0.844,0,1.418,0.305,1.723,0.914c0.164,0.328,0.246,0.77,0.246,1.324v4.178h-1.096v-4.359c0-0.418-0.104-0.705-0.312-0.861
	s-0.465-0.234-0.766-0.234c-0.414,0-0.77,0.139-1.068,0.416s-0.449,0.74-0.449,1.389v3.65h-1.072v-4.096
	c0-0.426-0.051-0.736-0.152-0.932c-0.16-0.293-0.459-0.439-0.896-0.439c-0.398,0-0.76,0.154-1.086,0.463s-0.49,0.867-0.49,1.676
	v3.328h-1.055V196.475z"/>
<rect x="638.584" y="158.75" fill="#EEEEEE" width="50" height="21"/>
<rect x="638.584" y="158.75" fill="none" stroke="#000000" stroke-miterlimit="10" stroke-opacity="0" width="50" height="21"/>
<path d="M647.135,164.143l-0.176,3.445h-0.709l-0.182-3.445H647.135z M645.125,164.143l-0.17,3.445h-0.709l-0.182-3.445H645.125z
	 M652.76,168.086c0.547,0,0.979-0.109,1.297-0.328s0.479-0.613,0.479-1.184c0-0.613-0.223-1.031-0.668-1.254
	c-0.238-0.117-0.557-0.176-0.955-0.176h-2.848v2.941H652.76z M648.898,164.143h3.984c0.656,0,1.197,0.096,1.623,0.287
	c0.809,0.367,1.213,1.045,1.213,2.033c0,0.516-0.107,0.938-0.32,1.266s-0.51,0.592-0.893,0.791c0.336,0.137,0.588,0.316,0.758,0.539
	s0.266,0.584,0.285,1.084l0.041,1.154c0.012,0.328,0.039,0.572,0.082,0.732c0.07,0.273,0.195,0.449,0.375,0.527v0.193h-1.43
	c-0.039-0.074-0.07-0.17-0.094-0.287s-0.043-0.344-0.059-0.68l-0.07-1.436c-0.027-0.562-0.236-0.939-0.627-1.131
	c-0.223-0.105-0.572-0.158-1.049-0.158h-2.654v3.691h-1.166V164.143z M658.426,171.801c0.223,0.176,0.486,0.264,0.791,0.264
	c0.371,0,0.73-0.086,1.078-0.258c0.586-0.285,0.879-0.752,0.879-1.4v-0.85c-0.129,0.082-0.295,0.15-0.498,0.205
	s-0.402,0.094-0.598,0.117l-0.639,0.082c-0.383,0.051-0.67,0.131-0.861,0.24c-0.324,0.184-0.486,0.477-0.486,0.879
	C658.092,171.385,658.203,171.625,658.426,171.801z M660.646,168.947c0.242-0.031,0.404-0.133,0.486-0.305
	c0.047-0.094,0.07-0.229,0.07-0.404c0-0.359-0.129-0.62-0.385-0.782s-0.621-0.243-1.098-0.243c-0.551,0-0.941,0.148-1.172,0.445
	c-0.129,0.164-0.213,0.408-0.252,0.732h-0.984c0.02-0.773,0.27-1.312,0.752-1.614s1.043-0.454,1.68-0.454
	c0.738,0,1.338,0.141,1.799,0.422c0.457,0.281,0.686,0.719,0.686,1.312v3.615c0,0.109,0.021,0.197,0.066,0.264s0.141,0.1,0.285,0.1
	c0.047,0,0.1-0.003,0.158-0.009s0.121-0.015,0.188-0.026v0.779c-0.164,0.047-0.289,0.076-0.375,0.088s-0.203,0.018-0.352,0.018
	c-0.363,0-0.627-0.129-0.791-0.387c-0.086-0.137-0.146-0.33-0.182-0.58c-0.215,0.281-0.523,0.525-0.926,0.732
	s-0.846,0.311-1.33,0.311c-0.582,0-1.059-0.177-1.428-0.53s-0.553-0.796-0.553-1.327c0-0.582,0.182-1.033,0.545-1.354
	s0.84-0.518,1.43-0.592L660.646,168.947z M664.449,164.559c0.246-0.359,0.721-0.539,1.424-0.539c0.066,0,0.135,0.002,0.205,0.006
	s0.15,0.01,0.24,0.018v0.961c-0.109-0.008-0.189-0.013-0.238-0.015s-0.094-0.003-0.137-0.003c-0.32,0-0.512,0.083-0.574,0.249
	s-0.094,0.589-0.094,1.269h1.043v0.832h-1.055v5.414h-1.043v-5.414h-0.873v-0.832h0.873v-0.984
	C664.236,165.082,664.312,164.762,664.449,164.559z M667.291,166.504h1.072v6.246h-1.072V166.504z M667.291,164.143h1.072v1.195
	h-1.072V164.143z M669.934,164.143h1.014v4.998l2.707-2.666h1.348l-2.402,2.35l2.537,3.926h-1.348l-1.957-3.164l-0.885,0.809v2.355
	h-1.014V164.143z M675.957,166.504h1.072v6.246h-1.072V166.504z M675.957,164.143h1.072v1.195h-1.072V164.143z M681.4,164.143
	l-0.176,3.445h-0.709l-0.182-3.445H681.4z M679.391,164.143l-0.17,3.445h-0.709l-0.182-3.445H679.391z"/>
<rect x="227.916" y="19.75" fill="#EEEEEE" width="63" height="21"/>
<rect x="227.916" y="19.75" fill="none" stroke="#000000" stroke-miterlimit="10" stroke-opacity="0" width="63" height="21"/>
<path d="M236.467,25.143l-0.176,3.445h-0.709l-0.182-3.445H236.467z M234.457,25.143l-0.17,3.445h-0.709l-0.182-3.445H234.457z
	 M237.949,27.475h1.043v0.891c0.25-0.309,0.477-0.533,0.68-0.674c0.348-0.238,0.742-0.357,1.184-0.357
	c0.5,0,0.902,0.123,1.207,0.369c0.172,0.141,0.328,0.348,0.469,0.621c0.234-0.336,0.51-0.585,0.826-0.747s0.672-0.243,1.066-0.243
	c0.844,0,1.418,0.305,1.723,0.914c0.164,0.328,0.246,0.77,0.246,1.324v4.178h-1.096v-4.359c0-0.418-0.104-0.705-0.312-0.861
	s-0.465-0.234-0.766-0.234c-0.414,0-0.77,0.139-1.068,0.416s-0.449,0.74-0.449,1.389v3.65h-1.072v-4.096
	c0-0.426-0.051-0.736-0.152-0.932c-0.16-0.293-0.459-0.439-0.896-0.439c-0.398,0-0.76,0.154-1.086,0.463s-0.49,0.867-0.49,1.676
	v3.328h-1.055V27.475z M249.088,32.801c0.223,0.176,0.486,0.264,0.791,0.264c0.371,0,0.73-0.086,1.078-0.258
	c0.586-0.285,0.879-0.752,0.879-1.4v-0.85c-0.129,0.082-0.295,0.15-0.498,0.205s-0.402,0.094-0.598,0.117l-0.639,0.082
	c-0.383,0.051-0.67,0.131-0.861,0.24c-0.324,0.184-0.486,0.477-0.486,0.879C248.754,32.385,248.865,32.625,249.088,32.801z
	 M251.309,29.947c0.242-0.031,0.404-0.133,0.486-0.305c0.047-0.094,0.07-0.229,0.07-0.404c0-0.359-0.127-0.62-0.383-0.782
	s-0.623-0.243-1.1-0.243c-0.551,0-0.941,0.148-1.172,0.445c-0.129,0.164-0.213,0.408-0.252,0.732h-0.984
	c0.02-0.773,0.271-1.312,0.754-1.614s1.041-0.454,1.678-0.454c0.738,0,1.338,0.141,1.799,0.422c0.457,0.281,0.686,0.719,0.686,1.312
	v3.615c0,0.109,0.023,0.197,0.068,0.264s0.139,0.1,0.283,0.1c0.047,0,0.1-0.003,0.158-0.009s0.121-0.015,0.188-0.026v0.779
	c-0.164,0.047-0.289,0.076-0.375,0.088s-0.203,0.018-0.352,0.018c-0.363,0-0.627-0.129-0.791-0.387
	c-0.086-0.137-0.146-0.33-0.182-0.58c-0.215,0.281-0.523,0.525-0.926,0.732s-0.846,0.311-1.33,0.311
	c-0.582,0-1.057-0.177-1.426-0.53s-0.555-0.796-0.555-1.327c0-0.582,0.182-1.033,0.545-1.354s0.84-0.518,1.43-0.592L251.309,29.947z
	 M254.619,27.475h1.002v0.891c0.297-0.367,0.611-0.631,0.943-0.791s0.701-0.24,1.107-0.24c0.891,0,1.492,0.311,1.805,0.932
	c0.172,0.34,0.258,0.826,0.258,1.459v4.025h-1.072v-3.955c0-0.383-0.057-0.691-0.17-0.926c-0.188-0.391-0.527-0.586-1.02-0.586
	c-0.25,0-0.455,0.025-0.615,0.076c-0.289,0.086-0.543,0.258-0.762,0.516c-0.176,0.207-0.289,0.421-0.342,0.642
	s-0.08,0.536-0.08,0.946v3.287h-1.055V27.475z M262.389,32.373c0.285,0.453,0.742,0.68,1.371,0.68c0.488,0,0.891-0.21,1.205-0.63
	s0.471-1.022,0.471-1.808c0-0.793-0.162-1.38-0.486-1.761s-0.725-0.571-1.201-0.571c-0.531,0-0.961,0.203-1.291,0.609
	s-0.496,1.004-0.496,1.793C261.961,31.357,262.104,31.92,262.389,32.373z M264.756,27.668c0.188,0.117,0.4,0.322,0.639,0.615v-3.17
	h1.014v8.637h-0.949v-0.873c-0.246,0.387-0.537,0.666-0.873,0.838s-0.721,0.258-1.154,0.258c-0.699,0-1.305-0.294-1.816-0.882
	s-0.768-1.37-0.768-2.347c0-0.914,0.234-1.706,0.701-2.376s1.133-1.005,2-1.005C264.029,27.363,264.432,27.465,264.756,27.668z
	 M267.996,27.475h1.002v1.084c0.082-0.211,0.283-0.468,0.604-0.771s0.689-0.454,1.107-0.454c0.02,0,0.053,0.002,0.1,0.006
	s0.127,0.012,0.24,0.023v1.113c-0.062-0.012-0.119-0.02-0.172-0.023s-0.111-0.006-0.174-0.006c-0.531,0-0.939,0.171-1.225,0.513
	s-0.428,0.735-0.428,1.181v3.609h-1.055V27.475z M271.963,27.504h1.072v6.246h-1.072V27.504z M271.963,25.143h1.072v1.195h-1.072
	V25.143z M274.658,25.143h1.055v8.607h-1.055V25.143z M277.324,25.143h1.055v8.607h-1.055V25.143z M282.738,25.143l-0.176,3.445
	h-0.709l-0.182-3.445H282.738z M280.729,25.143l-0.17,3.445h-0.709l-0.182-3.445H280.729z"/>
<path fill="#404040" d="M302.174,188.75l6.943,0.541l-1.427-4.793L302.174,188.75z"/>
<path fill="none" stroke="#404040" stroke-miterlimit="10" d="M302.174,188.75l6.943,0.541l-1.427-4.793L302.174,188.75z"/>
<line fill="none" stroke="#404040" stroke-miterlimit="10" x1="397.088" y1="160.484" x2="302.174" y2="188.75"/>
<rect x="317.631" y="168.117" fill="#FFFFFF" width="64" height="13"/>
<path d="M322.057,178.117v-0.72c-0.361,0.565-0.893,0.849-1.596,0.849c-0.455,0-0.872-0.125-1.254-0.376
	c-0.381-0.251-0.676-0.601-0.886-1.05s-0.314-0.967-0.314-1.55c0-0.569,0.095-1.086,0.284-1.55c0.19-0.463,0.475-0.818,0.854-1.066
	c0.38-0.246,0.804-0.37,1.272-0.37c0.344,0,0.65,0.072,0.92,0.218c0.268,0.145,0.486,0.334,0.654,0.566v-2.825h0.961v7.874H322.057z
	 M319,175.271c0,0.73,0.154,1.276,0.463,1.638c0.308,0.362,0.672,0.543,1.09,0.543c0.422,0,0.781-0.173,1.076-0.518
	c0.297-0.346,0.443-0.873,0.443-1.582c0-0.781-0.15-1.354-0.451-1.719s-0.67-0.549-1.111-0.549c-0.43,0-0.789,0.176-1.076,0.527
	C319.145,173.962,319,174.516,319,175.271z M328.195,176.027l0.951,0.124c-0.104,0.655-0.369,1.168-0.797,1.539
	c-0.428,0.37-0.953,0.556-1.576,0.556c-0.781,0-1.408-0.256-1.883-0.766s-0.713-1.241-0.713-2.193c0-0.616,0.104-1.155,0.307-1.617
	c0.205-0.462,0.516-0.809,0.932-1.039c0.418-0.231,0.871-0.347,1.361-0.347c0.621,0,1.127,0.157,1.521,0.47
	c0.393,0.313,0.645,0.758,0.756,1.335l-0.939,0.146c-0.09-0.384-0.248-0.672-0.475-0.865c-0.229-0.193-0.502-0.29-0.824-0.29
	c-0.488,0-0.883,0.175-1.188,0.523c-0.305,0.35-0.457,0.901-0.457,1.657c0,0.766,0.146,1.323,0.441,1.67
	c0.293,0.348,0.676,0.521,1.148,0.521c0.379,0,0.697-0.116,0.951-0.35C327.967,176.869,328.127,176.512,328.195,176.027z
	 M332.084,177.252l0.141,0.854c-0.271,0.058-0.516,0.086-0.73,0.086c-0.352,0-0.623-0.056-0.816-0.167
	c-0.193-0.11-0.33-0.256-0.408-0.438c-0.08-0.181-0.119-0.561-0.119-1.141v-3.282h-0.709v-0.752h0.709V171l0.963-0.58v1.993h0.971
	v0.752h-0.971v3.335c0,0.276,0.016,0.453,0.051,0.532c0.033,0.079,0.09,0.142,0.166,0.188c0.076,0.046,0.188,0.069,0.33,0.069
	C331.768,177.29,331.908,177.277,332.084,177.252z M336.936,176.28l0.998,0.124c-0.158,0.583-0.449,1.036-0.875,1.358
	s-0.971,0.483-1.633,0.483c-0.834,0-1.496-0.257-1.984-0.771c-0.49-0.515-0.734-1.235-0.734-2.162c0-0.96,0.248-1.704,0.742-2.234
	s1.135-0.795,1.922-0.795c0.764,0,1.387,0.26,1.869,0.778c0.484,0.52,0.727,1.25,0.727,2.191c0,0.058-0.002,0.144-0.006,0.258
	h-4.254c0.035,0.627,0.213,1.107,0.531,1.439c0.318,0.334,0.717,0.5,1.193,0.5c0.354,0,0.656-0.094,0.906-0.279
	C336.59,176.986,336.787,176.688,336.936,176.28z M333.76,174.717h3.186c-0.043-0.479-0.164-0.84-0.365-1.079
	c-0.309-0.372-0.707-0.559-1.197-0.559c-0.445,0-0.818,0.148-1.121,0.446C333.961,173.822,333.793,174.22,333.76,174.717z
	 M339.137,178.117v-5.704h0.871v0.864c0.221-0.404,0.426-0.671,0.613-0.8c0.189-0.129,0.396-0.193,0.621-0.193
	c0.326,0,0.656,0.104,0.994,0.312l-0.334,0.896c-0.236-0.139-0.473-0.209-0.709-0.209c-0.211,0-0.4,0.063-0.568,0.191
	c-0.168,0.127-0.289,0.303-0.359,0.528c-0.107,0.344-0.162,0.72-0.162,1.128v2.986H339.137z M342.811,178.117v-5.704h0.865v0.8
	c0.178-0.279,0.416-0.504,0.715-0.674c0.297-0.17,0.635-0.255,1.014-0.255c0.424,0,0.77,0.088,1.039,0.263
	c0.271,0.176,0.463,0.422,0.572,0.736c0.451-0.666,1.039-0.999,1.762-0.999c0.566,0,1.002,0.157,1.307,0.47
	c0.303,0.313,0.455,0.796,0.455,1.447v3.916h-0.961v-3.594c0-0.387-0.031-0.664-0.094-0.835c-0.062-0.17-0.176-0.307-0.342-0.411
	c-0.164-0.104-0.357-0.155-0.58-0.155c-0.4,0-0.734,0.134-0.998,0.399c-0.266,0.268-0.398,0.694-0.398,1.281v3.314h-0.967v-3.706
	c0-0.43-0.078-0.752-0.236-0.967c-0.156-0.215-0.414-0.322-0.773-0.322c-0.271,0-0.523,0.071-0.754,0.215s-0.398,0.353-0.502,0.628
	c-0.104,0.276-0.156,0.674-0.156,1.193v2.959H342.811z M351.588,176.414l0.955-0.15c0.055,0.384,0.203,0.678,0.449,0.881
	c0.244,0.205,0.588,0.307,1.027,0.307c0.445,0,0.773-0.09,0.988-0.271c0.215-0.181,0.322-0.393,0.322-0.637
	c0-0.218-0.094-0.39-0.283-0.516c-0.133-0.086-0.463-0.195-0.988-0.327c-0.709-0.179-1.201-0.334-1.475-0.465
	c-0.275-0.13-0.482-0.312-0.623-0.542c-0.143-0.231-0.213-0.486-0.213-0.766c0-0.254,0.059-0.49,0.174-0.707
	c0.117-0.216,0.275-0.396,0.477-0.539c0.15-0.111,0.355-0.205,0.615-0.281c0.26-0.078,0.537-0.116,0.834-0.116
	c0.447,0,0.842,0.064,1.18,0.193s0.588,0.304,0.75,0.523c0.16,0.221,0.271,0.515,0.332,0.884l-0.945,0.129
	c-0.043-0.293-0.168-0.523-0.373-0.688s-0.496-0.247-0.873-0.247c-0.443,0-0.762,0.073-0.951,0.22
	c-0.189,0.147-0.283,0.319-0.283,0.516c0,0.126,0.039,0.238,0.117,0.339c0.078,0.104,0.203,0.19,0.371,0.258
	c0.096,0.036,0.381,0.118,0.854,0.247c0.684,0.183,1.162,0.332,1.432,0.448s0.482,0.286,0.637,0.508s0.23,0.497,0.23,0.827
	c0,0.322-0.094,0.625-0.281,0.91c-0.189,0.285-0.459,0.505-0.814,0.661c-0.354,0.155-0.756,0.233-1.203,0.233
	c-0.74,0-1.307-0.154-1.695-0.462C351.943,177.477,351.695,177.02,351.588,176.414z M357.742,173.514v-1.101h1.102v1.101H357.742z
	 M357.742,178.117v-1.102h1.102v1.102H357.742z M362.641,177.252l0.141,0.854c-0.273,0.058-0.516,0.086-0.73,0.086
	c-0.352,0-0.623-0.056-0.816-0.167c-0.193-0.11-0.33-0.256-0.408-0.438c-0.08-0.181-0.119-0.561-0.119-1.141v-3.282h-0.709v-0.752
	h0.709V171l0.961-0.58v1.993h0.973v0.752h-0.973v3.335c0,0.276,0.018,0.453,0.051,0.532c0.035,0.079,0.09,0.142,0.168,0.188
	c0.076,0.046,0.186,0.069,0.33,0.069C362.324,177.29,362.465,177.277,362.641,177.252z M363.543,180.314l-0.107-0.908
	c0.211,0.057,0.396,0.086,0.553,0.086c0.215,0,0.387-0.035,0.516-0.107s0.234-0.172,0.318-0.301c0.061-0.097,0.158-0.336,0.295-0.72
	c0.018-0.054,0.047-0.132,0.086-0.236l-2.164-5.715h1.041l1.188,3.304c0.154,0.418,0.291,0.859,0.414,1.32
	c0.109-0.443,0.242-0.877,0.396-1.299l1.219-3.325h0.967l-2.17,5.801c-0.232,0.626-0.412,1.058-0.541,1.294
	c-0.172,0.319-0.369,0.553-0.592,0.701s-0.486,0.223-0.795,0.223C363.98,180.432,363.771,180.393,363.543,180.314z M369.086,180.303
	v-7.89h0.881v0.741c0.207-0.29,0.443-0.508,0.703-0.652c0.262-0.146,0.578-0.218,0.951-0.218c0.486,0,0.916,0.126,1.289,0.376
	s0.654,0.604,0.844,1.061s0.285,0.957,0.285,1.502c0,0.583-0.105,1.109-0.314,1.576c-0.211,0.467-0.514,0.825-0.914,1.074
	c-0.398,0.248-0.818,0.373-1.26,0.373c-0.322,0-0.611-0.068-0.867-0.204s-0.467-0.308-0.631-0.516v2.776H369.086z M369.961,175.297
	c0,0.734,0.148,1.277,0.447,1.628c0.297,0.351,0.656,0.526,1.078,0.526c0.43,0,0.799-0.182,1.104-0.545
	c0.307-0.363,0.461-0.927,0.461-1.689c0-0.727-0.15-1.271-0.449-1.633s-0.656-0.543-1.072-0.543c-0.412,0-0.775,0.193-1.092,0.578
	C370.119,174.004,369.961,174.563,369.961,175.297z M379.109,176.28l0.998,0.124c-0.158,0.583-0.449,1.036-0.875,1.358
	s-0.971,0.483-1.633,0.483c-0.834,0-1.496-0.257-1.984-0.771c-0.49-0.515-0.734-1.235-0.734-2.162c0-0.96,0.248-1.704,0.742-2.234
	s1.135-0.795,1.922-0.795c0.764,0,1.387,0.26,1.869,0.778c0.484,0.52,0.727,1.25,0.727,2.191c0,0.058-0.002,0.144-0.006,0.258
	h-4.254c0.035,0.627,0.213,1.107,0.531,1.439c0.318,0.334,0.717,0.5,1.193,0.5c0.354,0,0.656-0.094,0.906-0.279
	C378.764,176.986,378.961,176.688,379.109,176.28z M375.934,174.717h3.186c-0.043-0.479-0.164-0.84-0.365-1.079
	c-0.309-0.372-0.707-0.559-1.197-0.559c-0.445,0-0.818,0.148-1.121,0.446C376.135,173.822,375.967,174.22,375.934,174.717z"/>
<path fill="#404040" d="M650.584,112.525l-6.834-1.343l0.861,4.925L650.584,112.525z"/>
<path fill="none" stroke="#404040" stroke-miterlimit="10" d="M650.584,112.525l-6.834-1.343l0.861,4.925L650.584,112.525z"/>
<line fill="none" stroke="#404040" stroke-miterlimit="10" x1="458.035" y1="146.217" x2="650.584" y2="112.525"/>
<rect x="514.811" y="122.871" fill="#FFFFFF" width="79" height="13"/>
<path d="M519.236,132.871v-0.72c-0.363,0.565-0.895,0.849-1.596,0.849c-0.455,0-0.873-0.125-1.254-0.376
	c-0.383-0.251-0.678-0.601-0.887-1.05s-0.314-0.967-0.314-1.55c0-0.569,0.096-1.086,0.285-1.55c0.189-0.463,0.475-0.818,0.854-1.066
	c0.379-0.246,0.805-0.37,1.273-0.37c0.344,0,0.65,0.072,0.918,0.218c0.27,0.145,0.486,0.334,0.656,0.566v-2.825h0.961v7.874H519.236
	z M516.18,130.024c0,0.73,0.154,1.276,0.461,1.638c0.309,0.362,0.672,0.543,1.092,0.543c0.422,0,0.781-0.173,1.076-0.519
	c0.295-0.345,0.443-0.872,0.443-1.581c0-0.781-0.15-1.354-0.451-1.719s-0.672-0.549-1.111-0.549c-0.43,0-0.789,0.176-1.078,0.527
	C516.324,128.716,516.18,129.269,516.18,130.024z M522.705,132.871l-1.746-5.704h1l0.906,3.292l0.34,1.225
	c0.014-0.061,0.113-0.453,0.295-1.176l0.908-3.341h0.994l0.854,3.309l0.285,1.091l0.326-1.102l0.979-3.298h0.939l-1.783,5.704
	h-1.004l-0.908-3.416l-0.221-0.973l-1.154,4.389H522.705z M533.318,130.781l0.951,0.124c-0.104,0.655-0.371,1.168-0.799,1.538
	c-0.428,0.371-0.953,0.557-1.576,0.557c-0.779,0-1.408-0.256-1.883-0.766s-0.711-1.242-0.711-2.193c0-0.617,0.102-1.155,0.307-1.617
	c0.203-0.462,0.514-0.809,0.932-1.039c0.416-0.231,0.871-0.347,1.361-0.347c0.619,0,1.127,0.157,1.52,0.47
	c0.395,0.313,0.646,0.758,0.758,1.335l-0.939,0.146c-0.09-0.384-0.248-0.672-0.477-0.865c-0.227-0.193-0.502-0.29-0.824-0.29
	c-0.486,0-0.883,0.175-1.186,0.523c-0.305,0.349-0.457,0.901-0.457,1.657c0,0.766,0.146,1.323,0.439,1.67
	c0.295,0.348,0.678,0.521,1.15,0.521c0.379,0,0.695-0.116,0.951-0.35C533.09,131.623,533.25,131.266,533.318,130.781z
	 M535.365,128.268v-1.101h1.1v1.101H535.365z M535.365,132.871v-1.102h1.1v1.102H535.365z M537.793,130.02
	c0-1.057,0.293-1.84,0.881-2.348c0.49-0.423,1.088-0.634,1.793-0.634c0.785,0,1.426,0.257,1.924,0.771s0.746,1.224,0.746,2.13
	c0,0.733-0.109,1.312-0.33,1.731c-0.221,0.422-0.541,0.748-0.961,0.98c-0.422,0.233-0.881,0.35-1.379,0.35
	c-0.799,0-1.443-0.256-1.936-0.768C538.039,131.72,537.793,130.982,537.793,130.02z M538.787,130.02c0,0.73,0.158,1.277,0.477,1.641
	s0.721,0.545,1.203,0.545c0.48,0,0.879-0.183,1.199-0.548c0.318-0.365,0.477-0.922,0.477-1.671c0-0.705-0.16-1.239-0.48-1.604
	c-0.32-0.363-0.719-0.545-1.195-0.545c-0.482,0-0.885,0.182-1.203,0.543S538.787,129.289,538.787,130.02z M544.26,132.871v-5.704
	h0.869v0.864c0.223-0.404,0.428-0.671,0.615-0.8s0.395-0.193,0.621-0.193c0.326,0,0.656,0.104,0.994,0.312l-0.334,0.896
	c-0.236-0.139-0.473-0.209-0.709-0.209c-0.211,0-0.4,0.063-0.568,0.19c-0.17,0.128-0.289,0.304-0.361,0.529
	c-0.107,0.344-0.16,0.72-0.16,1.128v2.986H544.26z M547.756,133.344l0.939,0.14c0.039,0.29,0.148,0.501,0.328,0.634
	c0.24,0.179,0.568,0.269,0.982,0.269c0.447,0,0.793-0.09,1.037-0.269c0.244-0.18,0.408-0.43,0.494-0.752
	c0.051-0.197,0.074-0.611,0.07-1.24c-0.424,0.497-0.949,0.746-1.58,0.746c-0.783,0-1.391-0.283-1.82-0.849s-0.645-1.245-0.645-2.036
	c0-0.544,0.098-1.046,0.295-1.506c0.197-0.461,0.482-0.816,0.857-1.066c0.373-0.251,0.814-0.376,1.318-0.376
	c0.674,0,1.229,0.272,1.666,0.816v-0.688h0.891v4.931c0,0.888-0.09,1.518-0.271,1.888c-0.18,0.37-0.467,0.663-0.859,0.878
	s-0.875,0.322-1.447,0.322c-0.68,0-1.23-0.152-1.648-0.459C547.943,134.42,547.742,133.959,547.756,133.344z M548.557,129.917
	c0,0.749,0.148,1.294,0.445,1.638s0.67,0.516,1.117,0.516c0.443,0,0.816-0.17,1.117-0.513c0.301-0.342,0.451-0.878,0.451-1.608
	c0-0.698-0.154-1.225-0.465-1.579c-0.309-0.354-0.684-0.532-1.119-0.532c-0.43,0-0.795,0.175-1.096,0.523
	C548.707,128.711,548.557,129.229,548.557,129.917z M557.773,132.168c-0.359,0.304-0.703,0.519-1.035,0.645
	c-0.33,0.125-0.686,0.188-1.064,0.188c-0.627,0-1.109-0.153-1.445-0.459c-0.338-0.307-0.506-0.697-0.506-1.174
	c0-0.279,0.064-0.535,0.191-0.766s0.293-0.416,0.5-0.556c0.205-0.14,0.438-0.245,0.695-0.317c0.189-0.05,0.477-0.098,0.859-0.145
	c0.779-0.094,1.355-0.204,1.725-0.333c0.002-0.132,0.004-0.217,0.004-0.253c0-0.394-0.09-0.671-0.273-0.832
	c-0.246-0.219-0.613-0.328-1.102-0.328c-0.455,0-0.789,0.08-1.006,0.239s-0.377,0.441-0.48,0.847l-0.945-0.129
	c0.086-0.405,0.227-0.732,0.424-0.98c0.197-0.249,0.48-0.441,0.854-0.575s0.805-0.201,1.295-0.201c0.486,0,0.883,0.058,1.186,0.172
	c0.305,0.114,0.529,0.259,0.672,0.433c0.145,0.174,0.244,0.393,0.301,0.658c0.033,0.164,0.049,0.461,0.049,0.891v1.289
	c0,0.899,0.021,1.468,0.062,1.705c0.041,0.238,0.121,0.467,0.244,0.686h-1.01C557.865,132.67,557.801,132.436,557.773,132.168z
	 M557.693,130.008c-0.352,0.144-0.879,0.266-1.58,0.365c-0.396,0.058-0.678,0.122-0.844,0.193c-0.164,0.072-0.291,0.177-0.381,0.314
	c-0.09,0.139-0.135,0.291-0.135,0.459c0,0.258,0.098,0.473,0.293,0.645s0.48,0.258,0.857,0.258c0.371,0,0.703-0.081,0.994-0.244
	c0.289-0.162,0.502-0.386,0.639-0.668c0.104-0.219,0.156-0.541,0.156-0.967V130.008z M560.168,132.871v-5.704h0.871v0.812
	c0.418-0.627,1.023-0.94,1.814-0.94c0.344,0,0.66,0.062,0.949,0.185c0.287,0.124,0.504,0.286,0.646,0.486
	c0.143,0.201,0.244,0.439,0.301,0.715c0.035,0.179,0.053,0.492,0.053,0.939v3.508h-0.967v-3.47c0-0.394-0.037-0.688-0.111-0.884
	c-0.076-0.195-0.209-0.351-0.4-0.467c-0.191-0.117-0.416-0.175-0.674-0.175c-0.412,0-0.768,0.131-1.066,0.392
	c-0.299,0.262-0.449,0.758-0.449,1.488v3.115H560.168z M566.291,126.109v-1.112h0.967v1.112H566.291z M566.291,132.871v-5.704h0.967
	v5.704H566.291z M568.344,131.168l0.955-0.15c0.055,0.384,0.203,0.678,0.449,0.881c0.244,0.205,0.588,0.307,1.029,0.307
	c0.443,0,0.773-0.09,0.988-0.271c0.215-0.181,0.32-0.393,0.32-0.637c0-0.219-0.094-0.391-0.283-0.516
	c-0.133-0.086-0.463-0.195-0.988-0.327c-0.709-0.179-1.201-0.334-1.475-0.465c-0.273-0.13-0.482-0.312-0.623-0.542
	c-0.143-0.231-0.213-0.486-0.213-0.766c0-0.254,0.059-0.49,0.176-0.707c0.115-0.216,0.273-0.396,0.475-0.539
	c0.15-0.111,0.355-0.205,0.615-0.282s0.537-0.115,0.836-0.115c0.447,0,0.84,0.064,1.178,0.193s0.588,0.304,0.75,0.523
	c0.16,0.22,0.271,0.515,0.332,0.884l-0.945,0.129c-0.043-0.293-0.166-0.523-0.373-0.688c-0.205-0.165-0.496-0.247-0.873-0.247
	c-0.443,0-0.76,0.073-0.949,0.22c-0.191,0.146-0.285,0.318-0.285,0.516c0,0.125,0.039,0.238,0.117,0.339
	c0.08,0.104,0.203,0.189,0.371,0.258c0.098,0.036,0.381,0.118,0.854,0.247c0.684,0.183,1.162,0.332,1.432,0.448
	c0.271,0.116,0.482,0.286,0.637,0.508s0.23,0.497,0.23,0.827c0,0.322-0.094,0.625-0.281,0.91s-0.459,0.505-0.814,0.66
	c-0.354,0.156-0.756,0.234-1.203,0.234c-0.74,0-1.305-0.154-1.693-0.462S568.451,131.773,568.344,131.168z M574.23,132.871v-5.704
	h0.865v0.8c0.178-0.279,0.416-0.504,0.713-0.674s0.637-0.255,1.016-0.255c0.422,0,0.77,0.088,1.039,0.263
	c0.271,0.176,0.461,0.421,0.572,0.736c0.451-0.666,1.039-0.999,1.762-0.999c0.566,0,1,0.157,1.305,0.47
	c0.305,0.313,0.457,0.796,0.457,1.447v3.916h-0.961v-3.594c0-0.387-0.031-0.664-0.094-0.835c-0.062-0.17-0.178-0.308-0.342-0.411
	s-0.357-0.155-0.58-0.155c-0.4,0-0.734,0.134-1,0.399c-0.264,0.268-0.396,0.694-0.396,1.281v3.314h-0.967v-3.706
	c0-0.43-0.078-0.752-0.236-0.967s-0.416-0.322-0.773-0.322c-0.271,0-0.523,0.071-0.754,0.215c-0.232,0.144-0.398,0.353-0.502,0.628
	c-0.105,0.275-0.156,0.674-0.156,1.193v2.959H574.23z M583.693,132.871v-7.874h1.043v7.874H583.693z M586.572,132.871v-7.874h2.713
	c0.613,0,1.08,0.038,1.402,0.112c0.451,0.104,0.836,0.292,1.154,0.564c0.416,0.351,0.727,0.799,0.932,1.346
	c0.207,0.546,0.309,1.17,0.309,1.871c0,0.599-0.068,1.129-0.209,1.59c-0.139,0.463-0.318,0.845-0.537,1.146
	c-0.219,0.303-0.457,0.541-0.717,0.715s-0.572,0.305-0.939,0.395s-0.789,0.135-1.266,0.135H586.572z M587.615,131.941h1.68
	c0.52,0,0.928-0.048,1.223-0.145s0.531-0.232,0.707-0.408c0.246-0.247,0.439-0.579,0.576-0.996c0.139-0.418,0.207-0.924,0.207-1.518
	c0-0.824-0.135-1.457-0.404-1.898c-0.271-0.442-0.6-0.738-0.986-0.889c-0.279-0.107-0.729-0.162-1.348-0.162h-1.654V131.941z"/>
<path fill="#404040" d="M638.584,167.405l-6.299-2.972l-0.369,4.986L638.584,167.405z"/>
<path fill="none" stroke="#404040" stroke-miterlimit="10" d="M638.584,167.405l-6.299-2.972l-0.369,4.986L638.584,167.405z"/>
<line fill="none" stroke="#404040" stroke-miterlimit="10" x1="458.738" y1="154.135" x2="638.584" y2="167.405"/>
<rect x="499.66" y="154.27" fill="#FFFFFF" width="98" height="13"/>
<path d="M504.086,164.27v-0.719c-0.361,0.565-0.893,0.848-1.596,0.848c-0.453,0-0.871-0.125-1.254-0.375
	c-0.381-0.251-0.676-0.602-0.885-1.051c-0.211-0.449-0.314-0.966-0.314-1.549c0-0.57,0.094-1.086,0.283-1.55
	c0.191-0.464,0.475-0.819,0.855-1.066c0.379-0.247,0.803-0.37,1.271-0.37c0.344,0,0.65,0.072,0.92,0.217
	c0.268,0.146,0.486,0.334,0.654,0.566v-2.824h0.961v7.873H504.086z M501.029,161.424c0,0.73,0.154,1.275,0.463,1.638
	s0.672,0.542,1.09,0.542c0.424,0,0.781-0.172,1.078-0.518c0.295-0.346,0.441-0.873,0.441-1.582c0-0.78-0.15-1.354-0.451-1.719
	s-0.67-0.548-1.111-0.548c-0.43,0-0.789,0.176-1.076,0.526C501.174,160.115,501.029,160.668,501.029,161.424z M507.557,164.27
	l-1.746-5.703h0.998l0.908,3.292l0.338,1.225c0.016-0.061,0.113-0.453,0.297-1.177l0.906-3.34h0.994l0.854,3.309l0.285,1.09
	l0.328-1.102l0.977-3.297h0.941l-1.783,5.703h-1.006l-0.906-3.416l-0.221-0.972l-1.154,4.388H507.557z M518.17,162.181l0.949,0.124
	c-0.104,0.654-0.369,1.168-0.797,1.539c-0.428,0.37-0.953,0.555-1.576,0.555c-0.781,0-1.408-0.254-1.883-0.765
	s-0.711-1.241-0.711-2.194c0-0.615,0.102-1.154,0.305-1.617c0.205-0.461,0.516-0.808,0.934-1.039
	c0.416-0.23,0.871-0.346,1.361-0.346c0.619,0,1.125,0.156,1.52,0.47s0.646,0.758,0.758,1.335l-0.941,0.145
	c-0.088-0.383-0.248-0.672-0.475-0.865s-0.502-0.289-0.824-0.289c-0.486,0-0.883,0.174-1.188,0.523s-0.457,0.901-0.457,1.656
	c0,0.767,0.148,1.324,0.441,1.671c0.293,0.348,0.676,0.521,1.148,0.521c0.381,0,0.697-0.115,0.951-0.349
	S518.102,162.664,518.17,162.181z M520.215,159.667v-1.101h1.102v1.101H520.215z M520.215,164.27v-1.101h1.102v1.101H520.215z
	 M522.643,161.418c0-1.057,0.295-1.838,0.881-2.348c0.492-0.422,1.09-0.633,1.795-0.633c0.783,0,1.426,0.256,1.922,0.771
	c0.498,0.514,0.748,1.224,0.748,2.13c0,0.734-0.111,1.311-0.33,1.732c-0.221,0.42-0.541,0.747-0.963,0.979
	c-0.42,0.233-0.879,0.349-1.377,0.349c-0.799,0-1.443-0.256-1.936-0.768C522.889,163.119,522.643,162.381,522.643,161.418z
	 M523.637,161.418c0,0.73,0.16,1.277,0.479,1.641s0.719,0.545,1.203,0.545c0.48,0,0.879-0.182,1.197-0.547s0.479-0.922,0.479-1.671
	c0-0.706-0.16-1.239-0.48-1.603c-0.32-0.364-0.719-0.546-1.195-0.546c-0.484,0-0.885,0.181-1.203,0.542
	C523.797,160.142,523.637,160.688,523.637,161.418z M529.109,164.27v-5.703h0.871v0.864c0.223-0.405,0.428-0.671,0.615-0.8
	s0.395-0.193,0.619-0.193c0.326,0,0.658,0.104,0.994,0.311l-0.332,0.897c-0.236-0.14-0.473-0.21-0.709-0.21
	c-0.213,0-0.402,0.064-0.57,0.191s-0.287,0.303-0.359,0.529c-0.107,0.344-0.162,0.719-0.162,1.127v2.986H529.109z M532.607,164.742
	l0.939,0.141c0.039,0.289,0.148,0.501,0.328,0.633c0.238,0.18,0.566,0.27,0.982,0.27c0.447,0,0.793-0.09,1.037-0.27
	c0.242-0.179,0.408-0.43,0.494-0.752c0.049-0.196,0.072-0.609,0.068-1.24c-0.422,0.498-0.947,0.746-1.578,0.746
	c-0.785,0-1.391-0.282-1.82-0.848c-0.43-0.566-0.645-1.244-0.645-2.036c0-0.544,0.098-1.046,0.295-1.507
	c0.197-0.46,0.482-0.815,0.857-1.066c0.373-0.25,0.812-0.375,1.318-0.375c0.672,0,1.229,0.271,1.664,0.816v-0.688h0.893v4.93
	c0,0.889-0.092,1.518-0.271,1.889c-0.182,0.371-0.467,0.663-0.859,0.878s-0.875,0.322-1.447,0.322c-0.682,0-1.23-0.153-1.65-0.459
	C532.795,165.82,532.592,165.359,532.607,164.742z M533.406,161.316c0,0.748,0.15,1.294,0.447,1.638s0.67,0.516,1.117,0.516
	c0.443,0,0.816-0.171,1.117-0.513s0.451-0.879,0.451-1.609c0-0.697-0.156-1.225-0.465-1.578c-0.311-0.355-0.684-0.532-1.121-0.532
	c-0.43,0-0.795,0.175-1.096,0.524C533.557,160.11,533.406,160.629,533.406,161.316z M542.623,163.566
	c-0.357,0.305-0.701,0.52-1.033,0.645s-0.686,0.188-1.066,0.188c-0.627,0-1.107-0.152-1.445-0.459
	c-0.336-0.306-0.504-0.697-0.504-1.174c0-0.279,0.062-0.533,0.191-0.765c0.127-0.231,0.293-0.417,0.498-0.556
	c0.207-0.141,0.438-0.246,0.695-0.317c0.191-0.05,0.477-0.099,0.859-0.146c0.781-0.093,1.355-0.203,1.725-0.332
	c0.004-0.133,0.006-0.217,0.006-0.253c0-0.394-0.092-0.671-0.273-0.833c-0.248-0.218-0.615-0.327-1.102-0.327
	c-0.455,0-0.791,0.079-1.008,0.239c-0.217,0.159-0.377,0.441-0.48,0.846l-0.945-0.129c0.086-0.404,0.229-0.731,0.424-0.98
	c0.197-0.248,0.482-0.439,0.855-0.574c0.371-0.135,0.803-0.201,1.293-0.201c0.488,0,0.883,0.057,1.188,0.172
	c0.305,0.114,0.529,0.258,0.672,0.432s0.244,0.393,0.301,0.658c0.031,0.165,0.049,0.462,0.049,0.892v1.289
	c0,0.899,0.02,1.468,0.061,1.706c0.041,0.237,0.123,0.466,0.244,0.684h-1.01C542.717,164.069,542.652,163.835,542.623,163.566z
	 M542.543,161.407c-0.352,0.144-0.877,0.265-1.578,0.365c-0.398,0.058-0.68,0.122-0.844,0.193s-0.291,0.177-0.381,0.314
	s-0.135,0.29-0.135,0.459c0,0.258,0.098,0.473,0.293,0.645s0.48,0.258,0.855,0.258c0.373,0,0.705-0.081,0.994-0.244
	c0.291-0.163,0.504-0.386,0.639-0.669c0.105-0.219,0.156-0.541,0.156-0.967V161.407z M545.02,164.27v-5.703h0.869v0.811
	c0.42-0.627,1.025-0.939,1.816-0.939c0.344,0,0.66,0.062,0.947,0.186c0.289,0.123,0.504,0.285,0.648,0.485
	c0.143,0.2,0.242,0.438,0.301,0.714c0.035,0.18,0.053,0.493,0.053,0.94v3.507h-0.967v-3.469c0-0.395-0.037-0.689-0.113-0.884
	c-0.074-0.195-0.207-0.351-0.398-0.468c-0.193-0.116-0.418-0.174-0.676-0.174c-0.41,0-0.766,0.131-1.064,0.392
	c-0.301,0.262-0.449,0.757-0.449,1.487v3.115H545.02z M551.143,157.508v-1.111h0.967v1.111H551.143z M551.143,164.27v-5.703h0.967
	v5.703H551.143z M553.193,162.567l0.957-0.15c0.053,0.384,0.203,0.677,0.449,0.881c0.244,0.204,0.588,0.306,1.027,0.306
	c0.445,0,0.773-0.09,0.988-0.271s0.322-0.394,0.322-0.637c0-0.218-0.094-0.39-0.285-0.516c-0.131-0.086-0.461-0.195-0.988-0.327
	c-0.709-0.18-1.199-0.334-1.473-0.465c-0.275-0.131-0.482-0.312-0.623-0.543c-0.143-0.23-0.213-0.486-0.213-0.766
	c0-0.254,0.059-0.489,0.174-0.705c0.117-0.217,0.275-0.396,0.477-0.541c0.15-0.11,0.355-0.205,0.615-0.281
	c0.258-0.077,0.537-0.115,0.834-0.115c0.447,0,0.842,0.064,1.18,0.193s0.588,0.303,0.748,0.523c0.162,0.221,0.273,0.515,0.334,0.883
	l-0.945,0.129c-0.043-0.293-0.168-0.521-0.373-0.688c-0.207-0.164-0.498-0.246-0.873-0.246c-0.443,0-0.762,0.072-0.951,0.22
	s-0.285,0.319-0.285,0.516c0,0.126,0.041,0.238,0.119,0.339c0.078,0.104,0.203,0.189,0.371,0.258
	c0.096,0.035,0.381,0.117,0.854,0.246c0.684,0.184,1.16,0.332,1.432,0.449c0.27,0.116,0.482,0.285,0.637,0.508
	c0.152,0.222,0.23,0.497,0.23,0.826c0,0.322-0.094,0.627-0.281,0.911c-0.189,0.284-0.461,0.505-0.814,0.661
	c-0.355,0.155-0.756,0.232-1.203,0.232c-0.742,0-1.307-0.153-1.695-0.461C553.549,163.629,553.301,163.173,553.193,162.567z
	 M559.08,164.27v-5.703h0.865v0.8c0.18-0.279,0.418-0.504,0.715-0.674c0.297-0.171,0.635-0.255,1.016-0.255
	c0.422,0,0.768,0.088,1.039,0.263c0.27,0.176,0.461,0.421,0.572,0.735c0.451-0.666,1.037-0.998,1.762-0.998
	c0.564,0,1,0.156,1.305,0.47s0.457,0.796,0.457,1.447v3.915h-0.963v-3.593c0-0.387-0.031-0.665-0.094-0.835s-0.176-0.307-0.34-0.411
	c-0.166-0.104-0.359-0.155-0.58-0.155c-0.402,0-0.734,0.133-1,0.4c-0.264,0.266-0.396,0.693-0.396,1.28v3.313h-0.967v-3.705
	c0-0.43-0.08-0.752-0.236-0.967c-0.158-0.215-0.416-0.322-0.773-0.322c-0.273,0-0.523,0.071-0.756,0.215
	c-0.23,0.143-0.398,0.353-0.502,0.628c-0.104,0.276-0.156,0.673-0.156,1.192v2.959H559.08z M568.357,164.27v-7.873h1.068
	l4.135,6.182v-6.182h1v7.873h-1.068l-4.137-6.188v6.188H568.357z M579.91,163.566c-0.357,0.305-0.703,0.52-1.033,0.645
	c-0.332,0.125-0.688,0.188-1.066,0.188c-0.627,0-1.109-0.152-1.445-0.459c-0.336-0.306-0.506-0.697-0.506-1.174
	c0-0.279,0.064-0.533,0.191-0.765s0.293-0.417,0.5-0.556c0.205-0.141,0.438-0.246,0.695-0.317c0.189-0.05,0.477-0.099,0.859-0.146
	c0.781-0.093,1.355-0.203,1.725-0.332c0.002-0.133,0.004-0.217,0.004-0.253c0-0.394-0.09-0.671-0.273-0.833
	c-0.246-0.218-0.613-0.327-1.102-0.327c-0.453,0-0.789,0.079-1.006,0.239c-0.217,0.159-0.377,0.441-0.48,0.846l-0.945-0.129
	c0.086-0.404,0.227-0.731,0.424-0.98c0.197-0.248,0.48-0.439,0.854-0.574s0.805-0.201,1.295-0.201c0.486,0,0.883,0.057,1.188,0.172
	c0.303,0.114,0.527,0.258,0.67,0.432c0.145,0.174,0.244,0.393,0.301,0.658c0.033,0.165,0.049,0.462,0.049,0.892v1.289
	c0,0.899,0.021,1.468,0.062,1.706c0.041,0.237,0.123,0.466,0.244,0.684h-1.01C580.004,164.069,579.939,163.835,579.91,163.566z
	 M579.83,161.407c-0.352,0.144-0.877,0.265-1.58,0.365c-0.396,0.058-0.678,0.122-0.844,0.193c-0.164,0.071-0.291,0.177-0.381,0.314
	s-0.135,0.29-0.135,0.459c0,0.258,0.098,0.473,0.293,0.645s0.48,0.258,0.857,0.258c0.373,0,0.703-0.081,0.994-0.244
	c0.289-0.163,0.502-0.386,0.639-0.669c0.104-0.219,0.156-0.541,0.156-0.967V161.407z M582.305,164.27v-5.703h0.865v0.8
	c0.18-0.279,0.418-0.504,0.715-0.674c0.297-0.171,0.635-0.255,1.016-0.255c0.422,0,0.768,0.088,1.039,0.263
	c0.27,0.176,0.461,0.421,0.572,0.735c0.451-0.666,1.037-0.998,1.762-0.998c0.564,0,1,0.156,1.305,0.47s0.457,0.796,0.457,1.447
	v3.915h-0.963v-3.593c0-0.387-0.031-0.665-0.094-0.835s-0.176-0.307-0.34-0.411c-0.166-0.104-0.359-0.155-0.58-0.155
	c-0.402,0-0.734,0.133-1,0.4c-0.264,0.266-0.396,0.693-0.396,1.28v3.313h-0.967v-3.705c0-0.43-0.08-0.752-0.236-0.967
	c-0.158-0.215-0.416-0.322-0.773-0.322c-0.273,0-0.523,0.071-0.756,0.215c-0.23,0.143-0.398,0.353-0.502,0.628
	c-0.104,0.276-0.156,0.673-0.156,1.192v2.959H582.305z M595.373,162.434l1,0.123c-0.158,0.584-0.449,1.037-0.877,1.359
	c-0.426,0.322-0.969,0.482-1.633,0.482c-0.834,0-1.494-0.256-1.984-0.77c-0.488-0.515-0.732-1.235-0.732-2.162
	c0-0.96,0.246-1.705,0.74-2.234c0.494-0.53,1.137-0.795,1.924-0.795c0.762,0,1.385,0.26,1.869,0.778
	c0.482,0.519,0.725,1.249,0.725,2.191c0,0.058-0.002,0.144-0.006,0.258h-4.254c0.037,0.627,0.215,1.106,0.533,1.439
	s0.715,0.499,1.191,0.499c0.355,0,0.658-0.092,0.908-0.279C595.027,163.139,595.227,162.842,595.373,162.434z M592.199,160.87h3.186
	c-0.043-0.479-0.166-0.839-0.365-1.079c-0.309-0.373-0.707-0.559-1.199-0.559c-0.443,0-0.816,0.148-1.119,0.445
	S592.23,160.373,592.199,160.87z"/>
<path fill="#404040" d="M294.916,115.135l5.592,4.152l1.342-4.817L294.916,115.135z"/>
<path fill="none" stroke="#404040" stroke-miterlimit="10" d="M294.916,115.135l5.592,4.152l1.342-4.817L294.916,115.135z"/>
<line fill="none" stroke="#404040" stroke-miterlimit="10" x1="396.654" y1="143.463" x2="294.916" y2="115.135"/>
<rect x="313.785" y="122.799" fill="#FFFFFF" width="64" height="13"/>
<path d="M318.415,130.962l0.999,0.124c-0.157,0.583-0.449,1.036-0.875,1.358s-0.971,0.483-1.633,0.483
	c-0.834,0-1.496-0.257-1.984-0.771c-0.489-0.515-0.734-1.235-0.734-2.162c0-0.96,0.248-1.704,0.742-2.234s1.135-0.795,1.922-0.795
	c0.764,0,1.387,0.26,1.869,0.778c0.484,0.52,0.726,1.25,0.726,2.191c0,0.058-0.001,0.144-0.005,0.258h-4.254
	c0.035,0.627,0.213,1.107,0.531,1.439c0.318,0.334,0.717,0.5,1.192,0.5c0.354,0,0.657-0.094,0.907-0.279
	C318.07,131.668,318.269,131.37,318.415,130.962z M315.24,129.398h3.186c-0.043-0.479-0.164-0.84-0.365-1.079
	c-0.308-0.372-0.707-0.559-1.197-0.559c-0.444,0-0.818,0.148-1.12,0.446C315.44,128.504,315.273,128.901,315.24,129.398z
	 M319.984,132.799l2.084-2.965l-1.93-2.739h1.209l0.875,1.337c0.166,0.255,0.297,0.468,0.398,0.64
	c0.156-0.236,0.303-0.446,0.436-0.628l0.961-1.349h1.154l-1.971,2.686l2.121,3.019h-1.188l-1.17-1.772l-0.312-0.478l-1.498,2.25
	H319.984z M326.396,128.195v-1.101h1.102v1.101H326.396z M326.396,132.799v-1.102h1.102v1.102H326.396z M329.184,132.799v-7.874
	h0.967v2.825c0.451-0.523,1.021-0.784,1.709-0.784c0.422,0,0.789,0.083,1.102,0.249c0.311,0.167,0.533,0.397,0.668,0.691
	c0.135,0.293,0.201,0.719,0.201,1.277v3.615h-0.967v-3.615c0-0.482-0.105-0.835-0.314-1.055c-0.209-0.221-0.506-0.33-0.889-0.33
	c-0.287,0-0.557,0.074-0.809,0.223s-0.432,0.35-0.539,0.604c-0.107,0.255-0.162,0.605-0.162,1.053v3.121H329.184z M339.023,132.096
	c-0.357,0.304-0.701,0.519-1.033,0.645c-0.332,0.125-0.688,0.188-1.066,0.188c-0.627,0-1.107-0.153-1.445-0.459
	c-0.336-0.307-0.504-0.697-0.504-1.174c0-0.279,0.062-0.535,0.189-0.766c0.129-0.23,0.295-0.416,0.5-0.556
	c0.207-0.14,0.438-0.245,0.695-0.317c0.189-0.05,0.477-0.098,0.859-0.145c0.781-0.094,1.355-0.204,1.725-0.333
	c0.004-0.132,0.006-0.217,0.006-0.253c0-0.394-0.092-0.671-0.273-0.832c-0.248-0.219-0.615-0.328-1.102-0.328
	c-0.455,0-0.791,0.08-1.008,0.239s-0.377,0.441-0.48,0.847l-0.945-0.129c0.086-0.405,0.227-0.732,0.424-0.98
	c0.197-0.249,0.482-0.441,0.855-0.575c0.371-0.134,0.803-0.201,1.293-0.201c0.488,0,0.883,0.058,1.188,0.172
	s0.527,0.259,0.672,0.433c0.143,0.174,0.242,0.393,0.301,0.658c0.031,0.164,0.049,0.461,0.049,0.891v1.289
	c0,0.899,0.02,1.468,0.061,1.705c0.041,0.238,0.123,0.467,0.244,0.686h-1.01C339.117,132.598,339.053,132.363,339.023,132.096z
	 M338.943,129.936c-0.352,0.144-0.877,0.266-1.578,0.365c-0.398,0.058-0.68,0.122-0.844,0.193c-0.166,0.072-0.293,0.177-0.381,0.314
	c-0.09,0.139-0.135,0.291-0.135,0.459c0,0.258,0.098,0.473,0.293,0.645s0.48,0.258,0.855,0.258c0.373,0,0.705-0.081,0.994-0.244
	c0.291-0.162,0.504-0.386,0.639-0.668c0.104-0.219,0.156-0.541,0.156-0.967V129.936z M341.033,131.096l0.955-0.15
	c0.055,0.384,0.203,0.678,0.449,0.881c0.246,0.205,0.588,0.307,1.029,0.307c0.443,0,0.773-0.09,0.988-0.271
	c0.215-0.181,0.322-0.393,0.322-0.637c0-0.218-0.096-0.39-0.285-0.516c-0.133-0.086-0.463-0.195-0.988-0.327
	c-0.709-0.179-1.201-0.334-1.475-0.465c-0.273-0.13-0.482-0.312-0.623-0.542c-0.141-0.231-0.213-0.486-0.213-0.766
	c0-0.254,0.059-0.49,0.176-0.707c0.115-0.216,0.273-0.396,0.475-0.539c0.15-0.111,0.355-0.205,0.615-0.282s0.537-0.115,0.836-0.115
	c0.447,0,0.84,0.064,1.178,0.193s0.588,0.304,0.75,0.523c0.16,0.221,0.271,0.515,0.332,0.884l-0.945,0.129
	c-0.043-0.293-0.166-0.523-0.373-0.688c-0.205-0.164-0.496-0.247-0.873-0.247c-0.443,0-0.76,0.073-0.949,0.22
	c-0.191,0.147-0.285,0.319-0.285,0.516c0,0.126,0.039,0.238,0.117,0.339c0.08,0.104,0.203,0.19,0.371,0.258
	c0.098,0.036,0.381,0.118,0.854,0.247c0.684,0.183,1.162,0.332,1.432,0.448c0.271,0.116,0.482,0.286,0.637,0.508
	s0.23,0.497,0.23,0.827c0,0.322-0.094,0.625-0.281,0.91s-0.459,0.505-0.814,0.661c-0.354,0.155-0.756,0.233-1.203,0.233
	c-0.74,0-1.305-0.154-1.693-0.462S341.141,131.701,341.033,131.096z M349.047,132.799v-6.945h-2.594v-0.929h6.24v0.929h-2.605v6.945
	H349.047z M357.361,132.096c-0.359,0.304-0.703,0.519-1.035,0.645c-0.33,0.125-0.686,0.188-1.064,0.188
	c-0.627,0-1.109-0.153-1.445-0.459c-0.336-0.307-0.506-0.697-0.506-1.174c0-0.279,0.064-0.535,0.191-0.766s0.293-0.416,0.5-0.556
	c0.205-0.14,0.438-0.245,0.695-0.317c0.189-0.05,0.477-0.098,0.859-0.145c0.779-0.094,1.355-0.204,1.725-0.333
	c0.002-0.132,0.004-0.217,0.004-0.253c0-0.394-0.09-0.671-0.273-0.832c-0.246-0.219-0.613-0.328-1.102-0.328
	c-0.453,0-0.789,0.08-1.006,0.239s-0.377,0.441-0.48,0.847l-0.945-0.129c0.086-0.405,0.227-0.732,0.424-0.98
	c0.197-0.249,0.48-0.441,0.854-0.575s0.805-0.201,1.295-0.201c0.486,0,0.883,0.058,1.188,0.172c0.303,0.114,0.527,0.259,0.67,0.433
	c0.145,0.174,0.244,0.393,0.301,0.658c0.033,0.164,0.049,0.461,0.049,0.891v1.289c0,0.899,0.021,1.468,0.062,1.705
	c0.041,0.238,0.121,0.467,0.244,0.686h-1.01C357.453,132.598,357.391,132.363,357.361,132.096z M357.281,129.936
	c-0.352,0.144-0.879,0.266-1.58,0.365c-0.396,0.058-0.678,0.122-0.844,0.193c-0.164,0.072-0.291,0.177-0.381,0.314
	c-0.09,0.139-0.135,0.291-0.135,0.459c0,0.258,0.098,0.473,0.293,0.645s0.48,0.258,0.857,0.258c0.371,0,0.703-0.081,0.994-0.244
	c0.289-0.162,0.502-0.386,0.639-0.668c0.104-0.219,0.156-0.541,0.156-0.967V129.936z M359.111,132.799l2.084-2.965l-1.928-2.739
	h1.209l0.875,1.337c0.164,0.255,0.297,0.468,0.398,0.64c0.156-0.236,0.301-0.446,0.434-0.628l0.963-1.349h1.154l-1.971,2.686
	l2.121,3.019h-1.188l-1.17-1.772l-0.312-0.478l-1.498,2.25H359.111z M364.896,129.947c0-1.057,0.293-1.84,0.881-2.348
	c0.49-0.422,1.088-0.634,1.795-0.634c0.783,0,1.424,0.257,1.922,0.771s0.746,1.225,0.746,2.13c0,0.733-0.109,1.312-0.33,1.732
	s-0.541,0.747-0.961,0.979c-0.42,0.233-0.881,0.35-1.377,0.35c-0.799,0-1.445-0.256-1.938-0.768
	C365.143,131.647,364.896,130.91,364.896,129.947z M365.891,129.947c0,0.73,0.158,1.277,0.479,1.641
	c0.318,0.363,0.719,0.545,1.203,0.545c0.479,0,0.879-0.183,1.197-0.548s0.479-0.922,0.479-1.671c0-0.705-0.16-1.239-0.482-1.603
	c-0.32-0.364-0.719-0.546-1.193-0.546c-0.484,0-0.885,0.182-1.203,0.543C366.049,128.67,365.891,129.217,365.891,129.947z
	 M371.375,132.799v-5.704h0.869v0.812c0.42-0.627,1.023-0.94,1.816-0.94c0.344,0,0.658,0.062,0.947,0.185
	c0.289,0.124,0.504,0.286,0.646,0.486c0.145,0.201,0.244,0.439,0.301,0.715c0.037,0.18,0.055,0.492,0.055,0.939v3.508h-0.967v-3.47
	c0-0.394-0.037-0.688-0.113-0.884c-0.074-0.195-0.209-0.351-0.4-0.467c-0.191-0.117-0.416-0.175-0.674-0.175
	c-0.412,0-0.768,0.131-1.066,0.392c-0.299,0.262-0.447,0.758-0.447,1.488v3.115H371.375z"/>
<path fill="#404040" d="M259.416,40.75l-2.5,6.5h5L259.416,40.75z"/>
<path fill="none" stroke="#404040" stroke-miterlimit="10" d="M259.416,40.75l-2.5,6.5h5L259.416,40.75z"/>
<line fill="none" stroke="#404040" stroke-miterlimit="10" x1="259.416" y1="94.75" x2="259.416" y2="40.75"/>
<rect x="206.916" y="61.25" fill="#FFFFFF" width="105" height="13"/>
<path d="M211.342,71.25v-0.72c-0.361,0.566-0.893,0.849-1.595,0.849c-0.454,0-0.873-0.125-1.255-0.376
	c-0.381-0.25-0.676-0.601-0.885-1.05c-0.21-0.449-0.314-0.966-0.314-1.55c0-0.569,0.094-1.086,0.284-1.549
	c0.19-0.464,0.475-0.819,0.854-1.066c0.379-0.247,0.803-0.371,1.272-0.371c0.344,0,0.649,0.072,0.919,0.218
	c0.268,0.146,0.486,0.334,0.654,0.566v-2.825h0.962v7.874H211.342z M208.286,68.403c0,0.73,0.153,1.276,0.462,1.639
	c0.309,0.361,0.672,0.542,1.09,0.542c0.423,0,0.782-0.173,1.078-0.518c0.295-0.346,0.442-0.873,0.442-1.582
	c0-0.781-0.15-1.354-0.451-1.719s-0.671-0.548-1.112-0.548c-0.43,0-0.788,0.175-1.076,0.526
	C208.43,67.095,208.286,67.648,208.286,68.403z M214.812,71.25l-1.746-5.704h0.999l0.907,3.293l0.339,1.225
	c0.015-0.062,0.112-0.453,0.296-1.177l0.907-3.341h0.993l0.854,3.309l0.284,1.091l0.328-1.102l0.978-3.298h0.94l-1.783,5.704h-1.005
	l-0.907-3.416l-0.221-0.972l-1.154,4.388H214.812z M225.426,69.161l0.95,0.123c-0.104,0.655-0.37,1.168-0.798,1.539
	c-0.428,0.37-0.953,0.556-1.576,0.556c-0.781,0-1.408-0.255-1.883-0.766c-0.475-0.51-0.711-1.241-0.711-2.193
	c0-0.616,0.102-1.155,0.306-1.617s0.515-0.809,0.932-1.039c0.417-0.231,0.871-0.347,1.362-0.347c0.619,0,1.125,0.157,1.52,0.471
	c0.395,0.312,0.646,0.758,0.758,1.334l-0.94,0.146c-0.089-0.384-0.248-0.672-0.476-0.865c-0.227-0.193-0.502-0.29-0.824-0.29
	c-0.486,0-0.883,0.175-1.188,0.523c-0.304,0.35-0.456,0.902-0.456,1.657c0,0.767,0.147,1.323,0.44,1.671
	c0.293,0.347,0.677,0.521,1.149,0.521c0.38,0,0.696-0.116,0.95-0.349C225.196,70.002,225.357,69.645,225.426,69.161z
	 M227.472,66.647v-1.102h1.101v1.102H227.472z M227.472,71.25v-1.101h1.101v1.101H227.472z M231.844,71.25l-2.17-5.704h1.021
	l1.225,3.416c0.132,0.369,0.255,0.752,0.365,1.149c0.086-0.301,0.206-0.662,0.36-1.085l1.268-3.48h0.993l-2.159,5.704H231.844z
	 M239.664,69.413l0.999,0.124c-0.157,0.583-0.449,1.036-0.876,1.358c-0.426,0.322-0.97,0.483-1.633,0.483
	c-0.834,0-1.496-0.257-1.984-0.771s-0.732-1.234-0.732-2.162c0-0.959,0.246-1.704,0.74-2.234c0.494-0.529,1.136-0.795,1.924-0.795
	c0.762,0,1.385,0.26,1.869,0.779c0.482,0.519,0.725,1.249,0.725,2.191c0,0.057-0.002,0.143-0.006,0.258h-4.254
	c0.036,0.626,0.213,1.106,0.532,1.439s0.716,0.499,1.192,0.499c0.354,0,0.657-0.093,0.908-0.279
	C239.318,70.119,239.518,69.821,239.664,69.413z M236.49,67.851h3.185c-0.043-0.48-0.165-0.84-0.365-1.08
	c-0.308-0.372-0.707-0.559-1.198-0.559c-0.443,0-0.816,0.148-1.119,0.446C236.689,66.955,236.521,67.353,236.49,67.851z
	 M241.866,71.25v-5.704h0.87v0.865c0.223-0.405,0.427-0.672,0.615-0.801c0.188-0.129,0.395-0.193,0.62-0.193
	c0.325,0,0.657,0.104,0.993,0.312l-0.332,0.897c-0.236-0.14-0.473-0.21-0.709-0.21c-0.212,0-0.401,0.063-0.57,0.19
	c-0.168,0.128-0.287,0.304-0.359,0.529c-0.107,0.344-0.161,0.72-0.161,1.128v2.986H241.866z M245.54,71.25v-5.704h0.87v0.812
	c0.419-0.627,1.023-0.94,1.815-0.94c0.344,0,0.659,0.062,0.948,0.186c0.288,0.123,0.504,0.285,0.646,0.486
	c0.144,0.2,0.244,0.438,0.301,0.714c0.036,0.18,0.055,0.492,0.055,0.94v3.507h-0.967v-3.47c0-0.394-0.038-0.688-0.113-0.884
	c-0.075-0.194-0.209-0.351-0.4-0.467s-0.416-0.175-0.674-0.175c-0.412,0-0.768,0.131-1.066,0.393
	c-0.299,0.261-0.448,0.757-0.448,1.487v3.115H245.54z M255.38,70.547c-0.358,0.304-0.702,0.519-1.034,0.645
	c-0.331,0.125-0.687,0.188-1.066,0.188c-0.626,0-1.107-0.153-1.444-0.459c-0.337-0.307-0.505-0.697-0.505-1.174
	c0-0.279,0.063-0.534,0.19-0.766c0.128-0.23,0.294-0.416,0.5-0.556s0.438-0.245,0.695-0.316c0.19-0.051,0.476-0.099,0.859-0.146
	c0.78-0.093,1.355-0.204,1.724-0.333c0.004-0.132,0.006-0.217,0.006-0.252c0-0.395-0.092-0.672-0.273-0.833
	c-0.248-0.218-0.615-0.327-1.102-0.327c-0.455,0-0.791,0.079-1.008,0.238c-0.216,0.16-0.376,0.441-0.48,0.847l-0.945-0.129
	c0.086-0.405,0.229-0.731,0.425-0.98s0.481-0.44,0.854-0.575c0.372-0.134,0.803-0.201,1.294-0.201c0.487,0,0.883,0.058,1.187,0.172
	c0.305,0.115,0.529,0.259,0.672,0.433s0.244,0.393,0.301,0.658c0.032,0.164,0.049,0.462,0.049,0.892v1.289
	c0,0.898,0.02,1.467,0.061,1.705c0.042,0.238,0.123,0.467,0.245,0.685h-1.01C255.473,71.05,255.408,70.815,255.38,70.547z
	 M255.299,68.388c-0.351,0.143-0.877,0.265-1.578,0.365c-0.398,0.057-0.68,0.121-0.844,0.193c-0.164,0.071-0.292,0.176-0.381,0.313
	c-0.09,0.139-0.135,0.291-0.135,0.46c0,0.258,0.098,0.473,0.293,0.645s0.48,0.258,0.856,0.258c0.372,0,0.704-0.082,0.993-0.245
	c0.291-0.162,0.504-0.386,0.64-0.668c0.104-0.219,0.155-0.541,0.155-0.967V68.388z M261.498,69.161l0.95,0.123
	c-0.104,0.655-0.37,1.168-0.798,1.539c-0.428,0.37-0.953,0.556-1.576,0.556c-0.781,0-1.408-0.255-1.883-0.766
	c-0.475-0.51-0.711-1.241-0.711-2.193c0-0.616,0.102-1.155,0.306-1.617s0.515-0.809,0.933-1.039c0.416-0.231,0.87-0.347,1.361-0.347
	c0.619,0,1.125,0.157,1.52,0.471c0.395,0.312,0.646,0.758,0.758,1.334l-0.94,0.146c-0.089-0.384-0.248-0.672-0.476-0.865
	c-0.227-0.193-0.502-0.29-0.824-0.29c-0.486,0-0.883,0.175-1.188,0.523c-0.304,0.35-0.456,0.902-0.456,1.657
	c0,0.767,0.147,1.323,0.44,1.671c0.293,0.347,0.677,0.521,1.149,0.521c0.38,0,0.696-0.116,0.95-0.349
	C261.269,70.002,261.43,69.645,261.498,69.161z M267.014,71.25v-0.838c-0.443,0.645-1.047,0.967-1.811,0.967
	c-0.336,0-0.65-0.064-0.941-0.193c-0.293-0.129-0.51-0.291-0.65-0.485c-0.142-0.195-0.241-0.435-0.299-0.718
	c-0.039-0.189-0.059-0.49-0.059-0.902v-3.534h0.967v3.164c0,0.505,0.02,0.845,0.059,1.021c0.062,0.254,0.19,0.453,0.387,0.599
	c0.197,0.146,0.441,0.218,0.73,0.218c0.291,0,0.562-0.074,0.816-0.224c0.255-0.148,0.435-0.351,0.541-0.606
	c0.105-0.256,0.158-0.628,0.158-1.114v-3.057h0.967v5.704H267.014z M269.371,71.25v-7.874h0.967v7.874H269.371z M275.559,70.547
	c-0.357,0.304-0.702,0.519-1.033,0.645c-0.332,0.125-0.688,0.188-1.066,0.188c-0.627,0-1.108-0.153-1.445-0.459
	c-0.336-0.307-0.504-0.697-0.504-1.174c0-0.279,0.062-0.534,0.189-0.766c0.128-0.23,0.295-0.416,0.5-0.556
	c0.206-0.14,0.438-0.245,0.695-0.316c0.19-0.051,0.477-0.099,0.859-0.146c0.781-0.093,1.355-0.204,1.725-0.333
	c0.004-0.132,0.006-0.217,0.006-0.252c0-0.395-0.092-0.672-0.274-0.833c-0.247-0.218-0.614-0.327-1.101-0.327
	c-0.455,0-0.791,0.079-1.008,0.238c-0.217,0.16-0.377,0.441-0.48,0.847l-0.945-0.129c0.086-0.405,0.228-0.731,0.424-0.98
	c0.197-0.249,0.482-0.44,0.854-0.575c0.372-0.134,0.804-0.201,1.294-0.201c0.487,0,0.883,0.058,1.188,0.172
	c0.305,0.115,0.528,0.259,0.672,0.433c0.143,0.174,0.243,0.393,0.301,0.658c0.031,0.164,0.048,0.462,0.048,0.892v1.289
	c0,0.898,0.021,1.467,0.062,1.705s0.123,0.467,0.244,0.685h-1.01C275.652,71.05,275.588,70.815,275.559,70.547z M275.479,68.388
	c-0.352,0.143-0.877,0.265-1.579,0.365c-0.397,0.057-0.679,0.121-0.843,0.193c-0.165,0.071-0.293,0.176-0.382,0.313
	c-0.089,0.139-0.134,0.291-0.134,0.46c0,0.258,0.098,0.473,0.292,0.645c0.195,0.172,0.481,0.258,0.856,0.258
	c0.373,0,0.704-0.082,0.994-0.245c0.29-0.162,0.503-0.386,0.639-0.668c0.104-0.219,0.156-0.541,0.156-0.967V68.388z M277.943,71.25
	v-5.704h0.871v0.865c0.222-0.405,0.427-0.672,0.615-0.801c0.188-0.129,0.395-0.193,0.619-0.193c0.326,0,0.658,0.104,0.994,0.312
	l-0.333,0.897c-0.236-0.14-0.473-0.21-0.709-0.21c-0.212,0-0.401,0.063-0.569,0.19c-0.168,0.128-0.288,0.304-0.359,0.529
	c-0.107,0.344-0.162,0.72-0.162,1.128v2.986H277.943z M281.73,71.25v-7.874h1.068l4.137,6.183v-6.183h0.998v7.874h-1.068
	l-4.136-6.188v6.188H281.73z M293.283,70.547c-0.357,0.304-0.702,0.519-1.033,0.645c-0.332,0.125-0.688,0.188-1.066,0.188
	c-0.627,0-1.108-0.153-1.445-0.459c-0.336-0.307-0.504-0.697-0.504-1.174c0-0.279,0.062-0.534,0.19-0.766
	c0.127-0.23,0.294-0.416,0.499-0.556c0.206-0.14,0.438-0.245,0.695-0.316c0.19-0.051,0.477-0.099,0.859-0.146
	c0.781-0.093,1.355-0.204,1.725-0.333c0.004-0.132,0.006-0.217,0.006-0.252c0-0.395-0.092-0.672-0.274-0.833
	c-0.247-0.218-0.614-0.327-1.101-0.327c-0.455,0-0.791,0.079-1.008,0.238c-0.217,0.16-0.377,0.441-0.48,0.847l-0.945-0.129
	c0.086-0.405,0.228-0.731,0.424-0.98c0.197-0.249,0.482-0.44,0.854-0.575c0.372-0.134,0.804-0.201,1.294-0.201
	c0.487,0,0.883,0.058,1.188,0.172c0.305,0.115,0.528,0.259,0.672,0.433c0.143,0.174,0.243,0.393,0.301,0.658
	c0.031,0.164,0.048,0.462,0.048,0.892v1.289c0,0.898,0.021,1.467,0.062,1.705s0.123,0.467,0.244,0.685h-1.01
	C293.377,71.05,293.312,70.815,293.283,70.547z M293.203,68.388c-0.352,0.143-0.877,0.265-1.579,0.365
	c-0.397,0.057-0.679,0.121-0.843,0.193c-0.165,0.071-0.293,0.176-0.382,0.313c-0.089,0.139-0.134,0.291-0.134,0.46
	c0,0.258,0.098,0.473,0.293,0.645c0.194,0.172,0.48,0.258,0.855,0.258c0.373,0,0.704-0.082,0.994-0.245
	c0.29-0.162,0.503-0.386,0.639-0.668c0.104-0.219,0.156-0.541,0.156-0.967V68.388z M295.68,71.25v-5.704h0.864v0.801
	c0.179-0.279,0.417-0.504,0.714-0.675c0.298-0.17,0.637-0.255,1.016-0.255c0.422,0,0.77,0.088,1.039,0.264
	c0.271,0.175,0.461,0.421,0.572,0.735c0.451-0.666,1.039-0.999,1.762-0.999c0.566,0,1.001,0.157,1.305,0.471
	c0.305,0.312,0.457,0.795,0.457,1.447v3.915h-0.961v-3.593c0-0.387-0.031-0.665-0.094-0.836c-0.063-0.17-0.178-0.307-0.342-0.41
	c-0.164-0.104-0.357-0.156-0.58-0.156c-0.4,0-0.734,0.134-0.999,0.4s-0.397,0.693-0.397,1.281v3.313h-0.967v-3.706
	c0-0.43-0.078-0.752-0.236-0.967s-0.416-0.322-0.773-0.322c-0.271,0-0.523,0.072-0.754,0.215c-0.232,0.144-0.398,0.353-0.503,0.629
	c-0.104,0.275-0.155,0.673-0.155,1.192v2.959H295.68z M308.747,69.413l0.999,0.124c-0.158,0.583-0.449,1.036-0.875,1.358
	c-0.427,0.322-0.971,0.483-1.633,0.483c-0.835,0-1.496-0.257-1.984-0.771c-0.49-0.514-0.734-1.234-0.734-2.162
	c0-0.959,0.248-1.704,0.742-2.234c0.494-0.529,1.135-0.795,1.922-0.795c0.764,0,1.387,0.26,1.869,0.779
	c0.484,0.519,0.726,1.249,0.726,2.191c0,0.057-0.002,0.143-0.005,0.258h-4.254c0.035,0.626,0.213,1.106,0.531,1.439
	s0.717,0.499,1.192,0.499c0.354,0,0.657-0.093,0.907-0.279C308.401,70.119,308.6,69.821,308.747,69.413z M305.572,67.851h3.186
	c-0.043-0.48-0.164-0.84-0.365-1.08c-0.309-0.372-0.707-0.559-1.197-0.559c-0.444,0-0.818,0.148-1.121,0.446
	C305.772,66.955,305.605,67.353,305.572,67.851z"/>
<rect x="83.416" y="188.75" fill="none" stroke="#000000" stroke-miterlimit="10" stroke-opacity="0" width="70" height="21"/>
<path d="M90.285,201.373c0.285,0.453,0.742,0.68,1.371,0.68c0.488,0,0.891-0.21,1.205-0.63s0.471-1.022,0.471-1.808
	c0-0.793-0.162-1.38-0.486-1.761s-0.725-0.571-1.201-0.571c-0.531,0-0.961,0.203-1.291,0.609s-0.496,1.004-0.496,1.793
	C89.857,200.357,90,200.92,90.285,201.373z M92.652,196.668c0.188,0.117,0.4,0.322,0.639,0.615v-3.17h1.014v8.637h-0.949v-0.873
	c-0.246,0.387-0.537,0.666-0.873,0.838s-0.721,0.258-1.154,0.258c-0.699,0-1.305-0.294-1.816-0.882s-0.768-1.37-0.768-2.347
	c0-0.914,0.234-1.706,0.701-2.376s1.133-1.005,2-1.005C91.926,196.363,92.328,196.465,92.652,196.668z M96.35,196.475l1.207,4.945
	l1.225-4.945h1.184l1.23,4.916l1.283-4.916h1.055l-1.822,6.275h-1.096l-1.277-4.857l-1.236,4.857h-1.096l-1.811-6.275H96.35z
	 M108.676,196.809c0.443,0.344,0.709,0.936,0.799,1.775h-1.025c-0.062-0.387-0.205-0.708-0.428-0.964s-0.58-0.384-1.072-0.384
	c-0.672,0-1.152,0.328-1.441,0.984c-0.188,0.426-0.281,0.951-0.281,1.576c0,0.629,0.133,1.158,0.398,1.588s0.684,0.645,1.254,0.645
	c0.438,0,0.785-0.134,1.041-0.401s0.432-0.634,0.529-1.099h1.025c-0.117,0.832-0.41,1.44-0.879,1.825s-1.068,0.577-1.799,0.577
	c-0.82,0-1.475-0.3-1.963-0.899s-0.732-1.349-0.732-2.247c0-1.102,0.268-1.959,0.803-2.572s1.217-0.92,2.045-0.92
	C107.656,196.293,108.232,196.465,108.676,196.809z M111.086,196.557h1.225v1.277h-1.225V196.557z M111.086,201.473h1.225v1.277
	h-1.225V201.473z M120.268,194.143v1.025h-2.9v7.582h-1.184v-7.582h-2.9v-1.025H120.268z M122.336,201.801
	c0.223,0.176,0.486,0.264,0.791,0.264c0.371,0,0.73-0.086,1.078-0.258c0.586-0.285,0.879-0.752,0.879-1.4v-0.85
	c-0.129,0.082-0.295,0.15-0.498,0.205s-0.402,0.094-0.598,0.117l-0.639,0.082c-0.383,0.051-0.67,0.131-0.861,0.24
	c-0.324,0.184-0.486,0.477-0.486,0.879C122.002,201.385,122.113,201.625,122.336,201.801z M124.557,198.947
	c0.242-0.031,0.404-0.133,0.486-0.305c0.047-0.094,0.07-0.229,0.07-0.404c0-0.359-0.127-0.62-0.383-0.782s-0.623-0.243-1.1-0.243
	c-0.551,0-0.941,0.148-1.172,0.445c-0.129,0.164-0.213,0.408-0.252,0.732h-0.984c0.02-0.773,0.271-1.312,0.754-1.614
	s1.041-0.454,1.678-0.454c0.738,0,1.338,0.141,1.799,0.422c0.457,0.281,0.686,0.719,0.686,1.312v3.615
	c0,0.109,0.023,0.197,0.068,0.264s0.139,0.1,0.283,0.1c0.047,0,0.1-0.003,0.158-0.009s0.121-0.015,0.188-0.026v0.779
	c-0.164,0.047-0.289,0.076-0.375,0.088s-0.203,0.018-0.352,0.018c-0.363,0-0.627-0.129-0.791-0.387
	c-0.086-0.137-0.146-0.33-0.182-0.58c-0.215,0.281-0.523,0.525-0.926,0.732s-0.846,0.311-1.33,0.311
	c-0.582,0-1.057-0.177-1.426-0.53s-0.555-0.796-0.555-1.327c0-0.582,0.182-1.033,0.545-1.354s0.84-0.518,1.43-0.592L124.557,198.947
	z M127.27,196.475h1.365l1.441,2.209l1.459-2.209l1.283,0.029l-2.115,3.029l2.209,3.217h-1.348l-1.559-2.355l-1.512,2.355h-1.336
	l2.209-3.217L127.27,196.475z M137.797,201.276c0.26-0.529,0.389-1.118,0.389-1.767c0-0.586-0.094-1.062-0.281-1.43
	c-0.297-0.578-0.809-0.867-1.535-0.867c-0.645,0-1.113,0.246-1.406,0.738s-0.439,1.086-0.439,1.781c0,0.668,0.146,1.225,0.439,1.67
	s0.758,0.668,1.395,0.668C137.057,202.07,137.537,201.806,137.797,201.276z M138.449,197.102c0.559,0.539,0.838,1.332,0.838,2.379
	c0,1.012-0.246,1.848-0.738,2.508s-1.256,0.99-2.291,0.99c-0.863,0-1.549-0.292-2.057-0.876s-0.762-1.368-0.762-2.353
	c0-1.055,0.268-1.895,0.803-2.52s1.254-0.938,2.156-0.938C137.207,196.293,137.891,196.562,138.449,197.102z M140.541,196.475h1.002
	v0.891c0.297-0.367,0.611-0.631,0.943-0.791s0.701-0.24,1.107-0.24c0.891,0,1.492,0.311,1.805,0.932
	c0.172,0.34,0.258,0.826,0.258,1.459v4.025h-1.072v-3.955c0-0.383-0.057-0.691-0.17-0.926c-0.188-0.391-0.527-0.586-1.02-0.586
	c-0.25,0-0.455,0.025-0.615,0.076c-0.289,0.086-0.543,0.258-0.762,0.516c-0.176,0.207-0.289,0.421-0.342,0.642
	s-0.08,0.536-0.08,0.946v3.287h-1.055V196.475z"/>
<path fill="#404040" d="M134.166,188.75l6.795-1.525l-2.773-4.16L134.166,188.75z"/>
<path fill="none" stroke="#404040" stroke-miterlimit="10" d="M134.166,188.75l6.795-1.525l-2.773-4.16L134.166,188.75z"/>
<line fill="none" stroke="#404040" stroke-miterlimit="10" x1="243.666" y1="115.75" x2="134.166" y2="188.75"/>
<rect x="156.416" y="145.75" fill="#FFFFFF" width="65" height="13"/>
<path d="M160.842,155.75v-0.72c-0.361,0.565-0.893,0.849-1.595,0.849c-0.454,0-0.873-0.125-1.255-0.376
	c-0.381-0.251-0.676-0.601-0.885-1.05c-0.21-0.449-0.314-0.967-0.314-1.55c0-0.569,0.094-1.086,0.284-1.55
	c0.19-0.463,0.475-0.818,0.854-1.066c0.379-0.246,0.803-0.37,1.272-0.37c0.344,0,0.649,0.072,0.919,0.218
	c0.268,0.145,0.486,0.334,0.654,0.566v-2.825h0.962v7.874H160.842z M157.786,152.903c0,0.73,0.153,1.276,0.462,1.638
	c0.309,0.362,0.672,0.543,1.09,0.543c0.423,0,0.782-0.173,1.078-0.518c0.295-0.346,0.442-0.873,0.442-1.582
	c0-0.781-0.15-1.354-0.451-1.719s-0.671-0.549-1.112-0.549c-0.43,0-0.788,0.176-1.076,0.527
	C157.93,151.595,157.786,152.148,157.786,152.903z M166.981,153.66l0.95,0.124c-0.104,0.655-0.369,1.168-0.797,1.539
	c-0.428,0.37-0.953,0.556-1.576,0.556c-0.781,0-1.408-0.256-1.883-0.766s-0.712-1.241-0.712-2.193c0-0.616,0.103-1.155,0.306-1.617
	c0.205-0.462,0.516-0.809,0.932-1.039c0.418-0.231,0.871-0.347,1.362-0.347c0.62,0,1.126,0.157,1.521,0.47
	c0.394,0.313,0.646,0.758,0.757,1.335l-0.94,0.146c-0.089-0.384-0.248-0.672-0.475-0.865c-0.228-0.193-0.502-0.29-0.824-0.29
	c-0.487,0-0.883,0.175-1.188,0.523c-0.305,0.35-0.457,0.901-0.457,1.657c0,0.766,0.147,1.323,0.441,1.67
	c0.293,0.348,0.676,0.521,1.148,0.521c0.38,0,0.697-0.116,0.951-0.35C166.752,154.502,166.914,154.145,166.981,153.66z
	 M170.87,154.885l0.14,0.854c-0.271,0.058-0.516,0.086-0.73,0.086c-0.352,0-0.623-0.056-0.816-0.167
	c-0.193-0.11-0.33-0.256-0.408-0.438c-0.078-0.181-0.118-0.561-0.118-1.141v-3.282h-0.709v-0.752h0.709v-1.413l0.962-0.58v1.993
	h0.972v0.752h-0.972v3.335c0,0.276,0.017,0.453,0.051,0.532c0.033,0.079,0.09,0.142,0.166,0.188c0.077,0.046,0.188,0.069,0.33,0.069
	C170.553,154.923,170.695,154.91,170.87,154.885z M175.721,153.913l0.998,0.124c-0.157,0.583-0.449,1.036-0.875,1.358
	s-0.971,0.483-1.633,0.483c-0.834,0-1.496-0.257-1.984-0.771c-0.488-0.515-0.733-1.235-0.733-2.162c0-0.96,0.247-1.704,0.741-2.234
	s1.135-0.795,1.923-0.795c0.763,0,1.386,0.26,1.869,0.778c0.483,0.52,0.726,1.25,0.726,2.191c0,0.058-0.002,0.144-0.006,0.258
	h-4.254c0.035,0.627,0.213,1.107,0.531,1.439c0.319,0.334,0.717,0.5,1.193,0.5c0.354,0,0.656-0.094,0.907-0.279
	S175.573,154.321,175.721,153.913z M172.546,152.35h3.185c-0.043-0.479-0.164-0.84-0.365-1.079
	c-0.308-0.372-0.707-0.559-1.197-0.559c-0.443,0-0.817,0.148-1.119,0.446C172.746,151.455,172.578,151.853,172.546,152.35z
	 M177.922,155.75v-5.704h0.871v0.864c0.222-0.404,0.427-0.671,0.615-0.8c0.188-0.129,0.395-0.193,0.619-0.193
	c0.326,0,0.658,0.104,0.994,0.312l-0.333,0.896c-0.236-0.139-0.473-0.209-0.709-0.209c-0.212,0-0.401,0.063-0.569,0.191
	c-0.168,0.127-0.288,0.303-0.359,0.528c-0.107,0.344-0.162,0.72-0.162,1.128v2.986H177.922z M181.596,155.75v-5.704h0.865v0.8
	c0.18-0.279,0.417-0.504,0.715-0.674c0.297-0.17,0.635-0.255,1.015-0.255c0.423,0,0.769,0.088,1.039,0.263
	c0.271,0.176,0.462,0.422,0.572,0.736c0.451-0.666,1.038-0.999,1.762-0.999c0.565,0,1.001,0.157,1.306,0.47
	c0.304,0.313,0.456,0.796,0.456,1.447v3.916h-0.962v-3.594c0-0.387-0.031-0.664-0.094-0.835c-0.062-0.17-0.176-0.307-0.341-0.411
	c-0.165-0.104-0.358-0.155-0.58-0.155c-0.401,0-0.733,0.134-0.999,0.399c-0.266,0.268-0.397,0.694-0.397,1.281v3.314h-0.967v-3.706
	c0-0.43-0.079-0.752-0.236-0.967s-0.415-0.322-0.773-0.322c-0.272,0-0.524,0.071-0.755,0.215s-0.398,0.353-0.502,0.628
	c-0.104,0.276-0.156,0.674-0.156,1.193v2.959H181.596z M190.373,154.047l0.955-0.15c0.055,0.384,0.203,0.678,0.449,0.881
	c0.245,0.205,0.588,0.307,1.028,0.307c0.444,0,0.773-0.09,0.988-0.271c0.215-0.181,0.322-0.393,0.322-0.637
	c0-0.218-0.095-0.39-0.284-0.516c-0.133-0.086-0.463-0.195-0.988-0.327c-0.709-0.179-1.201-0.334-1.475-0.465
	c-0.273-0.13-0.482-0.312-0.623-0.542c-0.142-0.231-0.213-0.486-0.213-0.766c0-0.254,0.059-0.49,0.175-0.707
	c0.116-0.216,0.274-0.396,0.476-0.539c0.15-0.111,0.355-0.205,0.615-0.281c0.26-0.078,0.537-0.116,0.835-0.116
	c0.448,0,0.841,0.064,1.179,0.193s0.588,0.304,0.75,0.523c0.16,0.221,0.271,0.515,0.332,0.884l-0.945,0.129
	c-0.043-0.293-0.167-0.523-0.373-0.688c-0.205-0.164-0.496-0.247-0.873-0.247c-0.443,0-0.76,0.073-0.95,0.22
	c-0.19,0.147-0.284,0.319-0.284,0.516c0,0.126,0.039,0.238,0.117,0.339c0.079,0.104,0.203,0.19,0.371,0.258
	c0.097,0.036,0.381,0.118,0.854,0.247c0.685,0.183,1.162,0.332,1.432,0.448c0.271,0.116,0.482,0.286,0.637,0.508
	s0.23,0.497,0.23,0.827c0,0.322-0.094,0.625-0.281,0.91s-0.459,0.505-0.814,0.661c-0.354,0.155-0.755,0.233-1.203,0.233
	c-0.74,0-1.306-0.154-1.693-0.462C190.729,155.109,190.48,154.652,190.373,154.047z M196.527,151.146v-1.101h1.102v1.101H196.527z
	 M196.527,155.75v-1.102h1.102v1.102H196.527z M201.426,154.885l0.141,0.854c-0.272,0.058-0.516,0.086-0.73,0.086
	c-0.352,0-0.623-0.056-0.816-0.167c-0.193-0.11-0.33-0.256-0.408-0.438c-0.079-0.181-0.119-0.561-0.119-1.141v-3.282h-0.709v-0.752
	h0.709v-1.413l0.962-0.58v1.993h0.972v0.752h-0.972v3.335c0,0.276,0.017,0.453,0.051,0.532s0.09,0.142,0.167,0.188
	c0.076,0.046,0.188,0.069,0.33,0.069C201.109,154.923,201.251,154.91,201.426,154.885z M202.328,157.947l-0.107-0.908
	c0.212,0.057,0.396,0.086,0.554,0.086c0.215,0,0.387-0.035,0.516-0.107s0.234-0.172,0.317-0.301c0.061-0.097,0.158-0.336,0.295-0.72
	c0.018-0.054,0.047-0.132,0.086-0.236l-2.164-5.715h1.041l1.188,3.304c0.154,0.418,0.292,0.859,0.414,1.32
	c0.11-0.443,0.243-0.877,0.396-1.299l1.22-3.325h0.967l-2.17,5.801c-0.233,0.626-0.413,1.058-0.542,1.294
	c-0.172,0.319-0.369,0.553-0.592,0.701c-0.222,0.148-0.486,0.223-0.795,0.223C202.766,158.064,202.558,158.025,202.328,157.947z
	 M207.871,157.936v-7.89h0.881v0.741c0.208-0.29,0.443-0.508,0.704-0.652c0.261-0.146,0.578-0.218,0.95-0.218
	c0.487,0,0.917,0.126,1.289,0.376c0.373,0.25,0.654,0.604,0.844,1.061s0.285,0.957,0.285,1.502c0,0.583-0.105,1.109-0.314,1.576
	s-0.514,0.825-0.914,1.074c-0.398,0.248-0.818,0.373-1.259,0.373c-0.322,0-0.611-0.068-0.867-0.204
	c-0.257-0.136-0.467-0.308-0.632-0.516v2.776H207.871z M208.747,152.93c0,0.734,0.148,1.277,0.446,1.628
	c0.297,0.351,0.656,0.526,1.079,0.526c0.43,0,0.798-0.182,1.104-0.545c0.305-0.363,0.459-0.927,0.459-1.689
	c0-0.727-0.15-1.271-0.449-1.633s-0.656-0.543-1.071-0.543c-0.411,0-0.776,0.193-1.093,0.578S208.747,152.196,208.747,152.93z
	 M217.895,153.913l0.998,0.124c-0.157,0.583-0.449,1.036-0.875,1.358s-0.971,0.483-1.633,0.483c-0.834,0-1.496-0.257-1.984-0.771
	c-0.488-0.515-0.733-1.235-0.733-2.162c0-0.96,0.247-1.704,0.741-2.234s1.135-0.795,1.923-0.795c0.763,0,1.386,0.26,1.869,0.778
	c0.483,0.52,0.726,1.25,0.726,2.191c0,0.058-0.002,0.144-0.006,0.258h-4.254c0.035,0.627,0.213,1.107,0.531,1.439
	c0.319,0.334,0.717,0.5,1.193,0.5c0.354,0,0.656-0.094,0.907-0.279S217.747,154.321,217.895,153.913z M214.72,152.35h3.185
	c-0.043-0.479-0.164-0.84-0.365-1.079c-0.308-0.372-0.707-0.559-1.197-0.559c-0.443,0-0.817,0.148-1.12,0.446
	C214.92,151.455,214.752,151.853,214.72,152.35z"/>
<rect x="650.584" y="99.75" fill="#EEEEEE" width="26" height="21"/>
<rect x="650.584" y="99.75" fill="none" stroke="#000000" stroke-miterlimit="10" stroke-opacity="0" width="26" height="21"/>
<path d="M659.135,105.143l-0.176,3.445h-0.709l-0.182-3.445H659.135z M657.125,105.143l-0.17,3.445h-0.709l-0.182-3.445H657.125z
	 M660.992,107.809V107c0.762-0.074,1.293-0.198,1.594-0.372s0.525-0.585,0.674-1.233h0.832v8.355h-1.125v-5.941H660.992z
	 M670.068,105.143l-0.176,3.445h-0.709l-0.182-3.445H670.068z M668.059,105.143l-0.17,3.445h-0.709l-0.182-3.445H668.059z"/>
</svg>
