<?xml version="1.0" encoding="utf-8"?>
<!-- Generator: Adobe Illustrator 15.0.2, SVG Export Plug-In  -->
<!DOCTYPE svg PUBLIC "-//W3C//DTD SVG 1.1//EN" "http://www.w3.org/Graphics/SVG/1.1/DTD/svg11.dtd" [
	<!ENTITY ns_flows "http://ns.adobe.com/Flows/1.0/">
]>
<svg version="1.1"
	 xmlns="http://www.w3.org/2000/svg" xmlns:xlink="http://www.w3.org/1999/xlink" xmlns:a="http://ns.adobe.com/AdobeSVGViewerExtensions/3.0/"
	 x="0px" y="0px" width="800px" height="400px" viewBox="-55.586 -40.805 800 400"
	 overflow="visible" enable-background="new -55.586 -40.805 800 400" xml:space="preserve">
<defs>
</defs>
<path fill="#010101" d="M143.361,68.844c31.882,0,63.773,0.006,95.655-0.003c9.189-0.003,11.026,1.683,11.251,11.104
	c0.448,19.124,0.79,38.25,1.155,57.373c0.367,19.642,0.592,39.286,1.193,58.924c0.08,2.625,1.392,5.744,3.165,7.699
	c7.743,8.538,15.77,16.832,23.885,25.024c7.026,7.095,6.016,19.161-4.442,19.567c-7.778,1.805-15.99,2.282-24.021,2.395
	c-22.739,0.319-45.488,0.269-68.225,0.125c-20.467-0.125-40.931-0.769-61.398-0.82c-19.117-0.051-38.237,0.531-57.354,0.557
	c-14.627,0.02-30.262,0.039-44.87-0.562c-4.854-0.195-9.373,0.271-13.6-2.266c-5.779-3.469-7.939-14.048-3.037-18.579
	c9.562-8.825,19.129-17.651,28.48-26.701c1.216-1.168,1.622-3.663,1.613-5.542c-0.067-18.25-0.419-36.506-0.471-54.759
	c-0.064-21.014,0.061-42.028,0.17-63.046c0.035-7.049,1.04-8.336,8.044-9.533c3.706-0.633,7.526-0.803,11.296-0.812
	c30.505-0.061,61.011-0.032,91.514-0.032C143.361,68.921,143.361,68.882,143.361,68.844z M44.917,193.417
	c65.04,0,130.739,0,196.79,0c0-1.731,0.013-2.733-0.003-3.726c-0.563-31.177-1.152-62.352-1.67-93.529
	c-0.247-14.723-0.189-14.986-14.756-14.666c-19.43,0.425-38.851,1.715-58.284,1.904c-38.208,0.368-76.419,0.291-114.631,0.227
	c-4.435-0.006-5.767,1.219-5.831,5.827c-0.265,18.941-1.216,37.872-1.558,56.816C44.693,161.922,44.917,177.58,44.917,193.417z
	 M7.787,232.146c31.066,0,63.011,0.016,94.269,0.016c0.282-1.199,0.528-2.349,0.822-3.475c0.342-1.318,0.733-2.624,1.264-4.519
	c25.466,0,78.845,0.228,78.845,0.228l1.299,7.699c0,0,1.261,0.205,4.801,0.198c26.7-0.038,53.244,0.454,79.942,0.477
	c1.251,0,2.502-0.224,3.449-0.319c-6.448-7.844-12.88-15.396-18.982-23.207c-2.346-3.002-4.81-4.138-8.666-4.131
	c-66.15,0.131-132.304-0.503-198.451-0.08c-9.296,0.061-10.995-0.739-16.845,5.77c-2.451,2.729-4.791,5.542-7.498,8.029
	c-3.053,2.803-6.144,5.558-9.136,8.422c-1.207,1.155-2.416,2.313-3.623,3.465C9.061,230.928,8.114,232.146,7.787,232.146z
	 M6.699,235.771c0.342,5.412,2.521,7.771,7.446,7.908c4.135,0.111,8.272-0.007,12.407,0c81.689,0.045,163.375,0.099,245.056,0.131
	c6.838,0,7.677-1.113,6.342-8.039C187.563,235.771,97.138,235.771,6.699,235.771z M181.186,232.294c-0.099-2.499-0.269-3.626-0.8-6
	c-23.785,0-74-0.4-74-0.4l-1.363,6.483C105.022,232.38,155.167,232.294,181.186,232.294z"/>
<path fill="#010101" d="M60.942,209.887c-0.521,0.932-2.483,3.594-2.483,3.594s-3.056-0.086-4.64-0.073
	c-1.689,0.02-2.925-0.343-4.608-0.458c2.192-3.293,4.227-5.279,4.227-5.279s5.072,0,9.082,0.156L60.942,209.887z"/>
<path fill="#010101" d="M55.554,217.542c-0.467,0.829-2.211,3.2-2.211,3.2s-2.72-0.077-4.131-0.068
	c-1.504,0.017-2.602-0.307-4.103-0.408c1.952-2.932,3.763-4.701,3.763-4.701s4.515,0,8.083,0.137L55.554,217.542z"/>
<path fill="#010101" d="M98.802,216.447c-0.313,2.067-1.891,5.113-1.891,5.113s-7.61-0.637-10.666-0.569
	c1.155-2.599,2.122-5.136,2.122-5.136S93.288,215.279,98.802,216.447z"/>
<path fill="#010101" d="M110.776,216.028c-0.135,2.259-1.268,5.632-1.268,5.632s-6.365-0.34-8.902-0.125
	c0.803-2.873,1.456-5.67,1.456-5.67S105.986,215.395,110.776,216.028z"/>
<path fill="#010101" d="M84.328,215.967c-1.056,2.743-2.192,5.229-2.192,5.229c-3.382,0.211-6.471-0.1-10.701-0.1
	c0.998-2.7,2.323-5.341,2.323-5.341S80.734,215.967,84.328,215.967z"/>
<path fill="#010101" d="M101.08,208.367c-0.982,2.742-2.358,5.068-2.358,5.068c-3.146,0.212-5.702-0.211-9.635-0.211
	c1.77-2.742,2.163-5.068,2.163-5.068S97.736,208.367,101.08,208.367z"/>
<path fill="#010101" d="M113.656,208.367c-0.906,2.742-1.635,5.027-1.635,5.027c-2.8-0.1-5.786-0.173-9.402-0.173
	c1.104-2.627,1.994-5.069,1.994-5.069S110.581,208.367,113.656,208.367z"/>
<path fill="#010101" d="M127.25,215.791c-0.221,2.157-0.333,5.393-0.333,5.393s7.027,0.128,9.456,0.256
	c-0.317-2.845-0.32-5.172-0.32-5.172S131.877,215.932,127.25,215.791z"/>
<path fill="#010101" d="M127.224,208.482c-0.039,2.694,0.025,4.801,0.025,4.801c2.666,0.336,5.367,0.194,8.944,0.508
	c0-2.172-0.128-4.985-0.128-4.985C131.531,208.684,130.126,208.62,127.224,208.482z"/>
<path fill="#010101" d="M139.153,215.945c0.064,2.236,0.385,5.241,0.385,5.241s6.707,0.249,9.136,0.378
	c-0.32-2.842-0.586-5.869-0.586-5.869S143.781,216.086,139.153,215.945z"/>
<path fill="#010101" d="M138.354,208.495c0.112,2.694,0,5.065,0,5.065c2.679,0.189,5.897-0.019,9.488,0.096
	c-0.122-2.166,0.108-4.896,0.108-4.896C143.413,208.886,141.26,208.47,138.354,208.495z"/>
<path fill="#010101" d="M72.207,213.462c0,0-5.446-0.519-9.091-0.212c2.368-3.85,2.746-5.705,2.746-5.705s4.864,0,9.251,0.531
	L72.207,213.462z"/>
<path fill="#010101" d="M75.986,212.697c0.966-2.281,3.018-5.328,3.018-5.328s6.438,0.24,8.88,0.627
	c-1.059,2.326-2.4,5.101-2.4,5.101S80.632,213.434,75.986,212.697z"/>
<path fill="#010101" d="M115.211,213.347c0.685-2.272,1.456-4.729,1.456-4.729s5.779-0.189,8.144-0.07
	c-0.112,2.499-0.496,4.994-0.496,4.994S119.714,213.567,115.211,213.347z"/>
<path fill="#010101" d="M113.035,220.844c0.685-2.271,1.741-5.113,1.741-5.113s7.008-0.048,9.376,0.07
	c0,2.615-0.384,5.04-0.384,5.04S117.538,221.068,113.035,220.844z"/>
<path fill="#010101" d="M57.634,220.512c1.351-2.215,3.37-5.143,3.37-5.143s6.138,0.141,8.583,0.527
	c-1.06,2.326-2.599,5.2-2.599,5.2S62.587,221.094,57.634,220.512z"/>
<path fill="#010101" d="M227.538,210.387c0.521,0.932,2.482,3.594,2.482,3.594s3.053-0.087,4.641-0.074
	c1.687,0.02,2.925-0.342,4.604-0.457c-2.192-3.293-4.224-5.28-4.224-5.28s-5.075,0-9.082,0.157L227.538,210.387z"/>
<path fill="#010101" d="M232.824,217.24c0.467,0.83,2.211,3.201,2.211,3.201s2.72-0.077,4.132-0.068
	c1.5,0.017,2.598-0.307,4.099-0.409c-1.948-2.931-3.763-4.7-3.763-4.7s-4.513,0-8.08,0.137L232.824,217.24z"/>
<path fill="#010101" d="M189.682,216.648c0.313,2.068,1.892,5.114,1.892,5.114s7.609-0.637,10.665-0.569
	c-1.151-2.599-2.118-5.137-2.118-5.137S195.153,216.495,189.682,216.648z"/>
<path fill="#010101" d="M177.704,216.227c0.135,2.26,0.781,5.369,0.781,5.369s6.851-0.076,9.389,0.139
	c-0.804-2.874-1.453-5.671-1.453-5.671S182.491,215.596,177.704,216.227z"/>
<path fill="#010101" d="M204.2,215.868c1.056,2.742,2.195,5.229,2.195,5.229c3.382,0.212,6.471-0.099,10.7-0.099
	c-0.998-2.701-2.326-5.342-2.326-5.342S207.794,215.868,204.2,215.868z"/>
<path fill="#010101" d="M187.4,208.566c0.985,2.742,2.361,5.068,2.361,5.068c3.143,0.211,5.699-0.211,9.635-0.211
	c-1.772-2.743-2.166-5.069-2.166-5.069S190.744,208.566,187.4,208.566z"/>
<path fill="#010101" d="M174.824,208.566c0.902,2.742,1.635,5.026,1.635,5.026c2.801-0.099,5.786-0.173,9.402-0.173
	c-1.104-2.627-1.994-5.068-1.994-5.068S177.899,208.566,174.824,208.566z"/>
<path fill="#010101" d="M161.23,215.993c0.218,2.157,0.333,5.392,0.333,5.392s-7.024,0.128-9.453,0.256
	c-0.288-3.008-0.422-5.276-0.422-5.276S156.606,216.134,161.23,215.993z"/>
<path fill="#010101" d="M161.256,208.684c0.039,2.695,0.032,5.114,0.032,5.114c-2.666,0.336-5.299,0.301-8.998,0.198
	c0-2.173-0.333-4.963-0.333-4.963C156.488,208.904,158.354,208.822,161.256,208.684z"/>
<path fill="#010101" d="M216.817,213.763c0,0,4.944-0.292,8.884-0.317c-2.282-3.9-2.614-5.766-2.614-5.766s-4.864-0.105-9.265,0.329
	L216.817,213.763z"/>
<path fill="#010101" d="M212.488,213.164c-0.807-2.34-2.416-4.852-2.416-4.852s-6.441-0.207-8.902,0.004
	c0.89,2.394,2.035,5.258,2.035,5.258S207.804,213.577,212.488,213.164z"/>
<path fill="#010101" d="M173.269,213.545c-0.685-2.271-1.456-4.729-1.456-4.729s-5.775-0.188-8.144-0.07
	c0.112,2.499,0.496,4.995,0.496,4.995S168.767,213.766,173.269,213.545z"/>
<path fill="#010101" d="M174.754,221.295c0-2.534-0.4-5.465-0.4-5.465s-7.66,0.057-10.025,0.176c0,2.614,0.384,5.04,0.384,5.04
	S170.251,221.516,174.754,221.295z"/>
<path fill="#010101" d="M231.042,220.412c-1.351-2.215-3.37-5.143-3.37-5.143s-6.138,0.141-8.582,0.528
	c1.056,2.326,2.599,5.2,2.599,5.2S226.092,220.994,231.042,220.412z"/>
<path fill="#010101" d="M684.378,84.38h-95c-5.14,0-9.36,4.927-9.36,10.947v213.74c0,6.014,4.221,10.94,9.36,10.94h95
	c5.14-0.007,9.347-4.927,9.347-10.947V95.327C693.725,89.307,689.518,84.38,684.378,84.38z M640.378,304.273
	c0,3.007-1.573,5.474-3.5,5.474c-1.94,0-3.514-2.467-3.514-5.474v-50.6h7.021v50.6H640.378z M640.378,240.913h-7.02v-12.76
	c0-3.007,1.573-5.467,3.513-5.467c1.927,0,3.5,2.46,3.5,5.467v12.76H640.378z M681.499,134.253h-89.247v-25.527h89.247V134.253z"/>
<path fill="#010101" d="M561.319,250.42h-5.494l-11.666-31.273h17.16v-33.76H386.225V24.813c0-6.067,4.507-11.027,10-11.027h223.753
	c4.974,0,9.101,4.087,9.847,9.354v50.847h12.653v-50.8V19.92v-8.893c0-6.067-4.506-11.027-10-11.027H383.725
	c-5.493,0-10,4.96-10,11.027v197.086c0,6.061,4.507,11.02,10,11.02h87.693l-11.667,31.273h-15.56v15.514h118.753
	c-1.04-3.233-1.626-6.7-1.626-10.32V250.42z M508.099,208.347c-3.555,0-6.461-3.193-6.461-7.12s2.906-7.113,6.461-7.113
	c3.566,0,6.459,3.187,6.459,7.113S511.666,208.347,508.099,208.347z"/>
<text transform="matrix(1 0 0 1 69.5063 146.2163)" font-family="'Consolas'" font-size="24">192.168.0.0</text>
<text transform="matrix(1 0 0 1 448.7222 111.5449)" font-family="'Consolas'" font-size="24">192.0.2.0</text>
</svg>
