<?xml version="1.0" encoding="utf-8"?>
<!-- Generator: Adobe Illustrator 15.0.2, SVG Export Plug-In  -->
<!DOCTYPE svg PUBLIC "-//W3C//DTD SVG 1.1//EN" "http://www.w3.org/Graphics/SVG/1.1/DTD/svg11.dtd" [
	<!ENTITY ns_flows "http://ns.adobe.com/Flows/1.0/">
]>
<svg version="1.1"
	 xmlns="http://www.w3.org/2000/svg" xmlns:xlink="http://www.w3.org/1999/xlink" xmlns:a="http://ns.adobe.com/AdobeSVGViewerExtensions/3.0/"
	 x="0px" y="0px" width="400px" height="400px" viewBox="-45.5 -19.618 400 400"
	 overflow="visible" enable-background="new -45.5 -19.618 400 400" xml:space="preserve">
<defs>
</defs>
<path fill="#010101" d="M306.385,324.032l-28.782-40.886c2.483-72.176-25.644-101.841-32.173-107.722l-27.707-45.515
	c-5.441-9.11-18.464-11.382-29.041-5.075c-2.11,1.269-3.999,2.802-5.604,4.534c-5.88-6.109-16.018-7.366-24.917-2.947V23.077
	C158.162,10.348,147.809,0,135.086,0H23.076C10.354,0,0,10.348,0,23.077v268.752c0,12.723,10.354,23.064,23.076,23.064H135.08
	c6.548,0,12.783-2.789,17.16-7.654c14.869,11.862,28.759,21.014,35.739,25.439v19.289c0,4.437,3.602,8.032,8.033,8.032
	c4.437,0,8.039-3.596,8.039-8.032v-23.751c0-2.813-1.461-5.411-3.855-6.866c-23.088-14.062-83.743-57.348-87.128-88.361
	c-0.529-4.811,0.427-8.965,2.922-12.783l12.404,21.044c1.497,2.544,4.173,3.957,6.926,3.957c1.383,0,2.79-0.355,4.07-1.112
	c3.824-2.249,5.093-7.173,2.844-10.997L80.942,129.14c-0.24-0.409-0.132-1.059-0.042-1.407c0.319-1.293,1.479-3.151,3.751-4.521
	c3.337-1.984,6.434-1.437,7.096-0.331l16.559,26.474c0.409,1.25,0.932,2.478,1.636,3.644l38.408,60.354l0.229,0.373
	c0.006,0.013,0.012,0.013,0.024,0.024l0.012,0.023c0.013,0.024,0.03,0.036,0.042,0.061c0.343,0.518,0.734,0.975,1.161,1.389
	c0.132,0.127,0.27,0.234,0.409,0.354c0.348,0.289,0.709,0.542,1.088,0.771c0.162,0.096,0.318,0.192,0.493,0.276
	c0.438,0.222,0.896,0.396,1.371,0.534c0.108,0.03,0.216,0.079,0.318,0.109c0.578,0.138,1.173,0.21,1.768,0.216
	c0.048,0.006,0.084,0.018,0.126,0.018c0.102,0,0.205-0.042,0.307-0.047c0.534-0.013,1.059-0.097,1.588-0.217
	c0.174-0.049,0.348-0.084,0.522-0.145c0.632-0.205,1.257-0.451,1.84-0.817c0.012-0.013,0.029-0.023,0.037-0.031
	c0.005-0.005,0.011-0.005,0.018-0.005c0.18-0.12,0.325-0.266,0.499-0.385c0.258-0.204,0.534-0.386,0.758-0.602
	c0.174-0.169,0.306-0.36,0.462-0.541c0.193-0.217,0.397-0.428,0.56-0.661c0.139-0.205,0.235-0.422,0.36-0.626
	c0.133-0.241,0.289-0.48,0.396-0.733c0.097-0.217,0.151-0.457,0.229-0.68c0.085-0.259,0.199-0.511,0.253-0.775
	c0.055-0.24,0.067-0.493,0.09-0.732c0.037-0.266,0.092-0.529,0.097-0.801c0.013-0.246-0.029-0.499-0.042-0.752
	c-0.018-0.264-0.013-0.529-0.06-0.793c-0.037-0.229-0.114-0.445-0.174-0.674c-0.079-0.289-0.127-0.577-0.236-0.859
	c-0.064-0.163-0.161-0.319-0.233-0.476c-0.145-0.324-0.276-0.648-0.463-0.949l-38.679-61.816c0.018-0.078,0.018-0.18,0.036-0.24
	c0.324-1.293,1.479-3.15,3.758-4.515c3.331-1.991,6.428-1.431,7.119-0.277l38.692,60.752c0.511,0.806,1.16,1.467,1.875,2.021
	l0.523,0.853c1.509,2.489,4.154,3.859,6.866,3.859c1.424,0,2.862-0.377,4.166-1.165c3.795-2.31,4.997-7.251,2.694-11.039
	l-28.374-46.623c-0.246-0.402-0.132-1.058-0.047-1.407c0.323-1.287,1.484-3.15,3.763-4.521c3.319-1.984,6.422-1.431,7.029-0.409
	l28.403,46.646c0.402,0.661,0.909,1.214,1.449,1.713l6.386,10.493c2.309,3.788,7.245,4.99,11.039,2.681
	c3.788-2.302,4.997-7.244,2.688-11.038l-28.368-46.617c-0.24-0.402-0.126-1.052-0.042-1.407c0.319-1.293,1.479-3.15,3.752-4.515
	c3.325-1.991,6.434-1.437,7.041-0.421l28.397,46.651c0.481,0.8,1.155,1.546,1.888,2.135c0.308,0.241,30.437,25.361,27.184,98.199
	c-0.085,1.779,0.432,3.535,1.455,4.983l30.353,43.105c1.562,2.212,4.052,3.403,6.577,3.403c1.605,0,3.217-0.47,4.618-1.468
	C308.07,332.667,308.934,327.651,306.385,324.032z M23.076,16.065H135.08c3.866,0,7.011,3.139,7.011,7.011v13.24
	c-0.078,0-0.15-0.024-0.223-0.024H16.282c-0.072,0-0.144,0.018-0.216,0.024v-13.24C16.066,19.205,19.205,16.065,23.076,16.065z
	 M139.884,296.88c-1.305,1.244-2.976,1.947-4.804,1.947H23.076c-3.866,0-7.01-3.138-7.01-6.998v-25.031
	c0.072,0,0.145,0.019,0.216,0.019h95.234C119.321,277.435,129.434,287.674,139.884,296.88z M119.062,124.834
	c-1.78,1.07-3.379,2.345-4.804,3.752l-8.814-14.087c-5.441-9.109-18.458-11.382-29.035-5.068c-5.597,3.361-9.65,8.609-11.099,14.412
	c-1.191,4.774-0.535,9.602,1.822,13.511l40.188,68.159c-7.864,8.177-11.424,18.23-10.227,29.232
	c0.577,5.286,2.249,10.655,4.726,16.019H16.282c-0.072,0-0.144,0.012-0.216,0.019V52.333c0.072,0,0.145,0.025,0.216,0.025h125.585
	c0.079,0,0.145-0.013,0.223-0.025v71.719C135.669,120.253,126.741,120.264,119.062,124.834z"/>
</svg>
