<?xml version="1.0" encoding="utf-8"?>
<!-- Generator: Adobe Illustrator 15.0.2, SVG Export Plug-In  -->
<!DOCTYPE svg PUBLIC "-//W3C//DTD SVG 1.1//EN" "http://www.w3.org/Graphics/SVG/1.1/DTD/svg11.dtd" [
	<!ENTITY ns_flows "http://ns.adobe.com/Flows/1.0/">
]>
<svg version="1.1"
	 xmlns="http://www.w3.org/2000/svg" xmlns:xlink="http://www.w3.org/1999/xlink" xmlns:a="http://ns.adobe.com/AdobeSVGViewerExtensions/3.0/"
	 x="0px" y="0px" width="800px" height="480px" viewBox="-31.221 -34.599 800 480"
	 overflow="visible" enable-background="new -31.221 -34.599 800 480" xml:space="preserve">
<defs>
</defs>
<path fill="#010101" d="M80,214.28v80.354h80V187.877h-53.599L80,214.28z M102.41,197.516v12.772H89.638L102.41,197.516
	L102.41,197.516z M83.99,290.64V214.28h22.409v-22.411h49.609v98.771H83.99L83.99,290.64z"/>
<text transform="matrix(1 0 0 1 93.6792 238.0088)"><tspan x="0" y="0" font-family="'Consolas'" font-size="19.1489">To:</tspan><tspan x="0" y="22.979" font-family="'Consolas'" font-size="19.1489">From:</tspan></text>
<polygon fill="#010101" points="230.124,354.003 11.134,354.003 73.702,338.969 167.556,338.969 "/>
<path fill="#010101" d="M227.899,358.014H12.102C5.446,358.014,0,363.459,0,370.114v23.914c0,6.656,5.446,12.101,12.102,12.101
	h21.031v4.674h20.046v-4.674h136.983v4.674h18.377v-4.674h19.36c6.655,0,12.102-5.444,12.102-12.101v-23.914
	C240.001,363.459,234.555,358.014,227.899,358.014z M25.335,390.423c-4.613,0-8.353-3.742-8.353-8.353
	c0-4.613,3.739-8.353,8.353-8.353c4.612,0,8.352,3.739,8.352,8.353C33.689,386.681,29.95,390.423,25.335,390.423z M58.747,390.423
	c-4.612,0-8.352-3.742-8.352-8.353c0-4.613,3.739-8.353,8.352-8.353c4.613,0,8.353,3.739,8.353,8.353
	C67.1,386.681,63.36,390.423,58.747,390.423z M92.158,390.423c-4.613,0-8.353-3.742-8.353-8.353c0-4.613,3.739-8.353,8.353-8.353
	c4.612,0,8.352,3.739,8.352,8.353C100.51,386.681,96.771,390.423,92.158,390.423z M215.776,390.423
	c-4.612,0-8.352-3.742-8.352-8.353c0-4.613,3.739-8.353,8.352-8.353c4.613,0,8.353,3.739,8.353,8.353
	C224.129,386.681,220.39,390.423,215.776,390.423z"/>
<polygon fill="#010101" points="727.682,166.126 508.691,166.126 571.26,151.092 665.113,151.092 "/>
<path fill="#010101" d="M725.458,170.137H509.659c-6.655,0-12.101,5.445-12.101,12.102v23.913c0,6.655,5.445,12.101,12.101,12.101
	h21.031v4.674h20.047v-4.674H687.72v4.674h18.377v-4.674h19.361c6.655,0,12.101-5.445,12.101-12.101v-23.913
	C737.559,175.582,732.113,170.137,725.458,170.137z M522.893,202.545c-4.613,0-8.352-3.741-8.352-8.352
	c0-4.613,3.738-8.352,8.352-8.352s8.352,3.738,8.352,8.352C531.247,198.804,527.508,202.545,522.893,202.545z M556.306,202.545
	c-4.613,0-8.352-3.741-8.352-8.352c0-4.613,3.738-8.352,8.352-8.352c4.612,0,8.352,3.738,8.352,8.352
	C564.657,198.804,560.918,202.545,556.306,202.545z M589.716,202.545c-4.613,0-8.352-3.741-8.352-8.352
	c0-4.613,3.738-8.352,8.352-8.352s8.352,3.738,8.352,8.352C598.067,198.804,594.329,202.545,589.716,202.545z M713.335,202.545
	c-4.613,0-8.353-3.741-8.353-8.352c0-4.613,3.739-8.352,8.353-8.352s8.353,3.738,8.353,8.352
	C721.688,198.804,717.948,202.545,713.335,202.545z"/>
<polygon fill="#010101" points="306.831,276.532 233.835,276.532 254.69,271.521 285.976,271.521 "/>
<path fill="#010101" d="M306.09,277.869h-71.933c-2.219,0-4.033,1.815-4.033,4.034v7.971c0,2.219,1.814,4.033,4.033,4.033h7.011
	v1.559h6.682v-1.559h45.661v1.559h6.126v-1.559h6.453c2.219,0,4.034-1.814,4.034-4.033v-7.971
	C310.124,279.685,308.309,277.869,306.09,277.869z M238.568,288.673c-1.537,0-2.784-1.248-2.784-2.785s1.247-2.783,2.784-2.783
	s2.784,1.246,2.784,2.783C241.354,287.425,240.106,288.673,238.568,288.673z M249.706,288.673c-1.538,0-2.784-1.248-2.784-2.785
	s1.246-2.783,2.784-2.783c1.537,0,2.784,1.246,2.784,2.783S251.243,288.673,249.706,288.673z M260.843,288.673
	c-1.538,0-2.784-1.248-2.784-2.785s1.246-2.783,2.784-2.783c1.537,0,2.784,1.246,2.784,2.783S262.38,288.673,260.843,288.673z
	 M302.049,288.673c-1.537,0-2.784-1.248-2.784-2.785s1.247-2.783,2.784-2.783c1.538,0,2.784,1.246,2.784,2.783
	S303.587,288.673,302.049,288.673z"/>
<polygon fill="#010101" points="382.932,359.015 309.936,359.015 330.792,354.003 362.076,354.003 "/>
<path fill="#010101" d="M382.191,360.352h-71.934c-2.218,0-4.033,1.815-4.033,4.034v7.971c0,2.219,1.815,4.033,4.033,4.033h7.011
	v1.559h6.682v-1.559h45.663v1.559h6.125v-1.559h6.453c2.219,0,4.033-1.814,4.033-4.033v-7.971
	C386.225,362.167,384.41,360.352,382.191,360.352z M314.669,371.155c-1.537,0-2.783-1.248-2.783-2.785s1.246-2.783,2.783-2.783
	s2.784,1.246,2.784,2.783C317.454,369.907,316.208,371.155,314.669,371.155z M325.807,371.155c-1.538,0-2.784-1.248-2.784-2.785
	s1.246-2.783,2.784-2.783s2.784,1.246,2.784,2.783S327.345,371.155,325.807,371.155z M336.943,371.155
	c-1.538,0-2.784-1.248-2.784-2.785s1.246-2.783,2.784-2.783s2.784,1.246,2.784,2.783S338.481,371.155,336.943,371.155z
	 M378.15,371.155c-1.537,0-2.783-1.248-2.783-2.785s1.246-2.783,2.783-2.783s2.783,1.246,2.783,2.783
	S379.688,371.155,378.15,371.155z"/>
<polygon fill="#010101" points="422.932,251.374 349.936,251.374 370.792,246.362 402.076,246.362 "/>
<path fill="#010101" d="M422.19,252.712h-71.933c-2.218,0-4.033,1.814-4.033,4.033v7.971c0,2.219,1.815,4.033,4.033,4.033h7.011
	v1.559h6.682v-1.559h45.662v1.559h6.125v-1.559h6.453c2.219,0,4.034-1.814,4.034-4.033v-7.971
	C426.225,254.526,424.409,252.712,422.19,252.712z M354.669,263.515c-1.537,0-2.783-1.248-2.783-2.785s1.246-2.783,2.783-2.783
	s2.784,1.246,2.784,2.783C357.454,262.267,356.208,263.515,354.669,263.515z M365.807,263.515c-1.538,0-2.784-1.248-2.784-2.785
	s1.246-2.783,2.784-2.783s2.784,1.246,2.784,2.783S367.345,263.515,365.807,263.515z M376.943,263.515
	c-1.538,0-2.784-1.248-2.784-2.785s1.246-2.783,2.784-2.783s2.784,1.246,2.784,2.783S378.481,263.515,376.943,263.515z
	 M418.149,263.515c-1.537,0-2.783-1.248-2.783-2.785s1.246-2.783,2.783-2.783c1.538,0,2.784,1.246,2.784,2.783
	S419.688,263.515,418.149,263.515z"/>
<polygon fill="#010101" points="521.941,332.008 448.945,332.008 469.802,326.996 501.086,326.996 "/>
<path fill="#010101" d="M521.2,333.345h-71.933c-2.218,0-4.033,1.815-4.033,4.034v7.971c0,2.219,1.815,4.033,4.033,4.033h7.011
	v1.559h6.682v-1.559h45.662v1.559h6.125v-1.559h6.453c2.219,0,4.034-1.814,4.034-4.033v-7.971
	C525.234,335.16,523.419,333.345,521.2,333.345z M453.679,344.148c-1.537,0-2.783-1.248-2.783-2.785s1.246-2.783,2.783-2.783
	s2.784,1.246,2.784,2.783C456.464,342.9,455.218,344.148,453.679,344.148z M464.816,344.148c-1.538,0-2.784-1.248-2.784-2.785
	s1.246-2.783,2.784-2.783s2.784,1.246,2.784,2.783S466.354,344.148,464.816,344.148z M475.953,344.148
	c-1.538,0-2.784-1.248-2.784-2.785s1.246-2.783,2.784-2.783s2.784,1.246,2.784,2.783S477.491,344.148,475.953,344.148z
	 M517.159,344.148c-1.537,0-2.783-1.248-2.783-2.785s1.246-2.783,2.783-2.783c1.538,0,2.784,1.246,2.784,2.783
	S518.697,344.148,517.159,344.148z"/>
<polygon fill="#010101" points="554.172,264.56 481.176,264.56 502.032,259.548 533.316,259.548 "/>
<path fill="#010101" d="M553.431,265.896h-71.933c-2.218,0-4.033,1.815-4.033,4.034v7.971c0,2.219,1.815,4.033,4.033,4.033h7.011
	v1.559h6.682v-1.559h45.662v1.559h6.125v-1.559h6.453c2.219,0,4.034-1.814,4.034-4.033v-7.971
	C557.465,267.712,555.649,265.896,553.431,265.896z M485.909,276.7c-1.537,0-2.783-1.248-2.783-2.785s1.246-2.783,2.783-2.783
	s2.784,1.246,2.784,2.783C488.694,275.452,487.448,276.7,485.909,276.7z M497.047,276.7c-1.538,0-2.784-1.248-2.784-2.785
	s1.246-2.783,2.784-2.783s2.784,1.246,2.784,2.783S498.585,276.7,497.047,276.7z M508.184,276.7c-1.538,0-2.784-1.248-2.784-2.785
	s1.246-2.783,2.784-2.783s2.784,1.246,2.784,2.783S509.722,276.7,508.184,276.7z M549.39,276.7c-1.537,0-2.783-1.248-2.783-2.785
	s1.246-2.783,2.783-2.783c1.538,0,2.784,1.246,2.784,2.783S550.928,276.7,549.39,276.7z"/>
<polygon fill="#010101" points="670.809,353.391 597.812,353.391 618.669,348.379 649.953,348.379 "/>
<path fill="#010101" d="M670.067,354.728h-71.933c-2.218,0-4.033,1.815-4.033,4.034v7.971c0,2.219,1.815,4.033,4.033,4.033h7.011
	v1.559h6.682v-1.559h45.662v1.559h6.125v-1.559h6.453c2.219,0,4.034-1.814,4.034-4.033v-7.971
	C674.102,356.543,672.286,354.728,670.067,354.728z M602.546,365.531c-1.537,0-2.783-1.248-2.783-2.785s1.246-2.783,2.783-2.783
	s2.784,1.246,2.784,2.783C605.331,364.283,604.085,365.531,602.546,365.531z M613.684,365.531c-1.538,0-2.784-1.248-2.784-2.785
	s1.246-2.783,2.784-2.783s2.784,1.246,2.784,2.783S615.222,365.531,613.684,365.531z M624.82,365.531
	c-1.538,0-2.784-1.248-2.784-2.785s1.246-2.783,2.784-2.783s2.784,1.246,2.784,2.783S626.358,365.531,624.82,365.531z
	 M666.026,365.531c-1.537,0-2.783-1.248-2.783-2.785s1.246-2.783,2.783-2.783c1.538,0,2.784,1.246,2.784,2.783
	S667.564,365.531,666.026,365.531z"/>
<path fill="none" stroke="#010101" stroke-miterlimit="10" d="M181.034,344.395c21.304-5.623,24.687-33.69,40.472-46.058
	c15.053-11.794,28.276-2.595,38.979,9.706c11.465,13.176,21.918,26.765,38.053,34.555c23.345,11.271,49.061,16.135,74.903,15.367
	c25.095-0.745,52.459-5.379,72.086-22.267"/>
<path fill="none" stroke="#010101" stroke-miterlimit="10" d="M294.078,274.104c19.512,0.599,34.447-15.576,53.623-16.667"/>
<path fill="none" stroke="#010101" stroke-miterlimit="10" d="M423.788,255.988c20.054-0.153,44.111-2.227,58.696,14.493"/>
<path fill="none" stroke="#010101" stroke-miterlimit="10" d="M384.657,372.655c42.267,0.188,84.205,6.754,126.463,7.188
	c28.468,0.293,59.788,0.26,83.683-17.334"/>
<path fill="none" stroke="#010101" stroke-miterlimit="10" d="M373.063,267.583c14.803,0.488,23.97,15.633,32.941,25.341
	c11.714,12.677,26.825,20.281,42.916,26.019c12.645,4.51,26.442,10.51,40.084,10.234"/>
<path fill="none" stroke="#010101" stroke-miterlimit="10" d="M523.788,345.844c7.454-0.559,15.964,3.609,23.26,4.898
	c16.436,2.904,33.225,4.768,49.929,3.797"/>
<path fill="none" stroke="#010101" stroke-miterlimit="10" d="M409.295,248.017c41.64,0,83.347-0.032,124.914-2.772
	c22.467-1.481,48.562-3.329,68.171-15.487c12.138-7.525,20.213-19.31,27.93-31.015"/>
<path fill="none" stroke="#010101" stroke-miterlimit="10" d="M535.382,261.785c30.919,3.97,77.974-20.751,81.884-54.348"/>
<path fill="none" stroke="#010101" stroke-miterlimit="10" d="M607.121,350.916c22.769-4.874,19.092-45.573,17.31-61.893
	c-2.855-26.139-9.541-52.259-8.614-78.688"/>
<polyline fill="none" stroke="#010101" stroke-width="1.1918" stroke-miterlimit="10" points="207.855,325.044 209.328,315.044 
	199.328,319.423 "/>
<polyline fill="none" stroke="#010101" stroke-width="1.1918" stroke-miterlimit="10" points="325.65,269.599 331.635,261.452 
	320.748,260.639 "/>
<polyline fill="none" stroke="#010101" stroke-width="1.1918" stroke-miterlimit="10" points="277.571,334.627 287.524,336.389 
	283.438,326.267 "/>
<polyline fill="none" stroke="#010101" stroke-width="1.1918" stroke-miterlimit="10" points="408.571,302.627 418.524,304.389 
	414.438,294.267 "/>
<polyline fill="none" stroke="#010101" stroke-width="1.1918" stroke-miterlimit="10" points="417.983,356.87 423.968,348.724 
	413.081,347.91 "/>
<polyline fill="none" stroke="#010101" stroke-width="1.1918" stroke-miterlimit="10" points="448.786,259.975 458.625,257.653 
	450.864,249.975 "/>
<polyline fill="none" stroke="#010101" stroke-width="1.1918" stroke-miterlimit="10" points="552.545,356.295 562.384,353.974 
	554.623,346.295 "/>
<polyline fill="none" stroke="#010101" stroke-width="1.1918" stroke-miterlimit="10" points="519.745,251.194 527.676,244.928 
	517.395,241.256 "/>
<polyline fill="none" stroke="#010101" stroke-width="1.1918" stroke-miterlimit="10" points="473.597,382.079 483.43,379.742 
	475.658,372.076 "/>
<polyline fill="none" stroke="#010101" stroke-width="1.1918" stroke-miterlimit="10" points="629.011,281.328 622.035,274.013 
	619.332,284.59 "/>
<g>
	<g>
		<line fill="none" stroke="#010101" stroke-width="9.0149" stroke-miterlimit="10" x1="120" y1="300.494" x2="120" y2="320.171"/>
		<g>
			<polygon fill="#010101" points="111.061,317.54 120.049,333.109 129.04,317.54 			"/>
		</g>
	</g>
</g>
<text transform="matrix(1 0 0 1 119.73 388.9404)" fill="#FFFFFF" font-family="'Helvetica'" font-size="18">Sender</text>
<text transform="matrix(1 0 0 1 613.5156 201.0635)" fill="#FFFFFF" font-family="'Helvetica'" font-size="18">Recipient</text>
<path fill="#010101" d="M577.559,26.403v80.354h80V0h-53.598L577.559,26.403z M599.969,9.638v12.773h-12.772L599.969,9.638
	L599.969,9.638z M581.549,102.763V26.403h22.41V3.992h49.608v98.771h-72.017H581.549z"/>
<text transform="matrix(1 0 0 1 591.2383 50.1323)"><tspan x="0" y="0" font-family="'Consolas'" font-size="19.1489">To:</tspan><tspan x="0" y="22.979" font-family="'Consolas'" font-size="19.1489">From:</tspan></text>
<g>
	<g>
		
			<line fill="none" stroke="#010101" stroke-width="9.0149" stroke-miterlimit="10" x1="617.559" y1="145.232" x2="617.559" y2="125.556"/>
		<g>
			<polygon fill="#010101" points="626.498,128.187 617.51,112.617 608.519,128.187 			"/>
		</g>
	</g>
</g>
</svg>
