<?xml version="1.0" encoding="UTF-8" standalone="no"?>
<svg
   xmlns:dc="http://purl.org/dc/elements/1.1/"
   xmlns:cc="http://creativecommons.org/ns#"
   xmlns:rdf="http://www.w3.org/1999/02/22-rdf-syntax-ns#"
   xmlns:svg="http://www.w3.org/2000/svg"
   xmlns="http://www.w3.org/2000/svg"
   viewBox="0 0 964.28748 697.88751"
   height="697.88751"
   width="964.28748"
   xml:space="preserve"
   version="1.1"
   id="svg2"><metadata
     id="metadata8"><rdf:RDF><cc:Work
         rdf:about=""><dc:format>image/svg+xml</dc:format><dc:type
           rdf:resource="http://purl.org/dc/dcmitype/StillImage" /><dc:title></dc:title></cc:Work></rdf:RDF></metadata><defs
     id="defs6"><clipPath
       id="clipPath18"
       clipPathUnits="userSpaceOnUse"><path
         id="path20"
         d="m 0.00390625,0.0117188 7713.99999375,0 0,5582.9899812 -7713.99999375,0 0,-5582.9899812 z" /></clipPath><clipPath
       id="clipPath212"
       clipPathUnits="userSpaceOnUse"><path
         id="path214"
         d="m 2169.2,2878.38 -1190.001,0 0,225 0,5 1190.001,0 0,-230 m -1180.001,220 0,-210.01 1170.001,0 0,210.01 -1170.001,0" /></clipPath><clipPath
       id="clipPath222"
       clipPathUnits="userSpaceOnUse"><path
         id="path224"
         d="m 0.00390625,0.0117188 7713.99999375,0 0,5582.9899812 -7713.99999375,0 0,-5582.9899812 z" /></clipPath><clipPath
       id="clipPath274"
       clipPathUnits="userSpaceOnUse"><path
         id="path276"
         d="m 4349.27,2136.5 -1490,0 0,225 0,5 1490,0 0,-230 m -1480,220 0,-210 1470,0 0,210 -1470,0" /></clipPath><clipPath
       id="clipPath284"
       clipPathUnits="userSpaceOnUse"><path
         id="path286"
         d="m 0.00390625,0.0117188 7713.99999375,0 0,5582.9899812 -7713.99999375,0 0,-5582.9899812 z" /></clipPath></defs><g
     transform="matrix(1.25,0,0,-1.25,0,697.8875)"
     id="g10"><g
       transform="scale(0.1,0.1)"
       id="g12"><g
         id="g14"><g
           clip-path="url(#clipPath18)"
           id="g16"><path
             id="path22"
             style="fill:#100f0d;fill-opacity:1;fill-rule:nonzero;stroke:none"
             d="m 5383.24,3623.13 0,-5 540,0 c 26.25,0 49.97,-10.62 67.17,-27.82 17.2,-17.21 27.82,-40.93 27.83,-67.18 l 0,-20 c -0.01,-26.25 -10.63,-49.97 -27.83,-67.18 -17.2,-17.2 -40.92,-27.82 -67.17,-27.82 l -540,0 c -26.25,0 -49.97,10.62 -67.18,27.82 -17.2,17.21 -27.82,40.93 -27.82,67.18 l 0,20 c 0,26.25 10.62,49.97 27.82,67.18 17.21,17.2 40.93,27.82 67.18,27.82 l 0,10 c -57.99,0 -105,-47 -105,-105 l 0,-20 c 0,-58 47.01,-105 105,-105 l 540,0 c 57.99,0 104.99,47 105,105 l 0,20 c -0.01,58 -47.01,105 -105,105 l -540,0 0,-5" /><path
             id="path24"
             style="fill:#100f0d;fill-opacity:1;fill-rule:nonzero;stroke:none"
             d="m 5924.86,3473.13 -10.55,0 0,67.21 c -2.54,-2.42 -5.86,-4.85 -9.98,-7.27 -4.12,-2.42 -7.83,-4.24 -11.11,-5.45 l 0,10.2 c 5.9,2.77 11.05,6.13 15.47,10.08 4.41,3.94 7.54,7.77 9.37,11.48 l 6.8,0 0,-86.25 z m -96.51,31.05 c 0,-7.96 1.68,-13.92 5.04,-17.87 3.36,-3.94 7.33,-5.91 11.9,-5.91 4.61,0 8.53,1.88 11.76,5.65 3.22,3.77 4.82,9.52 4.82,17.26 0,8.51 -1.64,14.76 -4.92,18.75 -3.28,3.98 -7.33,5.97 -12.13,5.97 -4.69,0 -8.59,-1.91 -11.74,-5.74 -3.14,-3.83 -4.73,-9.86 -4.73,-18.11 z m 33.34,-31.05 0,7.85 c -3.94,-6.17 -9.74,-9.26 -17.4,-9.26 -4.96,0 -9.51,1.37 -13.67,4.11 -4.16,2.73 -7.38,6.55 -9.67,11.45 -2.28,4.9 -3.44,10.54 -3.44,16.9 0,6.22 1.04,11.85 3.11,16.91 2.07,5.06 5.18,8.93 9.32,11.63 4.14,2.7 8.77,4.04 13.88,4.04 3.75,0 7.09,-0.79 10.02,-2.37 2.93,-1.58 5.32,-3.64 7.15,-6.18 l 0,30.82 10.49,0 0,-85.9 -9.79,0 z m -80.44,0 0,62.23 9.49,0 0,-9.44 c 2.42,4.42 4.67,7.33 6.72,8.73 2.05,1.41 4.29,2.11 6.75,2.11 3.56,0 7.17,-1.13 10.84,-3.4 l -3.63,-9.78 c -2.58,1.52 -5.16,2.28 -7.73,2.28 -2.31,0 -4.38,-0.69 -6.21,-2.08 -1.84,-1.38 -3.15,-3.31 -3.93,-5.77 -1.17,-3.75 -1.76,-7.85 -1.76,-12.3 l 0,-32.58 -10.54,0 z m -59.71,31.11 c 0,-7.97 1.74,-13.93 5.21,-17.9 3.48,-3.96 7.85,-5.94 13.13,-5.94 5.23,0 9.59,1.99 13.06,5.97 3.48,3.99 5.22,10.06 5.22,18.22 0,7.7 -1.74,13.53 -5.24,17.5 -3.49,3.96 -7.85,5.94 -13.04,5.94 -5.28,0 -9.65,-1.97 -13.13,-5.92 -3.47,-3.94 -5.21,-9.9 -5.21,-17.87 z m -10.84,0 c 0,11.53 3.2,20.06 9.61,25.61 5.35,4.61 11.87,6.91 19.57,6.91 8.55,0 15.54,-2.8 20.97,-8.41 5.43,-5.6 8.15,-13.35 8.15,-23.23 0,-8.01 -1.19,-14.3 -3.59,-18.89 -2.41,-4.59 -5.9,-8.16 -10.49,-10.7 -4.59,-2.54 -9.61,-3.81 -15.04,-3.81 -8.71,0 -15.74,2.8 -21.12,8.38 -5.37,5.59 -8.06,13.64 -8.06,24.14 z m -15.47,-8.32 10.37,-1.34 c -1.13,-7.15 -4.02,-12.75 -8.69,-16.79 -4.67,-4.04 -10.41,-6.07 -17.21,-6.07 -8.51,0 -15.35,2.79 -20.53,8.35 -5.17,5.57 -7.77,13.55 -7.77,23.94 0,6.72 1.11,12.6 3.34,17.64 2.23,5.03 5.63,8.81 10.18,11.33 4.55,2.52 9.49,3.78 14.84,3.78 6.76,0 12.29,-1.71 16.58,-5.12 4.3,-3.42 7.05,-8.28 8.26,-14.56 l -10.25,-1.59 c -0.98,4.18 -2.69,7.33 -5.18,9.44 -2.48,2.11 -5.48,3.16 -9,3.16 -5.31,0 -9.63,-1.9 -12.95,-5.71 -3.32,-3.81 -4.98,-9.84 -4.98,-18.08 0,-8.36 1.6,-14.43 4.81,-18.22 3.2,-3.79 7.38,-5.68 12.53,-5.68 4.15,0 7.6,1.27 10.38,3.8 2.77,2.54 4.53,6.45 5.27,11.72 z m -99.38,14.3 34.75,0 c -0.47,5.23 -1.8,9.16 -3.98,11.78 -3.36,4.06 -7.72,6.09 -13.07,6.09 -4.84,0 -8.91,-1.62 -12.21,-4.86 -3.3,-3.24 -5.13,-7.58 -5.49,-13.01 z m 34.63,-17.05 10.9,-1.35 c -1.72,-6.37 -4.9,-11.31 -9.55,-14.82 -4.65,-3.52 -10.58,-5.28 -17.81,-5.28 -9.1,0 -16.31,2.81 -21.64,8.41 -5.33,5.61 -8.01,13.47 -8.01,23.59 0,10.46 2.7,18.59 8.09,24.37 5.39,5.78 12.38,8.67 20.97,8.67 8.32,0 15.12,-2.83 20.39,-8.49 5.28,-5.67 7.91,-13.64 7.91,-23.91 0,-0.62 -0.02,-1.56 -0.06,-2.81 l -46.4,0 c 0.39,-6.84 2.32,-12.07 5.8,-15.71 3.48,-3.63 7.81,-5.44 13.01,-5.44 3.86,0 7.17,1.01 9.9,3.04 2.73,2.03 4.9,5.28 6.5,9.73 z m -82.67,-20.04 0,62.23 9.49,0 0,-9.44 c 2.42,4.42 4.67,7.33 6.72,8.73 2.05,1.41 4.3,2.11 6.76,2.11 3.55,0 7.16,-1.13 10.84,-3.4 l -3.64,-9.78 c -2.57,1.52 -5.15,2.28 -7.73,2.28 -2.31,0 -4.38,-0.69 -6.21,-2.08 -1.84,-1.38 -3.15,-3.31 -3.93,-5.77 -1.17,-3.75 -1.76,-7.85 -1.76,-12.3 l 0,-32.58 -10.54,0 z m -30.3,0 0,12.01 12.02,0 0,-12.01 -12.02,0 z m 0,50.21 0,12.02 12.02,0 0,-12.02 -12.02,0 z m -62.63,-19.16 c 0,-7.96 1.68,-13.92 5.04,-17.87 3.36,-3.94 7.32,-5.91 11.89,-5.91 4.61,0 8.54,1.88 11.76,5.65 3.22,3.77 4.82,9.52 4.82,17.26 0,8.51 -1.64,14.76 -4.92,18.75 -3.28,3.98 -7.32,5.97 -12.13,5.97 -4.68,0 -8.59,-1.91 -11.74,-5.74 -3.14,-3.83 -4.72,-9.86 -4.72,-18.11 z m 33.34,-31.05 0,7.85 c -3.95,-6.17 -9.75,-9.26 -17.4,-9.26 -4.97,0 -9.52,1.37 -13.68,4.11 -4.16,2.73 -7.38,6.55 -9.66,11.45 -2.29,4.9 -3.44,10.54 -3.44,16.9 0,6.22 1.03,11.85 3.1,16.91 2.07,5.06 5.18,8.93 9.32,11.63 4.14,2.7 8.77,4.04 13.89,4.04 3.75,0 7.09,-0.79 10.02,-2.37 2.93,-1.58 5.31,-3.64 7.14,-6.18 l 0,30.82 10.49,0 0,-85.9 -9.78,0 z m -80.45,0 0,62.23 9.49,0 0,-9.44 c 2.42,4.42 4.67,7.33 6.72,8.73 2.05,1.41 4.3,2.11 6.76,2.11 3.55,0 7.17,-1.13 10.84,-3.4 l -3.64,-9.78 c -2.57,1.52 -5.15,2.28 -7.73,2.28 -2.3,0 -4.38,-0.69 -6.21,-2.08 -1.84,-1.38 -3.15,-3.31 -3.93,-5.77 -1.17,-3.75 -1.75,-7.85 -1.75,-12.3 l 0,-32.58 -10.55,0 z m -66.62,0 0,62.23 9.49,0 0,-8.85 c 4.57,6.83 11.17,10.25 19.8,10.25 3.75,0 7.21,-0.67 10.36,-2.02 3.14,-1.35 5.48,-3.11 7.05,-5.3 1.56,-2.19 2.65,-4.79 3.28,-7.79 0.39,-1.96 0.58,-5.38 0.58,-10.26 l 0,-38.26 -10.54,0 0,37.85 c 0,4.3 -0.41,7.51 -1.23,9.64 -0.82,2.13 -2.27,3.83 -4.36,5.1 -2.09,1.27 -4.55,1.9 -7.36,1.9 -4.49,0 -8.36,-1.42 -11.62,-4.28 -3.27,-2.85 -4.91,-8.26 -4.91,-16.23 l 0,-33.98 -10.54,0" /><path
             id="path26"
             style="fill:#ffffff;fill-opacity:1;fill-rule:nonzero;stroke:none"
             d="m 6708.24,4958.13 -510,0 0,230 510,0 0,-230 m -500,220 0,-210 490,0 0,210 -490,0" /><path
             id="path28"
             style="fill:#100f0d;fill-opacity:1;fill-rule:nonzero;stroke:none"
             d="m 6637.73,5042.56 1.52,-9.31 c -2.97,-0.63 -5.62,-0.94 -7.97,-0.94 -3.82,0 -6.79,0.6 -8.9,1.81 -2.11,1.22 -3.6,2.81 -4.46,4.78 -0.85,1.98 -1.28,6.12 -1.28,12.45 l 0,35.8 -7.74,0 0,8.21 7.74,0 0,15.41 10.48,6.32 0,-21.73 10.61,0 0,-8.21 -10.61,0 0,-36.38 c 0,-3.01 0.2,-4.95 0.57,-5.81 l 1.82,-2.05 c 0.84,-0.5 2.03,-0.76 3.59,-0.76 1.17,0 2.72,0.14 4.63,0.41 z m -50.04,21.8 c -3.83,-1.56 -9.57,-2.89 -17.23,-3.98 -4.33,-0.63 -7.4,-1.33 -9.2,-2.11 -1.79,-0.79 -3.18,-1.93 -4.16,-3.43 -0.97,-1.5 -1.46,-3.18 -1.46,-5.01 0,-2.81 1.07,-5.16 3.2,-7.03 2.13,-1.88 5.24,-2.82 9.34,-2.82 4.06,0 7.67,0.9 10.84,2.67 3.16,1.78 5.49,4.21 6.97,7.3 1.13,2.38 1.7,5.89 1.7,10.54 l 0,3.87 z m 0.88,-23.56 c -3.91,-3.32 -7.66,-5.66 -11.27,-7.03 -3.61,-1.36 -7.5,-2.05 -11.64,-2.05 -6.84,0 -12.09,1.67 -15.76,5.01 -3.67,3.34 -5.51,7.61 -5.51,12.81 0,3.04 0.7,5.83 2.09,8.35 1.39,2.52 3.2,4.54 5.45,6.06 2.24,1.52 4.76,2.67 7.58,3.46 2.07,0.54 5.19,1.07 9.37,1.58 8.52,1.01 14.79,2.22 18.81,3.63 0.04,1.45 0.06,2.36 0.06,2.76 0,4.29 -1,7.32 -2.99,9.08 -2.69,2.38 -6.7,3.57 -12.01,3.57 -4.96,0 -8.61,-0.87 -10.98,-2.6 -2.36,-1.74 -4.12,-4.82 -5.25,-9.23 l -10.31,1.4 c 0.93,4.42 2.48,7.98 4.62,10.7 2.15,2.71 5.26,4.8 9.32,6.27 4.06,1.46 8.77,2.19 14.12,2.19 5.31,0 9.63,-0.62 12.95,-1.87 3.32,-1.25 5.76,-2.82 7.33,-4.72 1.56,-1.89 2.65,-4.29 3.28,-7.18 0.35,-1.79 0.52,-5.04 0.52,-9.72 l 0,-14.07 c 0,-9.8 0.24,-16 0.69,-18.6 0.45,-2.6 1.33,-5.09 2.65,-7.47 l -11.01,0 c -1.1,2.19 -1.8,4.75 -2.11,7.67 z m -108.4,2.47 21.39,0 c 3.67,0 6.25,0.13 7.73,0.41 2.62,0.46 4.81,1.25 6.56,2.34 1.76,1.09 3.21,2.69 4.34,4.78 1.13,2.09 1.7,4.5 1.7,7.23 0,3.2 -0.82,5.99 -2.46,8.35 -1.64,2.37 -3.91,4.03 -6.82,4.98 -2.91,0.96 -7.11,1.44 -12.58,1.44 l -19.86,0 0,-29.53 z m 0,39.66 18.58,0 c 5.03,0 8.65,0.34 10.83,1 2.9,0.86 5.08,2.28 6.55,4.28 1.46,1.99 2.19,4.49 2.19,7.5 0,2.85 -0.69,5.36 -2.06,7.53 -1.36,2.17 -3.32,3.65 -5.85,4.45 -2.54,0.8 -6.9,1.2 -13.07,1.2 l -17.17,0 0,-25.96 z m -11.37,-49.8 0,85.9 32.23,0 c 6.56,0 11.84,-0.87 15.8,-2.61 3.97,-1.74 7.07,-4.41 9.32,-8.03 2.24,-3.61 3.36,-7.39 3.36,-11.34 0,-3.67 -1,-7.12 -2.99,-10.37 -1.99,-3.24 -5,-5.86 -9.02,-7.85 5.19,-1.52 9.19,-4.12 11.99,-7.79 2.79,-3.67 4.18,-8.01 4.18,-13.01 0,-4.02 -0.84,-7.76 -2.54,-11.22 -1.7,-3.45 -3.81,-6.12 -6.31,-8 -2.5,-1.87 -5.63,-3.29 -9.4,-4.24 -3.76,-0.96 -8.39,-1.44 -13.86,-1.44 l -32.76,0 z m -31.29,0 0,12.01 12.02,0 0,-12.01 -12.02,0 z m 0,50.21 0,12.02 12.02,0 0,-12.02 -12.02,0 z m -43,-50.21 0,62.23 9.49,0 0,-9.44 c 2.42,4.42 4.67,7.33 6.72,8.73 2.05,1.41 4.29,2.11 6.76,2.11 3.55,0 7.16,-1.13 10.84,-3.4 l -3.64,-9.78 c -2.58,1.52 -5.15,2.28 -7.73,2.28 -2.31,0 -4.38,-0.69 -6.21,-2.07 -1.84,-1.39 -3.15,-3.32 -3.93,-5.78 -1.17,-3.75 -1.76,-7.85 -1.76,-12.3 l 0,-32.58 -10.54,0 z m -57.01,31.58 c 0,-7.46 1.01,-12.85 3.04,-16.17 3.32,-5.43 7.81,-8.15 13.48,-8.15 4.61,0 8.59,2.01 11.95,6.01 3.36,4.01 5.04,9.97 5.04,17.9 0,8.13 -1.6,14.12 -4.82,17.99 -3.23,3.87 -7.13,5.8 -11.7,5.8 -4.61,0 -8.6,-2 -11.96,-6 -3.36,-4.01 -5.03,-9.8 -5.03,-17.38 z m 0.11,-31.58 -9.78,0 0,85.9 10.54,0 0,-30.65 c 4.46,5.59 10.14,8.38 17.05,8.38 3.83,0 7.47,-0.77 10.88,-2.31 3.42,-1.54 6.23,-3.71 8.44,-6.5 2.21,-2.8 3.93,-6.17 5.18,-10.11 1.25,-3.95 1.87,-8.17 1.87,-12.66 0,-10.66 -2.63,-18.91 -7.91,-24.73 -5.27,-5.82 -11.6,-8.73 -18.98,-8.73 -7.35,0 -13.11,3.07 -17.29,9.2 l 0,-7.79 z m -69.43,31.05 c 0,-7.97 1.68,-13.92 5.04,-17.87 3.36,-3.94 7.32,-5.92 11.89,-5.92 4.61,0 8.54,1.89 11.76,5.66 3.22,3.77 4.82,9.52 4.82,17.25 0,8.52 -1.64,14.77 -4.92,18.75 -3.28,3.99 -7.32,5.98 -12.13,5.98 -4.68,0 -8.59,-1.91 -11.73,-5.74 -3.15,-3.83 -4.73,-9.86 -4.73,-18.11 z m 33.34,-31.05 0,7.85 c -3.95,-6.17 -9.75,-9.26 -17.4,-9.26 -4.96,0 -9.52,1.37 -13.68,4.1 -4.16,2.74 -7.38,6.56 -9.66,11.46 -2.29,4.9 -3.44,10.54 -3.44,16.9 0,6.21 1.03,11.85 3.1,16.91 2.07,5.06 5.18,8.93 9.32,11.63 4.14,2.69 8.77,4.04 13.89,4.04 3.75,0 7.09,-0.79 10.02,-2.37 2.93,-1.58 5.31,-3.64 7.15,-6.18 l 0,30.82 10.48,0 0,-85.9 -9.78,0" /><path
             id="path30"
             style="fill:#100f0d;fill-opacity:1;fill-rule:nonzero;stroke:none"
             d="m 6396.83,4963.13 -51.91,-46.43 44.49,-22.82 7.42,69.25" /><path
             id="path32"
             style="fill:#100f0d;fill-opacity:1;fill-rule:nonzero;stroke:none"
             d="m 6396.83,4963.13 -3.33,3.73 -57.34,-51.28 57.44,-29.47 9.59,89.41 -9.69,-8.66 3.33,-3.73 -4.97,0.53 -6.65,-62.01 -31.53,16.18 46.48,41.57 -3.33,3.73 -4.97,0.53 4.97,-0.53" /><path
             id="path34"
             style="fill:#100f0d;fill-opacity:1;fill-rule:nonzero;stroke:none"
             d="m 5714.09,3620.85 687.19,1340 -8.9,4.56 -687.19,-1340" /><path
             id="path36"
             style="fill:#ffffff;fill-opacity:1;fill-rule:nonzero;stroke:none"
             d="m 5693.24,4228.13 720,0 0,130 -720,0 0,-130 z" /><path
             id="path38"
             style="fill:#3a3a3b;fill-opacity:1;fill-rule:nonzero;stroke:none"
             d="m 6324.02,4258.13 0,57.04 8.65,0 0,-8 c 1.8,2.8 4.18,5.04 7.15,6.74 2.97,1.7 6.35,2.55 10.16,2.55 4.21,0 7.67,-0.88 10.39,-2.63 2.69,-1.75 4.61,-4.22 5.7,-7.36 4.51,6.66 10.39,9.99 17.62,9.99 5.66,0 10.02,-1.57 13.06,-4.7 3.05,-3.13 4.55,-7.96 4.55,-14.47 l 0,-39.16 -9.61,0 0,35.94 c 0,3.86 -0.31,6.64 -0.93,8.35 -0.63,1.7 -1.76,3.06 -3.42,4.11 -1.64,1.03 -3.58,1.55 -5.78,1.55 -4.03,0 -7.35,-1.34 -10,-3.99 -2.66,-2.68 -3.99,-6.95 -3.99,-12.82 l 0,-33.14 -9.66,0 0,37.06 c 0,4.3 -0.79,7.52 -2.35,9.67 -1.58,2.15 -4.16,3.22 -7.75,3.22 -2.72,0 -5.24,-0.71 -7.54,-2.15 -2.31,-1.43 -3.99,-3.52 -5.02,-6.28 -1.04,-2.76 -1.56,-6.73 -1.56,-11.93 l 0,-29.59 -9.67,0 z m -58.87,17.03 9.57,1.51 c 0.53,-3.84 2.03,-6.78 4.47,-8.81 2.47,-2.05 5.9,-3.07 10.3,-3.07 4.43,0 7.73,0.9 9.88,2.71 2.15,1.81 3.22,3.93 3.22,6.37 0,2.18 -0.95,3.9 -2.85,5.16 -1.33,0.86 -4.61,1.95 -9.88,3.27 -7.09,1.79 -11.99,3.34 -14.75,4.65 -2.73,1.3 -4.8,3.11 -6.23,5.42 -1.4,2.31 -2.11,4.86 -2.11,7.65 0,2.54 0.59,4.91 1.74,7.07 1.17,2.16 2.75,3.97 4.75,5.4 1.5,1.11 3.55,2.05 6.15,2.81 2.6,0.78 5.39,1.16 8.36,1.16 4.47,0 8.4,-0.64 11.8,-1.93 3.37,-1.29 5.87,-3.04 7.48,-5.24 1.62,-2.2 2.73,-5.14 3.34,-8.84 l -9.46,-1.28 c -0.43,2.92 -1.68,5.23 -3.73,6.87 -2.07,1.64 -4.98,2.47 -8.73,2.47 -4.45,0 -7.62,-0.73 -9.51,-2.2 -1.89,-1.47 -2.85,-3.19 -2.85,-5.15 0,-1.26 0.39,-2.39 1.19,-3.39 0.78,-1.05 2.01,-1.91 3.71,-2.58 0.96,-0.36 3.81,-1.18 8.54,-2.47 6.83,-1.83 11.6,-3.32 14.31,-4.48 2.7,-1.16 4.83,-2.86 6.37,-5.08 1.52,-2.22 2.3,-4.97 2.3,-8.27 0,-3.22 -0.93,-6.25 -2.83,-9.1 -1.87,-2.86 -4.59,-5.05 -8.12,-6.62 -3.56,-1.55 -7.56,-2.33 -12.03,-2.33 -7.43,0 -13.07,1.54 -16.96,4.62 -3.88,3.08 -6.36,7.65 -7.44,13.7 z m -20.51,-17.03 0,57.04 9.67,0 0,-57.04 -9.67,0 z m 0,67.62 0,11.12 9.67,0 0,-11.12 -9.67,0 z m -61.23,-67.62 0,57.04 8.69,0 0,-8.11 c 4.2,6.27 10.26,9.4 18.17,9.4 3.44,0 6.6,-0.62 9.47,-1.86 2.89,-1.23 5.04,-2.85 6.49,-4.85 1.42,-2.01 2.42,-4.39 2.98,-7.15 0.37,-1.79 0.55,-4.92 0.55,-9.39 l 0,-35.08 -9.67,0 0,34.7 c 0,3.93 -0.37,6.88 -1.13,8.84 -0.74,1.95 -2.09,3.5 -4,4.66 -1.92,1.17 -4.16,1.75 -6.74,1.75 -4.12,0 -7.68,-1.31 -10.67,-3.91 -2.98,-2.62 -4.47,-7.58 -4.47,-14.89 l 0,-31.15 -9.67,0 z m -24.76,28.63 c -3.52,-1.43 -8.77,-2.65 -15.8,-3.65 -3.97,-0.58 -6.78,-1.22 -8.42,-1.93 -1.66,-0.73 -2.93,-1.77 -3.83,-3.15 -0.88,-1.38 -1.33,-2.91 -1.33,-4.59 0,-2.58 0.98,-4.72 2.93,-6.44 1.96,-1.72 4.81,-2.58 8.56,-2.58 3.73,0 7.03,0.81 9.94,2.44 2.91,1.62 5.04,3.86 6.38,6.68 1.04,2.19 1.57,5.41 1.57,9.67 l 0,3.55 z m 0.8,-21.6 c -3.58,-3.04 -7.03,-5.18 -10.33,-6.44 -3.32,-1.25 -6.88,-1.88 -10.67,-1.88 -6.27,0 -11.07,1.53 -14.45,4.59 -3.36,3.07 -5.04,6.97 -5.04,11.74 0,2.79 0.62,5.35 1.89,7.66 1.27,2.3 2.95,4.16 5,5.55 2.07,1.4 4.38,2.45 6.96,3.18 1.89,0.49 4.76,0.97 8.59,1.44 7.81,0.94 13.56,2.04 17.25,3.33 0.04,1.32 0.06,2.17 0.06,2.53 0,3.94 -0.92,6.71 -2.74,8.32 -2.48,2.19 -6.15,3.28 -11.01,3.28 -4.55,0 -7.91,-0.8 -10.08,-2.39 -2.17,-1.59 -3.77,-4.41 -4.81,-8.47 l -9.45,1.29 c 0.86,4.05 2.27,7.33 4.24,9.81 1.97,2.49 4.82,4.41 8.53,5.75 3.73,1.34 8.05,2.01 12.95,2.01 4.89,0 8.83,-0.58 11.88,-1.72 3.04,-1.14 5.27,-2.59 6.72,-4.32 1.42,-1.74 2.42,-3.93 3,-6.59 0.32,-1.64 0.49,-4.61 0.49,-8.9 l 0,-12.89 c 0,-9 0.2,-14.68 0.61,-17.06 0.41,-2.38 1.23,-4.66 2.44,-6.85 l -10.1,0 c -0.99,2.01 -1.64,4.36 -1.93,7.03 z m -92.17,22.51 c 0,-7.49 1.48,-12.94 4.45,-16.38 2.99,-3.43 6.7,-5.15 11.18,-5.15 4.45,0 8.16,1.7 11.19,5.11 2.98,3.43 4.49,8.79 4.49,16.1 0,6.98 -1.54,12.24 -4.63,15.79 -3.11,3.54 -6.84,5.32 -11.21,5.32 -4.3,0 -7.95,-1.76 -10.96,-5.24 -3.01,-3.49 -4.51,-8.67 -4.51,-15.55 z m -8.01,-34.27 9.42,-1.39 c 0.39,-2.9 1.48,-5.01 3.28,-6.34 2.38,-1.8 5.66,-2.69 9.82,-2.69 4.47,0 7.93,0.89 10.35,2.69 2.44,1.8 4.09,4.3 4.96,7.52 0.49,1.97 0.73,6.1 0.69,12.4 -4.22,-4.97 -9.49,-7.46 -15.78,-7.46 -7.85,0 -13.93,2.83 -18.21,8.49 -4.31,5.65 -6.46,12.44 -6.46,20.36 0,5.44 0.99,10.46 2.97,15.06 1.97,4.61 4.82,8.16 8.55,10.66 3.75,2.5 8.15,3.76 13.19,3.76 6.73,0 12.28,-2.72 16.66,-8.16 l 0,6.87 8.9,0 0,-49.31 c 0,-8.88 -0.9,-15.17 -2.69,-18.87 -1.82,-3.71 -4.69,-6.63 -8.6,-8.78 -3.92,-2.15 -8.75,-3.22 -14.47,-3.22 -6.82,0 -12.3,1.52 -16.5,4.59 -4.18,3.05 -6.21,7.67 -6.08,13.82 z m -34.96,4.73 0,57.04 8.71,0 0,-8.64 c 2.21,4.04 4.26,6.71 6.15,8 1.88,1.29 3.95,1.93 6.2,1.93 3.26,0 6.58,-1.04 9.94,-3.12 l -3.34,-8.96 c -2.37,1.39 -4.73,2.09 -7.07,2.09 -2.13,0 -4.03,-0.63 -5.71,-1.9 -1.68,-1.28 -2.89,-3.04 -3.59,-5.3 -1.07,-3.43 -1.62,-7.19 -1.62,-11.28 l 0,-29.86 -9.67,0 z m -76.64,38.18 c 0,-9.48 2.56,-16.95 7.66,-22.42 5.09,-5.46 11.5,-8.18 19.2,-8.18 7.83,0 14.29,2.75 19.35,8.26 5.08,5.52 7.6,13.34 7.6,23.48 0,6.4 -1.07,12.01 -3.24,16.78 -2.17,4.78 -5.33,8.49 -9.51,11.12 -4.16,2.63 -8.85,3.95 -14.05,3.95 -7.36,0 -13.71,-2.54 -19.04,-7.61 -5.31,-5.06 -7.97,-13.52 -7.97,-25.38 z m -10.74,0.17 c 0,13.08 3.51,23.3 10.53,30.69 7.01,7.41 16.07,11.1 27.18,11.1 7.27,0 13.81,-1.74 19.65,-5.22 5.84,-3.46 10.29,-8.31 13.34,-14.52 3.07,-6.22 4.59,-13.26 4.59,-21.14 0,-7.98 -1.6,-15.12 -4.82,-21.43 -3.23,-6.31 -7.8,-11.07 -13.69,-14.31 -5.92,-3.25 -12.29,-4.87 -19.13,-4.87 -7.42,0 -14.04,1.8 -19.88,5.37 -5.84,3.59 -10.25,8.48 -13.26,14.67 -3.01,6.19 -4.51,12.76 -4.51,19.66 z m -56.93,-21.32 9.55,1.51 c 0.54,-3.84 2.05,-6.78 4.49,-8.81 2.46,-2.05 5.88,-3.07 10.29,-3.07 4.43,0 7.74,0.9 9.88,2.71 2.15,1.81 3.23,3.93 3.23,6.37 0,2.18 -0.96,3.9 -2.86,5.16 -1.32,0.86 -4.62,1.95 -9.88,3.27 -7.09,1.79 -12.01,3.34 -14.74,4.65 -2.74,1.3 -4.81,3.11 -6.23,5.42 -1.41,2.31 -2.13,4.86 -2.13,7.65 0,2.54 0.58,4.91 1.75,7.07 1.16,2.16 2.76,3.97 4.75,5.4 1.5,1.11 3.56,2.05 6.15,2.81 2.6,0.78 5.39,1.16 8.36,1.16 4.47,0 8.4,-0.64 11.78,-1.93 3.4,-1.29 5.88,-3.04 7.5,-5.24 1.6,-2.2 2.71,-5.14 3.34,-8.84 l -9.47,-1.28 c -0.43,2.92 -1.66,5.23 -3.73,6.87 -2.05,1.64 -4.96,2.47 -8.73,2.47 -4.44,0 -7.6,-0.73 -9.5,-2.2 -1.89,-1.47 -2.85,-3.19 -2.85,-5.15 0,-1.26 0.39,-2.39 1.19,-3.39 0.78,-1.05 2.02,-1.91 3.69,-2.58 0.98,-0.36 3.83,-1.18 8.56,-2.47 6.84,-1.83 11.6,-3.32 14.3,-4.48 2.71,-1.16 4.82,-2.86 6.36,-5.08 1.55,-2.22 2.31,-4.97 2.31,-8.27 0,-3.22 -0.94,-6.25 -2.81,-9.1 -1.88,-2.86 -4.59,-5.05 -8.15,-6.62 -3.53,-1.55 -7.54,-2.33 -12.01,-2.33 -7.42,0 -13.07,1.54 -16.95,4.62 -3.89,3.08 -6.37,7.65 -7.44,13.7 z m -20.53,-17.03 0,57.04 9.67,0 0,-57.04 -9.67,0 z m 0,67.62 0,11.12 9.67,0 0,-11.12 -9.67,0 z m -27.91,-67.62 0,11.02 10.99,0 0,-11.02 -10.99,0 z m 0,46.04 0,11 10.99,0 0,-11 -10.99,0 z m -12.15,-37.39 1.39,-8.54 c -2.72,-0.58 -5.16,-0.86 -7.29,-0.86 -3.51,0 -6.25,0.55 -8.16,1.67 -1.96,1.1 -3.3,2.56 -4.09,4.37 -0.8,1.81 -1.19,5.61 -1.19,11.41 l 0,32.82 -7.09,0 0,7.52 7.09,0 0,14.13 9.61,5.8 0,-19.93 9.73,0 0,-7.52 -9.73,0 0,-33.35 c 0,-2.76 0.18,-4.53 0.51,-5.32 l 1.68,-1.89 c 0.76,-0.45 1.86,-0.69 3.3,-0.69 1.08,0 2.48,0.13 4.24,0.38 z m -57.85,-8.65 0,57.04 8.71,0 0,-8.64 c 2.21,4.04 4.26,6.71 6.15,8 1.88,1.29 3.95,1.93 6.19,1.93 3.26,0 6.58,-1.04 9.94,-3.12 l -3.34,-8.96 c -2.34,1.39 -4.7,2.09 -7.07,2.09 -2.13,0 -4.02,-0.63 -5.7,-1.9 -1.68,-1.28 -2.89,-3.04 -3.59,-5.3 -1.08,-3.43 -1.62,-7.19 -1.62,-11.28 l 0,-29.86 -9.67,0 z m -61.08,0 0,57.04 8.71,0 0,-8.11 c 4.18,6.27 10.24,9.4 18.15,9.4 3.44,0 6.6,-0.62 9.49,-1.86 2.87,-1.23 5.04,-2.85 6.47,-4.85 1.44,-2.01 2.44,-4.39 3,-7.15 0.37,-1.79 0.55,-4.92 0.55,-9.39 l 0,-35.08 -9.67,0 0,34.7 c 0,3.93 -0.37,6.88 -1.13,8.84 -0.74,1.95 -2.09,3.5 -4,4.66 -1.92,1.17 -4.16,1.75 -6.74,1.75 -4.12,0 -7.68,-1.31 -10.67,-3.91 -2.98,-2.62 -4.49,-7.58 -4.49,-14.89 l 0,-31.15 -9.67,0" /><path
             id="path40"
             style="fill:#f1f1f1;fill-opacity:1;fill-rule:nonzero;stroke:none"
             d="m 7363.75,4373.13 180.48,-155.5 -180.48,-155.5 -180.51,155.5 180.51,155.5" /><path
             id="path42"
             style="fill:#ffffff;fill-opacity:1;fill-rule:nonzero;stroke:none"
             d="m 7363.74,4055.53 -188.16,162.1 184.9,159.29 3.26,2.81 188.15,-162.1 -188.15,-162.1 m 0.01,317.6 -180.51,-155.5 180.51,-155.5 180.48,155.5 -180.48,155.5" /><path
             id="path44"
             style="fill:#f1f1f1;fill-opacity:1;fill-rule:nonzero;stroke:none"
             d="m 7363.75,4062.13 -180.51,155.5 180.51,155.5 180.48,-155.5 -180.48,-155.5 m -0.01,304.4 -172.84,-148.9 172.84,-148.9 172.83,148.9 -172.83,148.9" /><path
             id="path46"
             style="fill:#100f0d;fill-opacity:1;fill-rule:nonzero;stroke:none"
             d="m 7422.51,4233.12 -2.87,16.35 0,14.06 12.02,0 0,-14.06 -2.82,-16.35 -6.33,0 z m -19.39,0 -2.93,16.35 0,14.06 12.01,0 0,-14.06 -2.63,-16.35 -6.45,0 z m -56.54,0 -2.87,16.35 0,14.06 12.01,0 0,-14.06 -2.81,-16.35 -6.33,0 z m -19.4,0 -2.93,16.35 0,14.06 12.01,0 0,-14.06 -2.63,-16.35 -6.45,0" /><path
             id="path48"
             style="fill:#f1f1f1;fill-opacity:1;fill-rule:nonzero;stroke:none"
             d="m 7528.74,3733.13 180.49,-155.5 -180.49,-155.5 -180.5,155.5 180.5,155.5" /><path
             id="path50"
             style="fill:#ffffff;fill-opacity:1;fill-rule:nonzero;stroke:none"
             d="m 7528.74,3415.53 -188.17,162.1 184.91,159.29 3.26,2.81 185.49,-159.81 0,-4.58 -185.49,-159.81 m 0,317.6 -180.5,-155.5 180.5,-155.5 180.49,155.5 -180.49,155.5" /><path
             id="path52"
             style="fill:#f1f1f1;fill-opacity:1;fill-rule:nonzero;stroke:none"
             d="m 7528.74,3422.13 -180.5,155.5 180.5,155.5 180.49,-155.5 -180.49,-155.5 m 0,304.4 -172.84,-148.9 172.84,-148.9 172.83,148.9 -172.83,148.9" /><path
             id="path54"
             style="fill:#100f0d;fill-opacity:1;fill-rule:nonzero;stroke:none"
             d="m 7587.51,3593.12 -2.87,16.35 0,14.06 12.02,0 0,-14.06 -2.82,-16.35 -6.33,0 z m -19.39,0 -2.93,16.35 0,14.06 12.01,0 0,-14.06 -2.63,-16.35 -6.45,0 z m -56.54,0 -2.87,16.35 0,14.06 12.01,0 0,-14.06 -2.81,-16.35 -6.33,0 z m -19.4,0 -2.93,16.35 0,14.06 12.01,0 0,-14.06 -2.63,-16.35 -6.45,0" /><path
             id="path56"
             style="fill:#f1f1f1;fill-opacity:1;fill-rule:nonzero;stroke:none"
             d="m 7518.75,2973.13 180.48,-155.5 -180.48,-155.5 -180.51,155.5 180.51,155.5" /><path
             id="path58"
             style="fill:#ffffff;fill-opacity:1;fill-rule:nonzero;stroke:none"
             d="m 7518.75,2655.53 -188.17,162.1 184.9,159.29 3.27,2.81 188.14,-162.1 -188.14,-162.1 m 0,317.6 -180.51,-155.5 180.51,-155.5 180.48,155.5 -180.48,155.5" /><path
             id="path60"
             style="fill:#f1f1f1;fill-opacity:1;fill-rule:nonzero;stroke:none"
             d="m 7518.75,2662.13 -180.51,155.5 180.51,155.5 180.48,-155.5 -180.48,-155.5 m -0.01,304.4 -172.84,-148.9 172.84,-148.9 172.83,148.9 -172.83,148.9" /><path
             id="path62"
             style="fill:#100f0d;fill-opacity:1;fill-rule:nonzero;stroke:none"
             d="m 7577.51,2833.12 -2.87,16.35 0,14.06 12.02,0 0,-14.06 -2.82,-16.35 -6.33,0 z m -19.39,0 -2.93,16.35 0,14.06 12.01,0 0,-14.06 -2.63,-16.35 -6.45,0 z m -56.54,0 -2.87,16.35 0,14.06 12.01,0 0,-14.06 -2.81,-16.35 -6.33,0 z m -19.4,0 -2.93,16.35 0,14.06 12.01,0 0,-14.06 -2.63,-16.35 -6.45,0" /><path
             id="path64"
             style="fill:#ffffff;fill-opacity:1;fill-rule:nonzero;stroke:none"
             d="m 7098.24,1918.13 -300,0 c -57.98,0 -105,47.01 -105,105 l 0,50 c 0,57.99 47.02,105 105,105 l 0,-10 c -26.25,0 -49.96,-10.63 -67.17,-27.83 -17.2,-17.2 -27.83,-40.92 -27.83,-67.17 l 0,-50 c 0,-26.25 10.63,-49.96 27.83,-67.17 17.21,-17.2 40.92,-27.83 67.17,-27.83 l 300,0 c 26.25,0 49.97,10.63 67.17,27.83 17.2,17.2 27.82,40.92 27.83,67.17 l 0,50 c -0.01,26.25 -10.63,49.97 -27.83,67.17 -17.2,17.2 -40.92,27.83 -67.17,27.83 l -300,0 0,10 300,0 c 57.99,0 104.99,-47.01 105,-105 l 0,-50 c -0.01,-57.99 -47.01,-105 -105,-105" /><path
             id="path66"
             style="fill:#100f0d;fill-opacity:1;fill-rule:nonzero;stroke:none"
             d="m 7054.21,1993.13 0,100.21 19.69,0 41.02,-66.92 0,66.92 18.81,0 0,-100.21 -20.32,0 -40.39,65.35 0,-65.35 -18.81,0 z m -81.13,83.26 0,-66.38 15.1,0 c 5.66,0 9.73,0.33 12.24,0.96 3.29,0.82 6,2.21 8.17,4.17 2.17,1.96 3.92,5.19 5.29,9.68 1.37,4.48 2.05,10.6 2.05,18.35 0,7.74 -0.68,13.69 -2.05,17.84 -1.37,4.15 -3.28,7.38 -5.74,9.71 -2.46,2.32 -5.59,3.89 -9.36,4.71 -2.83,0.64 -8.36,0.96 -16.62,0.96 l -9.08,0 z m -20.23,16.95 36.97,0 c 8.34,0 14.71,-0.63 19.08,-1.91 5.88,-1.73 10.92,-4.8 15.1,-9.23 4.2,-4.42 7.38,-9.83 9.57,-16.23 2.19,-6.4 3.28,-14.3 3.28,-23.69 0,-8.25 -1.02,-15.36 -3.07,-21.33 -2.52,-7.29 -6.09,-13.19 -10.74,-17.7 -3.49,-3.42 -8.24,-6.09 -14.22,-8 -4.45,-1.42 -10.43,-2.12 -17.91,-2.12 l -38.06,0 0,100.21 z m -80.75,-56.53 0,-26.8 18.73,0 c 7.31,0 11.92,0.21 13.89,0.62 3.01,0.55 5.45,1.87 7.35,4 1.89,2.12 2.83,4.96 2.83,8.51 0,3.01 -0.73,5.56 -2.19,7.66 -1.45,2.1 -3.55,3.62 -6.33,4.58 -2.75,0.95 -8.73,1.43 -17.93,1.43 l -16.35,0 z m 0,39.86 0,-23.18 13.27,0 c 7.89,0 12.79,0.12 14.7,0.34 3.46,0.41 6.18,1.6 8.17,3.6 1.97,1.98 2.97,4.59 2.97,7.82 0,3.09 -0.86,5.61 -2.56,7.56 -1.72,1.93 -4.26,3.1 -7.62,3.51 -2.01,0.23 -7.77,0.35 -17.3,0.35 l -11.63,0 z m -20.23,16.67 40.06,0 c 7.93,0 13.85,-0.33 17.75,-0.98 3.89,-0.67 7.37,-2.04 10.45,-4.14 3.07,-2.1 5.65,-4.89 7.7,-8.37 2.05,-3.5 3.06,-7.4 3.06,-11.73 0,-4.7 -1.27,-9 -3.79,-12.92 -2.53,-3.92 -5.95,-6.86 -10.29,-8.82 6.11,-1.78 10.8,-4.8 14.08,-9.09 3.28,-4.29 4.93,-9.32 4.93,-15.11 0,-4.56 -1.06,-8.98 -3.19,-13.29 -2.11,-4.3 -5,-7.75 -8.67,-10.32 -3.67,-2.58 -8.18,-4.16 -13.57,-4.76 -3.36,-0.36 -11.51,-0.59 -24.4,-0.68 l -34.12,0 0,100.21 z m -98.57,-67.6 19.68,1.91 c 1.19,-6.61 3.6,-11.46 7.21,-14.56 3.63,-3.09 8.52,-4.65 14.67,-4.65 6.52,0 11.42,1.38 14.74,4.13 3.31,2.77 4.95,5.99 4.95,9.68 0,2.37 -0.69,4.39 -2.07,6.06 -1.41,1.66 -3.83,3.1 -7.29,4.33 -2.38,0.82 -7.77,2.28 -16.21,4.38 -10.84,2.68 -18.46,5.99 -22.83,9.91 -6.15,5.52 -9.22,12.24 -9.22,20.16 0,5.11 1.44,9.88 4.33,14.32 2.9,4.44 7.07,7.83 12.5,10.16 5.45,2.32 12.04,3.48 19.73,3.48 12.58,0 22.05,-2.75 28.4,-8.27 6.37,-5.52 9.71,-12.87 10.02,-22.08 l -20.24,-0.89 c -0.85,5.15 -2.71,8.85 -5.56,11.12 -2.85,2.25 -7.13,3.38 -12.81,3.38 -5.88,0 -10.49,-1.22 -13.81,-3.63 -2.15,-1.55 -3.23,-3.62 -3.23,-6.22 0,-2.37 1.02,-4.39 3.01,-6.08 2.56,-2.14 8.75,-4.38 18.6,-6.7 9.84,-2.33 17.13,-4.73 21.83,-7.21 4.73,-2.49 8.42,-5.89 11.08,-10.19 2.67,-4.31 4,-9.62 4,-15.96 0,-5.74 -1.58,-11.12 -4.78,-16.13 -3.19,-5.01 -7.7,-8.74 -13.54,-11.18 -5.82,-2.44 -13.11,-3.66 -21.8,-3.66 -12.67,0 -22.4,2.93 -29.2,8.79 -6.77,5.85 -10.84,14.39 -12.16,25.6" /><path
             id="path68"
             style="fill:#100f0d;fill-opacity:1;fill-rule:nonzero;stroke:none"
             d="m 7241.62,4167.33 -69.61,-1.63 19.04,-46.24 50.57,47.87" /><path
             id="path70"
             style="fill:#100f0d;fill-opacity:1;fill-rule:nonzero;stroke:none"
             d="m 7241.62,4167.33 -0.12,5 -76.89,-1.8 24.59,-59.71 65.29,61.81 -12.99,-0.3 0.12,-5 -3.44,3.63 -45.28,-42.87 -13.5,32.78 62.33,1.46 -0.11,5 -3.44,3.63 3.44,-3.63" /><path
             id="path72"
             style="fill:#100f0d;fill-opacity:1;fill-rule:nonzero;stroke:none"
             d="m 5922.23,3618.51 1321.29,544.2 -3.81,9.24 -1321.29,-544.2" /><path
             id="path74"
             style="fill:#ffffff;fill-opacity:1;fill-rule:nonzero;stroke:none"
             d="m 6245.97,3830.23 670,0 0,130 -670,0 0,-130 z" /><path
             id="path76"
             style="fill:#3a3a3b;fill-opacity:1;fill-rule:nonzero;stroke:none"
             d="m 6922.4,3868.87 1.4,-8.53 c -2.71,-0.57 -5.15,-0.86 -7.3,-0.86 -3.52,0 -6.23,0.55 -8.17,1.67 -1.93,1.1 -3.3,2.57 -4.08,4.37 -0.78,1.81 -1.19,5.62 -1.19,11.42 l 0,32.81 -7.09,0 0,7.52 7.09,0 0,14.13 9.63,5.8 0,-19.93 9.71,0 0,-7.52 -9.71,0 0,-33.35 c 0,-2.76 0.16,-4.53 0.51,-5.32 l 1.66,-1.88 c 0.76,-0.46 1.87,-0.7 3.3,-0.7 1.07,0 2.5,0.13 4.24,0.37 z m -82.29,-8.64 0,78.74 9.67,0 0,-28.25 c 4.51,5.22 10.22,7.84 17.09,7.84 4.22,0 7.89,-0.83 11.02,-2.5 3.1,-1.66 5.33,-3.97 6.68,-6.89 1.34,-2.94 2.01,-7.21 2.01,-12.8 l 0,-36.14 -9.67,0 0,36.14 c 0,4.85 -1.04,8.36 -3.15,10.57 -2.09,2.2 -5.05,3.3 -8.88,3.3 -2.85,0 -5.55,-0.74 -8.09,-2.23 -2.52,-1.48 -4.31,-3.5 -5.39,-6.05 -1.07,-2.54 -1.62,-6.05 -1.62,-10.52 l 0,-31.21 -9.67,0 z m -54.94,29.54 c 0,-7.48 1.49,-12.95 4.45,-16.39 2.99,-3.42 6.7,-5.14 11.18,-5.14 4.45,0 8.16,1.71 11.17,5.12 3.01,3.42 4.51,8.79 4.51,16.1 0,6.97 -1.54,12.23 -4.63,15.78 -3.1,3.54 -6.84,5.32 -11.21,5.32 -4.3,0 -7.95,-1.75 -10.96,-5.24 -3.01,-3.49 -4.51,-8.67 -4.51,-15.55 z m -8.01,-34.27 9.42,-1.39 c 0.39,-2.9 1.48,-5.01 3.26,-6.34 2.4,-1.79 5.68,-2.69 9.84,-2.69 4.48,0 7.93,0.9 10.35,2.69 2.45,1.79 4.09,4.31 4.95,7.53 0.5,1.96 0.74,6.09 0.7,12.4 -4.22,-4.98 -9.49,-7.47 -15.78,-7.47 -7.85,0 -13.93,2.83 -18.23,8.49 -4.29,5.66 -6.44,12.44 -6.44,20.36 0,5.44 1,10.46 2.97,15.07 1.97,4.59 4.82,8.14 8.55,10.65 3.75,2.51 8.15,3.76 13.19,3.76 6.73,0 12.28,-2.72 16.66,-8.16 l 0,6.87 8.9,0 0,-49.31 c 0,-8.87 -0.9,-15.16 -2.69,-18.87 -1.82,-3.71 -4.69,-6.63 -8.6,-8.79 -3.92,-2.14 -8.75,-3.21 -14.49,-3.21 -6.8,0 -12.28,1.53 -16.48,4.58 -4.18,3.06 -6.21,7.67 -6.08,13.83 z m -22.59,4.73 0,57.04 9.66,0 0,-57.04 -9.66,0 z m 0,67.63 0,11.11 9.66,0 0,-11.11 -9.66,0 z m -53.93,-33.63 31.84,0 c -0.43,4.8 -1.65,8.39 -3.66,10.79 -3.06,3.73 -7.07,5.59 -11.97,5.59 -4.43,0 -8.16,-1.48 -11.19,-4.45 -3.03,-2.97 -4.71,-6.96 -5.02,-11.93 z m 31.74,-15.63 9.98,-1.23 c -1.56,-5.84 -4.49,-10.37 -8.75,-13.6 -4.26,-3.22 -9.71,-4.83 -16.33,-4.83 -8.34,0 -14.96,2.57 -19.84,7.71 -4.89,5.13 -7.33,12.34 -7.33,21.62 0,9.6 2.46,17.05 7.4,22.34 4.95,5.3 11.35,7.95 19.24,7.95 7.62,0 13.85,-2.6 18.69,-7.78 4.83,-5.2 7.25,-12.5 7.25,-21.92 0,-0.57 -0.02,-1.43 -0.06,-2.58 l -42.54,0 c 0.37,-6.27 2.13,-11.06 5.32,-14.4 3.2,-3.32 7.16,-4.99 11.93,-4.99 3.53,0 6.56,0.93 9.08,2.79 2.5,1.87 4.49,4.84 5.96,8.92 z m -127.89,-18.37 -20.9,78.74 10.7,0 11.97,-51.61 c 1.29,-5.41 2.41,-10.78 3.32,-16.11 2.02,8.4 3.21,13.26 3.56,14.55 l 14.98,53.17 12.58,0 11.27,-39.84 c 2.83,-9.9 4.88,-19.18 6.13,-27.88 1,4.97 2.31,10.69 3.91,17.13 l 12.36,50.59 10.47,0 -21.58,-78.74 -10.06,0 -16.58,60 c -1.41,5.01 -2.23,8.1 -2.48,9.23 -0.82,-3.62 -1.59,-6.69 -2.31,-9.23 l -16.7,-60 -10.64,0 z m -73.85,17.02 9.55,1.5 c 0.55,-3.82 2.03,-6.75 4.49,-8.79 2.46,-2.04 5.88,-3.07 10.3,-3.07 4.43,0 7.73,0.91 9.88,2.71 2.15,1.81 3.22,3.94 3.22,6.36 0,2.19 -0.96,3.91 -2.85,5.17 -1.33,0.86 -4.63,1.94 -9.88,3.27 -7.09,1.8 -12.02,3.34 -14.75,4.65 -2.73,1.31 -4.82,3.11 -6.23,5.43 -1.41,2.3 -2.13,4.85 -2.13,7.65 0,2.54 0.59,4.89 1.76,7.05 1.15,2.17 2.75,3.97 4.75,5.41 1.5,1.11 3.55,2.05 6.15,2.82 2.6,0.77 5.39,1.15 8.36,1.15 4.47,0 8.4,-0.64 11.77,-1.93 3.4,-1.29 5.88,-3.03 7.5,-5.24 1.61,-2.21 2.72,-5.14 3.32,-8.84 l -9.45,-1.29 c -0.43,2.94 -1.66,5.23 -3.73,6.88 -2.05,1.65 -4.96,2.47 -8.73,2.47 -4.43,0 -7.6,-0.73 -9.49,-2.2 -1.9,-1.47 -2.85,-3.19 -2.85,-5.16 0,-1.25 0.39,-2.38 1.17,-3.38 0.8,-1.04 2.03,-1.9 3.71,-2.58 0.98,-0.35 3.81,-1.18 8.53,-2.46 6.86,-1.84 11.63,-3.33 14.32,-4.49 2.72,-1.17 4.83,-2.85 6.37,-5.08 1.54,-2.22 2.3,-4.98 2.3,-8.26 0,-3.23 -0.93,-6.27 -2.81,-9.11 -1.87,-2.85 -4.59,-5.05 -8.14,-6.62 -3.54,-1.55 -7.54,-2.33 -12.04,-2.33 -7.4,0 -13.04,1.54 -16.93,4.62 -3.89,3.09 -6.37,7.65 -7.44,13.69 z m -20.9,11.61 c -3.49,-1.43 -8.77,-2.64 -15.78,-3.65 -3.98,-0.58 -6.8,-1.22 -8.44,-1.93 -1.64,-0.72 -2.91,-1.77 -3.81,-3.15 -0.89,-1.38 -1.34,-2.91 -1.34,-4.59 0,-2.59 0.97,-4.73 2.93,-6.45 1.95,-1.72 4.8,-2.58 8.55,-2.58 3.73,0 7.05,0.82 9.94,2.45 2.91,1.63 5.04,3.86 6.39,6.69 1.05,2.19 1.56,5.41 1.56,9.67 l 0,3.54 z m 0.8,-21.59 c -3.57,-3.05 -7.01,-5.19 -10.33,-6.44 -3.32,-1.25 -6.86,-1.89 -10.66,-1.89 -6.27,0 -11.08,1.53 -14.46,4.6 -3.36,3.06 -5.04,6.97 -5.04,11.73 0,2.8 0.65,5.34 1.92,7.65 1.27,2.32 2.93,4.17 4.98,5.56 2.07,1.41 4.37,2.46 6.95,3.18 1.92,0.49 4.77,0.98 8.6,1.44 7.81,0.93 13.55,2.04 17.24,3.33 0.04,1.33 0.06,2.17 0.06,2.53 0,3.94 -0.92,6.71 -2.73,8.33 -2.49,2.18 -6.16,3.27 -11.02,3.27 -4.55,0 -7.91,-0.8 -10.08,-2.39 -2.17,-1.59 -3.77,-4.42 -4.8,-8.46 l -9.46,1.29 c 0.86,4.04 2.29,7.31 4.24,9.81 1.97,2.48 4.83,4.39 8.56,5.74 3.71,1.35 8.02,2.01 12.93,2.01 4.88,0 8.82,-0.57 11.87,-1.72 3.05,-1.14 5.29,-2.58 6.72,-4.32 1.43,-1.73 2.44,-3.93 3.01,-6.58 0.31,-1.65 0.49,-4.63 0.49,-8.91 l 0,-12.9 c 0,-8.99 0.19,-14.67 0.6,-17.05 0.41,-2.39 1.23,-4.66 2.44,-6.85 l -10.09,0 c -1,2 -1.65,4.36 -1.94,7.04 z m -98.4,-7.04 0,78.74 9.67,0 0,-28.25 c 4.51,5.22 10.22,7.84 17.09,7.84 4.22,0 7.89,-0.83 11.02,-2.5 3.1,-1.66 5.33,-3.97 6.68,-6.89 1.34,-2.94 2.01,-7.21 2.01,-12.8 l 0,-36.14 -9.67,0 0,36.14 c 0,4.85 -1.03,8.36 -3.14,10.57 -2.09,2.2 -5.06,3.3 -8.89,3.3 -2.85,0 -5.55,-0.74 -8.09,-2.23 -2.52,-1.48 -4.31,-3.5 -5.39,-6.05 -1.07,-2.54 -1.62,-6.05 -1.62,-10.52 l 0,-31.21 -9.67,0 z m -27.87,0 0,11.02 11.02,0 0,-11.02 -11.02,0 z m 0,46.02 0,11.02 11.02,0 0,-11.02 -11.02,0 z m -12.13,-37.38 1.39,-8.53 c -2.71,-0.57 -5.16,-0.86 -7.3,-0.86 -3.5,0 -6.23,0.55 -8.17,1.67 -1.93,1.1 -3.28,2.57 -4.08,4.37 -0.78,1.81 -1.17,5.62 -1.17,11.42 l 0,32.81 -7.09,0 0,7.52 7.09,0 0,14.13 9.61,5.8 0,-19.93 9.72,0 0,-7.52 -9.72,0 0,-33.35 c 0,-2.76 0.17,-4.53 0.5,-5.32 l 1.66,-1.88 c 0.79,-0.46 1.88,-0.7 3.31,-0.7 1.07,0 2.5,0.13 4.25,0.37 z m -57.85,-8.64 0,57.04 8.69,0 0,-8.64 c 2.23,4.04 4.28,6.71 6.16,8 1.89,1.29 3.94,1.93 6.21,1.93 3.26,0 6.56,-1.04 9.94,-3.11 l -3.34,-8.97 c -2.37,1.4 -4.73,2.1 -7.09,2.1 -2.11,0 -4.01,-0.65 -5.69,-1.91 -1.67,-1.27 -2.89,-3.04 -3.61,-5.3 -1.07,-3.44 -1.6,-7.2 -1.6,-11.28 l 0,-29.86 -9.67,0 z m -61.07,0 0,57.04 8.71,0 0,-8.1 c 4.18,6.26 10.23,9.39 18.14,9.39 3.44,0 6.6,-0.62 9.5,-1.86 2.87,-1.23 5.03,-2.85 6.46,-4.86 1.43,-1.99 2.44,-4.37 3.01,-7.13 0.35,-1.79 0.53,-4.93 0.53,-9.41 l 0,-35.07 -9.67,0 0,34.7 c 0,3.94 -0.37,6.88 -1.12,8.83 -0.76,1.96 -2.09,3.51 -4,4.68 -1.91,1.15 -4.16,1.74 -6.74,1.74 -4.12,0 -7.67,-1.31 -10.66,-3.93 -2.99,-2.6 -4.49,-7.56 -4.49,-14.87 l 0,-31.15 -9.67,0" /><path
             id="path78"
             style="fill:#100f0d;fill-opacity:1;fill-rule:nonzero;stroke:none"
             d="m 7355.17,3571.67 -65.82,22.75 1.72,-49.98 64.1,27.23" /><path
             id="path80"
             style="fill:#100f0d;fill-opacity:1;fill-rule:nonzero;stroke:none"
             d="m 7355.17,3571.67 1.63,4.72 -72.7,25.13 2.22,-64.53 82.77,35.15 -12.29,4.25 -1.63,-4.72 -1.95,4.6 -57.4,-24.38 -1.22,35.42 58.94,-20.37 1.63,4.73 -1.95,4.6 1.95,-4.6" /><path
             id="path82"
             style="fill:#100f0d;fill-opacity:1;fill-rule:nonzero;stroke:none"
             d="m 6022.86,3520.84 1332.48,45.83 -0.34,9.99 -1332.48,-45.83" /><path
             id="path84"
             style="fill:#ffffff;fill-opacity:1;fill-rule:nonzero;stroke:none"
             d="m 6358.94,3483.75 660,0 0,130 -660,0 0,-130 z" /><path
             id="path86"
             style="fill:#3a3a3b;fill-opacity:1;fill-rule:nonzero;stroke:none"
             d="m 7016.95,3522.39 1.38,-8.54 c -2.71,-0.56 -5.15,-0.86 -7.3,-0.86 -3.5,0 -6.23,0.56 -8.16,1.67 -1.94,1.11 -3.29,2.57 -4.09,4.38 -0.78,1.8 -1.17,5.61 -1.17,11.41 l 0,32.82 -7.09,0 0,7.52 7.09,0 0,14.13 9.61,5.8 0,-19.93 9.73,0 0,-7.52 -9.73,0 0,-33.35 c 0,-2.77 0.18,-4.53 0.51,-5.33 l 1.66,-1.87 c 0.78,-0.47 1.87,-0.7 3.32,-0.7 1.07,0 2.48,0.12 4.24,0.37 z m -79.18,23.69 26.7,0 -8.22,21.82 c -2.5,6.62 -4.36,12.06 -5.59,16.32 -1,-5.05 -2.4,-10.06 -4.24,-15.04 l -8.65,-23.1 z m -22.72,-32.33 30.24,78.74 11.23,0 32.23,-78.74 -11.88,0 -9.18,23.85 -32.93,0 -8.63,-23.85 -11.08,0 z m -51.44,17.03 9.55,1.5 c 0.55,-3.84 2.03,-6.77 4.49,-8.81 2.44,-2.04 5.88,-3.05 10.27,-3.05 4.46,0 7.74,0.89 9.89,2.7 2.15,1.81 3.22,3.94 3.22,6.37 0,2.18 -0.94,3.89 -2.83,5.15 -1.33,0.86 -4.63,1.95 -9.88,3.28 -7.09,1.79 -12.02,3.33 -14.75,4.64 -2.75,1.31 -4.82,3.12 -6.23,5.43 -1.43,2.31 -2.13,4.87 -2.13,7.66 0,2.54 0.59,4.88 1.74,7.05 1.17,2.17 2.75,3.97 4.76,5.4 1.51,1.11 3.56,2.05 6.16,2.82 2.59,0.77 5.37,1.16 8.34,1.16 4.49,0 8.41,-0.65 11.79,-1.94 3.38,-1.29 5.88,-3.03 7.5,-5.23 1.6,-2.21 2.72,-5.15 3.32,-8.84 l -9.45,-1.29 c -0.43,2.94 -1.68,5.22 -3.73,6.88 -2.05,1.65 -4.96,2.47 -8.73,2.47 -4.43,0 -7.6,-0.74 -9.51,-2.2 -1.9,-1.48 -2.83,-3.19 -2.83,-5.17 0,-1.25 0.39,-2.37 1.17,-3.38 0.78,-1.03 2.03,-1.89 3.71,-2.57 0.96,-0.36 3.81,-1.19 8.53,-2.47 6.84,-1.83 11.62,-3.33 14.32,-4.49 2.7,-1.16 4.82,-2.85 6.37,-5.08 1.54,-2.21 2.3,-4.98 2.3,-8.26 0,-3.22 -0.94,-6.27 -2.81,-9.11 -1.9,-2.84 -4.59,-5.05 -8.15,-6.61 -3.53,-1.55 -7.55,-2.32 -12.03,-2.32 -7.4,0 -13.06,1.53 -16.95,4.61 -3.87,3.08 -6.35,7.64 -7.42,13.7 z m -50.02,16.97 31.85,0 c -0.43,4.79 -1.64,8.39 -3.65,10.79 -3.08,3.73 -7.07,5.59 -11.97,5.59 -4.43,0 -8.18,-1.49 -11.21,-4.46 -3.01,-2.97 -4.69,-6.95 -5.02,-11.92 z m 31.76,-15.64 9.98,-1.23 c -1.58,-5.84 -4.5,-10.37 -8.75,-13.59 -4.26,-3.22 -9.71,-4.82 -16.33,-4.82 -8.34,0 -14.96,2.55 -19.84,7.69 -4.91,5.14 -7.35,12.34 -7.35,21.62 0,9.6 2.48,17.05 7.42,22.35 4.94,5.3 11.35,7.95 19.22,7.95 7.64,0 13.87,-2.6 18.69,-7.79 4.85,-5.19 7.27,-12.5 7.27,-21.91 0,-0.58 -0.02,-1.44 -0.06,-2.58 l -42.54,0 c 0.35,-6.27 2.13,-11.06 5.31,-14.39 3.19,-3.33 7.17,-4.99 11.94,-4.99 3.53,0 6.56,0.91 9.06,2.79 2.52,1.85 4.49,4.82 5.98,8.9 z m -75.8,-18.36 0,57.04 8.71,0 0,-8.65 c 2.22,4.05 4.25,6.71 6.15,8 1.87,1.29 3.94,1.94 6.19,1.94 3.26,0 6.58,-1.04 9.94,-3.11 l -3.32,-8.97 c -2.36,1.39 -4.72,2.09 -7.09,2.09 -2.13,0 -4.02,-0.64 -5.7,-1.91 -1.68,-1.27 -2.87,-3.03 -3.6,-5.29 -1.07,-3.44 -1.62,-7.2 -1.62,-11.28 l 0,-29.86 -9.66,0 z m -23.68,0 0,8.38 c -4.45,-6.44 -10.48,-9.66 -18.1,-9.66 -3.36,0 -6.51,0.64 -9.44,1.93 -2.91,1.29 -5.07,2.9 -6.48,4.85 -1.43,1.96 -2.42,4.35 -2.99,7.18 -0.39,1.9 -0.58,4.9 -0.58,9.02 l 0,35.34 9.66,0 0,-31.63 c 0,-5.05 0.2,-8.45 0.59,-10.21 0.61,-2.54 1.89,-4.54 3.87,-6 1.97,-1.44 4.39,-2.16 7.3,-2.16 2.89,0 5.63,0.74 8.17,2.22 2.54,1.49 4.33,3.52 5.39,6.08 1.05,2.56 1.58,6.27 1.58,11.13 l 0,30.57 9.67,0 0,-57.04 -8.64,0 z m -46.83,8.64 1.38,-8.54 c -2.71,-0.56 -5.15,-0.86 -7.3,-0.86 -3.52,0 -6.23,0.56 -8.16,1.67 -1.94,1.11 -3.3,2.57 -4.09,4.38 -0.78,1.8 -1.17,5.61 -1.17,11.41 l 0,32.82 -7.09,0 0,7.52 7.09,0 0,14.13 9.61,5.8 0,-19.93 9.73,0 0,-7.52 -9.73,0 0,-33.35 c 0,-2.77 0.18,-4.53 0.51,-5.33 l 1.66,-1.87 c 0.78,-0.47 1.87,-0.7 3.3,-0.7 1.07,0 2.5,0.12 4.26,0.37 z m -45.88,19.99 c -3.52,-1.44 -8.77,-2.65 -15.78,-3.65 -3.99,-0.58 -6.8,-1.23 -8.44,-1.94 -1.64,-0.71 -2.93,-1.77 -3.81,-3.14 -0.9,-1.38 -1.35,-2.91 -1.35,-4.59 0,-2.58 0.98,-4.74 2.93,-6.45 1.96,-1.72 4.81,-2.58 8.56,-2.58 3.73,0 7.05,0.81 9.94,2.45 2.91,1.63 5.04,3.85 6.39,6.69 1.05,2.18 1.56,5.41 1.56,9.66 l 0,3.55 z m 0.8,-21.59 c -3.57,-3.05 -7.01,-5.2 -10.33,-6.45 -3.32,-1.25 -6.88,-1.87 -10.67,-1.87 -6.27,0 -11.07,1.52 -14.45,4.59 -3.36,3.05 -5.04,6.97 -5.04,11.73 0,2.8 0.63,5.34 1.9,7.65 1.29,2.31 2.95,4.17 5,5.56 2.07,1.4 4.37,2.46 6.95,3.17 1.91,0.5 4.76,0.99 8.59,1.46 7.82,0.91 13.56,2.03 17.25,3.32 0.04,1.32 0.06,2.16 0.06,2.53 0,3.93 -0.92,6.7 -2.74,8.33 -2.48,2.17 -6.15,3.27 -11.01,3.27 -4.55,0 -7.91,-0.8 -10.08,-2.4 -2.17,-1.59 -3.77,-4.41 -4.81,-8.45 l -9.45,1.29 c 0.86,4.04 2.29,7.3 4.24,9.8 1.97,2.48 4.82,4.4 8.55,5.74 3.72,1.35 8.03,2.02 12.93,2.02 4.89,0 8.83,-0.57 11.88,-1.72 3.05,-1.15 5.29,-2.58 6.72,-4.32 1.42,-1.74 2.44,-3.94 3.01,-6.58 0.31,-1.65 0.48,-4.62 0.48,-8.92 l 0,-12.89 c 0,-8.99 0.2,-14.68 0.61,-17.06 0.41,-2.38 1.23,-4.66 2.44,-6.84 l -10.1,0 c -0.99,2 -1.64,4.35 -1.93,7.04 z m -128.85,-7.04 0,57.04 8.65,0 0,-8 c 1.8,2.79 4.16,5.04 7.15,6.74 2.97,1.7 6.35,2.55 10.14,2.55 4.24,0 7.7,-0.88 10.39,-2.63 2.72,-1.76 4.63,-4.21 5.72,-7.36 4.51,6.66 10.39,9.99 17.62,9.99 5.66,0 10.02,-1.57 13.07,-4.7 3.02,-3.14 4.55,-7.96 4.55,-14.47 l 0,-39.16 -9.61,0 0,35.93 c 0,3.87 -0.31,6.65 -0.94,8.35 -0.62,1.7 -1.76,3.07 -3.42,4.11 -1.64,1.04 -3.57,1.56 -5.8,1.56 -4,0 -7.32,-1.33 -9.98,-4.01 -2.65,-2.65 -3.98,-6.93 -3.98,-12.8 l 0,-33.14 -9.67,0 0,37.06 c 0,4.29 -0.78,7.52 -2.36,9.66 -1.57,2.15 -4.14,3.23 -7.74,3.23 -2.71,0 -5.23,-0.72 -7.54,-2.15 -2.3,-1.43 -3.98,-3.53 -5.02,-6.28 -1.03,-2.77 -1.56,-6.73 -1.56,-11.93 l 0,-29.59 -9.67,0 z m -27.87,0 0,11.01 11.02,0 0,-11.01 -11.02,0 z m 0,46.03 0,11.01 11.02,0 0,-11.01 -11.02,0 z m -12.15,-37.39 1.41,-8.54 c -2.72,-0.56 -5.16,-0.86 -7.31,-0.86 -3.51,0 -6.23,0.56 -8.16,1.67 -1.93,1.11 -3.3,2.57 -4.08,4.38 -0.78,1.8 -1.19,5.61 -1.19,11.41 l 0,32.82 -7.09,0 0,7.52 7.09,0 0,14.13 9.63,5.8 0,-19.93 9.7,0 0,-7.52 -9.7,0 0,-33.35 c 0,-2.77 0.15,-4.53 0.5,-5.33 l 1.66,-1.87 c 0.77,-0.47 1.88,-0.7 3.3,-0.7 1.08,0 2.5,0.12 4.24,0.37 z m -57.83,-8.64 0,57.04 8.69,0 0,-8.65 c 2.23,4.05 4.28,6.71 6.15,8 1.88,1.29 3.95,1.94 6.22,1.94 3.24,0 6.56,-1.04 9.92,-3.11 l -3.32,-8.97 c -2.37,1.39 -4.73,2.09 -7.09,2.09 -2.11,0 -4.01,-0.64 -5.71,-1.91 -1.68,-1.27 -2.87,-3.03 -3.59,-5.29 -1.07,-3.44 -1.6,-7.2 -1.6,-11.28 l 0,-29.86 -9.67,0 z m -61.07,0 0,57.04 8.69,0 0,-8.11 c 4.2,6.27 10.25,9.4 18.16,9.4 3.44,0 6.6,-0.62 9.47,-1.86 2.9,-1.23 5.04,-2.85 6.49,-4.85 1.42,-2.01 2.42,-4.39 3.01,-7.14 0.35,-1.8 0.52,-4.93 0.52,-9.41 l 0,-35.07 -9.66,0 0,34.69 c 0,3.95 -0.37,6.89 -1.14,8.84 -0.74,1.95 -2.07,3.51 -4,4.68 -1.91,1.15 -4.16,1.74 -6.74,1.74 -4.1,0 -7.66,-1.31 -10.64,-3.92 -3.01,-2.62 -4.5,-7.58 -4.5,-14.88 l 0,-31.15 -9.66,0" /><path
             id="path88"
             style="fill:#100f0d;fill-opacity:1;fill-rule:nonzero;stroke:none"
             d="m 7392.77,2864.59 -52.19,46.14 -17.46,-46.85 69.65,0.71" /><path
             id="path90"
             style="fill:#100f0d;fill-opacity:1;fill-rule:nonzero;stroke:none"
             d="m 7392.77,2864.59 3.31,3.75 -57.64,50.96 -22.55,-60.49 89.94,0.92 -9.75,8.61 -3.31,-3.75 -0.05,5 -62.37,-0.63 12.37,33.2 46.74,-41.31 3.31,3.74 -0.05,5 0.05,-5" /><path
             id="path92"
             style="fill:#100f0d;fill-opacity:1;fill-rule:nonzero;stroke:none"
             d="m 5937.74,3401.73 1453.28,-541.82 3.49,9.37 -1453.28,541.82" /><path
             id="path94"
             style="fill:#ffffff;fill-opacity:1;fill-rule:nonzero;stroke:none"
             d="m 6101.13,3070.5 1130,0 0,130 -1130,0 0,-130 z" /><path
             id="path96"
             style="fill:#3a3a3b;fill-opacity:1;fill-rule:nonzero;stroke:none"
             d="m 7190.7,3100.5 0,78.74 9.67,0 0,-28.25 c 4.51,5.23 10.21,7.84 17.09,7.84 4.21,0 7.89,-0.83 11.01,-2.5 3.11,-1.66 5.33,-3.96 6.68,-6.89 1.35,-2.94 2.01,-7.21 2.01,-12.79 l 0,-36.15 -9.66,0 0,36.15 c 0,4.84 -1.04,8.35 -3.15,10.56 -2.09,2.2 -5.06,3.3 -8.89,3.3 -2.87,0 -5.54,-0.74 -8.08,-2.22 -2.52,-1.49 -4.32,-3.51 -5.39,-6.06 -1.08,-2.54 -1.62,-6.04 -1.62,-10.53 l 0,-31.2 -9.67,0 z m -9.45,8.65 1.4,-8.54 c -2.71,-0.57 -5.15,-0.86 -7.3,-0.86 -3.52,0 -6.23,0.56 -8.17,1.66 -1.93,1.11 -3.3,2.58 -4.08,4.39 -0.78,1.8 -1.19,5.61 -1.19,11.41 l 0,32.81 -7.09,0 0,7.52 7.09,0 0,14.13 9.63,5.8 0,-19.93 9.71,0 0,-7.52 -9.71,0 0,-33.35 c 0,-2.76 0.15,-4.53 0.51,-5.32 l 1.66,-1.87 c 0.76,-0.47 1.87,-0.71 3.3,-0.71 1.07,0 2.5,0.13 4.24,0.38 z m -76.06,20.89 c 0,-7.48 1.48,-12.95 4.47,-16.38 2.97,-3.44 6.68,-5.16 11.17,-5.16 4.44,0 8.17,1.72 11.18,5.14 3,3.42 4.51,8.78 4.51,16.08 0,6.98 -1.56,12.25 -4.65,15.79 -3.11,3.55 -6.84,5.32 -11.21,5.32 -4.3,0 -7.95,-1.74 -10.96,-5.24 -3.01,-3.49 -4.51,-8.67 -4.51,-15.55 z m -7.99,-34.26 9.4,-1.4 c 0.39,-2.9 1.48,-5.01 3.28,-6.34 2.38,-1.79 5.66,-2.68 9.82,-2.68 4.47,0 7.93,0.89 10.37,2.68 2.43,1.79 4.09,4.3 4.94,7.52 0.49,1.97 0.73,6.11 0.69,12.41 -4.22,-4.98 -9.47,-7.47 -15.78,-7.47 -7.85,0 -13.91,2.84 -18.21,8.49 -4.29,5.66 -6.44,12.44 -6.44,20.35 0,5.45 0.98,10.47 2.95,15.08 1.97,4.59 4.82,8.14 8.57,10.65 3.73,2.51 8.13,3.76 13.19,3.76 6.71,0 12.26,-2.71 16.64,-8.16 l 0,6.87 8.92,0 0,-49.3 c 0,-8.88 -0.92,-15.17 -2.71,-18.88 -1.82,-3.71 -4.67,-6.64 -8.6,-8.79 -3.92,-2.15 -8.75,-3.22 -14.47,-3.22 -6.82,0 -12.3,1.54 -16.5,4.6 -4.18,3.05 -6.21,7.66 -6.06,13.83 z m -59.41,4.72 0,57.04 8.71,0 0,-8.1 c 4.18,6.27 10.23,9.39 18.14,9.39 3.44,0 6.61,-0.61 9.48,-1.85 2.89,-1.23 5.05,-2.85 6.48,-4.87 1.43,-1.99 2.44,-4.37 3.01,-7.13 0.35,-1.79 0.53,-4.93 0.53,-9.41 l 0,-35.07 -9.67,0 0,34.7 c 0,3.95 -0.37,6.89 -1.12,8.84 -0.76,1.95 -2.09,3.5 -4,4.68 -1.91,1.15 -4.16,1.73 -6.74,1.73 -4.12,0 -7.67,-1.3 -10.66,-3.92 -2.99,-2.61 -4.49,-7.57 -4.49,-14.87 l 0,-31.16 -9.67,0 z m -53.87,34 31.86,0 c -0.43,4.8 -1.66,8.4 -3.66,10.8 -3.08,3.73 -7.07,5.58 -11.99,5.58 -4.43,0 -8.16,-1.48 -11.19,-4.45 -3.03,-2.97 -4.71,-6.95 -5.02,-11.93 z m 31.74,-15.63 10,-1.23 c -1.58,-5.84 -4.49,-10.37 -8.77,-13.59 -4.26,-3.22 -9.69,-4.84 -16.33,-4.84 -8.34,0 -14.94,2.57 -19.84,7.71 -4.89,5.14 -7.33,12.34 -7.33,21.62 0,9.6 2.46,17.05 7.41,22.34 4.94,5.31 11.36,7.95 19.23,7.95 7.62,0 13.85,-2.59 18.7,-7.79 4.82,-5.19 7.24,-12.49 7.24,-21.91 0,-0.57 -0.02,-1.43 -0.06,-2.58 l -42.54,0 c 0.38,-6.26 2.13,-11.06 5.34,-14.4 3.18,-3.32 7.14,-4.99 11.91,-4.99 3.55,0 6.58,0.93 9.08,2.8 2.5,1.86 4.49,4.83 5.96,8.91 z m -99.41,-18.37 0,78.74 10.41,0 0,-69.45 38.78,0 0,-9.29 -49.19,0 z m -62,0 0,78.74 9.67,0 0,-28.25 c 4.51,5.23 10.22,7.84 17.09,7.84 4.22,0 7.89,-0.83 11.02,-2.5 3.1,-1.66 5.33,-3.96 6.68,-6.89 1.34,-2.94 2.01,-7.21 2.01,-12.79 l 0,-36.15 -9.67,0 0,36.15 c 0,4.84 -1.04,8.35 -3.14,10.56 -2.09,2.2 -5.06,3.3 -8.89,3.3 -2.87,0 -5.55,-0.74 -8.09,-2.22 -2.52,-1.49 -4.31,-3.51 -5.39,-6.06 -1.07,-2.54 -1.62,-6.04 -1.62,-10.53 l 0,-31.2 -9.67,0 z m -9.45,8.65 1.41,-8.54 c -2.72,-0.57 -5.16,-0.86 -7.31,-0.86 -3.51,0 -6.23,0.56 -8.16,1.66 -1.94,1.11 -3.3,2.58 -4.08,4.39 -0.79,1.8 -1.2,5.61 -1.2,11.41 l 0,32.81 -7.09,0 0,7.52 7.09,0 0,14.13 9.63,5.8 0,-19.93 9.71,0 0,-7.52 -9.71,0 0,-33.35 c 0,-2.76 0.16,-4.53 0.51,-5.32 l 1.66,-1.87 c 0.76,-0.47 1.88,-0.71 3.3,-0.71 1.08,0 2.5,0.13 4.24,0.38 z m -45.86,19.98 c -3.52,-1.43 -8.77,-2.64 -15.8,-3.66 -3.97,-0.56 -6.78,-1.21 -8.42,-1.93 -1.66,-0.7 -2.93,-1.76 -3.83,-3.13 -0.88,-1.38 -1.32,-2.91 -1.32,-4.6 0,-2.58 0.97,-4.73 2.93,-6.45 1.93,-1.72 4.8,-2.58 8.55,-2.58 3.73,0 7.03,0.82 9.94,2.45 2.89,1.63 5.02,3.86 6.39,6.69 1.03,2.19 1.56,5.41 1.56,9.67 l 0,3.54 z m 0.8,-21.59 c -3.57,-3.04 -7.03,-5.19 -10.33,-6.44 -3.32,-1.25 -6.88,-1.89 -10.66,-1.89 -6.27,0 -11.1,1.54 -14.46,4.6 -3.36,3.06 -5.04,6.98 -5.04,11.73 0,2.8 0.63,5.34 1.9,7.66 1.27,2.31 2.95,4.16 5,5.55 2.05,1.4 4.37,2.47 6.95,3.17 1.9,0.51 4.77,1 8.59,1.45 7.82,0.93 13.56,2.05 17.25,3.33 0.04,1.33 0.06,2.17 0.06,2.52 0,3.95 -0.92,6.72 -2.75,8.33 -2.47,2.19 -6.14,3.28 -11,3.28 -4.55,0 -7.91,-0.8 -10.08,-2.39 -2.17,-1.59 -3.77,-4.41 -4.8,-8.45 l -9.46,1.28 c 0.86,4.05 2.27,7.31 4.24,9.81 1.97,2.48 4.83,4.39 8.54,5.74 3.73,1.35 8.04,2.01 12.95,2.01 4.86,0 8.82,-0.56 11.87,-1.72 3.05,-1.14 5.27,-2.57 6.72,-4.31 1.43,-1.74 2.42,-3.94 3.01,-6.58 0.31,-1.65 0.47,-4.63 0.47,-8.93 l 0,-12.89 c 0,-8.98 0.21,-14.67 0.62,-17.05 0.41,-2.38 1.23,-4.66 2.44,-6.85 l -10.1,0 c -0.99,2 -1.64,4.35 -1.93,7.04 z m -98.92,34.26 20.35,0 c 6.74,0 11.5,1.26 14.33,3.77 2.83,2.5 4.24,6.04 4.24,10.58 0,3.29 -0.82,6.12 -2.5,8.46 -1.66,2.35 -3.85,3.89 -6.56,4.64 -1.76,0.47 -5,0.7 -9.73,0.7 l -20.13,0 0,-28.15 z m -10.43,-41.3 0,78.74 29.7,0 c 5.24,0 9.22,-0.25 11.98,-0.75 3.86,-0.64 7.1,-1.86 9.72,-3.68 2.62,-1.8 4.71,-4.34 6.31,-7.6 1.6,-3.26 2.38,-6.83 2.38,-10.74 0,-6.7 -2.13,-12.36 -6.38,-16.99 -4.26,-4.65 -11.96,-6.97 -23.09,-6.97 l -20.19,0 0,-32.01 -10.43,0 z m -56.66,-21.96 -1.08,9.07 c 2.11,-0.57 3.95,-0.86 5.53,-0.86 2.15,0 3.87,0.36 5.15,1.08 1.29,0.71 2.35,1.72 3.17,3.01 0.62,0.96 1.6,3.36 2.97,7.19 0.17,0.54 0.45,1.33 0.86,2.37 l -21.66,57.14 10.43,0 11.87,-33.02 c 1.53,-4.2 2.91,-8.6 4.12,-13.23 1.12,4.46 2.44,8.78 3.99,13.01 l 12.18,33.24 9.67,0 -21.7,-58 c -2.32,-6.27 -4.14,-10.59 -5.43,-12.95 -1.72,-3.19 -3.67,-5.52 -5.89,-7 -2.23,-1.49 -4.87,-2.24 -7.95,-2.24 -1.86,0 -3.95,0.4 -6.23,1.19 z m -24.22,21.96 0,78.74 9.66,0 0,-78.74 -9.66,0 z m -24.18,0 0,57.04 9.67,0 0,-57.04 -9.67,0 z m 0,67.63 0,11.11 9.67,0 0,-11.11 -9.67,0 z m -24.81,-39 c -3.51,-1.43 -8.79,-2.64 -15.8,-3.66 -3.96,-0.56 -6.78,-1.21 -8.44,-1.93 -1.64,-0.7 -2.91,-1.76 -3.8,-3.13 -0.9,-1.38 -1.35,-2.91 -1.35,-4.6 0,-2.58 0.97,-4.73 2.93,-6.45 1.95,-1.72 4.8,-2.58 8.57,-2.58 3.73,0 7.03,0.82 9.94,2.45 2.89,1.63 5.02,3.86 6.39,6.69 1.04,2.19 1.56,5.41 1.56,9.67 l 0,3.54 z m 0.8,-21.59 c -3.57,-3.04 -7.03,-5.19 -10.33,-6.44 -3.32,-1.25 -6.87,-1.89 -10.66,-1.89 -6.27,0 -11.1,1.54 -14.46,4.6 -3.36,3.06 -5.05,6.98 -5.05,11.73 0,2.8 0.64,5.34 1.91,7.66 1.27,2.31 2.93,4.16 5,5.55 2.05,1.4 4.37,2.47 6.95,3.17 1.9,0.51 4.77,1 8.6,1.45 7.81,0.93 13.55,2.05 17.24,3.33 0.02,1.33 0.04,2.17 0.04,2.52 0,3.95 -0.9,6.72 -2.73,8.33 -2.46,2.19 -6.14,3.28 -11.02,3.28 -4.53,0 -7.89,-0.8 -10.06,-2.39 -2.17,-1.59 -3.77,-4.41 -4.8,-8.45 l -9.45,1.28 c 0.85,4.05 2.26,7.31 4.23,9.81 1.98,2.48 4.83,4.39 8.54,5.74 3.73,1.35 8.05,2.01 12.95,2.01 4.86,0 8.83,-0.56 11.87,-1.72 3.03,-1.14 5.28,-2.57 6.7,-4.31 1.45,-1.74 2.44,-3.94 3.01,-6.58 0.33,-1.65 0.49,-4.63 0.49,-8.93 l 0,-12.89 c 0,-8.98 0.21,-14.67 0.62,-17.05 0.41,-2.38 1.23,-4.66 2.44,-6.85 l -10.09,0 c -1,2 -1.64,4.35 -1.94,7.04 z m -105,2.25 16.8,0 c 5.2,0 9.28,0.49 12.23,1.46 2.95,0.96 5.31,2.33 7.07,4.08 2.46,2.47 4.39,5.79 5.76,9.97 1.39,4.16 2.07,9.22 2.07,15.16 0,8.24 -1.35,14.56 -4.04,19 -2.72,4.41 -6,7.38 -9.87,8.88 -2.79,1.08 -7.28,1.61 -13.47,1.61 l -16.55,0 0,-60.16 z m -10.43,-9.29 0,78.74 27.13,0 c 6.12,0 10.8,-0.37 14.03,-1.13 4.51,-1.03 8.36,-2.91 11.54,-5.63 4.16,-3.51 7.26,-8 9.32,-13.45 2.05,-5.47 3.08,-11.7 3.08,-18.73 0,-5.98 -0.7,-11.27 -2.09,-15.9 -1.4,-4.61 -3.18,-8.44 -5.37,-11.47 -2.19,-3.02 -4.57,-5.4 -7.17,-7.13 -2.6,-1.74 -5.74,-3.06 -9.39,-3.96 -3.67,-0.89 -7.89,-1.34 -12.66,-1.34 l -28.42,0 z m -60.09,17.02 9.55,1.51 c 0.54,-3.83 2.03,-6.76 4.49,-8.81 2.46,-2.03 5.88,-3.06 10.29,-3.06 4.44,0 7.74,0.91 9.88,2.72 2.15,1.8 3.23,3.93 3.23,6.36 0,2.18 -0.96,3.9 -2.85,5.15 -1.33,0.86 -4.63,1.95 -9.89,3.28 -7.09,1.8 -12.01,3.34 -14.74,4.65 -2.74,1.31 -4.83,3.12 -6.23,5.43 -1.41,2.31 -2.13,4.85 -2.13,7.65 0,2.55 0.58,4.89 1.76,7.06 1.15,2.17 2.73,3.96 4.74,5.4 1.51,1.11 3.56,2.05 6.15,2.82 2.6,0.77 5.37,1.15 8.36,1.15 4.48,0 8.4,-0.64 11.78,-1.93 3.4,-1.29 5.88,-3.03 7.5,-5.23 1.6,-2.21 2.72,-5.15 3.32,-8.84 l -9.45,-1.29 c -0.43,2.94 -1.66,5.22 -3.73,6.87 -2.05,1.65 -4.96,2.47 -8.73,2.47 -4.44,0 -7.6,-0.73 -9.5,-2.2 -1.91,-1.47 -2.85,-3.19 -2.85,-5.16 0,-1.25 0.39,-2.37 1.17,-3.38 0.81,-1.03 2.04,-1.89 3.72,-2.58 0.97,-0.35 3.8,-1.18 8.53,-2.47 6.86,-1.82 11.62,-3.32 14.32,-4.48 2.71,-1.16 4.82,-2.85 6.36,-5.08 1.55,-2.21 2.31,-4.98 2.31,-8.27 0,-3.22 -0.94,-6.26 -2.81,-9.1 -1.88,-2.84 -4.59,-5.05 -8.15,-6.61 -3.53,-1.55 -7.54,-2.34 -12.03,-2.34 -7.4,0 -13.05,1.55 -16.93,4.62 -3.89,3.09 -6.37,7.65 -7.44,13.69 z m -20.9,11.61 c -3.52,-1.43 -8.77,-2.64 -15.78,-3.66 -3.99,-0.56 -6.8,-1.21 -8.44,-1.93 -1.64,-0.7 -2.93,-1.76 -3.81,-3.13 -0.9,-1.38 -1.35,-2.91 -1.35,-4.6 0,-2.58 0.98,-4.73 2.93,-6.45 1.96,-1.72 4.81,-2.58 8.56,-2.58 3.73,0 7.05,0.82 9.94,2.45 2.91,1.63 5.04,3.86 6.38,6.69 1.06,2.19 1.57,5.41 1.57,9.67 l 0,3.54 z m 0.8,-21.59 c -3.58,-3.04 -7.01,-5.19 -10.33,-6.44 -3.32,-1.25 -6.88,-1.89 -10.67,-1.89 -6.27,0 -11.07,1.54 -14.45,4.6 -3.36,3.06 -5.04,6.98 -5.04,11.73 0,2.8 0.62,5.34 1.91,7.66 1.27,2.31 2.93,4.16 4.98,5.55 2.07,1.4 4.38,2.47 6.96,3.17 1.91,0.51 4.76,1 8.59,1.45 7.81,0.93 13.56,2.05 17.25,3.33 0.04,1.33 0.06,2.17 0.06,2.52 0,3.95 -0.92,6.72 -2.74,8.33 -2.48,2.19 -6.15,3.28 -11.01,3.28 -4.55,0 -7.91,-0.8 -10.08,-2.39 -2.17,-1.59 -3.77,-4.41 -4.81,-8.45 l -9.45,1.28 c 0.86,4.05 2.29,7.31 4.24,9.81 1.97,2.48 4.82,4.39 8.55,5.74 3.71,1.35 8.03,2.01 12.93,2.01 4.89,0 8.83,-0.56 11.88,-1.72 3.04,-1.14 5.29,-2.57 6.72,-4.31 1.42,-1.74 2.44,-3.94 3,-6.58 0.32,-1.65 0.49,-4.63 0.49,-8.93 l 0,-12.89 c 0,-8.98 0.2,-14.67 0.61,-17.05 0.41,-2.38 1.23,-4.66 2.44,-6.85 l -10.1,0 c -0.99,2 -1.64,4.35 -1.93,7.04 z m -98.4,-7.04 0,78.74 9.67,0 0,-28.25 c 4.51,5.23 10.21,7.84 17.09,7.84 4.22,0 7.89,-0.83 11.01,-2.5 3.11,-1.66 5.34,-3.96 6.68,-6.89 1.35,-2.94 2.01,-7.21 2.01,-12.79 l 0,-36.15 -9.66,0 0,36.15 c 0,4.84 -1.04,8.35 -3.15,10.56 -2.09,2.2 -5.06,3.3 -8.88,3.3 -2.88,0 -5.55,-0.74 -8.09,-2.22 -2.52,-1.49 -4.32,-3.51 -5.39,-6.06 -1.08,-2.54 -1.62,-6.04 -1.62,-10.53 l 0,-31.2 -9.67,0 z m -27.87,0 0,11.01 11.01,0 0,-11.01 -11.01,0 z m 0,46.03 0,11.01 11.01,0 0,-11.01 -11.01,0 z m -12.13,-37.38 1.39,-8.54 c -2.72,-0.57 -5.16,-0.86 -7.31,-0.86 -3.51,0 -6.23,0.56 -8.16,1.66 -1.94,1.11 -3.3,2.58 -4.08,4.39 -0.79,1.8 -1.18,5.61 -1.18,11.41 l 0,32.81 -7.09,0 0,7.52 7.09,0 0,14.13 9.61,5.8 0,-19.93 9.73,0 0,-7.52 -9.73,0 0,-33.35 c 0,-2.76 0.18,-4.53 0.51,-5.32 l 1.66,-1.87 c 0.78,-0.47 1.88,-0.71 3.3,-0.71 1.08,0 2.5,0.13 4.26,0.38 z m -57.85,-8.65 0,57.04 8.69,0 0,-8.65 c 2.23,4.05 4.28,6.72 6.15,8.01 1.9,1.29 3.95,1.93 6.21,1.93 3.26,0 6.57,-1.03 9.94,-3.11 l -3.34,-8.98 c -2.36,1.41 -4.72,2.1 -7.09,2.1 -2.1,0 -4,-0.63 -5.68,-1.9 -1.7,-1.27 -2.89,-3.04 -3.61,-5.29 -1.08,-3.44 -1.6,-7.2 -1.6,-11.28 l 0,-29.87 -9.67,0 z m -61.08,0 0,57.04 8.71,0 0,-8.1 c 4.18,6.27 10.24,9.39 18.15,9.39 3.44,0 6.6,-0.61 9.49,-1.85 2.87,-1.23 5.04,-2.85 6.47,-4.87 1.42,-1.99 2.44,-4.37 3,-7.13 0.36,-1.79 0.53,-4.93 0.53,-9.41 l 0,-35.07 -9.67,0 0,34.7 c 0,3.95 -0.37,6.89 -1.11,8.84 -0.76,1.95 -2.09,3.5 -4,4.68 -1.92,1.15 -4.16,1.73 -6.74,1.73 -4.12,0 -7.68,-1.3 -10.67,-3.92 -2.98,-2.61 -4.49,-7.57 -4.49,-14.87 l 0,-31.16 -9.67,0" /><path
             id="path98"
             style="fill:#100f0d;fill-opacity:1;fill-rule:nonzero;stroke:none"
             d="m 6837.75,2173.13 -24.32,65.25 -37.46,-33.11 61.78,-32.14" /><path
             id="path100"
             style="fill:#100f0d;fill-opacity:1;fill-rule:nonzero;stroke:none"
             d="m 6837.75,2173.13 4.68,1.75 -26.86,72.07 -48.36,-42.76 79.77,-41.5 -4.55,12.19 -4.68,-1.75 2.31,4.44 -55.32,28.77 26.55,23.48 21.77,-58.44 4.69,1.75 2.31,4.44 -2.31,-4.44" /><path
             id="path102"
             style="fill:#100f0d;fill-opacity:1;fill-rule:nonzero;stroke:none"
             d="m 5746.74,3399.82 1087.26,-1230 7.49,6.62 -1087.26,1230" /><path
             id="path104"
             style="fill:#ffffff;fill-opacity:1;fill-rule:nonzero;stroke:none"
             d="m 5999.12,2723.13 590,0 0,130 -590,0 0,-130 z" /><path
             id="path106"
             style="fill:#3a3a3b;fill-opacity:1;fill-rule:nonzero;stroke:none"
             d="m 6562.75,2753.13 0,57.04 8.71,0 0,-8.64 c 2.21,4.04 4.26,6.71 6.15,8 1.88,1.29 3.95,1.93 6.19,1.93 3.27,0 6.59,-1.04 9.95,-3.12 l -3.33,-8.97 c -2.36,1.4 -4.72,2.1 -7.09,2.1 -2.12,0 -4.02,-0.63 -5.7,-1.9 -1.68,-1.27 -2.89,-3.04 -3.59,-5.3 -1.08,-3.43 -1.62,-7.19 -1.62,-11.28 l 0,-29.86 -9.67,0 z m -53.75,34 31.83,0 c -0.42,4.8 -1.64,8.39 -3.65,10.79 -3.06,3.73 -7.07,5.59 -11.97,5.59 -4.43,0 -8.16,-1.48 -11.19,-4.45 -3.03,-2.98 -4.71,-6.96 -5.02,-11.93 z m 31.74,-15.63 9.98,-1.23 c -1.56,-5.84 -4.49,-10.37 -8.75,-13.6 -4.26,-3.22 -9.71,-4.83 -16.33,-4.83 -8.34,0 -14.96,2.57 -19.84,7.71 -4.89,5.13 -7.33,12.34 -7.33,21.62 0,9.6 2.46,17.04 7.4,22.34 4.95,5.3 11.35,7.95 19.24,7.95 7.62,0 13.85,-2.6 18.69,-7.78 4.83,-5.2 7.25,-12.5 7.25,-21.92 0,-0.57 -0.02,-1.43 -0.06,-2.58 l -42.54,0 c 0.35,-6.26 2.13,-11.07 5.31,-14.4 3.19,-3.33 7.17,-4.99 11.94,-4.99 3.53,0 6.56,0.93 9.08,2.79 2.5,1.87 4.49,4.84 5.96,8.92 z m -100.24,-18.37 0,78.74 9.67,0 0,-28.25 c 4.51,5.22 10.22,7.84 17.09,7.84 4.22,0 7.89,-0.83 11.02,-2.5 3.1,-1.66 5.33,-3.96 6.68,-6.89 1.34,-2.94 2.01,-7.21 2.01,-12.8 l 0,-36.14 -9.67,0 0,36.14 c 0,4.84 -1.05,8.36 -3.14,10.56 -2.09,2.21 -5.06,3.31 -8.89,3.31 -2.87,0 -5.57,-0.75 -8.09,-2.24 -2.52,-1.48 -4.31,-3.49 -5.39,-6.04 -1.07,-2.54 -1.62,-6.05 -1.62,-10.52 l 0,-31.21 -9.67,0 z m -58.86,17.02 9.57,1.51 c 0.52,-3.83 2.03,-6.77 4.47,-8.8 2.46,-2.05 5.9,-3.07 10.29,-3.07 4.44,0 7.74,0.91 9.88,2.71 2.15,1.81 3.23,3.93 3.23,6.36 0,2.19 -0.96,3.91 -2.85,5.17 -1.33,0.86 -4.61,1.94 -9.89,3.27 -7.09,1.79 -11.99,3.34 -14.74,4.65 -2.74,1.31 -4.81,3.11 -6.23,5.42 -1.41,2.31 -2.11,4.86 -2.11,7.65 0,2.54 0.58,4.9 1.74,7.07 1.17,2.16 2.75,3.96 4.76,5.4 1.5,1.11 3.56,2.05 6.13,2.82 2.6,0.77 5.39,1.15 8.36,1.15 4.48,0 8.4,-0.64 11.8,-1.93 3.38,-1.29 5.88,-3.04 7.48,-5.24 1.62,-2.2 2.73,-5.14 3.34,-8.84 l -9.45,-1.28 c -0.43,2.93 -1.68,5.22 -3.73,6.87 -2.07,1.65 -4.98,2.47 -8.73,2.47 -4.46,0 -7.62,-0.73 -9.52,-2.2 -1.89,-1.47 -2.85,-3.19 -2.85,-5.16 0,-1.25 0.39,-2.38 1.19,-3.38 0.79,-1.04 2.02,-1.9 3.72,-2.58 0.95,-0.36 3.8,-1.18 8.53,-2.47 6.84,-1.83 11.6,-3.32 14.32,-4.48 2.69,-1.16 4.82,-2.86 6.36,-5.08 1.53,-2.22 2.31,-4.98 2.31,-8.27 0,-3.22 -0.94,-6.26 -2.83,-9.1 -1.88,-2.86 -4.59,-5.05 -8.13,-6.62 -3.55,-1.55 -7.56,-2.33 -12.03,-2.33 -7.42,0 -13.07,1.54 -16.95,4.62 -3.89,3.08 -6.37,7.65 -7.44,13.69 z m -20.51,-17.02 0,57.04 9.67,0 0,-57.04 -9.67,0 z m 0,67.62 0,11.12 9.67,0 0,-11.12 -9.67,0 z m -24.71,-67.62 0,78.74 9.67,0 0,-78.74 -9.67,0 z m -52.15,28.95 c 0,-6.84 0.92,-11.78 2.8,-14.83 3.02,-4.97 7.14,-7.46 12.34,-7.46 4.22,0 7.87,1.84 10.96,5.51 3.08,3.67 4.63,9.14 4.63,16.4 0,7.46 -1.49,12.94 -4.44,16.49 -2.97,3.55 -6.52,5.32 -10.72,5.32 -4.22,0 -7.87,-1.84 -10.96,-5.51 -3.08,-3.67 -4.61,-8.97 -4.61,-15.92 z m 0.1,-28.95 -8.96,0 0,78.74 9.66,0 0,-28.1 c 4.09,5.13 9.3,7.69 15.63,7.69 3.51,0 6.83,-0.7 9.96,-2.12 3.14,-1.42 5.72,-3.41 7.73,-5.97 2.03,-2.55 3.62,-5.64 4.77,-9.26 1.13,-3.62 1.72,-7.48 1.72,-11.6 0,-9.77 -2.42,-17.33 -7.27,-22.66 -4.82,-5.34 -10.62,-8.01 -17.4,-8.01 -6.72,0 -12.01,2.81 -15.84,8.44 l 0,-7.15 z m -32.71,0 0,8.38 c -4.44,-6.45 -10.47,-9.67 -18.09,-9.67 -3.38,0 -6.52,0.65 -9.43,1.93 -2.91,1.29 -5.08,2.91 -6.51,4.87 -1.4,1.95 -2.4,4.33 -2.97,7.17 -0.41,1.89 -0.6,4.9 -0.6,9.02 l 0,35.34 9.67,0 0,-31.64 c 0,-5.05 0.19,-8.45 0.6,-10.2 0.61,-2.54 1.9,-4.54 3.87,-5.99 1.95,-1.45 4.39,-2.18 7.3,-2.18 2.89,0 5.61,0.75 8.17,2.24 2.54,1.48 4.33,3.5 5.39,6.06 1.05,2.56 1.58,6.28 1.58,11.14 l 0,30.57 9.67,0 0,-57.04 -8.65,0 z m -89.81,28.19 c 0,-7.33 1.48,-12.76 4.47,-16.27 2.97,-3.5 6.57,-5.26 10.78,-5.26 4.3,0 7.99,1.82 11.04,5.45 3.07,3.63 4.61,9.27 4.61,16.89 0,7.27 -1.5,12.72 -4.49,16.33 -2.99,3.62 -6.57,5.43 -10.73,5.43 -4.12,0 -7.75,-1.93 -10.91,-5.78 -3.19,-3.85 -4.77,-9.44 -4.77,-16.79 z m -8.75,-50.05 0,78.9 8.81,0 0,-7.41 c 2.07,2.9 4.41,5.08 7.03,6.52 2.62,1.46 5.78,2.18 9.51,2.18 4.87,0 9.16,-1.25 12.89,-3.76 3.73,-2.51 6.55,-6.04 8.44,-10.61 1.89,-4.57 2.85,-9.57 2.85,-15.01 0,-5.83 -1.05,-11.09 -3.14,-15.77 -2.11,-4.66 -5.14,-8.25 -9.14,-10.74 -3.99,-2.49 -8.19,-3.73 -12.6,-3.73 -3.22,0 -6.11,0.68 -8.67,2.04 -2.56,1.36 -4.67,3.08 -6.31,5.16 l 0,-27.77 -9.67,0 z m -27.87,21.86 0,11.02 11.02,0 0,-11.02 -11.02,0 z m 0,46.03 0,11.01 11.02,0 0,-11.01 -11.02,0 z m -20.47,-25.13 9.51,-1.24 c -1.03,-6.55 -3.69,-11.68 -7.99,-15.39 -4.27,-3.7 -9.53,-5.56 -15.76,-5.56 -7.79,0 -14.08,2.55 -18.83,7.66 -4.72,5.09 -7.11,12.41 -7.11,21.94 0,6.15 1.02,11.54 3.07,16.16 2.03,4.62 5.14,8.09 9.32,10.39 4.16,2.32 8.71,3.47 13.61,3.47 6.19,0 11.27,-1.56 15.2,-4.7 3.94,-3.13 6.46,-7.59 7.57,-13.35 l -9.39,-1.45 c -0.9,3.84 -2.48,6.72 -4.77,8.65 -2.26,1.93 -5.02,2.9 -8.24,2.9 -4.86,0 -8.83,-1.75 -11.85,-5.23 -3.05,-3.5 -4.57,-9.02 -4.57,-16.58 0,-7.66 1.46,-13.23 4.39,-16.7 2.95,-3.47 6.78,-5.21 11.5,-5.21 3.79,0 6.96,1.16 9.52,3.49 2.54,2.33 4.14,5.91 4.82,10.75 z m -91.95,7.57 c 0,-7.31 1.54,-12.77 4.63,-16.38 3.06,-3.62 6.7,-5.43 10.89,-5.43 4.22,0 7.82,1.73 10.77,5.19 2.95,3.45 4.43,8.72 4.43,15.81 0,7.81 -1.5,13.53 -4.51,17.19 -3.01,3.65 -6.72,5.47 -11.11,5.47 -4.3,0 -7.9,-1.75 -10.79,-5.26 -2.87,-3.51 -4.31,-9.03 -4.31,-16.59 z m 30.56,-28.47 0,7.2 c -3.61,-5.66 -8.94,-8.49 -15.95,-8.49 -4.55,0 -8.73,1.25 -12.54,3.76 -3.81,2.51 -6.78,6.01 -8.87,10.5 -2.09,4.49 -3.14,9.66 -3.14,15.5 0,5.69 0.95,10.86 2.85,15.49 1.89,4.64 4.74,8.19 8.53,10.67 3.81,2.46 8.05,3.7 12.74,3.7 3.43,0 6.5,-0.72 9.18,-2.18 2.69,-1.44 4.88,-3.34 6.56,-5.66 l 0,28.25 9.61,0 0,-78.74 -8.97,0" /></g></g><g
         id="g280" /></g></g></svg>