<?xml version="1.0" encoding="utf-8"?>
<!-- Generator: Adobe Illustrator 15.0.2, SVG Export Plug-In  -->
<!DOCTYPE svg PUBLIC "-//W3C//DTD SVG 1.1//EN" "http://www.w3.org/Graphics/SVG/1.1/DTD/svg11.dtd" [
	<!ENTITY ns_flows "http://ns.adobe.com/Flows/1.0/">
]>
<svg version="1.1"
	 xmlns="http://www.w3.org/2000/svg" xmlns:xlink="http://www.w3.org/1999/xlink" xmlns:a="http://ns.adobe.com/AdobeSVGViewerExtensions/3.0/"
	 x="0px" y="0px" width="800px" height="400px" viewBox="-13.466 -24.428 800 400"
	 overflow="visible" enable-background="new -13.466 -24.428 800 400" xml:space="preserve">
<defs>
</defs>
<path id="path3944_1_" fill="none" stroke="#4E4E4E" stroke-width="4.0482" d="M198.959,272.365
	l-37.517,2.061"/>
<path id="path3999_1_" fill="#333333" stroke="#4E4E4E" stroke-width="4.0482" d="
	M118.031,213.418l12.381,36.334"/>
<path id="path4065_1_" fill="#333333" d="M101.672,235.496c0.572,0.344,27.938,2.977,27.938,2.977
	l54.617-4.58l-23.587-4.58L101.672,235.496z"/>
<path id="path3954_1_" fill="none" stroke="#4E4E4E" stroke-width="1.9432" d="M156.321,237.283
	l39.673,35.787l-46.068-36.271"/>
<path id="path3940_1_" fill="#4E4E4E" stroke="#4E4E4E" stroke-width="4.0482" d="M71.215,272.938
	l39.846,1.604"/>
<path id="path3958_1_" fill="none" stroke="#4E4E4E" stroke-width="1.9432" d="M102.237,234.061
	l8.42,35.934"/>
<path id="path3995_1_" fill="none" stroke="#4E4E4E" stroke-width="1.9432" d="M73.737,273.07
	l55.38-36.191"/>
<path id="path3960_1_" fill="none" stroke="#4E4E4E" stroke-width="1.9432" d="M125.149,239.227
	l-10.768,28.258"/>
<path id="path3897_1_" fill="#676767" d="M103.127,281.328l25.261-36.721v-8.457
	c11.145-1.225,11.114-1.197,22.265,0v9.994l20.49,36.236L103.127,281.328z"/>
<path id="path3952_1_" fill="none" stroke="#333333" stroke-width="2.4289" stroke-linejoin="bevel" d="
	M161.341,230.969l9.068,40.807l12.468-39.998"/>
<path id="path3997_1_" fill="none" stroke="#4E4E4E" stroke-width="1.9432" d="M135.513,268.859
	l3.482-33.113"/>
<path id="path3956_1_" fill="none" stroke="#333333" stroke-width="1.9432" d="M75.519,271.775
	l54.731-39.754l4.048,37.486"/>
<path id="path3946_1_" fill="none" stroke="#333333" stroke-width="4.0482" d="M136.242,270.641
	l24.775-42.102l4.373-49.711l30.281,93.756"/>
<path id="path3950_1_" fill="none" stroke="#333333" stroke-width="4.0482" d="M101.589,234.045
	l59.914-4.371l23.965,2.752"/>
<path id="path3069_1_" fill="#333333" d="M104.435,231.803l1.975-10.576l-3.793,2.219
	L104.435,231.803z"/>
<path id="path3948_1_" fill="none" stroke="#333333" stroke-width="4.0482" d="M73.089,273.395
	l28.823-38.701l1.951-10.889"/>
<path id="path3938_1_" fill="none" stroke="#333333" stroke-width="4.0482" d="M70.643,272.938
	l65.838-2.861l62.747,2.289"/>
<path id="path3968_1_" fill="#333333" stroke="#333333" stroke-width="0.1619" d="M70.742,274.527
	v5.992h1.538v2.266h2.834V280.6h1.426v-6.059"/>
<path id="path3968-9_1_" fill="#333333" stroke="#333333" stroke-width="0.1619" d="
	M193.523,270.697v9.428h1.539v2.266h2.833v-2.186h1.427v-9.779"/>
<path id="path3968-4_1_" fill="#333333" stroke="#333333" stroke-width="0.1619" d="
	M133.91,271.775v5.99h1.539v2.268h2.833v-2.186h1.426v-6.059"/>
<path id="path3895_1_" fill="#CDCCCC" stroke="#010101" stroke-width="0.1619" d="M70.201,290.08
	c62.458-2.699,62.512-2.699,130.204,0v-8.096c-67.691-2.699-67.746-2.699-130.204-0.002V290.08z"/>
<path id="path4073_1_" fill="#676767" d="M143.934,216.07l-0.182,4.332l1.669,0.029l-0.111,7.865
	l9.716-3.482l-0.142-2.205l-2.652-2.955l-1.336-0.041v-0.932c21.267-20.275,19.216-44.517,12.55-51.595l-4.209,5.83L143.934,216.07z
	"/>
<path id="path4071_1_" fill="#333333" d="M133.003,217.934l-0.122,10.768l5.255-0.096l0.008,1.23
	l6.336-0.486l-0.009-0.955l0.869-0.096l0.133-7.887l-1.565-0.07l0.106-3.184c17.002-20.133,18.136-29.695,15.545-44.97l-8.582,9.554
	C150.6,190.539,148.926,197.799,133.003,217.934z"/>
<path id="path4069_1_" fill="none" stroke="#1A1A1A" stroke-width="3.2386" d="M118.146,212.914
	c8.573,7.871,11.439,8.549,27.353,9.02"/>
<path id="path3903_1_" fill="none" stroke="#010101" stroke-width="0.4858" d="M180.853,79.889
	l7.692,8.582l-3.157,1.134l6.315,6.477l-4.534,2.267l6.315,6.64l-6.234,2.752l4.615,17.408l-9.393,5.344l1.539,18.864l-12.874,6.153
	l-2.024,19.513l-16.436,6.316l-4.21,18.055l-19.674,5.344l-5.667,16.354l-21.536,2.834l-5.749,13.521l-21.212-0.729l-5.101,9.555
	l-19.999-3.725l-3.077,5.666l-21.375-8.986"/>
<path id="path3905_1_" fill="none" stroke="#010101" stroke-width="0.4858" d="M46.29,247.971
	l-9.635-5.91"/>
<path id="path3907_1_" fill="none" stroke="#010101" stroke-width="0.4858" d="M69.608,246.189
	l-8.664-6.072"/>
<path id="path3909_1_" fill="none" stroke="#010101" stroke-width="0.4858" d="M74.628,236.799
	l7.61,5.91"/>
<path id="path3093_1_" fill="none" stroke="#010101" stroke-width="0.8096" d="M136.217,198.004
	C90.343,240.791,34.13,255.088,10.662,229.938c-23.467-25.148-5.303-80.222,40.572-123.01c0.01-0.009,0.02-0.018,0.029-0.027
	c45.875-42.787,102.087-57.084,125.554-31.935c23.468,25.15,5.303,80.224-40.571,123.011
	C136.236,197.986,136.227,197.994,136.217,198.004z"/>
<path id="path3911_1_" fill="none" stroke="#010101" stroke-width="0.4858" d="M95.84,237.203
	l-7.692-5.83"/>
<path id="path3913_1_" fill="none" stroke="#010101" stroke-width="0.4858" d="M101.508,223.844
	l8.258,5.992"/>
<path id="path3915_1_" fill="none" stroke="#010101" stroke-width="0.4858" d="M123.125,221.09
	l-7.449-6.072"/>
<path id="path3917_1_" fill="none" stroke="#010101" stroke-width="0.4858" d="M128.875,204.816
	l7.691,5.91"/>
<path id="path3919_1_" fill="none" stroke="#010101" stroke-width="0.4858" d="M148.225,199.23
	l-6.963-6.072"/>
<path id="path3039_1_" fill="none" stroke="#010101" stroke-width="0.8096" d="M136.217,198.004
	C90.343,240.791,34.13,255.088,10.662,229.938c-23.467-25.148-5.303-80.222,40.572-123.01c0.01-0.009,0.02-0.018,0.029-0.027
	c45.875-42.787,102.087-57.084,125.554-31.935c23.468,25.15,5.303,80.224-40.571,123.011
	C136.236,197.986,136.227,197.994,136.217,198.004z"/>
<path id="path3921_1_" fill="none" stroke="#010101" stroke-width="0.4858" d="M57.382,248.053
	l-7.934-5.426"/>
<path id="path3923_1_" fill="none" stroke="#010101" stroke-width="0.4858" d="M152.597,181.338
	l6.801,5.99"/>
<path id="path3925_1_" fill="none" stroke="#010101" stroke-width="0.4858" d="M162.394,168.382
	l6.801,6.559"/>
<path id="path3927_1_" fill="none" stroke="#010101" stroke-width="0.4858" d="M171.057,155.428
	l6.153,6.315"/>
<path id="path3929_1_" fill="none" stroke="#010101" stroke-width="0.4858" d="M183.849,149.032
	l-6.478-5.829"/>
<path id="path3931_1_" fill="none" stroke="#010101" stroke-width="0.4858" d="M182.634,130.815
	l6.154,6.072"/>
<path id="path3933_1_" fill="none" stroke="#010101" stroke-width="0.4858" d="M191.865,124.905
	l-6.234-6.315"/>
<path id="path3935_1_" fill="none" stroke="#010101" stroke-width="0.4858" d="M187.25,107.74
	l6.234,6.882l-7.854,3.967"/>
<path id="path4047_1_" fill="none" d="M111.548,139.074c0,3.13-2.665,5.667-5.951,5.667
	c-3.287,0-5.952-2.537-5.952-5.667s2.665-5.668,5.952-5.668C108.883,133.406,111.548,135.944,111.548,139.074z"/>
<path id="path3076_1_" fill="none" stroke="#010101" stroke-width="0.8096" d="M23.604,238.73
	c24.739,21.406,78.042,5.975,121.275-35.775c44.587-43.058,61.581-97.799,37.952-122.267c-1.383-1.432-2.883-2.718-4.474-3.881
	c0.172,0.212,0.365,0.412,0.531,0.628c0.652,0.843,1.265,1.713,1.837,2.611s1.102,1.823,1.594,2.773
	c0.493,0.95,0.946,1.925,1.361,2.925c0.415,1,0.791,2.021,1.128,3.066c0.337,1.046,0.635,2.118,0.896,3.208
	c0.26,1.09,0.483,2.197,0.668,3.33c0.184,1.132,0.33,2.285,0.44,3.456c0.109,1.171,0.187,2.365,0.222,3.573
	c0.036,1.208,0.032,2.432-0.005,3.674c-0.038,1.241-0.113,2.497-0.223,3.77c-0.11,1.273-0.253,2.564-0.435,3.866
	c-0.182,1.302-0.401,2.619-0.653,3.947c-0.252,1.328-0.539,2.666-0.86,4.018s-0.677,2.716-1.067,4.089
	c-0.391,1.373-0.816,2.753-1.275,4.145s-0.957,2.793-1.482,4.2c-0.526,1.407-1.083,2.819-1.675,4.24
	c-0.593,1.42-1.218,2.85-1.877,4.281c-0.659,1.431-1.352,2.866-2.075,4.307c-0.724,1.438-1.48,2.881-2.267,4.326
	c-0.788,1.445-1.604,2.893-2.454,4.342c-0.85,1.447-1.729,2.897-2.642,4.346c-0.913,1.449-1.86,2.896-2.834,4.343
	c-0.974,1.446-1.977,2.895-3.011,4.336c-1.034,1.442-2.099,2.882-3.193,4.317c-1.094,1.434-2.213,2.861-3.365,4.287
	c-1.153,1.424-2.337,2.848-3.548,4.26s-2.452,2.818-3.719,4.215c-1.268,1.398-2.562,2.785-3.886,4.166
	c-1.324,1.379-2.674,2.748-4.053,4.107c-1.379,1.359-2.787,2.711-4.22,4.049c-1.435,1.336-2.879,2.646-4.332,3.926
	c-1.453,1.281-2.914,2.531-4.383,3.756c-1.468,1.225-2.945,2.42-4.428,3.588c-1.482,1.166-2.97,2.307-4.463,3.414
	c-1.493,1.109-2.992,2.189-4.493,3.24s-3.006,2.07-4.514,3.061c-1.507,0.992-3.018,1.953-4.529,2.885
	c-1.51,0.932-3.018,1.832-4.529,2.703c-1.511,0.869-3.025,1.711-4.534,2.52c-1.509,0.809-3.015,1.586-4.519,2.332
	c-1.504,0.748-3.008,1.461-4.504,2.146c-1.497,0.684-2.987,1.336-4.474,1.957s-2.969,1.209-4.443,1.768
	c-1.474,0.557-2.939,1.086-4.397,1.578c-1.458,0.492-2.906,0.949-4.347,1.377c-1.441,0.426-2.872,0.822-4.292,1.184
	s-2.833,0.688-4.23,0.98c-1.397,0.295-2.778,0.553-4.149,0.781c-1.371,0.227-2.731,0.422-4.074,0.582
	c-1.342,0.158-2.666,0.283-3.977,0.373c-1.312,0.092-2.609,0.146-3.886,0.168c-1.278,0.02-2.539,0.002-3.78-0.047
	s-2.461-0.133-3.664-0.252c-1.202-0.119-2.386-0.275-3.547-0.467c-1.161-0.191-2.299-0.42-3.416-0.682
	c-1.116-0.264-2.21-0.561-3.279-0.896s-2.117-0.709-3.137-1.117C23.798,238.822,23.705,238.771,23.604,238.73L23.604,238.73z"/>
<g id="path4051-4_1_">
	<path fill="#989898" d="M95.345,130.704l0.577,1.002l-4.453,13.765l-12.752,1.725c-0.111,2.13,0.46,3.998,1.786,5.278
		c3.415,3.298,10.536,1.466,15.904-4.094s6.952-12.744,3.538-16.041C98.773,131.208,97.166,130.685,95.345,130.704L95.345,130.704z"
		/>
</g>
<g id="path4006_1_">
	<path fill="none" stroke="#B4B4B4" stroke-width="2.9147" d="M67.713,204.553c-4.883-29.915-1.891-43.719,7.873-58.635"/>
</g>
<g id="path4008_1_">
	<path fill="none" stroke="#B4B4B4" stroke-width="2.9147" d="M94.574,130.441c22.518-10.954,55.8-6.966,67.441-3.95"/>
</g>
<g id="path4024_1_">
	<path opacity="0.7354" fill="#B4B4B4" d="M87.44,130.167c-2.59-1.972-6.972-2.076-7.201,1.232l0.665-0.123
		c0.33-3.247,3.899-1.418,4.443-0.772L87.44,130.167z"/>
</g>
<g id="path4004_1_">
	<path fill="none" stroke="#B4B4B4" stroke-width="1.2954" d="M88.517,142.535c21.98,27.846,19.689,26.446,46.691,53.815"/>
</g>
<g id="path4051_1_">
	<path fill="#989898" d="M130.49,178.389c-3.727,3.859-8.715,5.092-11.14,2.75c-2.426-2.342-1.37-7.369,2.357-11.229
		c0.001,0,0.001-0.001,0.001-0.001c3.728-3.86,8.715-5.091,11.14-2.75c2.425,2.342,1.37,7.368-2.357,11.228
		C130.491,178.389,130.491,178.389,130.49,178.389z"/>
</g>
<g id="path4020_1_">
	<path fill="#818181" d="M80.214,131.381c-0.81,1.62-6.153,13.765-6.153,13.765l1.862,2.429l15.545-2.104l4.453-13.765l-1.539-2.672
		L80.214,131.381z"/>
</g>
<linearGradient id="SVGID_2_" gradientUnits="userSpaceOnUse" x1="283.23" y1="77.3911" x2="299.3276" y2="77.3911" gradientTransform="matrix(0.8333 0 0 -0.8333 135.2562 184.3823)">
	<stop  offset="0" style="stop-color:#E6E6E5"/>
	<stop  offset="1" style="stop-color:#333333"/>
</linearGradient>
<polygon fill="url(#SVGID_2_)" stroke="#676767" stroke-width="0.8" points="384.695,220.69 371.281,220.69 374.98,19.091 
	380.995,19.091 "/>
<polygon fill="#818181" stroke="#676767" stroke-width="0.6" points="351.142,51.998 344.448,50.117 344.448,5.405 351.142,7.282 
	"/>
<polygon fill="#818181" stroke="#676767" stroke-width="0.6" points="366.575,57.63 359.881,55.751 359.881,11.039 366.575,12.917 
	"/>
<polygon fill="#676767" stroke="#676767" stroke-width="0.6" points="374.728,33.924 337.821,22.657 337.821,17.516 374.781,28.785 
	"/>
<polygon fill="#818181" stroke="#676767" stroke-width="0.6" points="404.495,51.691 411.081,49.837 411.081,5.798 404.495,7.647 
	"/>
<polygon fill="#818181" stroke="#676767" stroke-width="0.6" points="389.295,57.238 395.881,55.391 395.881,11.346 389.295,13.196 
	"/>
<polygon fill="#676767" stroke="#676767" stroke-width="0.6" points="381.262,33.891 417.608,22.791 417.608,17.726 381.201,28.824 
	"/>
<rect x="336.535" y="11.788" fill="#CDCCCC" stroke="#676767" stroke-width="0.6" width="82.899" height="7.303"/>
<rect x="328.628" y="1.174" fill="#E6E6E5" stroke="#676767" stroke-width="0.6" width="10.866" height="42.309"/>
<rect x="358.335" y="1.174" fill="#E6E6E5" stroke="#676767" stroke-width="0.6" width="10.866" height="42.309"/>
<rect x="416.481" y="1.174" fill="#E6E6E5" stroke="#676767" stroke-width="0.6" width="10.866" height="42.309"/>
<rect x="386.775" y="1.174" fill="#E6E6E5" stroke="#676767" stroke-width="0.6" width="10.866" height="42.309"/>
<path fill="#B4B4B4" d="M281.261,37.684c-3.33-7.629-3.33-20.629,0-30.752h-0.75c-3.33,10.123-3.33,23.123,0,30.752H281.261z"/>
<path fill="#989898" d="M288.475,35.35c-2.83-6.487-2.83-17.536,0-26.14h-0.75c-2.83,8.604-2.83,19.653,0,26.14H288.475z"/>
<path fill="#818181" d="M295.455,32.7c-2.264-5.189-2.264-14.028,0-20.912h-0.75c-2.264,6.883-2.264,15.723,0,20.912H295.455z"/>
<path fill="#676767" d="M302.431,30.056c-1.697-3.892-1.697-10.521,0-15.684h-0.75c-1.697,5.163-1.697,11.792,0,15.684H302.431z"/>
<path fill="#4E4E4E" d="M309.448,27.677c-1.188-2.724-1.188-7.366,0-10.979h-0.75c-1.188,3.613-1.188,8.255,0,10.979H309.448z"/>
<path fill="#333333" d="M316.541,25.65c-0.772-1.77-0.772-4.788,0-7.137h-0.75c-0.772,2.349-0.772,5.367,0,7.137H316.541z"/>
<path fill="#CDCCCC" d="M274.024,39.414c-3.699-8.479-3.699-22.923,0-34.17h-0.75c-3.699,11.248-3.699,25.691,0,34.17H274.024z"/>
<path fill="#1A1A1A" d="M323.711,24.147c-0.464-1.062-0.464-2.873,0-4.282h-0.75c-0.464,1.41-0.464,3.22,0,4.282H323.711z"/>
<path fill="#B4B4B4" d="M474.716,37.684c3.33-7.629,3.33-20.629,0-30.752h0.75c3.33,10.123,3.33,23.123,0,30.752H474.716z"/>
<path fill="#989898" d="M467.504,35.35c2.829-6.487,2.829-17.536,0-26.14h0.75c2.829,8.604,2.829,19.653,0,26.14H467.504z"/>
<path fill="#818181" d="M460.527,32.7c2.264-5.189,2.264-14.028,0-20.912h0.75c2.264,6.883,2.264,15.723,0,20.912H460.527z"/>
<path fill="#676767" d="M453.551,30.056c1.696-3.892,1.696-10.521,0-15.684h0.75c1.696,5.163,1.696,11.792,0,15.684H453.551z"/>
<path fill="#4E4E4E" d="M446.53,27.677c1.188-2.724,1.188-7.366,0-10.979h0.75c1.188,3.613,1.188,8.255,0,10.979H446.53z"/>
<path fill="#333333" d="M439.439,25.65c0.772-1.77,0.772-4.788,0-7.137h0.75c0.772,2.349,0.772,5.367,0,7.137H439.439z"/>
<path fill="#CDCCCC" d="M481.954,39.414c3.698-8.479,3.698-22.923,0-34.17h0.75c3.698,11.248,3.698,25.691,0,34.17H481.954z"/>
<path fill="#1A1A1A" d="M432.267,24.147c0.465-1.062,0.465-2.873,0-4.282h0.75c0.465,1.41,0.465,3.22,0,4.282H432.267z"/>
<linearGradient id="SVGID_3_" gradientUnits="userSpaceOnUse" x1="186.7456" y1="72.0161" x2="194.7935" y2="72.0161" gradientTransform="matrix(0.8333 0 0 -0.8333 135.2562 184.3823)">
	<stop  offset="0" style="stop-color:#E6E6E5"/>
	<stop  offset="1" style="stop-color:#333333"/>
</linearGradient>
<polygon fill="url(#SVGID_3_)" stroke="#676767" stroke-width="0.4" points="297.584,174.77 290.877,174.77 292.727,73.97 
	295.734,73.97 "/>
<polygon fill="#818181" stroke="#676767" stroke-width="0.3" points="280.807,90.423 277.46,89.483 277.46,67.127 280.807,68.065 
	"/>
<polygon fill="#818181" stroke="#676767" stroke-width="0.3" points="288.523,93.24 285.177,92.3 285.177,69.944 288.523,70.883 "/>
<polygon fill="#676767" stroke="#676767" stroke-width="0.3" points="292.6,81.387 274.147,75.753 274.147,73.182 292.627,78.816 
	"/>
<polygon fill="#818181" stroke="#676767" stroke-width="0.3" points="307.484,90.27 310.777,89.343 310.777,67.323 307.484,68.248 
	"/>
<polygon fill="#818181" stroke="#676767" stroke-width="0.3" points="299.884,93.043 303.177,92.12 303.177,70.098 299.884,71.022 
	"/>
<polygon fill="#676767" stroke="#676767" stroke-width="0.3" points="295.867,81.37 314.041,75.82 314.041,73.287 295.837,78.836 
	"/>
<rect x="273.504" y="70.318" fill="#CDCCCC" stroke="#676767" stroke-width="0.3" width="41.45" height="3.651"/>
<rect x="269.55" y="65.012" fill="#E6E6E5" stroke="#676767" stroke-width="0.3" width="5.433" height="21.154"/>
<rect x="284.404" y="65.012" fill="#E6E6E5" stroke="#676767" stroke-width="0.3" width="5.433" height="21.154"/>
<rect x="313.477" y="65.012" fill="#E6E6E5" stroke="#676767" stroke-width="0.3" width="5.434" height="21.154"/>
<rect x="298.624" y="65.012" fill="#E6E6E5" stroke="#676767" stroke-width="0.3" width="5.433" height="21.154"/>
<path fill="#B4B4B4" d="M245.867,83.266c-1.665-3.815-1.665-10.315,0-15.376h-0.375c-1.665,5.061-1.665,11.561,0,15.376H245.867z"/>
<path fill="#989898" d="M249.474,82.1c-1.415-3.244-1.415-8.768,0-13.07h-0.375c-1.415,4.302-1.415,9.827,0,13.07H249.474z"/>
<path fill="#818181" d="M252.963,80.774c-1.131-2.595-1.131-7.014,0-10.456h-0.375c-1.131,3.442-1.131,7.861,0,10.456H252.963z"/>
<path fill="#676767" d="M256.452,79.453c-0.848-1.946-0.848-5.261,0-7.842h-0.375c-0.848,2.582-0.848,5.896,0,7.842H256.452z"/>
<path fill="#4E4E4E" d="M259.96,78.263c-0.594-1.362-0.594-3.683,0-5.489h-0.375c-0.594,1.807-0.594,4.127,0,5.489H259.96z"/>
<path fill="#333333" d="M263.507,77.25c-0.386-0.885-0.386-2.394,0-3.568h-0.375c-0.386,1.174-0.386,2.683,0,3.568H263.507z"/>
<path fill="#CDCCCC" d="M242.249,84.131c-1.85-4.239-1.85-11.461,0-17.085h-0.375c-1.85,5.624-1.85,12.846,0,17.085H242.249z"/>
<path fill="#1A1A1A" d="M267.092,76.498c-0.232-0.531-0.232-1.437,0-2.141h-0.375c-0.232,0.705-0.232,1.61,0,2.141H267.092z"/>
<path fill="#B4B4B4" d="M342.594,83.266c1.665-3.815,1.665-10.315,0-15.376h0.375c1.665,5.061,1.665,11.561,0,15.376H342.594z"/>
<path fill="#989898" d="M338.988,82.1c1.415-3.244,1.415-8.768,0-13.07h0.375c1.415,4.302,1.415,9.827,0,13.07H338.988z"/>
<path fill="#818181" d="M335.5,80.774c1.132-2.595,1.132-7.014,0-10.456h0.375c1.132,3.442,1.132,7.861,0,10.456H335.5z"/>
<path fill="#676767" d="M332.011,79.453c0.849-1.946,0.849-5.261,0-7.842h0.375c0.849,2.582,0.849,5.896,0,7.842H332.011z"/>
<path fill="#4E4E4E" d="M328.501,78.263c0.594-1.362,0.594-3.683,0-5.489h0.375c0.594,1.807,0.594,4.127,0,5.489H328.501z"/>
<path fill="#333333" d="M324.956,77.25c0.386-0.885,0.386-2.394,0-3.568h0.375c0.386,1.174,0.386,2.683,0,3.568H324.956z"/>
<path fill="#CDCCCC" d="M346.213,84.131c1.85-4.239,1.85-11.461,0-17.085h0.375c1.85,5.624,1.85,12.846,0,17.085H346.213z"/>
<path fill="#1A1A1A" d="M321.369,76.498c0.232-0.531,0.232-1.437,0-2.141h0.375c0.232,0.705,0.232,1.61,0,2.141H321.369z"/>
<linearGradient id="SVGID_4_" gradientUnits="userSpaceOnUse" x1="385.4956" y1="62.6758" x2="395.1533" y2="62.6758" gradientTransform="matrix(0.8333 0 0 -0.8333 135.2562 184.3823)">
	<stop  offset="0" style="stop-color:#E6E6E5"/>
	<stop  offset="1" style="stop-color:#333333"/>
</linearGradient>
<polygon fill="url(#SVGID_4_)" stroke="#676767" stroke-width="0.48" points="464.551,192.634 456.502,192.634 458.723,71.673 
	462.331,71.673 "/>
<polygon fill="#818181" stroke="#676767" stroke-width="0.36" points="444.419,91.417 440.403,90.289 440.403,63.461 
	444.419,64.588 "/>
<polygon fill="#818181" stroke="#676767" stroke-width="0.36" points="453.679,94.797 449.662,93.669 449.662,66.842 
	453.679,67.968 "/>
<polygon fill="#676767" stroke="#676767" stroke-width="0.36" points="458.57,80.573 436.427,73.812 436.427,70.728 458.603,77.489 
	"/>
<polygon fill="#818181" stroke="#676767" stroke-width="0.36" points="476.431,91.232 480.383,90.121 480.383,63.697 
	476.431,64.807 "/>
<polygon fill="#818181" stroke="#676767" stroke-width="0.36" points="467.311,94.561 471.263,93.453 471.263,67.026 
	467.311,68.136 "/>
<polygon fill="#676767" stroke="#676767" stroke-width="0.36" points="462.49,80.553 484.299,73.893 484.299,70.854 462.454,77.513 
	"/>
<rect x="435.654" y="67.291" fill="#CDCCCC" stroke="#676767" stroke-width="0.36" width="49.74" height="4.382"/>
<rect x="430.911" y="60.923" fill="#E6E6E5" stroke="#676767" stroke-width="0.36" width="6.519" height="25.385"/>
<rect x="448.735" y="60.923" fill="#E6E6E5" stroke="#676767" stroke-width="0.36" width="6.519" height="25.385"/>
<rect x="483.622" y="60.923" fill="#E6E6E5" stroke="#676767" stroke-width="0.36" width="6.52" height="25.385"/>
<rect x="465.798" y="60.923" fill="#E6E6E5" stroke="#676767" stroke-width="0.36" width="6.52" height="25.385"/>
<path fill="#B4B4B4" d="M402.49,82.828c-1.998-4.578-1.998-12.377,0-18.451h-0.45c-1.998,6.074-1.998,13.874,0,18.451H402.49z"/>
<path fill="#989898" d="M406.818,81.428c-1.698-3.892-1.698-10.521,0-15.684h-0.45c-1.698,5.163-1.698,11.792,0,15.684H406.818z"/>
<path fill="#818181" d="M411.006,79.838c-1.357-3.114-1.357-8.417,0-12.547h-0.45c-1.357,4.13-1.357,9.434,0,12.547H411.006z"/>
<path fill="#676767" d="M415.192,78.252c-1.019-2.335-1.019-6.312,0-9.41h-0.45c-1.019,3.098-1.019,7.075,0,9.41H415.192z"/>
<path fill="#4E4E4E" d="M419.403,76.824c-0.715-1.634-0.715-4.419,0-6.587h-0.45c-0.714,2.168-0.714,4.953,0,6.587H419.403z"/>
<path fill="#333333" d="M423.657,75.608c-0.462-1.062-0.462-2.873,0-4.282h-0.449c-0.463,1.409-0.463,3.22,0,4.282H423.657z"/>
<path fill="#CDCCCC" d="M398.148,83.866c-2.22-5.087-2.22-13.753,0-20.502h-0.45c-2.22,6.749-2.22,15.415,0,20.502H398.148z"/>
<path fill="#1A1A1A" d="M427.96,74.707c-0.278-0.638-0.278-1.724,0-2.569h-0.45c-0.278,0.846-0.278,1.932,0,2.569H427.96z"/>
<path fill="#B4B4B4" d="M518.563,82.828c1.998-4.578,1.998-12.377,0-18.451h0.449c1.999,6.074,1.999,13.874,0,18.451H518.563z"/>
<path fill="#989898" d="M514.235,81.428c1.698-3.892,1.698-10.521,0-15.684h0.45c1.698,5.163,1.698,11.792,0,15.684H514.235z"/>
<path fill="#818181" d="M510.05,79.838c1.357-3.114,1.357-8.417,0-12.547h0.45c1.357,4.13,1.357,9.434,0,12.547H510.05z"/>
<path fill="#676767" d="M505.864,78.252c1.018-2.335,1.018-6.312,0-9.41h0.449c1.019,3.098,1.019,7.075,0,9.41H505.864z"/>
<path fill="#4E4E4E" d="M501.651,76.824c0.713-1.634,0.713-4.419,0-6.587h0.45c0.713,2.168,0.713,4.953,0,6.587H501.651z"/>
<path fill="#333333" d="M497.397,75.608c0.463-1.062,0.463-2.873,0-4.282h0.45c0.463,1.409,0.463,3.22,0,4.282H497.397z"/>
<path fill="#CDCCCC" d="M522.905,83.866c2.22-5.087,2.22-13.753,0-20.502h0.45c2.22,6.749,2.22,15.415,0,20.502H522.905z"/>
<path fill="#1A1A1A" d="M493.094,74.707c0.278-0.638,0.278-1.724,0-2.569h0.45c0.278,0.846,0.278,1.932,0,2.569H493.094z"/>
<path fill="#010101" d="M717.704,27.746H704.45c-1.633,0-2.961-1.328-2.961-2.96V12.546c0-1.633,1.328-2.961,2.961-2.961h13.254
	c1.633,0,2.961,1.328,2.961,2.961v12.239C720.665,26.417,719.337,27.746,717.704,27.746z M704.45,10.431
	c-1.166,0-2.115,0.949-2.115,2.115v12.239c0,1.166,0.949,2.115,2.115,2.115h13.254c1.166,0,2.115-0.949,2.115-2.115V12.546
	c0-1.167-0.949-2.115-2.115-2.115H704.45z"/>
<path fill="#010101" d="M717.196,25.208h-12.238c-0.514,0-0.931-0.417-0.931-0.931V13.054c0-0.513,0.417-0.931,0.931-0.931h12.238
	c0.514,0,0.931,0.417,0.931,0.931v11.224C718.127,24.791,717.71,25.208,717.196,25.208z M704.958,12.631
	c-0.233,0-0.424,0.19-0.424,0.423v11.224c0,0.233,0.19,0.423,0.424,0.423h12.238c0.233,0,0.423-0.189,0.423-0.423V13.054
	c0-0.233-0.189-0.423-0.423-0.423H704.958z"/>
<path fill="#010101" d="M711.077,24.841c-3.405,0-6.176-2.77-6.176-6.176c0-3.405,2.771-6.176,6.176-6.176s6.176,2.771,6.176,6.176
	C717.253,22.071,714.482,24.841,711.077,24.841z M711.077,12.828c-3.219,0-5.838,2.619-5.838,5.837s2.619,5.837,5.838,5.837
	s5.837-2.619,5.837-5.837S714.296,12.828,711.077,12.828z"/>
<path fill="#010101" d="M711.077,23.896c-2.884,0-5.23-2.346-5.23-5.23s2.347-5.23,5.23-5.23s5.23,2.346,5.23,5.23
	S713.961,23.896,711.077,23.896z M711.077,13.774c-2.697,0-4.892,2.194-4.892,4.892s2.194,4.892,4.892,4.892
	s4.892-2.194,4.892-4.892S713.774,13.774,711.077,13.774z"/>
<path fill="#010101" d="M717.971,33.751h-29.44c-0.514,0-0.931-0.417-0.931-0.931V13.054c0-0.513,0.417-0.931,0.931-0.931h13.382
	v0.508H688.53c-0.233,0-0.424,0.19-0.424,0.423v19.767c0,0.233,0.19,0.423,0.424,0.423h29.44c0.233,0,0.423-0.189,0.423-0.423v-5.68
	h0.508v5.68C718.901,33.334,718.483,33.751,717.971,33.751z"/>
<path fill="#010101" d="M694.381,31.1c-1.718,0-3.115-1.397-3.115-3.115c0-0.956,0.429-1.845,1.178-2.44
	c0.556-0.442,1.226-0.675,1.938-0.675c1.718,0,3.115,1.397,3.115,3.115S696.099,31.1,694.381,31.1z M694.381,25.377
	c-0.596,0-1.156,0.196-1.621,0.565c-0.627,0.498-0.987,1.243-0.987,2.042c0,1.438,1.17,2.608,2.608,2.608
	c1.438,0,2.607-1.17,2.607-2.608C696.988,26.547,695.818,25.377,694.381,25.377z"/>
<path fill="#010101" d="M694.381,27.985l-1.779-2.241c0,0,0.637-0.62,1.779-0.62s1.536,0.448,1.536,0.448L694.381,27.985z"/>
<rect x="693.922" y="28.595" transform="matrix(-0.6515 -0.7587 0.7587 -0.6515 1126.184 574.7174)" fill="#010101" width="2.359" height="0.169"/>
<path fill="#010101" d="M711.077,15.478c-1.913,0-3.464,1.551-3.464,3.463c0,1.913,1.551,3.463,3.464,3.463s3.463-1.55,3.463-3.463
	C714.54,17.029,712.99,15.478,711.077,15.478z M711.077,20.205c-0.697,0-1.264-0.565-1.264-1.263s0.566-1.263,1.264-1.263
	s1.263,0.565,1.263,1.263S711.774,20.205,711.077,20.205z"/>
<path fill="#010101" d="M697.497,23.346h-6.373c-0.14,0-0.254-0.114-0.254-0.254v-8.065c0-0.14,0.114-0.253,0.254-0.253h6.373
	c0.141,0,0.254,0.114,0.254,0.253v8.065C697.751,23.231,697.638,23.346,697.497,23.346z M691.124,14.942
	c-0.046,0-0.084,0.038-0.084,0.084v8.065c0,0.047,0.038,0.084,0.084,0.084h6.373c0.047,0,0.085-0.038,0.085-0.084v-8.065
	c0-0.046-0.038-0.084-0.085-0.084H691.124z"/>
<circle fill="#010101" cx="699.873" cy="29.754" r="1.29"/>
<path fill="#010101" d="M699.873,27.407c-0.758,0-1.374-0.616-1.374-1.375c0-0.758,0.616-1.375,1.374-1.375
	c0.759,0,1.375,0.617,1.375,1.375C701.248,26.791,700.632,27.407,699.873,27.407z M699.873,24.827c-0.664,0-1.205,0.541-1.205,1.206
	c0,0.665,0.541,1.206,1.205,1.206c0.665,0,1.206-0.541,1.206-1.206C701.079,25.368,700.538,24.827,699.873,24.827z"/>
<path fill="#010101" d="M686.189,27.378v-0.169h-1.271c-0.004,0.054-0.007,0.112-0.01,0.169H686.189z"/>
<path fill="#010101" d="M686.189,26.871v-0.838h-1.016c0,0-0.135,0.288-0.216,0.838H686.189z"/>
<path fill="#010101" d="M684.901,27.547c-0.016,0.578,0.045,1.316,0.272,2.207h1.016v-2.207H684.901z"/>
<path fill="#010101" d="M695.173,10.008h0.261V8.055c-0.083-0.007-0.172-0.011-0.261-0.016V10.008z"/>
<path fill="#010101" d="M695.954,10.008h1.288V8.447c0,0-0.442-0.207-1.288-0.332V10.008z"/>
<path fill="#010101" d="M694.913,8.027c-0.89-0.023-2.024,0.069-3.395,0.42v1.562h3.395V8.027z"/>
<path fill="#010101" d="M692.117,20.519c-0.34,0-0.554-0.217-0.554-0.748v-0.325c0-0.531,0.214-0.748,0.554-0.748
	c0.341,0,0.553,0.216,0.553,0.748v0.325C692.67,20.302,692.458,20.519,692.117,20.519z M692.465,19.446
	c0-0.406-0.136-0.562-0.348-0.562s-0.347,0.156-0.347,0.562v0.325c0,0.406,0.135,0.562,0.347,0.562s0.348-0.156,0.348-0.562V19.446z
	"/>
<path fill="#010101" d="M693.481,20.519c-0.34,0-0.554-0.217-0.554-0.748v-0.325c0-0.531,0.214-0.748,0.554-0.748
	c0.341,0,0.553,0.216,0.553,0.748v0.325C694.034,20.302,693.822,20.519,693.481,20.519z M693.829,19.446
	c0-0.406-0.136-0.562-0.348-0.562s-0.348,0.156-0.348,0.562v0.325c0,0.406,0.136,0.562,0.348,0.562s0.348-0.156,0.348-0.562V19.446z
	"/>
<path fill="#010101" d="M694.463,19.497h-0.106c-0.022,0-0.045-0.019-0.045-0.045v-0.224c0-0.024,0.021-0.048,0.045-0.048h0.106
	c0.022,0,0.045,0.021,0.045,0.048v0.224C694.508,19.478,694.487,19.497,694.463,19.497z M694.463,20.501h-0.106
	c-0.022,0-0.045-0.019-0.045-0.045V20.23c0-0.024,0.021-0.045,0.045-0.045h0.106c0.022,0,0.045,0.019,0.045,0.045v0.226
	C694.508,20.482,694.487,20.501,694.463,20.501z"/>
<path fill="#010101" d="M695.34,20.519c-0.341,0-0.555-0.217-0.555-0.748v-0.325c0-0.531,0.214-0.748,0.555-0.748
	c0.34,0,0.552,0.216,0.552,0.748v0.325C695.892,20.302,695.68,20.519,695.34,20.519z M695.687,19.446
	c0-0.406-0.135-0.562-0.347-0.562s-0.348,0.156-0.348,0.562v0.325c0,0.406,0.136,0.562,0.348,0.562s0.347-0.156,0.347-0.562V19.446z
	"/>
<path fill="#010101" d="M696.821,20.501h-0.124c-0.025,0-0.041-0.022-0.041-0.048v-1.512l-0.291,0.135
	c-0.011,0.005-0.02,0.007-0.029,0.007c-0.013,0-0.02-0.007-0.02-0.027v-0.123c0-0.017,0.007-0.021,0.022-0.031l0.34-0.173
	c0.019-0.01,0.034-0.015,0.048-0.015h0.092c0.022,0,0.043,0.02,0.043,0.046v1.692C696.861,20.478,696.846,20.501,696.821,20.501z"/>
<rect x="691.519" y="21.118" fill="#010101" width="5.443" height="0.169"/>
<path fill="#010101" d="M690.955,8.223v1.883h-1.741c0,0-0.909-0.783-0.212-1.883H690.955z"/>
<path fill="#010101" d="M690.954,10.113l-0.11-0.128c0.013-0.012,0.33-0.282,0.781-0.398l0.042,0.164
	C691.254,9.857,690.957,10.111,690.954,10.113z"/>
<path fill="#010101" d="M703.754,10.106l13.33-0.438c0,0,0.013-0.62,0-1.184c-0.014-0.564-0.326-0.592-0.326-0.592
	s-16.835,0-17.428,0c-0.592,0-1.459,0.331-1.459,0.331v1.826L703.754,10.106z"/>
<path fill="#010101" d="M697.896,10.03c-0.003-0.002-0.335-0.258-0.792-0.365l0.038-0.165c0.495,0.116,0.844,0.385,0.858,0.396
	L697.896,10.03z"/>
<path fill="#010101" d="M691.594,8.749c-0.451-0.117-0.769-0.387-0.781-0.398l0.11-0.128c0.003,0.003,0.302,0.257,0.713,0.363
	L691.594,8.749z"/>
<path fill="#010101" d="M697.112,8.835l-0.039-0.165c0.459-0.107,0.789-0.362,0.792-0.365l0.104,0.133
	C697.955,8.45,697.606,8.719,697.112,8.835z"/>
<path fill="#010101" d="M682.632,44.48c-0.45,0-0.895-0.076-1.32-0.225l-0.051-0.018l-0.039-0.037
	c-0.024-0.023-0.58-0.561-0.357-1.674l0.012-0.055l0.033-0.045c0.025-0.037,0.051-0.092,0.057-0.124
	c-0.001-0.001-0.002-0.001-0.003-0.001l-0.113-0.051l-0.03-0.121c-0.035-0.143-0.33-1.387,0.002-2.059
	c0.048-0.305,0.346-2.383,0.04-4.594l-0.003-0.027l0.002-0.027c0.011-0.137,0.125-1.334,0.888-1.334c0.604,0,3.387,0.36,4.964,2.025
	l0.069,0.073v6.263l-0.066,0.072C686.642,42.604,684.899,44.48,682.632,44.48z M681.54,43.797c0.354,0.117,0.721,0.176,1.092,0.176
	c1.814,0,3.314-1.395,3.642-1.723v-5.857c-1.475-1.481-4.068-1.795-4.525-1.795c-0.197,0-0.347,0.487-0.38,0.84
	c0.334,2.453-0.036,4.665-0.053,4.758l-0.007,0.043l-0.021,0.037c-0.209,0.377-0.082,1.242,0.002,1.633
	c0.104,0.08,0.149,0.178,0.169,0.254c0.056,0.209-0.044,0.414-0.105,0.514C681.235,43.332,681.455,43.688,681.54,43.797z"/>
<path fill="#010101" d="M706.496,31.654c-0.122,0.019-0.235,0.031-0.482,0.031c-0.358,0-0.769-0.159-0.769-0.743v-0.334
	c0-0.589,0.41-0.743,0.769-0.743c0.183,0,0.36,0.021,0.488,0.039c0.026,0.002,0.047,0.009,0.047,0.031v0.123
	c0,0.015-0.006,0.026-0.035,0.026c-0.003,0-0.006,0-0.009,0c-0.104-0.007-0.32-0.021-0.488-0.021c-0.285,0-0.507,0.137-0.507,0.546
	v0.334c0,0.403,0.222,0.546,0.507,0.546c0.165,0,0.375-0.012,0.479-0.02c0.003,0,0.009,0,0.012,0c0.032,0,0.047,0.012,0.047,0.039
	v0.099C706.555,31.635,706.528,31.65,706.496,31.654z"/>
<path fill="#010101" d="M708.364,31.668h-0.172c-0.026,0-0.044-0.017-0.05-0.036l-0.188-0.553H707.2l-0.187,0.553
	c-0.006,0.02-0.028,0.036-0.052,0.036h-0.172c-0.029,0-0.05-0.017-0.05-0.038c0-0.005,0-0.013,0.003-0.017l0.539-1.565
	c0.049-0.146,0.186-0.183,0.296-0.183c0.108,0,0.245,0.034,0.294,0.181l0.538,1.566c0.003,0.005,0.003,0.013,0.003,0.017
	C708.413,31.652,708.396,31.668,708.364,31.668z M707.634,30.099c-0.009-0.026-0.026-0.043-0.056-0.043
	c-0.031,0-0.049,0.017-0.058,0.043l-0.265,0.791h0.643L707.634,30.099z"/>
<path fill="#010101" d="M710.43,31.668h-0.143c-0.032,0-0.058-0.021-0.058-0.048v-1.425c0-0.005,0-0.007-0.003-0.007
	c-0.004,0-0.004,0-0.006,0.005l-0.416,0.711c-0.029,0.048-0.059,0.07-0.132,0.07h-0.134c-0.072,0-0.102-0.021-0.13-0.07
	l-0.416-0.711c-0.004-0.005-0.004-0.005-0.007-0.005s-0.003,0.002-0.003,0.007v1.425c0,0.026-0.025,0.048-0.058,0.048h-0.143
	c-0.032,0-0.059-0.021-0.059-0.048v-1.668c0-0.039,0.038-0.07,0.085-0.07h0.188c0.053,0,0.076,0.009,0.093,0.041l0.48,0.825
	c0.012,0.021,0.021,0.026,0.035,0.026s0.023-0.005,0.035-0.026l0.479-0.825c0.018-0.032,0.041-0.041,0.094-0.041h0.188
	c0.047,0,0.085,0.031,0.085,0.07v1.668C710.488,31.647,710.462,31.668,710.43,31.668z"/>
<path fill="#010101" d="M712.126,31.673c-0.11,0.01-0.396,0.012-0.567,0.012c-0.407,0-0.62-0.127-0.62-0.447v-0.925
	c0-0.319,0.213-0.447,0.62-0.447c0.172,0,0.445,0.005,0.567,0.015c0.018,0.002,0.029,0.02,0.029,0.034v0.12
	c0,0.017-0.012,0.029-0.032,0.029h-0.562c-0.309,0-0.357,0.067-0.357,0.25v0.334h0.893c0.032,0,0.059,0.021,0.059,0.048v0.091
	c0,0.026-0.026,0.048-0.059,0.048h-0.893v0.404c0,0.183,0.049,0.25,0.357,0.25h0.562c0.021,0,0.032,0.012,0.032,0.028v0.123
	C712.155,31.654,712.144,31.671,712.126,31.673z"/>
<path fill="#010101" d="M713.982,31.668h-0.187c-0.035,0-0.053,0-0.075-0.031l-0.521-0.716c-0.009,0-0.017,0-0.025,0
	c-0.018,0-0.032,0-0.05,0c-0.096,0-0.166-0.003-0.32-0.007v0.707c0,0.024-0.021,0.048-0.053,0.048h-0.156
	c-0.029,0-0.053-0.021-0.053-0.048v-1.683c0-0.034,0.018-0.048,0.069-0.053c0.125-0.012,0.344-0.02,0.513-0.02
	c0.459,0,0.814,0.128,0.814,0.517V30.4c0,0.269-0.192,0.428-0.457,0.485l0.529,0.73c0.006,0.007,0.009,0.015,0.009,0.021
	C714.021,31.654,714.006,31.668,713.982,31.668z M713.677,30.383c0-0.241-0.189-0.32-0.553-0.32c-0.09,0-0.25,0-0.32,0.007v0.659
	c0.128,0.002,0.253,0.005,0.32,0.005c0.357,0,0.553-0.075,0.553-0.334V30.383z"/>
<path fill="#010101" d="M715.842,31.668h-0.172c-0.026,0-0.044-0.017-0.05-0.036l-0.189-0.553h-0.753l-0.187,0.553
	c-0.006,0.02-0.029,0.036-0.053,0.036h-0.172c-0.028,0-0.049-0.017-0.049-0.038c0-0.005,0-0.013,0.003-0.017l0.538-1.565
	c0.05-0.146,0.187-0.183,0.297-0.183c0.107,0,0.244,0.034,0.294,0.181l0.538,1.566c0.003,0.005,0.003,0.013,0.003,0.017
	C715.891,31.652,715.873,31.668,715.842,31.668z M715.111,30.099c-0.009-0.026-0.026-0.043-0.056-0.043
	c-0.031,0-0.049,0.017-0.058,0.043l-0.265,0.791h0.643L715.111,30.099z"/>
<path fill="#010101" d="M711.481,43.707l-1.981,2.104l-0.158,0.377c0,0-0.028,1.043-0.028,1.227s1.917-0.211,2.368-0.578v-2.68
	C711.682,44.156,711.638,43.904,711.481,43.707z"/>
<path fill="#010101" d="M697.286,45.818l-1.987-2.109c-0.154,0.197-0.198,0.447-0.198,0.447v2.68
	c0.451,0.367,2.369,0.762,2.369,0.578s-0.028-1.227-0.028-1.227L697.286,45.818z"/>
<path fill="#010101" d="M698.583,46.504c0.105,0.121,0.142,0.162,0.142,0.162v0.748h4.921h4.413v-0.748c0,0,0.035-0.041,0.142-0.162
	H698.583z"/>
<path fill="#010101" d="M711.062,43.48c-0.508-0.029-2.115,0-2.115,0h-5.696h-5.414c0,0-1.607-0.029-2.115,0
	c-0.053,0.002-0.101,0.014-0.146,0.029l2.063,2.189c0.301,0.211,0.634,0.459,0.761,0.602c0.012,0.012,0.021,0.023,0.032,0.035h9.919
	c0.012-0.012,0.021-0.023,0.032-0.035c0.126-0.141,0.452-0.383,0.75-0.594l2.072-2.199C711.16,43.494,711.114,43.482,711.062,43.48z
	"/>
<path fill="#010101" d="M681.181,40.238c-0.046,0-0.085,0-0.116,0l0.003-0.17c1.409,0.018,3.322-0.244,4.088-1.045
	c0.828-0.869,0.003-1.953-0.006-1.963c-1.071-1.607-3.887-2.148-3.915-2.154l0.03-0.166c0.119,0.022,2.915,0.561,4.022,2.22
	c0.006,0.008,0.919,1.207-0.01,2.179C684.305,40.158,681.9,40.238,681.181,40.238z"/>
<path fill="#010101" d="M685.464,43c-0.303-0.883-3.165-0.691-4.242-0.542l-0.023-0.167c0.164-0.023,4.017-0.541,4.426,0.654
	L685.464,43z"/>
<path fill="#010101" d="M688.115,36.488l0.083,0.012c-0.782-0.189-1.671-0.105-1.671-0.105v5.832c0,0,0.827,0.078,1.589-0.088
	C687.55,40.498,688.091,36.652,688.115,36.488z"/>
<path fill="#010101" d="M697.556,37.088c0.051,0.197,0.523,2.135-0.001,4.445c0.839,0.047,1.9-0.025,2.044-0.025v-4.395
	C699.454,37.113,698.395,37.041,697.556,37.088z"/>
<path fill="#010101" d="M697.387,41.508c0.546-2.391,0.007-4.371,0.001-4.391l0.078-0.022c-0.235,0.017-0.451,0.042-0.617,0.083
	c-0.761,0.19-1.628,0.381-3.934,0.424c-2.061,0.037-4.203-0.871-4.636-1.064c-0.045,0.324-0.535,4.01-0.003,5.549
	c0.427-0.191,2.574-1.104,4.639-1.064c2.306,0.041,3.173,0.232,3.934,0.422c0.166,0.041,0.382,0.068,0.617,0.084L697.387,41.508z"/>
<path fill="#010101" d="M712.034,39.786h-3.215v0.198h3.202c0.008-0.064,0.013-0.129,0.013-0.195
	C712.034,39.789,712.034,39.787,712.034,39.786z"/>
<path fill="#010101" d="M711.9,40.436c0.016-0.037,0.029-0.076,0.043-0.113h-3.124v0.113H711.9z"/>
<path fill="#010101" d="M708.819,40.604v0.805h1.598c0.596,0,1.115-0.324,1.396-0.805H708.819z"/>
<path fill="#010101" d="M711.513,38.602c-0.289-0.266-0.673-0.43-1.097-0.43h-1.597v0.43H711.513z"/>
<path fill="#010101" d="M700.909,42.812c0,0.361-0.293,0.655-0.655,0.655l0,0c-0.362,0-0.655-0.294-0.655-0.655v-6.121
	c0-0.362,0.293-0.656,0.655-0.656l0,0c0.362,0,0.655,0.293,0.655,0.656V42.812z"/>
<path fill="#010101" d="M707.022,42.812c0,0.361-0.294,0.655-0.656,0.655l0,0c-0.362,0-0.655-0.294-0.655-0.655v-6.121
	c0-0.362,0.293-0.656,0.655-0.656l0,0c0.362,0,0.656,0.293,0.656,0.656V42.812z"/>
<path fill="#010101" d="M704.188,42.812c0,0.361-0.384,0.655-0.856,0.655l0,0c-0.473,0-0.856-0.294-0.856-0.655v-6.121
	c0-0.362,0.384-0.656,0.856-0.656l0,0c0.473,0,0.856,0.293,0.856,0.656V42.812z"/>
<path fill="#010101" d="M717.463,35.415h-28.566c-1.586,0-2.876-1.291-2.876-2.876V12.912c0-1.586,1.29-2.876,2.876-2.876h13.996
	v1.015h-13.996c-1.026,0-1.861,0.835-1.861,1.861v19.627c0,1.026,0.835,1.861,1.861,1.861h28.566c1.026,0,1.861-0.835,1.861-1.861
	l0.082-6.512l1.015,0.013l-0.082,6.506C720.339,34.125,719.049,35.415,717.463,35.415z"/>
<path fill="#010101" d="M686.527,31.128h-2.295l-0.125-0.326c-1.433-3.761-0.004-5.88,0.058-5.969l0.152-0.217h1.872v1.015h-1.311
	c-0.257,0.539-0.772,2.059,0.059,4.482h1.59V31.128z"/>
<rect x="701.1" y="39.057" fill="#010101" width="1.185" height="0.17"/>
<rect x="701.1" y="39.396" fill="#010101" width="1.185" height="2.053"/>
<rect x="701.1" y="35.81" fill="#010101" width="1.185" height="0.67"/>
<rect x="701.1" y="41.957" fill="#010101" width="1.185" height="0.17"/>
<rect x="701.1" y="42.296" fill="#010101" width="1.185" height="0.874"/>
<rect x="701.1" y="37.326" fill="#010101" width="1.185" height="1.223"/>
<rect x="701.1" y="36.986" fill="#010101" width="1.185" height="0.172"/>
<rect x="704.336" y="39.057" fill="#010101" width="1.185" height="0.17"/>
<rect x="704.336" y="39.396" fill="#010101" width="1.185" height="2.053"/>
<rect x="704.336" y="35.81" fill="#010101" width="1.185" height="0.67"/>
<rect x="704.336" y="41.957" fill="#010101" width="1.185" height="0.17"/>
<rect x="704.336" y="42.296" fill="#010101" width="1.185" height="0.874"/>
<rect x="704.336" y="37.326" fill="#010101" width="1.185" height="1.223"/>
<rect x="704.336" y="36.986" fill="#010101" width="1.185" height="0.172"/>
<path fill="#010101" d="M708.608,44.326c0,0.094-0.076,0.17-0.169,0.17h-1.072c-0.093,0-0.169-0.076-0.169-0.17v-7.084
	c0-0.094,0.076-0.17,0.169-0.17h1.072c0.093,0,0.169,0.076,0.169,0.17V44.326z"/>
<path fill="#010101" d="M565.722,269.584l-4.675-6.641c0.403-11.723-4.165-16.541-5.226-17.496l-4.5-7.393
	c-0.884-1.479-2.999-1.849-4.717-0.824c-0.343,0.206-0.649,0.455-0.91,0.736c-0.955-0.992-2.602-1.196-4.047-0.479v-16.785
	c0-2.067-1.682-3.748-3.748-3.748h-18.192c-2.066,0-3.748,1.681-3.748,3.748v43.65c0,2.066,1.682,3.746,3.748,3.746h18.191
	c1.063,0,2.076-0.453,2.787-1.243c2.415,1.927,4.671,3.413,5.805,4.132v3.133c0,0.721,0.585,1.305,1.305,1.305
	c0.721,0,1.306-0.584,1.306-1.305v-3.857c0-0.457-0.237-0.879-0.626-1.115c-3.75-2.284-13.602-9.314-14.151-14.352
	c-0.086-0.781,0.069-1.456,0.475-2.076l2.015,3.418c0.243,0.413,0.678,0.643,1.125,0.643c0.225,0,0.453-0.058,0.661-0.181
	c0.621-0.365,0.827-1.165,0.462-1.786l-9.955-16.885c-0.039-0.066-0.021-0.172-0.007-0.229c0.052-0.21,0.24-0.512,0.609-0.734
	c0.542-0.322,1.045-0.233,1.152-0.054l2.689,4.3c0.066,0.203,0.151,0.402,0.266,0.592l6.238,9.803l0.037,0.061
	c0.001,0.002,0.002,0.002,0.004,0.004l0.002,0.004c0.002,0.004,0.005,0.006,0.007,0.01c0.056,0.084,0.119,0.158,0.188,0.226
	c0.021,0.021,0.044,0.038,0.066,0.058c0.057,0.047,0.115,0.088,0.177,0.125c0.026,0.016,0.052,0.031,0.08,0.045
	c0.071,0.036,0.146,0.064,0.223,0.087c0.018,0.005,0.035,0.013,0.052,0.018c0.094,0.022,0.19,0.034,0.287,0.035
	c0.008,0.001,0.014,0.003,0.021,0.003c0.017,0,0.033-0.007,0.05-0.008c0.087-0.002,0.172-0.016,0.258-0.035
	c0.028-0.008,0.057-0.014,0.085-0.023c0.103-0.033,0.204-0.073,0.299-0.133c0.002-0.002,0.005-0.004,0.006-0.005
	s0.002-0.001,0.003-0.001c0.029-0.02,0.053-0.043,0.081-0.062c0.042-0.033,0.087-0.062,0.123-0.098
	c0.028-0.027,0.05-0.059,0.075-0.088c0.031-0.035,0.064-0.069,0.091-0.107c0.022-0.033,0.038-0.068,0.059-0.102
	c0.021-0.039,0.047-0.078,0.064-0.119c0.016-0.035,0.024-0.074,0.037-0.11c0.014-0.042,0.032-0.083,0.041-0.126
	c0.009-0.039,0.011-0.08,0.015-0.119c0.006-0.043,0.015-0.086,0.016-0.13c0.002-0.04-0.005-0.081-0.007-0.122
	c-0.003-0.043-0.002-0.086-0.01-0.129c-0.006-0.037-0.019-0.072-0.028-0.109c-0.013-0.047-0.021-0.094-0.038-0.14
	c-0.011-0.026-0.026-0.052-0.038-0.077c-0.023-0.053-0.045-0.105-0.075-0.154l-6.282-10.04c0.003-0.013,0.003-0.029,0.006-0.039
	c0.053-0.21,0.24-0.512,0.61-0.733c0.541-0.323,1.044-0.232,1.156-0.045l6.284,9.867c0.083,0.131,0.188,0.238,0.305,0.328
	l0.085,0.139c0.245,0.404,0.675,0.627,1.115,0.627c0.231,0,0.465-0.062,0.677-0.189c0.616-0.375,0.812-1.178,0.438-1.793
	l-4.608-7.572c-0.04-0.065-0.021-0.172-0.008-0.229c0.053-0.209,0.241-0.512,0.611-0.734c0.539-0.322,1.043-0.232,1.142-0.066
	l4.613,7.576c0.065,0.107,0.147,0.197,0.235,0.278l1.037,1.704c0.375,0.615,1.177,0.811,1.793,0.436
	c0.615-0.374,0.812-1.177,0.437-1.793l-4.607-7.571c-0.039-0.065-0.021-0.171-0.007-0.229c0.052-0.21,0.24-0.512,0.609-0.733
	c0.54-0.323,1.045-0.233,1.144-0.068l4.612,7.577c0.078,0.13,0.188,0.251,0.307,0.347c0.05,0.039,4.943,4.119,4.415,15.949
	c-0.014,0.289,0.07,0.574,0.236,0.81l4.93,7.001c0.254,0.359,0.658,0.553,1.068,0.553c0.261,0,0.522-0.076,0.75-0.238
	C565.995,270.986,566.136,270.172,565.722,269.584z M519.707,219.564h18.191c0.628,0,1.139,0.51,1.139,1.139v2.15
	c-0.013,0-0.024-0.004-0.036-0.004h-20.397c-0.012,0-0.023,0.003-0.035,0.004v-2.15
	C518.568,220.074,519.078,219.564,519.707,219.564z M538.679,265.174c-0.212,0.202-0.483,0.316-0.78,0.316h-18.191
	c-0.628,0-1.139-0.51-1.139-1.137v-4.065c0.012,0,0.023,0.003,0.035,0.003h15.468C535.339,262.016,536.981,263.679,538.679,265.174z
	 M535.297,237.23c-0.289,0.174-0.549,0.381-0.78,0.609l-1.432-2.288c-0.884-1.479-2.998-1.849-4.716-0.823
	c-0.909,0.546-1.567,1.398-1.803,2.341c-0.193,0.775-0.087,1.56,0.296,2.194l6.527,11.07c-1.277,1.328-1.855,2.961-1.661,4.748
	c0.094,0.858,0.365,1.73,0.768,2.602h-13.893c-0.012,0-0.023,0.002-0.035,0.003v-32.231c0.012,0,0.023,0.004,0.035,0.004h20.397
	c0.013,0,0.023-0.002,0.036-0.004v11.648C537.994,236.486,536.544,236.488,535.297,237.23z"/>
<path fill="#010101" d="M277.261,347.52c-0.059-1.364-1.078-2.456-2.32-2.456h-5.28v-56.105c0-1.423-1.042-2.581-2.325-2.581
	h-15.061c-1.282,0-2.324,1.158-2.324,2.581v56.105h-4.168c-1.244,0-2.262,1.092-2.32,2.456l-3.073,12.574l-0.027,0.226
	c0,1.423,1.042,2.581,2.323,2.581h35.352c1.282,0,2.325-1.158,2.325-2.581L277.261,347.52z M267.335,288.1
	c0.427,0,0.774,0.386,0.774,0.86v62.846c0,0.473-0.348,0.859-0.774,0.859h-3.154c0.473-0.604,0.854-1.502,0.854-2.366v-59.402
	c0-1.151-0.51-2.171-1.291-2.795L267.335,288.1z M259.464,293.648v-0.84c0-0.155,0.125-0.28,0.279-0.28
	c0.152,0,0.275,0.125,0.275,0.28v0.84v0.841c0,0.154-0.123,0.281-0.275,0.281c-0.154,0-0.279-0.126-0.279-0.281V293.648z
	 M258.354,293.5c0.203-0.244,0.399-0.361,0.418-0.373c0.131-0.077,0.302-0.034,0.379,0.1c0.078,0.134,0.035,0.305-0.1,0.382l0,0l0,0
	c-0.004,0.004-0.009,0.004-0.016,0.011c-0.014,0.009-0.036,0.024-0.062,0.044c-0.053,0.042-0.123,0.107-0.195,0.193
	c-0.143,0.178-0.281,0.424-0.281,0.77c0,0.35,0.139,0.662,0.363,0.891c0.229,0.231,0.537,0.374,0.883,0.374
	c0.343,0,0.654-0.142,0.881-0.37s0.363-0.542,0.363-0.891c0-0.334-0.127-0.577-0.265-0.753c-0.132-0.165-0.275-0.257-0.289-0.267
	l0,0l0,0c-0.131-0.078-0.175-0.248-0.099-0.383c0.078-0.133,0.246-0.178,0.379-0.1c0.02,0.011,0.215,0.129,0.418,0.374
	c0.202,0.243,0.41,0.623,0.41,1.128c0,1.004-0.804,1.822-1.797,1.822c-0.994,0-1.802-0.816-1.802-1.822
	C257.943,294.125,258.151,293.743,258.354,293.5z M257.854,301.106c1.039-1.041,2.737-1.041,3.779,0
	c0.094,0.096,0.094,0.248,0,0.345c-0.051,0.046-0.111,0.071-0.171,0.071c-0.063,0-0.126-0.025-0.173-0.071
	c-0.854-0.854-2.24-0.854-3.094,0c-0.093,0.095-0.248,0.095-0.342,0C257.759,301.354,257.759,301.202,257.854,301.106z
	 M259.229,302.482c-0.097,0.095-0.25,0.095-0.345,0c-0.095-0.097-0.095-0.25,0-0.345c0.474-0.473,1.244-0.473,1.718,0
	c0.094,0.095,0.094,0.248,0,0.345c-0.047,0.046-0.109,0.07-0.172,0.07c-0.064,0-0.125-0.024-0.172-0.07
	C259.974,302.198,259.513,302.198,259.229,302.482z M260.019,303.272c-0.076,0.072-0.17,0.113-0.273,0.113s-0.201-0.039-0.275-0.113
	c-0.151-0.152-0.151-0.399,0-0.551c0.074-0.074,0.172-0.113,0.275-0.113s0.197,0.039,0.273,0.113
	C260.171,302.873,260.171,303.119,260.019,303.272z M259.743,310.7c0.713,0,1.291,0.578,1.291,1.291
	c0,0.712-0.578,1.291-1.291,1.291c-0.712,0-1.291-0.579-1.291-1.291C258.452,311.278,259.029,310.7,259.743,310.7z M259.743,332.858
	c-0.712,0-1.291-0.578-1.291-1.291s0.579-1.291,1.291-1.291c0.713,0,1.291,0.578,1.291,1.291S260.456,332.858,259.743,332.858z
	 M261.034,341.679c0,0.713-0.578,1.291-1.291,1.291c-0.712,0-1.291-0.578-1.291-1.291s0.579-1.291,1.291-1.291
	C260.456,340.388,261.034,340.966,261.034,341.679z M259.743,322.962c-0.712,0-1.291-0.578-1.291-1.29
	c0-0.713,0.579-1.291,1.291-1.291c0.713,0,1.291,0.578,1.291,1.291C261.034,322.384,260.456,322.962,259.743,322.962z
	 M260.772,301.966c-0.275-0.275-0.641-0.427-1.029-0.427c-0.393,0-0.756,0.151-1.032,0.427c-0.046,0.049-0.106,0.07-0.173,0.07
	c-0.061,0-0.123-0.021-0.172-0.07c-0.094-0.095-0.094-0.25,0-0.342c0.367-0.369,0.854-0.57,1.375-0.57
	c0.519,0,1.006,0.201,1.372,0.57c0.099,0.092,0.099,0.247,0,0.342C261.022,302.061,260.869,302.061,260.772,301.966z
	 M251.499,288.96c0-0.475,0.348-0.86,0.775-0.86l3.597-0.001c-0.783,0.624-1.292,1.645-1.292,2.798v59.402
	c0,0.847,0.396,1.767,0.852,2.366h-3.156c-0.429,0-0.775-0.387-0.775-0.859V288.96z M278.036,361.18h-35.352
	c-0.397,0-0.727-0.336-0.771-0.765l3.067-12.543l0.028-0.225c0-0.474,0.348-0.861,0.773-0.861h4.168v5.02
	c0,1.423,1.042,2.581,2.324,2.581h15.061c1.282,0,2.325-1.158,2.325-2.581v-5.02h5.28c0.425,0,0.772,0.388,0.772,0.861l3.093,12.768
	C278.767,360.842,278.436,361.18,278.036,361.18z"/>
<path fill="#010101" d="M471.961,360.312c0,1.812-1.475,3.282-3.28,3.282h-179.22c-1.814,0-3.28-1.468-3.28-3.282l-2.736-3.052
	c0-1.814,1.471-3.284,3.282-3.284l186.326,0.548c1.812,0,3.28,1.469,3.28,3.282L471.961,360.312z"/>
<path fill="#010101" d="M353.447,355.349l6.932-6.528c0-0.436,0.938-0.784,2.088-0.786l26.71-0.008c1.152,0,2.084,0.351,2.084,0.784
	l6.85,6.437l76.398-0.582l-26.992-24.7H309.303l-25.808,26.154l70.066-0.534C353.495,355.511,353.447,355.431,353.447,355.349z
	 M326.417,333.398h105.454l20.596,11.79l-145.744,0.696L326.417,333.398z"/>
<path fill="#010101" d="M444.243,241.655H312.579c-1.807,0-3.276,1.468-3.276,3.281v85.03h138.216v-85.03
	C447.519,243.123,446.051,241.655,444.243,241.655z M379.119,242.471c0.772,0,1.394,0.624,1.394,1.394
	c0,0.772-0.623,1.398-1.394,1.398s-1.396-0.626-1.396-1.398C377.724,243.097,378.347,242.471,379.119,242.471z M442.053,324.499
	H314.769v-77.376h127.284V324.499z"/>
<g>
	<defs>
		
			<rect id="SVGID_1_" x="705.804" y="232.044" transform="matrix(0.9382 0.3461 -0.3461 0.9382 128.7521 -233.1123)" width="22.641" height="23.849"/>
	</defs>
	<clipPath id="SVGID_5_">
		<use xlink:href="#SVGID_1_"  overflow="visible"/>
	</clipPath>
	<g id="XMLID_15_" clip-path="url(#SVGID_5_)">
		<g>
			<path d="M713.706,262.35c-0.131-0.073-0.58-0.054-0.704,0.029c-0.015,0.002-0.032,0.001-0.047,0.002
				c-0.072-0.135-0.448,0.061-0.52-0.074c0.31-0.072,0.586-0.182,0.881-0.271c0.521,0.009,0.943-0.034,1.45-0.155
				c0.047-0.002,0.094-0.004,0.142-0.006c0.123-0.035,0.291-0.031,0.37-0.108c0.193,0.011,0.183-0.163,0.419-0.112
				c0.179-0.001,0.342-0.016,0.418-0.111c0.283-0.009,0.368-0.203,0.648-0.214c0.156-0.038,0.34-0.048,0.417-0.16
				c0.769-0.283,1.455-0.645,2.02-1.118c0.289-0.154,0.549-0.336,0.727-0.594c0.482-0.369,0.855-0.838,1.166-1.363
				c0.325-0.543,0.651-1.085,0.818-1.773c0.015-0.001,0.03-0.002,0.046-0.003c0.001-0.15,0.099-0.212,0.077-0.38
				c0.207-0.501,0.243-1.158,0.302-1.799c0.104-0.084,0.003-0.357,0.025-0.517c0.055-0.55,0.018-1.425-0.083-1.97
				c-0.001-0.014-0.001-0.031-0.001-0.047c-0.015-0.264,0.001-0.558-0.124-0.699c-0.003-0.064-0.006-0.127-0.009-0.189
				c-0.043-0.278-0.065-0.582-0.174-0.79c-0.056-0.006-0.043-0.084-0.053-0.139c-0.104-0.687-0.286-1.29-0.546-1.81
				c-0.122-0.488-0.312-0.904-0.523-1.295c-0.012-0.166-0.035-0.32-0.156-0.367c-0.097-0.076-0.136-0.213-0.157-0.371
				c-0.124-0.272-0.231-0.564-0.409-0.781c-0.135-0.343-0.305-0.648-0.508-0.918c-0.201-0.255-0.277-0.646-0.506-0.871
				c-0.051-0.272-0.221-0.416-0.354-0.598c-0.058-0.214-0.163-0.376-0.303-0.503c-0.124-0.259-0.255-0.509-0.452-0.686
				c-0.085-0.267-0.244-0.452-0.493-0.544c-0.384-0.449-0.648-1.026-1.092-1.41c-0.188-0.287-0.357-0.592-0.599-0.82
				c-0.182-0.31-0.404-0.574-0.645-0.819c-0.048-0.145-0.127-0.253-0.249-0.317c-0.077-0.178-0.194-0.312-0.346-0.41
				c-0.104-0.18-0.214-0.355-0.395-0.453c-0.001-0.015-0.003-0.031-0.003-0.045c-0.161-0.168-0.283-0.38-0.49-0.498
				c-0.16-0.071-0.135-0.344-0.255-0.459c-0.04-0.141,0.041-0.172,0.036-0.283c0.194-0.081,0.196-0.464,0.504-0.304
				c0.121,0.032,0.203,0.106,0.243,0.226c0.098,0.156,0.182,0.326,0.348,0.409c0.07,0.135,0.224,0.181,0.295,0.315
				c0.203,0.352,0.465,0.641,0.743,0.908c0.115,0.218,0.255,0.409,0.445,0.545c0.131,0.25,0.295,0.465,0.496,0.637
				c0.085,0.187,0.189,0.352,0.348,0.457c0.002,0.08,0.04,0.119,0.101,0.136c0.17,0.322,0.396,0.582,0.646,0.819
				c0.663,1.125,1.208,2.381,1.975,3.395c0.052,0.234,0.153,0.42,0.305,0.551c0.079,0.108,0.05,0.338,0.203,0.367
				c0.079,0.109,0.137,0.242,0.204,0.367c0.033,0.223,0.147,0.361,0.255,0.506c0.049,0.225,0.21,0.33,0.259,0.553
				c0.236,0.445,0.4,0.97,0.669,1.383c0.002,0.045,0.004,0.092,0.005,0.14c0.075,0.132,0.079,0.341,0.206,0.415
				c0.061,0.082,0.021,0.271,0.108,0.322c0.049,0.21,0.081,0.436,0.211,0.557c0.035,0.189,0.039,0.414,0.161,0.51
				c0.013,0.349,0.212,0.49,0.225,0.838c0.184,0.86,0.278,1.819,0.396,2.754c0.003,0.047,0.005,0.094,0.007,0.141
				c-0.016-0.001-0.032,0.001-0.047,0.002c0.079,1.006-0.031,1.834-0.123,2.684c0.001,0.016,0.001,0.031,0.001,0.049
				c-0.015-0.002-0.03,0-0.046,0.001c-0.053,0.37-0.201,0.657-0.238,1.042c-0.081,0.242-0.179,0.469-0.252,0.716
				c-0.236,0.474-0.477,0.945-0.74,1.394c-0.077,0.064-0.18,0.105-0.178,0.244c-0.017-0.001-0.03,0-0.047,0
				c-0.379,0.582-0.917,1.021-1.393,1.516c-0.509,0.345-1.03,0.678-1.555,1.006c-0.284,0.055-0.49,0.18-0.692,0.311
				c-0.066-0.002-0.135-0.002-0.14,0.051c-0.137,0.041-0.33,0.028-0.368,0.158c-0.017,0.001-0.032,0.002-0.048,0.003
				c-0.4,0.126-0.831,0.227-1.205,0.378c-0.259,0.049-0.598,0.023-0.746,0.172C714.551,262.224,714.198,262.35,713.706,262.35z"/>
		</g>
		<g>
		</g>
	</g>
</g>
<path fill="#010101" d="M735.37,275.99c-0.298,0.488-1.033,0.584-1.645,0.211l-2.342-1.428c-0.61-0.372-0.863-1.07-0.565-1.561
	l2.479-4.064c0.298-0.488,1.034-0.584,1.646-0.211l2.342,1.429c0.609,0.372,0.864,1.07,0.566,1.56L735.37,275.99z"/>
<g id="animal_1_">
	<g>
		<path d="M638.655,287.473c-0.103,0.647-0.162,1.951,0.289,2.514c1.568,1.908,3.468-2.07,3.996-3.118l0.852-1.704l0.988-3.407
			c0.264-1.338,0.537-2.649,0.682-4.004c0.272-2.479,0.289-4.967,0.639-7.429c0.341-2.377,1.576-5.043,2.487-7.258
			c0.784-1.892,1.704-3.791,3.042-5.358c1.84-2.139,5.299-3.834,8.203-3.493c1.926,0.222,3.569,0.929,5.239,1.874
			c1.789,0.869,3.8,2.922,4.345,4.038c0.741,1.491,1.064,3.697,1.022,5.342c-0.06,2.069-1.15,2.837-1.823,4.549
			c-1.84,4.592-2.24,10.12-2.096,15.011c0.111,4.191,0.111,9.404,1.338,13.442c0.213,0.75,0.698,0.945,0.477,1.849
			c-0.579,2.352-3.178,4.217-4.668,5.972c-4.413,5.137-6.065,10.973-12.165,14.645c-0.588,0.357,0.289,3.578,0.502,4.08
			c0.665,1.585,2.42,2.922,3.383,4.37c2.096,3.161,3.041,6.236,7.36,6.236c0,0,0.971,0,0.979,0c1.107,0,2.505,0.826,3.672,0.971
			c1.227,0.146,2.479,0.111,3.714,0.111c0,0,0.75-0.86,0.758-0.869c1.022-1.158-2.197-2.846-2.794-3.033
			c-3.612-1.099-6.372-2.138-9.158-4.787l-0.868-1.619c1.822-2.538,3.765-4.165,6.006-6.312c0.962-0.928,1.883-1.908,2.854-2.828
			c2.922-2.777,5.571-5.827,8.527-8.562c0,0,1.968-2.709,2.062-2.828c0.75-1.03,1.329-1.277,1.602-2.726
			c0.358-1.814,0.23-3.706,0.103-5.538c-0.103-1.439-0.869-3.254,0.222-4.489c0.417,0.895,0.502,1.84,0.673,2.794
			c0.554,2.99,2.479,5.708,2.973,8.835c0.503,3.279,0.009,6.619,0.426,9.873c0.333,2.615-0.042,5.009-0.136,7.539l-0.11,2.931
			l-0.537,2.173c0,0-0.75,1.721-0.758,1.737c-0.682,1.551,0.928,3.178,2.062,3.851c0.758,0.451,1.575,0.818,2.325,1.295
			c0.622,0.409,0.929,0.979,1.713,1.185c0.817,0.213,1.712-0.009,2.513-0.256c1.354-0.418,2.606-1.048,4.013-1.32
			c1.431-0.272,2.87-0.272,4.259-0.826c0.46-0.188,2.395-1.951,2.548-1.968c1.771-0.188,1.192-1.457,0.008-1.96l-1.627-0.639
			l-1.737,0.758c-2.249,0.972-5.01,0.64-7.395,0.64c-0.146,0-0.647-1.015-0.759-1.185c-0.17-0.256,0.699-2.521,0.767-2.931
			c0.18-1.057,0.239-2.112,0.23-3.169c-0.017-2.045-0.256-4.148-0.017-6.185l0.868-7.497v-3.569v-3.041
			c0-2.871-0.741-5.853-0.988-8.715c-0.238-2.837-0.46-5.844-0.195-8.698c2.666-0.963,4.592,1.807,7.062,2.283
			c2.377,0.469,4.788,0.153,7.174-0.162c2.964-0.375,5.512-1.286,8.246-2.428c0.042-0.017-0.06,1.508-0.077,1.585
			c-0.085,0.468-0.213,0.929-0.349,1.389c-0.213,0.732-0.452,1.474-0.546,2.24c-0.298,2.649-0.468,5.452-0.008,8.102
			c0.204,1.184,0.545,2.325,0.996,3.433c1.1,2.684,2.709,3.859,4.754,5.776c1.627,1.517,2.743,3.041,4.029,4.873
			c0.562,0.783,1.091,1.831,1.278,2.776c0.161,0.768-0.307,1.5-0.205,2.164c0.512,3.441,1.61,6.884,1.908,10.351
			c0.025,0.256,0.733,1.057,0.869,1.354c0.503,1.142,0.801,2.377,1.192,3.578c0.06,0.222,0.435,0.503,0.588,0.682
			c-0.323,0.732-0.11,2.258,0.682,2.7c0.673,0.384,1.192-0.298,1.78-0.528c0.716-0.281,1.185-0.161,1.935-0.136
			c2.078,0.085,4.012-0.86,5.478-2.267c0.937-0.877,1.567-2.769,1.984-3.952c0.579-1.636,0.886-3.349,1.193-5.035
			c0.264-1.431,0.707-2.718,0.349-4.166c-0.613-2.462-4.14-3.757-5.827-5.375c-1.618-1.567-3.032-3.348-4.353-5.162
			c-0.009-0.018-0.759-1.065-0.759-1.065c0.699-6.27,0.307-12.625,0.92-18.912c0.162-1.559,0.324-3.109,0.461-4.677
			c0.204-2.079,0.639-4.072,0.639-6.176c0-1.722-0.213-3.468-0.272-5.197c-7.122-0.954-13.137-5.554-14.977-12.293
			c-0.656-2.402-0.725-4.847-0.272-7.189c-0.631,0.4-1.304,0.749-2.027,1.005c-5.308,1.892-10.684,3.399-16.399,2.786
			c-3.638-0.393-7.386-0.452-10.98,0.332c-2.863,0.622-5.154,2.3-8.255,2.07c-2.292-0.171-5.308-2.036-7.241-3.178
			c-1.67-0.988-3.075-2.7-4.669-3.842c-1.405-1.014-2.896-1.926-4.54-2.479c-2.352-0.801-5.563-0.92-7.88,0.018
			c-2.53,1.005-5.316,4.046-6.85,6.219c-1.823,2.581-2.981,5.741-3.757,8.783c-1.542,6.022-2.096,12.139-4.294,17.991
			C639.959,284.551,638.919,285.82,638.655,287.473z M731.631,326.013c-0.06-0.725,0.043-1.432,0.025-2.146
			c-0.008-0.571,0.137-1.074,0.239-1.636c0.085-0.358,0.127-0.732,0.221-1.091c0.562,0.35,1.048,0.801,1.534,1.27
			c0.468,0.443,0.911,1.039,1.277,1.576c0.35,0.494,0.775,1.209,0.878,1.814c0.06,0.409-0.043,0.954-0.205,1.32
			c-0.094,0.222-0.229,0.409-0.366,0.57c-0.366,0.452-0.732,0.835-0.988,1.372c-0.188,0.383-0.204,0.758-0.11,1.167
			c0.136,0.613,0.229,0.903,0.749,1.252c0.061,0.043-0.852,0.869-0.945,0.92c-0.315,0.188-0.682,0.265-1.022,0.358
			c-0.119,0.034-0.801,0.204-0.801,0.375c0-0.869,0-1.747,0.009-2.615c0.018-0.81,0.009-1.695-0.179-2.479
			C731.793,327.376,731.674,326.703,731.631,326.013z"/>
		<path d="M719.985,251.293c-0.435,2.334-0.366,4.754,0.29,7.139c1.644,6.006,6.61,10.316,12.728,11.85
			c0.076-0.17,0.179-0.323,0.298-0.46c0.801-0.902,2.138-0.562,3.178-0.323c1.636,0.383,3.245,0.929,4.906,1.142
			c0.793-0.119,1.585-0.29,2.377-0.512c0.929-0.255,1.814-0.562,2.675-0.92c1.107-0.971,2.624-2.871,2.82-4.217
			c0.188-1.337-0.767-2.096-1.713-2.726c-1.014-0.673-1.882-1.695-2.666-2.649c-0.46-0.562-1.014-0.929-1.491-1.457
			c-0.255-0.298-0.195-1.908,0.052-2.258c0.323-0.417,2.718,0.06,2.718-0.63c0-1.057-1.193-2.727-1.823-3.434
			c-0.81-0.895-2.224-1.517-3.178-2.224c-1.039-0.758-2.053-1.559-3.118-2.274c-1.542-1.039-3.229-2.027-5.026-2.444
			c-1.533-0.358-3.151-0.478-4.677,0.051c-1.865,0.639-3.254,2.045-4.83,3.237C722.277,249.12,721.152,250.236,719.985,251.293z"/>
		<path d="M741.385,270.64c0.137,0.025,0.281,0.034,0.418,0.051c1.396,0.128,3.084-0.323,4.242-1.167
			c0.119-0.085,0.256-0.196,0.392-0.315c-0.86,0.358-1.746,0.665-2.675,0.92C742.97,270.35,742.178,270.521,741.385,270.64z"/>
	</g>
	<g>
	</g>
</g>
<path fill="#010101" d="M624.481,1.373c-3.591,0-6.652,0.211-9.188,0.633C614.555,0.739,613.499,0,612.231,0
	c-1.056,0-2.111,0.634-2.851,1.689c-3.274-0.211-7.393-0.316-11.827-0.316c-10.561,0-8.132,4.857,2.429,4.857
	c3.168,0,6.019-0.212,8.342-0.528c0.317,0.845,1.373,1.479,2.64,1.689v1.689c-1.478,0.212-2.64,0.951-2.64,2.112
	c0,0.423,0.105,0.739,0.105,1.056H589.95c-1.689-1.372-3.907-2.217-6.23-2.217s-4.541,0.845-6.23,2.217h-18.48
	c0-0.316,0.105-0.633,0.105-1.056c0-1.161-1.161-1.9-2.64-2.112V7.392c1.267-0.211,2.323-0.845,2.64-1.689
	c2.324,0.316,5.175,0.528,8.343,0.528c10.561,0,12.989-4.857,2.429-4.857c-4.435,0-8.554,0.105-11.827,0.316
	C557.319,0.634,556.264,0,555.207,0c-1.267,0-2.322,0.739-3.062,2.006c-2.534-0.422-5.598-0.633-9.188-0.633
	c-10.56,0-12.989,4.857-2.429,4.857c4.013,0,7.709-0.105,10.877-0.317c0.316,0.846,1.372,1.268,2.534,1.479v1.689
	c-1.479,0.317-2.641,0.951-2.641,2.112c0,3.062,1.796,5.491,4.014,5.491c0.845,0,1.584-0.316,2.218-0.95h7.708l-11.193,23.231
	c-0.527,1.057-0.105,2.429,1.056,2.852c1.057,0.528,2.43,0.105,2.852-1.056l11.616-24.183c0.105-0.317,0.211-0.634,0.211-0.951
	h5.174c-0.422,0.951-0.738,2.112-0.844,3.274h-1.162c-2.112,0-3.907,1.795-3.907,3.907v11.722c0,2.112,1.795,3.907,3.907,3.907
	h4.646c1.479,2.007,3.802,3.379,6.441,3.379c2.641,0,5.069-1.372,6.442-3.379h4.646c2.112,0,3.908-1.795,3.908-3.907V23.021
	c0-2.112-1.796-3.907-3.908-3.907h-1.161c-0.105-1.161-0.423-2.218-0.845-3.273h5.175c0,0.316,0.105,0.634,0.211,0.95l11.616,24.183
	c0.527,1.056,1.795,1.584,2.851,1.056c1.056-0.527,1.584-1.795,1.056-2.851l-11.193-23.232l7.075-0.211
	c0.634,0.634,1.373,0.95,2.218,0.95c2.218,0,4.013-2.429,4.013-5.491c0-1.161-1.161-1.795-2.64-2.112V7.392
	c1.161-0.211,2.218-0.633,2.534-1.479c3.168,0.212,6.864,0.317,10.877,0.317C637.47,6.23,635.041,1.373,624.481,1.373z
	 M575.482,24.182c-1.584,0-2.956-0.738-2.956-1.583c0-0.846,1.372-1.585,2.956-1.585s2.957,0.739,2.957,1.585
	C578.439,23.443,577.066,24.182,575.482,24.182z M583.72,36.432c-3.062,0-5.491-2.429-5.491-5.491s2.429-5.491,5.491-5.491
	s5.491,2.429,5.491,5.491C589.211,33.897,586.782,36.432,583.72,36.432z"/>
<path fill="#010101" d="M631.449,99.74c0,7.404-5.957,13.361-13.361,13.361s-13.362-5.957-13.362-13.361
	c0-7.405,5.958-13.362,13.362-13.362S631.449,92.335,631.449,99.74z M618.088,97.611c-1.191,0-2.128,0.938-2.128,2.129
	s0.937,2.127,2.128,2.127s2.128-0.936,2.128-2.127S619.279,97.611,618.088,97.611z M628.046,99.91
	c0.17-0.682,0.255-1.447,0.255-2.213c0-4.937-4.001-8.851-8.852-8.851c-0.766,0-1.446,0.084-2.212,0.255
	C623.024,89.442,627.705,94.123,628.046,99.91z M583.449,84.591c-1.616,0-2.979,1.361-2.979,2.979s1.362,2.979,2.979,2.979
	c1.617,0,2.979-1.362,2.979-2.979S585.066,84.591,583.449,84.591z M649.407,78.974l0.426-2.639c0.084-0.425,0-0.936-0.256-1.276
	c-0.255-0.34-0.681-0.595-1.105-0.681l-10.895-1.873c-0.085,0-0.17,0-0.255,0c-0.341,0-0.682,0.085-1.021,0.341
	c-0.341,0.255-0.596,0.681-0.681,1.106l-0.511,2.894h-0.255h-0.256c-0.766,0-1.447-0.511-1.617-1.191
	c-1.106-4-3.148-11.319-10.213-11.319h-9.446c-5.532-0.341-7.915,5.531-9.958,10.638l-0.34,0.766
	c-0.256,0.681-0.852,1.106-1.617,1.106l-3.66,0.34c-0.17-1.021-1.021-1.702-2.127-1.702c-1.191,0-2.128,0.936-2.128,2.042
	l-2.553,0.085c-0.256-0.851-1.106-1.446-2.043-1.446c-1.106,0-1.957,0.766-2.128,1.787l-2.723,0.256
	c-0.341-0.682-1.106-1.191-1.873-1.191c-0.936,0-1.787,0.68-2.042,1.532c-4.085,0.681-7.149,4.17-7.149,8.425v34.894
	c0,1.873,1.532,3.404,3.404,3.404h70.639c3.318,0,5.957-2.638,5.957-5.957V84.421C652.981,81.952,651.534,79.91,649.407,78.974z
	 M589.151,121.867h-12.766V86.974c0-2.809,2.298-5.106,5.106-5.106l5.787-0.511c0.767,0.426,1.872,1.447,1.872,4V121.867z
	 M648.216,75.995l-0.426,2.468c-0.17,0-0.426-0.085-0.596-0.085h-0.17l0.425-2.553l-0.851-0.17l-0.426,2.553l-0.851-0.085
	l0.426-2.638L648.216,75.995z M645.492,75.569l-0.596-0.085l-0.425,2.638l-0.852-0.085l0.426-2.638l-0.852-0.17l-0.426,2.638
	l-0.852-0.085l0.426-2.724L645.492,75.569z M641.492,74.888l-0.426,2.724l-0.851-0.085l0.425-2.723L641.492,74.888z M640.556,74.719
	l-0.766-0.085l-0.426,2.723l-0.851-0.085l0.511-2.809L640.556,74.719z M637.322,74.208l0.851,0.17l-0.51,2.809l-0.852-0.085
	L637.322,74.208z M606.514,76.166c2.127-5.277,3.744-8.681,6.638-8.511h0.086h9.617c3.659,0,5.361,3.233,6.894,8.851
	c-0.682-0.425-1.362-0.766-2.128-0.936c-3.234-0.511-6.383-0.681-9.617-0.681s-6.383,0.255-9.617,0.681
	c-0.681,0.085-1.446,0.426-2.128,0.851L606.514,76.166z M608.641,76.505c3.234-0.51,6.299-0.68,9.447-0.68
	c3.149,0,6.212,0.255,9.446,0.68c1.958,0.341,3.915,2.384,4.341,4.425c0.511,2.299,0.937,4.596,1.276,6.895
	c-3.488-4.426-8.936-7.32-15.063-7.32s-11.574,2.895-15.063,7.32c0.34-2.299,0.766-4.596,1.275-6.895
	C604.642,78.89,606.684,76.846,608.641,76.505z M633.917,99.74c0,8.68-7.062,15.829-15.829,15.829
	c-8.766,0-15.83-7.063-15.83-15.829c0-8.682,7.064-15.83,15.83-15.83C626.854,83.91,633.917,91.059,633.917,99.74z M601.577,80.165
	c0.852,0,1.617-0.255,2.298-0.596c-0.17,0.341-0.341,0.766-0.341,1.191c-0.595,2.639-1.021,5.532-1.446,8.511
	c-0.255,0.341-0.511,0.766-0.681,1.106h-9.702v-5.021c0-1.872-0.511-3.234-1.106-4.255L601.577,80.165z M600.641,107.74
	c0,1.361,0,2.638,0,3.914h-8.936V92.932h8.426c-0.767,2.127-1.276,4.426-1.276,6.809
	C598.854,102.634,599.534,105.357,600.641,107.74z M591.705,121.867v-7.659h9.191c0.767,3.915,2.894,6.298,5.361,7.659H591.705z
	 M618.088,120.165c-2.383,0-4.766-0.17-7.233-0.425c-2.809-0.341-7.49-1.873-8.937-7.66v-0.426h-0.085
	c-0.085-0.596-0.256-1.105-0.256-1.787c0-0.17,0-0.256,0-0.425c3.319,5.702,9.532,9.446,16.596,9.446
	c7.064,0,13.191-3.83,16.596-9.446c0,0.169,0,0.255,0,0.425c-0.766,7.744-6.213,9.532-9.361,9.873
	C622.854,120.08,620.472,120.165,618.088,120.165z M649.577,119.314c0,1.446-1.105,2.553-2.553,2.553h-17.191
	c2.553-1.361,4.596-3.744,5.361-7.659h14.383V119.314z M649.577,111.654h-14.043c0-1.276,0.086-2.553,0-3.914
	c1.106-2.469,1.788-5.191,1.788-8c0-2.383-0.426-4.682-1.276-6.809h13.531V111.654z M649.577,90.378h-14.723
	c-0.256-0.426-0.426-0.766-0.682-1.106c-0.425-2.979-0.936-5.787-1.447-8.511c-0.085-0.426-0.17-0.766-0.34-1.105
	c0.681,0.34,1.447,0.51,2.213,0.595l12.256,1.702h0.255c1.446,0,2.554,1.106,2.554,2.553v5.873H649.577z M647.024,85.272
	c0-0.512-0.341-0.852-0.852-0.852h-4.256c-0.51,0-0.851,0.34-0.851,0.852v2.553c0,0.51,0.341,0.851,0.851,0.851h4.256
	c0.511,0,0.852-0.341,0.852-0.851V85.272z"/>
<path fill="#010101" d="M715.76,89.47l12.155-12.158c2.236-2.237,5.212-3.469,8.376-3.469s6.139,1.233,8.376,3.469l5.146,5.146
	c2.236,2.238,3.469,5.213,3.469,8.377c0,3.166-1.231,6.141-3.469,8.375l-12.155,12.158c-2.235,2.235-5.21,3.468-8.375,3.468
	s-6.139-1.232-8.376-3.468l-5.147-5.148C711.142,101.603,711.142,94.088,715.76,89.47z M673.641,126.132
	c0.478,0.478,1.25,0.476,1.729-0.001l4.972-4.975c1.41-1.401,3.624-1.352,4.924-0.053l0.22,0.221c1.342,1.341,1.342,3.526,0,4.868
	c-0.06,0.062-0.116,0.13-0.164,0.203l-4.98,4.979c-1.111,1.108-1.724,2.587-1.723,4.162c0,1.572,0.614,3.053,1.726,4.162
	l0.213,0.215c1.15,1.15,2.661,1.725,4.169,1.725c1.507,0,3.013-0.573,4.16-1.721l3.055-3.057c0.403,0.174,0.841,0.271,1.293,0.271
	c0.865,0,1.678-0.337,2.291-0.947l0.081-0.083l1.185,1.185l24.154-24.154l-0.853-0.854l-5.246-5.246l-0.851-0.853l-24.157,24.16
	l1.184,1.183l-0.08,0.082c-0.949,0.947-1.187,2.342-0.711,3.512l-3.074,3.074c-1.338,1.34-3.522,1.342-4.867-0.001l-0.213-0.214
	c-0.655-0.654-1.014-1.519-1.014-2.438c-0.001-0.921,0.357-1.785,1.006-2.433l5.113-5.109c0.067-0.067,0.125-0.14,0.175-0.22
	c2.149-2.305,2.104-5.931-0.142-8.178l-0.222-0.222c-1.109-1.112-2.588-1.724-4.16-1.724c-1.574,0-3.054,0.612-4.163,1.724
	l-5.03,5.027C673.161,124.88,673.161,125.652,673.641,126.132z M739.754,84.825c1.711,1.643,4.07-1.17,2.372-2.8
	c-1.81-1.739-4.257-3.663-6.958-3.348c-2.544,0.292-4.42,1.829-6.199,3.558c-1.698,1.655,1.12,4.008,2.798,2.375
	c0.964-0.937,2.289-2.268,3.748-2.28C737.226,82.313,738.612,83.727,739.754,84.825L739.754,84.825z"/>
</svg>
