<?xml version="1.0" encoding="UTF-8" standalone="no"?>
<!-- Created with Inkscape (http://www.inkscape.org/) -->

<svg
   xmlns:dc="http://purl.org/dc/elements/1.1/"
   xmlns:cc="http://creativecommons.org/ns#"
   xmlns:rdf="http://www.w3.org/1999/02/22-rdf-syntax-ns#"
   xmlns:svg="http://www.w3.org/2000/svg"
   xmlns="http://www.w3.org/2000/svg"
   xmlns:sodipodi="http://sodipodi.sourceforge.net/DTD/sodipodi-0.dtd"
   xmlns:inkscape="http://www.inkscape.org/namespaces/inkscape"
   id="svg2"
   version="1.1"
   inkscape:version="0.91 r13725"
   xml:space="preserve"
   width="195.8"
   height="87.425003"
   viewBox="0 0 195.8 87.425003"
   sodipodi:docname="University_Libraries_2linehrz_pos(RGB).svg"><metadata
     id="metadata8"><rdf:RDF><cc:Work
         rdf:about=""><dc:format>image/svg+xml</dc:format><dc:type
           rdf:resource="http://purl.org/dc/dcmitype/StillImage" /><dc:title></dc:title></cc:Work></rdf:RDF></metadata><defs
     id="defs6" /><sodipodi:namedview
     pagecolor="#ffffff"
     bordercolor="#666666"
     borderopacity="1"
     objecttolerance="10"
     gridtolerance="10"
     guidetolerance="10"
     inkscape:pageopacity="0"
     inkscape:pageshadow="2"
     inkscape:window-width="640"
     inkscape:window-height="480"
     id="namedview4"
     showgrid="false"
     inkscape:zoom="1.823289"
     inkscape:cx="97.900002"
     inkscape:cy="43.712502"
     inkscape:window-x="0"
     inkscape:window-y="23"
     inkscape:window-maximized="0"
     inkscape:current-layer="g10" /><g
     id="g10"
     inkscape:groupmode="layer"
     inkscape:label="ink_ext_XXXXXX"
     transform="matrix(1.25,0,0,-1.25,0,87.425)"><g
       id="g12"
       transform="scale(0.1,0.1)"><path
         d="m 103,181.781 1360.37,0 0,4.88672 -1360.37,0 0,-4.88672 z"
         style="fill:#100f0d;fill-opacity:1;fill-rule:nonzero;stroke:none"
         id="path14"
         inkscape:connector-curvature="0" /><path
         d="m 353.973,673.273 c 3.5,-3.925 10.238,-17.089 11.847,-21.855 l 61.496,-176.699 c 1.122,-2.637 1.403,-7.774 5.043,-7.774 2.821,0.02 3.368,5.938 4.348,8.184 l 32.297,88.672 31.516,-84.258 c 1.343,-3.359 3.16,-12.578 6.46,-12.598 2.723,0 3.708,4.356 5.114,8.575 l 60.886,174.218 c 5.118,14.004 11.043,28.848 20.743,30.528 3.777,0.546 5.66,1.953 5.66,1.953 0,2.519 -0.539,3.082 -4.043,3.082 -6.735,0 -10.778,-1.129 -17.512,-1.129 -7.269,0 -12.93,0.84 -19.125,0.84 -3.5,0 -3.23,-1.114 -3.23,-3.086 0,-2.227 6.73,-0.821 10.507,-9.219 2.153,-4.473 1.344,-14.004 -0.812,-19.59 l -51.719,-141.933 -22.09,62.968 -8.625,22.969 c 0,0 -1.339,-0.566 4.852,18.477 l 12.125,36.386 c 5.926,17.911 11.836,27.305 19.394,27.442 9.516,0.156 9.5,5.875 2.227,5.875 -7.273,0 -11.656,-0.563 -18.121,-0.563 -6.734,0 -10.234,0.563 -17.512,0.563 -2.687,0 -5.652,-0.836 -5.387,-3.082 0.274,-2.246 4.309,-1.407 7.274,-3.067 4.852,-2.539 8.082,-12.89 4.578,-23.808 l -14.277,-45.625 -16.16,42.539 c -3.235,8.125 -7.5,25.976 0.328,27.597 7.547,1.543 6.519,5.446 1.941,5.446 -8.887,0 -13.582,-1.129 -22.207,-1.129 -9.43,0 -16.43,1.129 -25.316,1.129 -1.891,0 -5.391,-0.289 -4.313,-3.922 0.535,-2.227 5.117,-1.406 7.813,-3.086 10.773,-6.992 12.929,-15.957 16.699,-26.035 l 23.707,-66.895 c 4.309,-12.031 4.582,-7.558 1.078,-17.929 l -20.742,-56.817 -50.918,145.84 c -4.039,10.938 -6.192,18.496 2.695,22.695 3.774,1.953 4.887,2.325 5.391,3.067 0.5,0.742 0.961,3.281 -4.578,3.082 -9.157,-0.332 -14.821,-1.129 -23.977,-1.129 -9.695,0 -16.43,1.129 -25.32,1.129 -2.965,0 -3.504,-1.403 -3.504,-3.629 0,-3.379 7.269,-1.133 13.469,-8.399"
         style="fill:#100f0d;fill-opacity:1;fill-rule:nonzero;stroke:none"
         id="path16"
         inkscape:connector-curvature="0" /><path
         d="m 1340.59,574.191 0,-78.925 c 0,-20.704 -13.92,-15.704 -17.08,-21.114 -1.61,-2.754 2.64,-3.398 6.12,-3.398 3.21,0 8.56,1.269 22.73,1.269 15.52,0 20.87,-1.269 25.41,-1.269 4.01,0 8.62,1.758 5.88,4.453 -4.3,4.219 -23.53,-0.645 -23.53,21.328 l 0,73.203 c -0.27,5.098 9.09,24.824 31.56,24.824 21.66,0 31.29,-23.867 31.29,-39.785 l 0,-59.511 c -0.26,-23.36 -8.33,-15.977 -11.5,-20.704 -1.78,-2.636 1.34,-3.808 4.81,-3.808 3.49,0 9.1,1.269 19.26,1.269 13.11,0 18.84,-1.211 22.32,-1.211 2.67,0 7.53,2.051 4.54,4.473 -6.75,5.43 -20.07,-2.851 -19.9,21.25 l 0,52.5 c 0,24.199 -7.76,59.531 -43.6,59.531 -25.94,0 -39.31,-24.609 -38.78,-20.8 l 0,18.261 c 0,3.184 -1.61,5.098 -3.21,5.098 -6.15,0 -10.73,-10.449 -31.65,-16.719 -1.34,-0.312 -5.18,-0.351 -5.32,-2.773 0,-6.68 21.01,8.691 20.65,-17.442"
         style="fill:#100f0d;fill-opacity:1;fill-rule:nonzero;stroke:none"
         id="path18"
         inkscape:connector-curvature="0" /><path
         d="m 622.309,504.328 c 0,-17.012 -17.266,-25.996 -26.891,-25.996 -14.176,0 -24.113,9.219 -24.113,27.5 0,28.242 33.883,33.379 51.004,37.871 l 0,-39.375 z m -65.786,54.863 c 2.586,-2.929 12.997,8.321 13.622,8.926 0.628,0.586 0.765,1.328 0.765,1.328 -0.062,13.399 10.016,30.469 24.465,31.895 16.504,1.64 24.75,-10.703 24.75,-27.402 l 0,-21.622 c -62.582,-12.5 -71.645,-33.32 -71.645,-50.312 0,-22.774 16.016,-32.969 33.399,-32.969 14.976,0 29.683,7.051 40.922,18.594 3.476,-10.586 10.437,-16.973 20.863,-16.66 3.617,0.097 4.16,-0.899 15.148,3.847 3.801,0.989 3.598,0.938 7.954,0.129 5.761,-2.015 13.632,-5.89 27.472,-5.89 20.969,-0.313 39.77,19.101 39.77,43.125 0,14.804 -4.313,24.199 -24.625,36.797 -5.254,2.519 -13.121,7.011 -17.004,9.14 -16.777,9.18 -23.399,15.195 -23.871,23.789 -0.778,14.883 11.855,22.598 22.808,21.524 26.2,0.449 29.711,-28.907 32.395,-28.907 4,0 2.937,3.848 2.937,12.5 0,2.247 0.27,13.145 -1.347,15.704 -3.207,4.824 -21.742,7.636 -26.278,7.636 -1.144,0 -5.437,0.137 -6.175,0.157 -1.27,0.039 -2.922,-0.157 -2.922,-0.157 -18.66,0.293 -36.11,-11.523 -35.559,-36.504 0.512,-22.773 27.281,-35.761 41.731,-44.414 10.687,-6.093 23.277,-11.894 23.113,-26.484 -0.203,-16.641 -13.102,-27.676 -26.977,-26.758 -32.511,0.547 -28.058,41.328 -33.922,41.328 -4.003,0 -3.187,-10.254 -3.207,-15.703 -0.019,-5.277 -0.113,-10.125 -0.117,-14.195 -0.656,-3.742 -2.148,-7.18 -5.621,-7.387 -12.805,-0.762 -9.719,19.59 -9.719,30.488 l 0,66.426 c -0.617,20.332 -15.925,33.594 -39.183,33.594 -31.934,0 -54.766,-39.336 -43.942,-51.563"
         style="fill:#100f0d;fill-opacity:1;fill-rule:nonzero;stroke:none"
         id="path20"
         inkscape:connector-curvature="0" /><path
         d="m 888.094,620.754 c 3.398,0 10.965,12.422 10.965,16.152 0,3.731 -7.567,16.465 -10.965,16.465 -3.129,0 -10.961,-13.047 -10.961,-16.465 0,-3.418 7.832,-16.152 10.961,-16.152"
         style="fill:#100f0d;fill-opacity:1;fill-rule:nonzero;stroke:none"
         id="path22"
         inkscape:connector-curvature="0" /><path
         d="m 1076.03,480.773 c 2.17,0.137 2.77,-0.781 27.25,-1.777 25.32,-0.586 34.43,-8.008 35.99,-14.531 2.74,-11.563 -5.49,-36.367 -41.83,-33.965 -22.87,1.484 -29.56,12.363 -31.33,14.883 -8.53,12.07 -1.5,34.707 9.92,35.39 z m 19.75,124.512 c 21.79,0 30.49,-22.344 30.49,-41.953 0,-19.941 -9.09,-35.371 -29.42,-35.371 -21.49,0 -28.66,20.742 -28.66,40.351 0,20.235 6.1,36.973 27.59,36.973 z m 169.82,-3.867 c 31.83,0 43.33,-33.965 43.33,-67.207 0,-40.02 -14.18,-55.918 -36.64,-55.918 -31.3,0 -43.6,38.809 -43.6,70.449 0,27.422 10.7,52.676 36.91,52.676 z M 976.23,475.227 c -4.304,4.218 -23.539,-0.645 -23.539,21.328 l 0,73.203 c -0.261,5.097 9.098,24.824 31.563,24.824 21.666,0 31.296,-23.867 31.296,-39.785 l 0,-59.512 c 0,-20.703 -8.33,-15.976 -11.5,-20.703 -1.78,-2.637 1.34,-3.809 4.81,-3.809 3.48,0 9.1,1.27 19.26,1.27 9.63,0 15.77,-0.684 19.75,-1.047 -2.95,-4.308 -5.01,-9.262 -5.3,-14.48 -1.43,-25.879 30.3,-35.157 56.93,-34.805 52.87,0.703 67.85,37.422 56.9,56.855 -11.29,20.079 -35.47,19.258 -58.66,19.18 -43.42,-0.156 -35.2,26.738 -17.52,25.742 4.07,-0.234 2.13,-1.386 16.21,-1.386 25.12,0 49.2,17.07 48.48,45.195 -0.05,2.383 0.54,10.586 -5.5,22.109 11.75,-0.051 7.08,0.043 24.89,0.02 l -0.06,-78.77 c 0,-35.586 16.93,-41.621 29.63,-41.621 18.03,0 31.13,11.871 33.47,17.418 10.6,-11.351 25.39,-17.418 42.54,-17.418 32.9,0 57.77,30.332 57.77,70.02 0,60.019 -37.71,71.953 -58.04,71.953 -33.7,0 -59.64,-33.887 -59.64,-73.574 0,-20.161 5.43,-36.25 14.67,-47.782 -3.2,-2.175 -9.5,-7.179 -22.21,-7.179 -11.04,0 -17.43,6.562 -17.98,20.722 l 0,86.27 c 0,0 33.06,0.097 34.91,0.097 2.28,0 6.71,14.922 6.87,15.684 0.38,1.875 1.02,3.379 1.23,4.727 0.44,2.851 -1.77,3.086 -3.78,0.078 -1.62,-1.543 -3.31,-5.664 -10.21,-5.664 l -28.97,0 c 0,24.883 0.29,36.172 -3.58,36.172 -3.71,0 -3.14,-1.016 -6.5,-12.09 -4.5,-14.883 -18.45,-22.992 -27.17,-27.715 -3.91,-0.887 -8.35,-1.207 -13.3,-0.117 -7.58,1.66 -16.54,10.859 -39.46,10.859 -24.57,0 -46.05,-20.078 -46.05,-47.012 0,-14.511 6.41,-28.476 17.73,-35.879 -2.1,-1.25 -15.8,-12.793 -14.14,-26.367 0,0 -0.27,-14.062 10.77,-18.808 -3.43,-1.368 -6.87,-3.657 -9.94,-6.543 -7.21,2.652 -17.78,0.644 -17.78,19.668 l 0,52.519 c 0,24.199 -7.76,59.512 -43.603,59.512 -25.942,0 -39.317,-24.609 -38.786,-20.781 l 0,18.242 c 0,3.183 -1.601,5.098 -3.207,5.098 -6.152,0 -7.484,-10.215 -30.007,-16.016 -1.34,-0.332 -4.352,-1.035 -4.489,-3.477 0,-6.679 18.067,7.305 18.184,-17.441 l 0,-78.926 c 0,-16.973 -13.469,-17.012 -15.856,-17.246 -0.953,0 -2.011,-0.043 -3.187,-0.059 -5.691,0.547 -15.586,3.063 -15.586,13.77 l 0,114.277 c 0,3.184 -1.605,5.078 -3.215,5.078 -6.152,0 -10.105,-11.191 -27.226,-16.914 -1.336,-0.312 -3.797,-0.586 -3.797,-2.5 0,-6.679 15.355,6.289 14.711,-17.5 l 0,-75.117 c 0.554,-18.355 -8.946,-20.824 -14.844,-21.012 -7.129,0.86 -12.567,3.758 -12.567,14.645 l 0,53.145 c 0,27.382 -10.429,62.714 -44.664,62.714 -15.25,0 -28.355,-8.398 -38.515,-19.843 l 0,91.484 c 0,3.184 -1.614,5 -3.207,5.094 -4.117,0.258 -11.028,-12.321 -30.551,-16.774 -1.34,-0.312 -6.363,-0.722 -6.363,-2.636 0,-6.68 20.257,3.164 20.593,-17.5 l 0,-155.996 c 0,-15.606 -13.359,-13.477 -15.781,-18.457 -0.414,-2.168 0.801,-3.184 2.676,-3.184 4.277,0 16.047,1.25 24.336,1.25 8.297,0 21.672,-1.25 27.285,-1.25 3.215,0 4.547,0.625 4.547,4.453 -2.793,5.43 -23.535,-2.871 -23.535,24.512 l 0,67.148 c 0,16.231 19.258,28.653 31.293,28.653 9.359,0 32.363,-7.325 32.363,-46.797 l 0,-58.243 c 0,-11.464 -12.172,-12.656 -13.105,-16.25 0,-2.539 1.601,-3.476 4.277,-3.476 2.945,0 11.5,1.25 21.934,1.25 5.832,0 11.097,-0.301 15.535,-0.563 2.414,-0.461 5.867,-0.531 10.164,-0.55 2.937,0 10.265,1.113 18.828,1.113 8.453,0 15.277,-0.731 20.551,-1.07 1.019,-0.063 2.054,-0.102 3.113,-0.129 0.383,-0.012 0.848,-0.051 1.207,-0.051 0.023,0 0.043,0.016 0.062,0.016 3.27,-0.051 6.301,0.003 7.555,0.003 3.211,0 8.563,1.27 22.735,1.27 15.511,0 20.859,-1.27 25.41,-1.27 4.007,0 8.625,1.778 5.882,4.454"
         style="fill:#100f0d;fill-opacity:1;fill-rule:nonzero;stroke:none"
         id="path24"
         inkscape:connector-curvature="0" /><path
         d="m 826.125,377.188 c 0,2.632 -5.348,11.617 -7.742,11.617 -2.207,0 -7.731,-9.203 -7.731,-11.617 0,-2.411 5.524,-11.395 7.731,-11.395 2.394,0 7.742,8.766 7.742,11.395"
         style="fill:#100f0d;fill-opacity:1;fill-rule:nonzero;stroke:none"
         id="path26"
         inkscape:connector-curvature="0" /><path
         d="m 919.066,278.156 0,37.039 c 0,17.075 -5.484,42 -30.769,42 -18.297,0 -27.738,-17.363 -27.352,-14.675 l 0,12.882 c 0,2.246 -1.144,3.598 -2.273,3.598 -4.34,0 -7.567,-7.371 -22.324,-11.797 -0.95,-0.219 -3.653,-0.246 -3.746,-1.953 0,-4.715 14.812,6.129 14.566,-12.309 l 0,-55.679 c 0,-10.457 -5.106,-11.258 -8.84,-12.266 -0.238,-0.004 -0.418,0.039 -0.711,-0.012 -3.789,0.223 -11.863,1.696 -11.863,9.797 l 0,80.621 c 0,2.246 -1.129,3.582 -2.262,3.582 -4.34,0 -7.137,-7.894 -19.207,-11.929 -0.949,-0.223 -2.687,-0.414 -2.687,-1.766 0,-4.711 10.832,4.438 10.375,-12.348 l 0,-52.992 c 0.414,-13.558 -6.985,-14.855 -11.063,-14.855 -6.117,0.086 -4.601,-0.688 -4.601,-2.59 0.191,-2.246 3.871,-2.41 9.933,-2.438 2.082,0 7.246,0.786 13.281,0.786 7.747,0 13.586,-0.883 17.555,-0.883 2.274,0 8.395,0.894 18.383,0.894 10.953,0 14.73,-0.894 17.926,-0.894 2.84,0 6.09,1.242 4.164,3.14 -3.047,2.977 -16.606,-0.453 -16.606,15.047 l 0,51.645 c -0.191,3.597 6.407,17.515 22.266,17.515 15.281,0 22.074,-16.839 22.074,-28.07 l 0,-41.984 c -0.191,-16.481 -5.883,-11.27 -8.113,-14.606 -1.254,-1.859 0.933,-2.687 3.387,-2.687 2.468,0 6.421,0.894 13.589,0.894 9.243,0 13.293,-0.851 15.747,-0.851 1.89,0 5.32,1.445 3.21,3.156 -4.765,3.828 -14.164,-2.016 -14.039,14.988"
         style="fill:#100f0d;fill-opacity:1;fill-rule:nonzero;stroke:none"
         id="path28"
         inkscape:connector-curvature="0" /><path
         d="m 1104.01,282.25 c -2.23,0 -7.83,-9.398 -7.83,-11.863 0,-2.453 5.6,-11.629 7.83,-11.629 2.43,0 7.84,8.941 7.84,11.629 0,2.687 -5.41,11.863 -7.84,11.863"
         style="fill:#100f0d;fill-opacity:1;fill-rule:nonzero;stroke:none"
         id="path30"
         inkscape:connector-curvature="0" /><path
         d="m 1349.61,274.121 0,78.914 c 0,4.461 -2.5,5.633 -3.2,5.633 -2.85,0 -4.45,-0.699 -6.41,-1.172 -1.95,-0.699 -4.24,-1.723 -9.4,-1.723 -0.89,0 -5.81,0.829 -5.51,-1.8 0.31,-2.649 11.45,-1.133 11.54,-8.946 l 0,-57.086 c -0.87,-9.961 -9.25,-20.957 -19.38,-20.957 -2.31,0 -17.43,1.637 -17.25,26.567 l 0,59.484 c 0,4.461 -2.49,5.633 -3.2,5.633 -2.85,0 -4.45,-0.699 -6.4,-1.172 -1.96,-0.699 -4.45,-1.609 -9.61,-1.418 -2.75,0.11 -5.8,0.524 -5.32,-2.105 0.44,-2.344 11.55,0 11.55,-8.946 l 0,-54.773 c 0,-19.992 11.73,-31.496 25.96,-31.496 9.43,0 18.13,2.051 23.65,13.101 l 0.35,0 0,-9.589 c 0,-0.938 0.18,-3.512 1.6,-3.512 2.66,0 4.1,2.219 6.05,2.922 2.14,0.48 2.67,2.422 9.32,3.015 2.82,0.25 5.99,1.75 5.99,3.637 -1.02,3.996 -10.33,-0.316 -10.33,5.789"
         style="fill:#100f0d;fill-opacity:1;fill-rule:nonzero;stroke:none"
         id="path32"
         inkscape:connector-curvature="0" /><path
         d="m 1240.09,265.289 c -22.07,0 -30.76,27.379 -30.76,49.699 0,19.348 7.55,37.164 26.05,37.164 22.44,0 30.56,-23.961 30.56,-47.414 0,-28.234 -10,-39.449 -25.85,-39.449 z m -1.89,93.629 c -23.77,0 -42.08,-23.906 -42.08,-51.906 0,-12.629 3.12,-22.883 8.36,-30.754 -5.78,-4.176 -16.24,-8.106 -36.25,-8.106 -15.54,0 -14.07,5.364 -14.07,18.536 l 0,105.312 c 0,19.43 14.53,13.766 14.83,17.309 0.2,2.453 -2.03,1.902 -4.44,1.902 -2.78,0 -7.77,-1.09 -18.31,-1.09 -9.08,0 -17.06,0.856 -20.95,0.856 -2.41,0 -4.58,-0.676 -3.77,-2.524 1.8,-4.148 15.56,-0.387 15.56,-11.988 l 0,-110 c 0,-10.5 1.58,-17.207 -3.24,-19.895 -5.91,-3.57 -12.83,-3.75 -12.25,-6.062 0.37,-1.449 3.26,-1.516 4.93,-1.516 7.4,0 17.65,0.906 25.05,1.129 14.08,0.441 28.14,-0.894 42.22,-0.894 8.16,0 10.2,1.652 16.12,9.683 0.14,0.184 0.24,0.32 0.37,0.496 7.32,-6.851 16.95,-10.648 28.11,-10.648 23.21,0 40.76,21.398 40.76,49.398 0,42.34 -26.6,50.762 -40.95,50.762"
         style="fill:#100f0d;fill-opacity:1;fill-rule:nonzero;stroke:none"
         id="path34"
         inkscape:connector-curvature="0" /><path
         d="m 1006.67,341.723 c -5.41,2.711 -13.486,7.578 -17.455,9.863 -17.266,9.922 -24.07,16.41 -24.555,25.684 -0.812,16.082 14.883,25.601 26.125,24.429 14.265,0 26.045,-8.652 30.905,-27.183 0.5,-1.946 2.29,-6.477 4.08,-6.477 1.61,0 1.93,1.516 1.77,3.238 l -2.43,29.309 c -0.16,2.367 -0.96,3.016 -1.94,3.016 -1.61,0 -2.61,-2.368 -4.07,-2.368 -2.27,0 -8.03,8.145 -27.651,7.961 -1.308,0.043 -3.101,-0.164 -3.101,-0.164 -19.168,0.332 -37.149,-12.398 -36.571,-39.379 0.512,-24.57 28.055,-38.609 42.895,-47.953 10.998,-6.57 22.498,-17.086 22.148,-28.758 -0.57,-17.964 -11.84,-29.734 -26.101,-28.726 -33.43,0.59 -28.84,44.629 -34.875,44.629 -4.121,0 -3.282,-11.078 -3.309,-16.949 -0.027,-13.957 -0.578,-25.395 1.02,-27.418 0.511,-0.649 2.125,-0.344 5.375,-0.344 6.586,0 14.621,-7.649 33.855,-7.649 21.535,-0.343 39.205,19.578 39.205,45.528 0,15.968 -4.45,26.125 -25.32,39.711"
         style="fill:#100f0d;fill-opacity:1;fill-rule:nonzero;stroke:none"
         id="path36"
         inkscape:connector-curvature="0" /><path
         d="m 1375.52,377.188 c 0,-2.411 5.53,-11.395 7.75,-11.395 2.4,0 7.73,8.766 7.73,11.395 0,2.632 -5.33,11.617 -7.73,11.617 -2.22,0 -7.75,-9.203 -7.75,-11.617"
         style="fill:#100f0d;fill-opacity:1;fill-rule:nonzero;stroke:none"
         id="path38"
         inkscape:connector-curvature="0" /><path
         d="m 1402.49,264.984 c -3.77,0.223 -11.85,1.696 -11.85,9.797 l 0,80.621 c 0,2.246 -1.14,3.582 -2.27,3.582 -4.34,0 -7.13,-7.894 -19.21,-11.929 -0.94,-0.223 -2.67,-0.414 -2.67,-1.766 0,-4.711 10.83,4.438 10.37,-12.348 l 0,-52.992 c 0.42,-13.558 -6.98,-14.855 -11.08,-14.855 -6.11,0.086 -4.59,-0.688 -4.59,-2.59 0.18,-2.246 3.88,-2.41 9.94,-2.438 2.07,0 7.23,0.786 13.28,0.786 7.73,0 13.59,-0.883 17.54,-0.883 2.46,0 5.52,5.855 0.54,5.015"
         style="fill:#100f0d;fill-opacity:1;fill-rule:nonzero;stroke:none"
         id="path40"
         inkscape:connector-curvature="0" /><path
         d="m 1446.01,315.184 c -3.71,1.777 -9.26,4.961 -12.01,6.449 -11.83,6.488 -16.5,10.73 -16.83,16.797 -0.56,10.496 8.36,15.925 16.09,15.168 18.48,0.332 20.96,-20.379 22.85,-20.379 2.82,0 2.08,2.715 2.08,8.82 0,1.582 0.18,9.273 -0.95,11.078 -2.28,3.391 -15.35,5.387 -18.55,5.387 -0.8,0 -3.83,0.082 -4.36,0.098 -0.89,0.027 -2.06,-0.098 -2.06,-0.098 -13.16,0.207 -25.47,-8.129 -25.08,-25.766 0.36,-16.054 19.25,-25.218 29.43,-31.336 7.55,-4.285 16.43,-8.379 16.32,-18.672 -0.15,-11.738 -9.25,-19.523 -19.03,-18.875 -22.94,0.383 -19.8,29.157 -23.94,29.157 -2.82,0 -2.24,-7.235 -2.26,-11.078 -0.04,-9.094 -0.41,-16.579 0.69,-17.914 0.35,-0.415 1.45,-0.208 3.68,-0.208 4.52,0 10.05,-5 23.23,-5 14.8,-0.218 28.06,13.477 28.06,30.422 0,10.434 -3.03,17.075 -17.36,25.95"
         style="fill:#100f0d;fill-opacity:1;fill-rule:nonzero;stroke:none"
         id="path42"
         inkscape:connector-curvature="0" /><path
         d="m 1091,273.844 c -1.9,-0.91 -6.23,-5.61 -16.55,-5.61 -7.78,0 -12.29,4.633 -12.67,14.621 l 0,64.254 c 0,0 23.31,0.055 24.61,0.055 1.61,0 4.74,10.527 4.85,11.063 0.27,1.324 0.71,2.398 0.87,3.335 0.3,2.012 -1.26,2.192 -2.66,0.071 -1.15,-1.09 -2.35,-3.996 -7.2,-3.996 l -20.44,0 c 0,17.539 0.2,22.129 -2.53,22.129 -2.61,0 -2.22,-0.704 -4.59,-8.532 -3.95,-13.058 -18.32,-18.793 -22.91,-21.632 -1.12,-0.551 -1.06,-0.758 -1.1,-1.418 -0.1,-1.668 5.45,-0.981 16.88,-1.282 l -0.04,-58.781 c 0,-25.105 11.94,-29.363 20.9,-29.363 13.63,0 23.37,9.699 23.93,13.117 0,1.957 -0.24,2.137 -1.35,1.969"
         style="fill:#100f0d;fill-opacity:1;fill-rule:nonzero;stroke:none"
         id="path44"
         inkscape:connector-curvature="0" /><path
         d="m 461.535,353.297 c 10.391,0 20.973,-11.344 20.973,-24.031 0,-3.407 -1.129,-4.536 -3.774,-4.536 l -37.23,0 c 0,12.469 8.305,28.567 20.031,28.567 z m 37.039,-71.418 c -4.148,0 -10.386,-11.797 -26.648,-11.797 -11.531,0 -30.422,11.121 -30.422,48.531 l 50.277,0 c 4.34,0 6.422,-0.234 6.422,3.844 0,9.066 -10.211,36.047 -33.457,36.047 -23.629,0 -37.051,-24.25 -37.051,-53.27 0,-14.964 9.836,-46.476 38.184,-46.476 17.016,0 33.453,16.312 33.453,21.535 0,0.676 0,1.586 -0.758,1.586"
         style="fill:#100f0d;fill-opacity:1;fill-rule:nonzero;stroke:none"
         id="path46"
         inkscape:connector-curvature="0" /><path
         d="m 227.98,408.508 c -3.003,0 -9.945,-0.758 -13.117,-0.758 -6.508,0 -11.922,0.621 -18.429,0.621 -0.5,0 -3.332,-0.359 -3.344,-1.324 -0.047,-4.617 15.515,0.773 15.515,-18.906 l 0,-77.051 c 0,-22.778 -7.171,-46.699 -38.535,-46.699 -22.515,0 -34.711,14.082 -34.711,44.964 l 0,83.801 c 0,13.891 10.875,10.903 11.11,14.004 0.219,2.973 -9.633,1.211 -10.469,1.211 -5.168,0 -8.812,-0.535 -14.152,-0.535 -4.504,0 -9.961,0.672 -14.301,0.672 -0.828,0 -3.906,0.168 -4.418,-1.074 -1.695,-4.122 13.898,-1.93 13.898,-13.313 l 0,-79.559 c 0,-29.722 8.348,-58.808 52.211,-58.078 52.024,0.868 51.043,47.649 51.043,57.102 l 0,74.363 c 0,17.746 8.692,16.067 10.352,18.809 0.734,1.215 -1.817,1.75 -2.653,1.75"
         style="fill:#100f0d;fill-opacity:1;fill-rule:nonzero;stroke:none"
         id="path48"
         inkscape:connector-curvature="0" /><path
         d="m 436.059,353.93 c 1.265,1.472 1.652,3.871 -4.188,3.363 -3.211,0 -5.637,-0.566 -8.859,-0.566 -4.149,0 -4.934,0.136 -8.903,0.289 -4.949,0.164 -6.297,-0.371 -6.007,-1.86 0.851,-4.41 11.269,-0.097 9.863,-13.105 -1.195,-10.926 -4.727,-20.324 -8.32,-29.653 l -12.665,-33.632 -18.519,56.05 c -2.273,7 -3.211,10.75 -3.211,11.438 0,7.016 8.477,5.402 10.348,8.351 1.199,1.872 -1.282,2.864 -3.926,2.864 -2.262,0 -4.863,-0.785 -11.852,-0.949 -5.8,-0.153 -9.906,-0.11 -12.441,0.343 -6.52,1.188 -5.992,-2.41 -3.719,-3.554 2.231,-1.129 3.32,-0.082 6.652,-9.852 l 28.54,-80.578 c 0.578,-1.629 1.324,-5.598 3.789,-5.598 2.839,0 2.839,2.797 6.421,12.375 0,0 27.282,76.309 29.157,79.078 3.691,5.43 6.488,3.637 7.84,5.196"
         style="fill:#100f0d;fill-opacity:1;fill-rule:nonzero;stroke:none"
         id="path50"
         inkscape:connector-curvature="0" /><path
         d="m 541.402,357.594 c -7.73,0 -13.132,-9.328 -17.004,-15.762 l -0.359,0 0,13.984 c 0,2.219 -1.101,3.555 -2.203,3.555 -2.965,0 -5.238,-5.953 -20.918,-9.656 -0.926,-0.223 -3.543,-0.731 -3.543,-2.07 0,-4.668 13.258,1.406 13.242,-14.028 l 0,-58.781 c 0,-9.094 -9.383,-8.211 -9.383,-12.883 0,-1.32 0.551,-1.984 2.028,-1.984 1.281,0 4.601,0.883 16.906,0.883 10.305,0 14.715,-0.883 17.293,-0.883 2.012,0 2.934,0.441 2.934,2.437 0,7.114 -16.356,-3.554 -16.356,17.086 l 0,50.129 c 0,2.883 4.41,13.094 11.945,13.094 6.618,0 7.442,-5.102 10.926,-5.102 2.207,0 6.617,6.657 6.617,9.992 0,4.204 -8.269,9.989 -12.125,9.989"
         style="fill:#100f0d;fill-opacity:1;fill-rule:nonzero;stroke:none"
         id="path52"
         inkscape:connector-curvature="0" /><path
         d="m 743.766,259.473 -0.465,-1.387 -0.113,-0.348 0.578,1.735"
         style="fill:#100f0d;fill-opacity:1;fill-rule:nonzero;stroke:none"
         id="path54"
         inkscape:connector-curvature="0" /><path
         d="m 778.574,356.863 c -1.972,0 -7.015,-0.301 -11.547,-0.301 -5.527,0 -8.242,0.661 -10.597,0.661 -3.555,0 -6.973,-0.028 -6.368,-2.344 0.692,-2.617 12.626,-1.68 12.626,-14.676 0,-1.664 0,-3.844 -2.372,-12.48 l -15.183,-48.325 -21.098,59.375 c 0,0 -0.992,1.915 -0.992,5.774 0,9.601 11.23,8.555 11.672,10.265 0.355,1.403 -1.531,2.864 -4.492,2.864 -3.157,0 -7.801,-0.028 -14.785,-0.028 -1.168,0 -2.067,-0.019 -3.118,-0.027 0.004,0.016 0.012,0.043 0.016,0.055 l -8.516,0 c -0.125,0 -0.191,-0.055 -0.332,-0.055 l -20.433,0 c 0,17.555 0.191,22.145 -2.535,22.145 -2.618,0 -2.219,-0.715 -4.59,-8.532 -3.942,-13.058 -18.325,-18.793 -22.914,-21.632 -1.114,-0.551 -1.059,-0.758 -1.102,-1.434 -0.098,-1.652 5.473,-0.977 16.895,-1.266 l -0.055,-58.781 c 0,-25.105 11.945,-29.363 20.902,-29.363 13.641,0 23.383,9.683 23.949,13.117 0,1.941 -0.25,2.137 -1.351,1.969 -1.902,-0.922 -6.231,-5.61 -16.563,-5.61 -7.785,0 -12.293,4.633 -12.675,14.621 l 0,64.239 c 0,0 18.269,0.054 23.328,0.066 0.277,-0.437 0.551,-0.887 0.73,-1.418 l 21.797,-61.562 c 1.777,-5.043 2.824,-6.684 4.961,-15.598 1.406,-5.816 0.883,-10.996 0.883,-10.996 -2.11,-9.262 -7.801,-14.566 -16.469,-31.637 -0.84,-1.652 12.512,0.164 13.176,0.371 1.074,0.332 0.949,0.633 2.246,3.059 l 9.633,28.707 26.879,82.602 c 3.941,14.425 10.183,11.796 11.136,13.765 0.563,1.211 -0.375,2.41 -2.742,2.41"
         style="fill:#100f0d;fill-opacity:1;fill-rule:nonzero;stroke:none"
         id="path56"
         inkscape:connector-curvature="0" /><path
         d="m 636.297,388.805 c -2.219,0 -7.742,-9.203 -7.742,-11.617 0,-2.411 5.523,-11.395 7.742,-11.395 2.398,0 7.73,8.766 7.73,11.395 0,2.632 -5.332,11.617 -7.73,11.617"
         style="fill:#100f0d;fill-opacity:1;fill-rule:nonzero;stroke:none"
         id="path58"
         inkscape:connector-curvature="0" /><path
         d="m 655.52,264.984 c -3.774,0.223 -11.848,1.696 -11.848,9.797 l 0,80.621 c 0,2.246 -1.145,3.582 -2.274,3.582 -4.343,0 -7.125,-7.894 -19.21,-11.929 -0.938,-0.223 -2.672,-0.414 -2.672,-1.766 0,-4.711 10.832,4.438 10.375,-12.348 l 0,-52.992 c 0.414,-13.558 -6.985,-14.855 -11.079,-14.855 -6.117,0.086 -4.589,-0.688 -4.589,-2.59 0.179,-2.246 3.875,-2.41 9.937,-2.438 2.067,0 7.235,0.786 13.281,0.786 7.731,0 13.586,-0.883 17.543,-0.883 2.45,0 5.508,5.855 0.536,5.015"
         style="fill:#100f0d;fill-opacity:1;fill-rule:nonzero;stroke:none"
         id="path60"
         inkscape:connector-curvature="0" /><path
         d="m 337.945,365.793 c 2.399,0 7.75,8.766 7.75,11.395 0,2.632 -5.351,11.617 -7.75,11.617 -2.203,0 -7.726,-9.203 -7.726,-11.617 0,-2.411 5.523,-11.395 7.726,-11.395"
         style="fill:#100f0d;fill-opacity:1;fill-rule:nonzero;stroke:none"
         id="path62"
         inkscape:connector-curvature="0" /><path
         d="m 357.188,264.984 c -3.79,0.223 -11.868,1.696 -11.868,9.797 l 0,80.621 c 0,2.246 -1.129,3.582 -2.261,3.582 -4.34,0 -7.137,-7.894 -19.207,-11.929 -0.954,-0.223 -2.688,-0.414 -2.688,-1.766 0,-4.711 10.828,4.438 10.375,-12.348 l 0,-52.992 c 0.414,-13.558 -6.984,-14.855 -11.062,-14.855 -0.512,0.008 -0.891,0 -1.301,-0.004 -3.957,0.703 -7.68,2.32 -7.602,13.066 l 0,37.039 c 0,17.075 -5.484,42 -30.758,42 -18.308,0 -27.738,-17.363 -27.359,-14.675 l 0,12.882 c 0,2.246 -1.137,3.598 -2.266,3.598 -4.343,0 -7.574,-7.371 -22.336,-11.797 -0.941,-0.219 -3.648,-0.246 -3.746,-1.953 0,-4.715 14.825,6.129 14.567,-12.309 l 0,-55.679 c 0,-14.606 -9.821,-11.078 -12.047,-14.895 -1.141,-1.941 1.859,-2.398 4.312,-2.398 2.266,0 6.039,0.894 16.039,0.894 10.946,0 14.723,-0.894 17.926,-0.894 2.832,0 6.082,1.242 4.153,3.14 -3.036,2.977 -16.602,-0.453 -16.602,15.047 l 0,51.645 c -0.195,3.597 6.406,17.515 22.266,17.515 15.281,0 22.074,-16.839 22.074,-28.07 l 0,-41.984 c -0.195,-16.481 -5.887,-11.27 -8.117,-14.606 -1.254,-1.859 0.933,-2.687 3.386,-2.687 2.469,0 6.422,0.894 13.586,0.894 9.246,0 13.297,-0.851 15.75,-0.851 0.2,0 0.45,0.074 0.672,0.105 0.875,-0.019 1.719,-0.047 2.735,-0.051 2.078,0 7.246,0.786 13.281,0.786 7.75,0 13.59,-0.883 17.558,-0.883 2.454,0 5.512,5.855 0.54,5.015"
         style="fill:#100f0d;fill-opacity:1;fill-rule:nonzero;stroke:none"
         id="path64"
         inkscape:connector-curvature="0" /><path
         d="m 595.582,315.238 c -3.707,1.778 -9.262,4.961 -12.004,6.45 -11.836,6.488 -16.508,10.734 -16.836,16.781 -0.551,10.515 8.363,15.941 16.094,15.183 18.476,0.332 20.957,-20.379 22.844,-20.379 2.828,0 2.082,2.715 2.082,8.821 0,1.586 0.191,9.273 -0.953,11.078 -2.258,3.39 -15.332,5.375 -18.543,5.375 -0.801,0 -3.832,0.094 -4.356,0.109 -0.894,0.028 -2.055,-0.109 -2.055,-0.109 -13.171,0.219 -25.476,-8.117 -25.089,-25.754 0.355,-16.055 19.25,-25.219 29.445,-31.336 7.539,-4.285 16.41,-8.379 16.301,-18.672 -0.137,-11.75 -9.246,-19.535 -19.028,-18.89 -22.945,0.386 -19.8,29.171 -23.937,29.171 -2.824,0 -2.246,-7.234 -2.258,-11.078 -0.027,-9.109 -0.398,-16.59 0.688,-17.926 0.343,-0.414 1.461,-0.207 3.679,-0.207 4.52,0 10.047,-5.003 23.246,-5.003 14.786,-0.219 28.055,13.476 28.055,30.441 0,10.43 -3.047,17.07 -17.375,25.945"
         style="fill:#100f0d;fill-opacity:1;fill-rule:nonzero;stroke:none"
         id="path66"
         inkscape:connector-curvature="0" /><path
         d="m 211.008,686.859 -0.008,0 c -0.008,0 -0.008,0 -0.008,0 l 0,0 c -0.922,-0.007 -45.5,-0.425 -107.992,12.516 l 0,-180.18 c 0.039,-2.843 0.07,-4.855 0.074,-4.886 l 0,-0.149 0.008,-0.148 c 0.406,-8.367 2.898,-15.032 7.867,-20.715 3.274,-3.524 7.84,-7.203 14.203,-10.754 1.754,-0.965 3.645,-1.926 5.684,-2.906 1.543,-0.723 3.172,-1.438 4.887,-2.141 l 0.007,0 c 1.352,-0.555 5.696,-2.488 7.149,-3.023 L 211,448.688 l 0,0 68.121,25.785 c 1.453,0.535 5.797,2.468 7.145,3.023 l 0.007,0 0,0 c 1.719,0.703 3.344,1.418 4.891,2.141 2.039,0.98 3.93,1.941 5.68,2.906 6.367,3.551 10.933,7.23 14.207,10.754 4.969,5.683 7.461,12.348 7.867,20.715 l 0.008,0.148 0,0.149 c 0,0.031 0.035,2.043 0.074,4.886 l 0,180.18 C 256.508,686.434 211.926,686.852 211.008,686.859"
         style="fill:#25715e;fill-opacity:1;fill-rule:nonzero;stroke:none"
         id="path68"
         inkscape:connector-curvature="0" /><path
         d="m 211.008,676.152 0,0.004 -0.008,0 c -0.004,0 -0.008,0 -0.008,0 l 0,-0.004 c -0.84,-0.007 -41.597,-0.386 -98.73,11.446 l 0,-46.075 c 57.133,-11.828 97.89,-11.449 98.73,-11.441 l 0,0 c 0,0 0.004,0 0.008,0 l 0.008,0 0,0 c 0.84,-0.008 41.597,-0.387 98.73,11.441 l 0,46.075 c -57.133,-11.832 -97.89,-11.453 -98.73,-11.446"
         style="fill:#e0bfa2;fill-opacity:1;fill-rule:nonzero;stroke:none"
         id="path70"
         inkscape:connector-curvature="0" /><path
         d="m 211.008,630.082 -0.008,0 c -0.004,0 -0.008,0 -0.008,0 l 0,0 c -0.84,-0.008 -41.597,-0.387 -98.73,11.441 l 0,-102.293 c 57.133,-11.832 97.89,-11.453 98.73,-11.445 l 0,0 c 0,0 0.004,0 0.008,0 l 0.008,0 0,0 c 0.84,-0.008 41.597,-0.387 98.73,11.445 l 0,102.293 c -57.133,-11.828 -97.89,-11.449 -98.73,-11.441"
         style="fill:#a31c21;fill-opacity:1;fill-rule:nonzero;stroke:none"
         id="path72"
         inkscape:connector-curvature="0" /><path
         d="m 112.328,518.262 0.008,-0.137 c 0.371,-7.648 2.648,-13.738 7.191,-18.937 2.993,-3.219 7.168,-6.583 12.989,-9.833 1.601,-0.878 3.328,-1.757 5.195,-2.656 1.41,-0.66 2.898,-1.312 4.469,-1.953 l 0,-0.004 0.008,0 c 1.234,-0.508 5.203,-2.273 6.531,-2.765 L 211,458.406 l 0,0 62.277,23.571 c 1.332,0.492 5.301,2.257 6.535,2.765 l 0.008,0 0,0.004 c 1.571,0.641 3.059,1.293 4.469,1.953 1.867,0.899 3.594,1.778 5.195,2.656 5.821,3.25 9.996,6.614 12.985,9.833 4.547,5.199 6.824,11.289 7.195,18.937 l 0.008,0.137 0,0.136 c 0,0.032 0.031,1.868 0.066,4.469 l 0,16.363 c -57.133,-11.832 -97.89,-11.453 -98.73,-11.445 l -0.008,0 c -0.004,0 -0.008,0 -0.008,0 l 0,0 c -0.84,-0.008 -41.597,-0.387 -98.73,11.445 l 0,-16.363 c 0.035,-2.601 0.062,-4.437 0.066,-4.469 l 0,-0.136"
         style="fill:#e0bfa2;fill-opacity:1;fill-rule:nonzero;stroke:none"
         id="path74"
         inkscape:connector-curvature="0" /><path
         d="m 147.09,676.785 4.648,-13.844 14.574,-0.129 -11.703,-8.679 4.375,-13.93 -11.894,8.465 -11.887,-8.465 4.371,13.93 -11.711,8.679 14.582,0.129 4.645,13.844"
         style="fill:#25715e;fill-opacity:1;fill-rule:evenodd;stroke:none"
         id="path76"
         inkscape:connector-curvature="0" /><path
         d="m 274.91,676.785 4.649,-13.844 14.574,-0.129 -11.699,-8.679 4.371,-13.93 -11.895,8.465 -11.883,-8.465 4.371,13.93 -11.714,8.679 14.586,0.129 4.64,13.844"
         style="fill:#25715e;fill-opacity:1;fill-rule:evenodd;stroke:none"
         id="path78"
         inkscape:connector-curvature="0" /><path
         d="m 211,671.402 4.652,-13.847 14.575,-0.129 -11.704,-8.68 4.372,-13.93 -11.895,8.465 -11.883,-8.465 4.371,13.93 -11.715,8.68 14.586,0.129 4.641,13.847"
         style="fill:#25715e;fill-opacity:1;fill-rule:evenodd;stroke:none"
         id="path80"
         inkscape:connector-curvature="0" /><path
         d="m 211,524.109 -5.113,-5.113 0,-13.859 2.629,-7.309 0,-12.375 4.968,0 0,12.375 2.629,7.309 0,13.859 -5.113,5.113"
         style="fill:#25715e;fill-opacity:1;fill-rule:nonzero;stroke:none"
         id="path82"
         inkscape:connector-curvature="0" /><path
         d="m 213.484,474.305 0,7.414 -4.968,0 0,-7.414 -2.629,-4.821 5.113,-6.324 5.113,6.324 -2.629,4.821"
         style="fill:#25715e;fill-opacity:1;fill-rule:nonzero;stroke:none"
         id="path84"
         inkscape:connector-curvature="0" /><path
         d="m 217.195,481.719 0,-5.699 3.321,-3.586 5.757,4.621 0,4.664 -9.078,0"
         style="fill:#25715e;fill-opacity:1;fill-rule:nonzero;stroke:none"
         id="path86"
         inkscape:connector-curvature="0" /><path
         d="m 223.363,504.609 -6.168,-6.789 0,-12.367 4.965,0 0,7.356 4.856,5.253 0.004,-0.003 6.136,-3.989 3.961,3.992 0,6.547 -13.754,0"
         style="fill:#25715e;fill-opacity:1;fill-rule:nonzero;stroke:none"
         id="path88"
         inkscape:connector-curvature="0" /><path
         d="m 204.805,481.719 0,-5.699 -3.321,-3.586 -5.761,4.621 0,4.664 9.082,0"
         style="fill:#25715e;fill-opacity:1;fill-rule:nonzero;stroke:none"
         id="path90"
         inkscape:connector-curvature="0" /><path
         d="m 198.637,504.609 6.168,-6.789 0,-12.367 -4.965,0 0,7.356 -4.856,5.253 -0.004,-0.003 -6.136,-3.989 -3.961,3.992 0,6.547 13.754,0"
         style="fill:#25715e;fill-opacity:1;fill-rule:nonzero;stroke:none"
         id="path92"
         inkscape:connector-curvature="0" /><path
         d="m 258.055,613.848 0,-58.68 -39.45,0 -2.75,-2.383 -4.855,-4.207 -4.855,4.207 -2.75,2.383 -39.454,0 0,58.68 -8.347,-6.121 0,-60.868 46.465,0 4.086,-3.535 4.855,-4.207 4.855,4.207 4.086,3.535 46.461,0 0,60.868 -8.347,6.121"
         style="fill:#e0bfa2;fill-opacity:1;fill-rule:nonzero;stroke:none"
         id="path94"
         inkscape:connector-curvature="0" /><path
         d="m 217.324,618.746 -1.469,-1.273 -4.855,-4.207 -4.855,4.207 -1.469,1.273 -32.387,0 0,-55.285 32.453,0 2.266,-1.961 3.992,-3.457 3.992,3.457 2.266,1.961 32.453,0 0,55.285 -32.387,0"
         style="fill:#e0bfa2;fill-opacity:1;fill-rule:nonzero;stroke:none"
         id="path96"
         inkscape:connector-curvature="0" /><path
         d="m 274.91,601.559 0,-37.457 c 10.668,1.55 22.36,3.55 34.828,6.132 l 0,37.454 c -12.468,-2.583 -24.16,-4.583 -34.828,-6.129"
         style="fill:#e0bfa2;fill-opacity:1;fill-rule:nonzero;stroke:none"
         id="path98"
         inkscape:connector-curvature="0" /><path
         d="m 147.086,601.559 c -10.664,1.546 -22.356,3.546 -34.824,6.129 l 0,-37.454 c 12.468,-2.582 24.16,-4.582 34.824,-6.132 l 0,37.457"
         style="fill:#e0bfa2;fill-opacity:1;fill-rule:nonzero;stroke:none"
         id="path100"
         inkscape:connector-curvature="0" /><path
         d="m 274.91,529.09 -3.582,-3.578 0,-9.707 1.84,-5.114 0,-8.664 3.48,0 0,8.664 1.84,5.114 0,9.707 -3.578,3.578"
         style="fill:#25715e;fill-opacity:1;fill-rule:nonzero;stroke:none"
         id="path102"
         inkscape:connector-curvature="0" /><path
         d="m 276.648,494.219 0,5.191 -3.48,0 0,-5.191 -1.84,-3.371 3.582,-4.43 3.578,4.43 -1.84,3.371"
         style="fill:#25715e;fill-opacity:1;fill-rule:nonzero;stroke:none"
         id="path104"
         inkscape:connector-curvature="0" /><path
         d="m 279.246,499.41 0,-3.988 2.324,-2.512 4.035,3.235 0,3.265 -6.359,0"
         style="fill:#25715e;fill-opacity:1;fill-rule:nonzero;stroke:none"
         id="path106"
         inkscape:connector-curvature="0" /><path
         d="m 283.566,515.438 -4.32,-4.754 0,-8.657 3.477,0 0,5.149 3.398,3.679 0.004,-0.003 4.297,-2.793 2.773,2.793 0,4.586 -9.629,0"
         style="fill:#25715e;fill-opacity:1;fill-rule:nonzero;stroke:none"
         id="path108"
         inkscape:connector-curvature="0" /><path
         d="m 270.57,499.41 0,-3.988 -2.324,-2.512 -4.031,3.235 0,3.265 6.355,0"
         style="fill:#25715e;fill-opacity:1;fill-rule:nonzero;stroke:none"
         id="path110"
         inkscape:connector-curvature="0" /><path
         d="m 266.254,515.438 4.316,-4.754 0,-8.657 -3.476,0 0,5.149 -3.399,3.679 0,-0.003 -4.3,-2.793 -2.77,2.793 0,4.586 9.629,0"
         style="fill:#25715e;fill-opacity:1;fill-rule:nonzero;stroke:none"
         id="path112"
         inkscape:connector-curvature="0" /><path
         d="m 147.086,529.09 -3.578,-3.578 0,-9.707 1.84,-5.114 0,-8.664 3.48,0 0,8.664 1.836,5.114 0.004,0 0,9.707 -3.582,3.578"
         style="fill:#25715e;fill-opacity:1;fill-rule:nonzero;stroke:none"
         id="path114"
         inkscape:connector-curvature="0" /><path
         d="m 148.828,494.219 0,5.191 -3.48,0 0,-5.191 -1.84,-3.371 3.578,-4.43 3.582,4.43 -1.84,3.371"
         style="fill:#25715e;fill-opacity:1;fill-rule:nonzero;stroke:none"
         id="path116"
         inkscape:connector-curvature="0" /><path
         d="m 151.426,499.41 0,-3.988 2.324,-2.512 4.031,3.235 0,3.265 -6.355,0"
         style="fill:#25715e;fill-opacity:1;fill-rule:nonzero;stroke:none"
         id="path118"
         inkscape:connector-curvature="0" /><path
         d="m 155.742,515.438 -4.316,-4.754 0,-8.657 3.476,0 0,5.149 3.399,3.679 0,-0.003 4.301,-2.793 2.769,2.793 0,4.586 -9.629,0"
         style="fill:#25715e;fill-opacity:1;fill-rule:nonzero;stroke:none"
         id="path120"
         inkscape:connector-curvature="0" /><path
         d="m 142.75,499.41 0,-3.988 -2.324,-2.512 -4.035,3.235 0,3.265 6.359,0"
         style="fill:#25715e;fill-opacity:1;fill-rule:nonzero;stroke:none"
         id="path122"
         inkscape:connector-curvature="0" /><path
         d="m 138.43,515.438 4.32,-4.754 0,-8.657 -3.477,0 0,5.149 -3.402,3.679 0,-0.003 -4.297,-2.793 -2.773,2.793 0,4.586 9.629,0"
         style="fill:#25715e;fill-opacity:1;fill-rule:nonzero;stroke:none"
         id="path124"
         inkscape:connector-curvature="0" /><path
         d="m 805.445,3.42188 0,5.2539 C 791.594,9.81641 790.477,10.957 790.477,27.6133 l 0,16.4297 c 0,3.4218 0.183,5.0195 2.996,11.1836 6.172,13.2382 11.785,24.1836 16.839,33.0898 5.051,8.9024 5.797,10.5 15.903,11.6406 l 0,5.242 -32.93,0 0,-5.242 5.422,-0.914 c 5.059,-0.6836 5.43,-1.5977 2.992,-7.9922 -2.992,-7.5235 -8.793,-22.8125 -14.594,-34.9102 -4.488,8.9024 -16.464,34 -17.402,36.2774 -1.871,4.5742 -1.683,5.9414 2.621,6.625 l 5.801,0.914 0,5.242 -37.426,0 0,-5.242 c 8.418,-1.1406 9.731,-1.3711 14.598,-11.414 8.605,-17.3438 13.848,-27.8399 17.773,-36.2813 2.434,-5.0273 2.805,-6.3945 2.805,-10.7265 l 0,-13.9219 c 0,-16.6563 -0.934,-17.79689 -14.402,-18.93752 l 0,-5.2539 43.972,0 0,0"
         style="fill:#211c1d;fill-opacity:1;fill-rule:nonzero;stroke:none"
         id="path126"
         inkscape:connector-curvature="0" /><path
         d="m 688.82,27.6133 c 0,-16.6563 -1.121,-17.79689 -14.035,-18.93752 l 0,-5.2539 43.231,0 0,5.2539 C 704.539,9.81641 703.422,10.957 703.422,27.6133 l 0,70.7461 8.422,0 c 8.043,0 12.535,-1.3672 14.968,-4.3321 2.055,-2.5195 3.368,-6.625 4.864,-15.9843 l 4.676,0.457 c -0.747,9.8164 -1.497,24.191 -1.684,30.59 l -2.43,0 c -2.058,-2.977 -2.804,-3.891 -6.367,-3.891 l -58.012,0 c -3.554,0 -5.047,0.457 -7.109,3.891 l -2.43,0 c -0.187,-7.992 -1.125,-19.1798 -1.683,-31.047 l 4.492,0 c 1.683,8.6758 3.367,12.7812 5.051,15.0625 2.058,2.7461 5.8,5.2539 16.84,5.2539 l 5.8,0 0,-70.7461"
         style="fill:#211c1d;fill-opacity:1;fill-rule:nonzero;stroke:none"
         id="path128"
         inkscape:connector-curvature="0" /><path
         d="m 636.262,81.0078 c 0,16.8945 1.125,17.8086 13.097,18.9492 l 0,5.242 -40.797,0 0,-5.242 c 11.981,-1.1406 13.106,-2.0547 13.106,-18.9492 l 0,-53.3945 c 0,-16.6563 -1.125,-17.79689 -13.106,-18.93752 l 0,-5.2539 40.797,0 0,5.2539 C 637.387,9.81641 636.262,10.957 636.262,27.6133 l 0,53.3945"
         style="fill:#211c1d;fill-opacity:1;fill-rule:nonzero;stroke:none"
         id="path130"
         inkscape:connector-curvature="0" /><path
         d="m 540.66,34.9102 c 1.496,-9.8047 3.367,-22.8125 4.305,-26.23442 3.18,-2.51953 11.973,-7.992186 23.765,-7.992186 18.336,0 31.813,13.007806 31.813,32.175806 -0.188,19.164 -13.664,26.4726 -26.199,32.1836 -8.418,3.8789 -17.406,8.2109 -17.406,19.625 0,8.6758 5.242,16.43 14.601,16.43 10.852,0 17.399,-10.0472 20.207,-23.055 l 4.68,0.457 c -1.313,10.7266 -2.063,18.7188 -3.367,25.332 -3.371,1.141 -9.922,4.106 -18.532,4.106 -18.336,0 -30.125,-12.5435 -30.125,-30.5786 0,-17.7969 14.973,-24.8789 24.328,-29.4375 8.61,-4.1055 18.336,-9.3516 18.336,-22.1328 0,-11.1836 -6.546,-18.26176 -16.839,-18.26176 -12.536,0 -22.082,15.98436 -24.7,27.85156 l -4.867,-0.4687 0,0"
         style="fill:#211c1d;fill-opacity:1;fill-rule:nonzero;stroke:none"
         id="path132"
         inkscape:connector-curvature="0" /><path
         d="m 481.949,47.2344 5.613,0 c 5.239,0 6.551,-0.6797 9.168,-6.1563 3.18,-6.3828 8.422,-17.5664 12.911,-24.875 5.242,-8.43748 11.976,-14.37888 27.511,-14.14841 l 2.809,0 0.559,4.55859 c -4.114,1.59766 -7.485,4.11722 -9.735,6.85152 -3.176,3.6485 -6.543,8.668 -11.039,16.4297 -3.93,6.8516 -10.105,17.7969 -12.156,22.586 10.472,4.5703 18.148,12.5625 18.148,26.4726 0,10.0469 -3.929,17.125 -9.176,21.0039 -5.425,3.875 -12.722,5.242 -21.328,5.242 l -40.601,0 0,-5.242 c 11.597,-1.1406 12.715,-2.0547 12.715,-18.9492 l 0,-53.3945 c 0,-16.6563 -1.118,-17.79689 -13.282,-18.93752 l 0,-5.2539 40.981,0 0,5.2539 C 483.07,9.81641 481.949,10.957 481.949,27.6133 l 0,19.6211 z m 0,44.957 c 0,6.3945 0.371,6.625 8.793,6.625 10.297,0 19.278,-6.8437 19.278,-21.9141 0,-7.0703 -2.059,-15.7461 -6.926,-19.6211 -3.934,-2.9648 -8.61,-3.6484 -12.535,-3.6484 l -8.61,0 0,38.5586"
         style="fill:#211c1d;fill-opacity:1;fill-rule:evenodd;stroke:none"
         id="path134"
         inkscape:connector-curvature="0" /><path
         d="m 384.988,27.8438 c 0,-16.8868 -0.937,-18.02739 -14.039,-19.16802 l 0,-5.2539 70.739,0 c 1.121,4.34374 3.929,20.76952 4.867,26.69922 l -4.867,0.6875 c -1.872,-7.7656 -4.493,-12.7813 -6.739,-15.5195 -2.992,-3.6485 -8.98,-5.0157 -16.84,-5.0157 -8.425,0 -12.351,0.2266 -14.968,1.8243 -2.618,1.5937 -3.559,6.6132 -3.559,15.5156 l 0,24.8672 14.781,0 c 11.793,0 12.164,-0.6836 13.664,-13.2266 l 4.68,0 0,33.543 -4.68,0 c -1.5,-11.6407 -1.871,-12.5508 -13.664,-12.5508 l -14.781,0 0,32.4101 c 0,5.7032 0.188,5.7032 5.43,5.7032 l 10.476,0 c 8.985,0 13.098,-2.2813 14.969,-4.5703 1.879,-2.2813 3.367,-6.6133 4.68,-14.6055 l 4.679,0.457 c -0.75,10.5 -1.308,21.2264 -1.496,25.5584 l -66.054,0 0,-5.242 c 11.785,-0.914 12.722,-2.0547 12.722,-18.9492 l 0,-53.164"
         style="fill:#211c1d;fill-opacity:1;fill-rule:nonzero;stroke:none"
         id="path136"
         inkscape:connector-curvature="0" /><path
         d="m 322.449,1.82422 c 10.852,32.18748 23.395,67.55468 28.254,79.64848 5.992,15.0625 7.863,17.1132 17.777,18.4843 l 0,5.242 -33.679,0 0,-5.242 4.117,-0.6875 C 345.277,98.3594 346.215,96.3086 344.16,89 341.164,78.7266 330.871,44.957 324.32,26.9297 c -8.609,23.957 -19.461,55 -22.082,63.4375 -2.054,6.3945 -1.496,7.9922 3.559,8.6758 l 5.238,0.914 0,5.242 -38.176,0 0,-5.242 c 8.981,-1.1406 11.227,-2.2812 15.161,-13.6953 5.984,-17.3398 19.46,-56.1406 29.195,-84.43748 l 5.234,0 0,0"
         style="fill:#211c1d;fill-opacity:1;fill-rule:nonzero;stroke:none"
         id="path138"
         inkscape:connector-curvature="0" /><path
         d="m 257.91,81.0078 c 0,16.8945 1.125,17.8086 13.106,18.9492 l 0,5.242 -40.801,0 0,-5.242 c 11.976,-1.1406 13.101,-2.0547 13.101,-18.9492 l 0,-53.3945 c 0,-16.6563 -1.125,-17.79689 -13.101,-18.93752 l 0,-5.2539 40.801,0 0,5.2539 C 259.035,9.81641 257.91,10.957 257.91,27.6133 l 0,53.3945"
         style="fill:#211c1d;fill-opacity:1;fill-rule:nonzero;stroke:none"
         id="path140"
         inkscape:connector-curvature="0" /><path
         d="m 208.832,62.0703 c 0,16.4297 0.563,24.418 1.121,29.4375 0.754,5.4844 4.684,7.9922 12.539,8.4492 l 0,5.242 -35.738,0 0,-5.242 c 9.351,-0.6875 13.473,-2.9648 14.219,-8.4492 0.562,-5.0195 1.125,-13.0078 1.125,-29.4375 l 0,-31.4922 -0.371,0 -55.582,74.6209 -23.016,0 0,-5.242 c 12.723,-1.1406 15.719,-4.5625 15.719,-22.8242 l 0,-30.5781 c 0,-16.4336 -0.559,-24.4219 -1.125,-29.2109 -0.746,-5.4766 -4.68,-8.21099 -12.535,-8.66802 l 0,-5.2539 35.55,0 0,5.2539 c -9.355,0.6836 -13.468,3.19142 -14.035,8.66802 -0.558,4.789 -1.117,12.7773 -1.117,29.2109 l 0,33.3125 0.184,0 57.074,-77.58595 5.988,0 0,59.78905"
         style="fill:#211c1d;fill-opacity:1;fill-rule:nonzero;stroke:none"
         id="path142"
         inkscape:connector-curvature="0" /><path
         d="m 0,142.535 0,-5.254 c 15.7188,-1.367 17.2188,-2.965 17.2188,-27.832 L 17.1094,62.9805 c 0,-26.0078 4.4883,-41.5352 14.4062,-51.3399 C 40.125,2.96484 51.9102,0 62.2031,0 75.3086,0 88.7773,5.92969 96.8242,16.4297 107.68,30.5781 111.047,49.2891 111.047,75.7617 l 0,15.2891 c 0,23.9652 0.855,27.2932 1.605,34.3632 0.942,7.992 5.801,11.41 16.094,11.867 l 0,5.254 -44.9101,0 0,-5.254 c 12.3516,-0.683 17.3981,-3.875 18.3401,-11.867 0.75,-7.07 1.383,-10.398 1.383,-34.3632 l 0,-12.3242 c 0,-19.1641 -2.247,-39.2461 -8.4184,-50.6563 C 89.1562,17.1133 79.4219,10.957 67.6289,10.957 c -12.5351,0 -21.1445,5.6992 -26.9453,15.7461 -5.7969,10.2696 -7.8594,24.875 -7.8594,44.2696 l 0.1133,38.4763 c 0,24.867 1.4922,26.465 16.4648,27.832 l 0,5.254 -49.4023,0 0,0"
         style="fill:#211c1d;fill-opacity:1;fill-rule:nonzero;stroke:none"
         id="path144"
         inkscape:connector-curvature="0" /><path
         d="m 1398.28,81.8477 c 0,16.8867 1.12,17.7968 13.09,18.9373 l 0,5.246 -40.79,0 0,-5.246 c 11.98,-1.1405 13.1,-2.0506 13.1,-18.9373 l 0,-53.4063 c 0,-16.6562 -1.12,-17.7969 -13.1,-18.93749 l 0,-5.24219 40.79,0 0,5.24219 c -11.97,1.14059 -13.09,2.28129 -13.09,18.93749 l 0,53.4063"
         style="fill:#211c1d;fill-opacity:1;fill-rule:nonzero;stroke:none"
         id="path146"
         inkscape:connector-curvature="0" /><path
         d="m 1436.63,28.6719 c 0,-16.8867 -0.93,-18.0274 -14.03,-19.16799 l 0,-5.24219 70.73,0 c 1.12,4.33203 3.94,20.76168 4.87,26.69138 l -4.87,0.6836 c -1.87,-7.7539 -4.48,-12.7812 -6.74,-15.5195 -2.98,-3.6484 -8.97,-5.0156 -16.83,-5.0156 -8.42,0 -12.36,0.2265 -14.97,1.8242 -2.63,1.5976 -3.56,6.625 -3.56,15.5156 l 0,24.8789 14.78,0 c 11.79,0 12.17,-0.6836 13.66,-13.2344 l 4.68,0 0,33.543 -4.68,0 c -1.49,-11.6328 -1.87,-12.5547 -13.66,-12.5547 l -14.78,0 0,32.4141 c 0,5.6992 0.18,5.6992 5.43,5.6992 l 10.49,0 c 8.97,0 13.08,-2.2813 14.97,-4.5586 1.86,-2.2812 3.35,-6.625 4.66,-14.6172 l 4.68,0.4649 c -0.74,10.5039 -1.3,21.2184 -1.49,25.5544 l -66.06,0 0,-5.246 c 11.79,-0.9139 12.72,-2.0506 12.72,-18.9373 l 0,-53.1758"
         style="fill:#211c1d;fill-opacity:1;fill-rule:nonzero;stroke:none"
         id="path148"
         inkscape:connector-curvature="0" /><path
         d="m 1506.49,35.7617 c 1.5,-9.8086 3.36,-22.8164 4.3,-26.24608 3.19,-2.50781 11.98,-7.98046 23.78,-7.98046 18.32,0 31.8,13.00784 31.8,32.17574 -0.19,19.1641 -13.67,26.4727 -26.21,32.1719 -8.41,3.8906 -17.39,8.2227 -17.39,19.6328 0,8.668 5.24,16.4294 14.59,16.4294 10.85,0 17.4,-10.0427 20.22,-23.0544 l 4.66,0.4571 c -1.31,10.7304 -2.05,18.7226 -3.36,25.3363 -3.38,1.136 -9.91,4.101 -18.53,4.101 -18.33,0 -30.12,-12.5506 -30.12,-30.5741 0,-17.8007 14.96,-24.8789 24.34,-29.4414 8.6,-4.1054 18.32,-9.3476 18.32,-22.1289 0,-11.1836 -6.55,-18.25388 -16.83,-18.25388 -12.55,0 -22.08,15.96488 -24.71,27.83208 l -4.86,-0.4571 0,0"
         style="fill:#211c1d;fill-opacity:1;fill-rule:nonzero;stroke:none"
         id="path150"
         inkscape:connector-curvature="0" /><path
         d="m 1305.7,48.0859 5.62,0 c 5.24,0 6.54,-0.6953 9.16,-6.1679 3.19,-6.3828 8.43,-17.5664 12.91,-24.875 5.24,-8.43753 11.98,-14.37894 27.51,-14.14847 l 2.81,0 0.56,4.57031 c -4.12,1.59375 -7.48,4.10546 -9.73,6.83986 -3.18,3.6601 -6.55,8.6758 -11.04,16.4297 -3.93,6.8515 -10.11,17.8086 -12.16,22.5976 10.48,4.5586 18.15,12.5508 18.15,26.4727 0,10.0351 -3.93,17.1133 -9.17,20.9923 -5.43,3.875 -12.73,5.254 -21.33,5.254 l -40.61,0 0,-5.254 c 11.6,-1.1408 12.73,-2.0548 12.73,-18.9415 l 0,-53.4024 c 0,-16.6562 -1.13,-17.7969 -13.29,-18.93748 l 0,-5.2539 40.98,0 0,5.2539 c -11.98,1.14058 -13.1,2.28128 -13.1,18.93748 l 0,19.6328 z m 0,44.9571 c 0,6.3828 0.38,6.6132 8.8,6.6132 10.29,0 19.27,-6.8437 19.27,-21.9023 0,-7.082 -2.05,-15.7578 -6.92,-19.6328 -3.93,-2.9649 -8.61,-3.6484 -12.54,-3.6484 l -8.61,0 0,38.5703"
         style="fill:#211c1d;fill-opacity:1;fill-rule:evenodd;stroke:none"
         id="path152"
         inkscape:connector-curvature="0" /><path
         d="m 1229.3,85.4336 0.38,0 11.06,-35.3555 -22.12,0 10.68,35.3555 0,0 z m 13.35,-81.42188 38.53,0 0,5.35937 c -8.39,0.69531 -12.02,1.62501 -16.59,15.35161 l -28.42,85.8363 -4.77,-1.399 -28.23,-81.6483 C 1197.64,11.4648 1194.39,10.5312 1186,9.37109 l 0,-5.35937 33.38,0 0,5.35937 -4.39,0.46485 c -5.53,0.45706 -7.25,2.78906 -4.96,10.69926 1.91,6.9765 5.16,17.9101 6.49,21.6328 l 26.51,0 6.49,-18.8438 c 3.82,-10.9258 2.1,-12.793 -3.24,-13.48826 l -3.63,-0.46485 0,-5.35937"
         style="fill:#211c1d;fill-opacity:1;fill-rule:evenodd;stroke:none"
         id="path154"
         inkscape:connector-curvature="0" /><path
         d="m 1140.78,47.9531 5.61,0 c 5.24,0 6.55,-0.6875 9.17,-6.1679 3.18,-6.3868 8.42,-17.5704 12.91,-24.8672 5.24,-8.44925 11.98,-14.37894 27.51,-14.14847 l 2.81,0 0.56,4.55859 c -4.12,1.59766 -7.48,4.10548 -9.73,6.84378 -3.18,3.6562 -6.55,8.6758 -11.04,16.4258 -3.93,6.8515 -10.11,17.8085 -12.16,22.5976 10.47,4.5742 18.15,12.5547 18.15,26.4766 0,10.0429 -3.93,17.1133 -9.17,20.9881 -5.43,3.887 -12.73,5.258 -21.34,5.258 l -40.6,0 0,-5.258 c 11.6,-1.1405 12.72,-2.0506 12.72,-18.9373 l 0,-53.4024 c 0,-16.6601 -1.12,-17.8008 -13.28,-18.93749 l 0,-5.24609 40.98,0 0,5.24609 c -11.98,1.13669 -13.1,2.27739 -13.1,18.93749 l 0,19.6328 z m 0,44.9531 c 0,6.3868 0.37,6.6133 8.8,6.6133 10.28,0 19.27,-6.8398 19.27,-21.9023 0,-7.0781 -2.06,-15.7461 -6.92,-19.6211 -3.94,-2.9766 -8.61,-3.6602 -12.54,-3.6602 l -8.61,0 0,38.5703"
         style="fill:#211c1d;fill-opacity:1;fill-rule:evenodd;stroke:none"
         id="path156"
         inkscape:connector-curvature="0" /><path
         d="m 1002.66,81.6602 c 0,16.8867 1.12,17.7968 13.1,18.9378 l 0,5.246 -40.787,0 0,-5.246 c 11.972,-1.141 13.097,-2.0511 13.097,-18.9378 l 0,-53.3946 c 0,-16.6445 -1.125,-17.7851 -13.097,-18.92576 l 0,-5.24609 40.787,0 0,5.24609 c -11.98,1.14066 -13.1,2.28126 -13.1,18.92576 l 0,53.3946"
         style="fill:#211c1d;fill-opacity:1;fill-rule:nonzero;stroke:none"
         id="path158"
         inkscape:connector-curvature="0" /><path
         d="m 1066.07,55.7773 c 11.97,0 22.08,-6.6132 22.08,-22.8125 0,-15.5195 -8.04,-22.3593 -18.71,-22.3593 -8.98,0 -12.91,2.2812 -12.91,17.1133 l 0,28.0585 9.54,0 0,0 z m -9.54,37.8868 c 0,5.4726 0.37,5.9297 9.54,5.9297 9.17,0 17.78,-5.4727 17.78,-18.9415 0,-13.9179 -8.05,-18.9335 -17.03,-18.9335 l -10.29,0 0,31.9453 z m -27.13,12.3129 0,-5.016 c 11.42,-1.1407 12.53,-2.2813 12.53,-18.9376 l 0,-53.6211 c 0,-16.6562 -1.11,-17.7968 -13.28,-18.93746 l 0,-5.24609 37.23,0 c 9.36,0 18.34,1.37109 25.45,5.24609 7.49,4.10156 13.66,12.32426 13.66,24.42186 0,15.7344 -11.04,24.1719 -24.32,26.0078 l 0,0.4532 c 7.48,1.8242 18.89,8.4375 18.89,22.3593 0,8.4375 -2.8,14.3789 -7.66,18.027 -4.87,3.875 -11.05,5.243 -20.22,5.243 l -42.28,0 0,0"
         style="fill:#211c1d;fill-opacity:1;fill-rule:nonzero;stroke:none"
         id="path160"
         inkscape:connector-curvature="0" /><path
         d="m 912.324,110.062 c 0,24.907 1.496,26.504 17.617,27.883 l 0,5.246 -50.593,0 0,-5.246 c 15.738,-1.379 17.242,-2.976 17.242,-27.883 l 0,-73.2417 c 0,-24.9101 -1.504,-26.5078 -17.242,-27.87499 l 0,-5.26562 84.507,0 c 1.5,6.17969 5.625,29.48051 6.559,35.87501 l -4.687,0.6953 c -2.809,-10.5117 -5.993,-18.2852 -8.993,-22.4023 -4.121,-5.4805 -12.929,-6.6211 -22.3,-6.6211 -7.122,0 -14.051,0.457 -17.614,2.9726 -3.558,2.2813 -4.496,8.6797 -4.496,22.3906 l 0,73.4722"
         style="fill:#211c1d;fill-opacity:1;fill-rule:nonzero;stroke:none"
         id="path162"
         inkscape:connector-curvature="0" /></g></g></svg>