<?xml version="1.0" encoding="utf-8"?>
<!-- Generator: Adobe Illustrator 15.0.2, SVG Export Plug-In  -->
<!DOCTYPE svg PUBLIC "-//W3C//DTD SVG 1.1//EN" "http://www.w3.org/Graphics/SVG/1.1/DTD/svg11.dtd" [
	<!ENTITY ns_flows "http://ns.adobe.com/Flows/1.0/">
]>
<svg version="1.1"
	 xmlns="http://www.w3.org/2000/svg" xmlns:xlink="http://www.w3.org/1999/xlink" xmlns:a="http://ns.adobe.com/AdobeSVGViewerExtensions/3.0/"
	 x="0px" y="0px" width="800px" height="400px" viewBox="-57.22 -39.864 800 400"
	 overflow="visible" enable-background="new -57.22 -39.864 800 400" xml:space="preserve">
<defs>
</defs>
<path fill="#010101" d="M0,79.21v241.062h240V0H79.204L0,79.21z M67.23,28.916v38.317H28.913L67.23,28.916L67.23,28.916z
	 M11.971,308.29V79.21h67.228V11.977h148.828V308.29H11.974H11.971z"/>
<rect x="26.56" y="101.136" fill="none" width="188" height="192"/>
<text transform="matrix(1 0 0 1 26.5596 124.1436)"><tspan x="0" y="0" fill="#395EA7" font-family="'Helvetica'" font-size="32" text-decoration=" underline">Hyperlinks</tspan><tspan x="149.375" y="0" font-family="'Helvetica'" font-size="32"> </tspan><tspan x="0" y="38.4" font-family="'Helvetica'" font-size="32">direct users </tspan><tspan x="0" y="76.8" font-family="'Helvetica'" font-size="32">to other </tspan><tspan x="0" y="115.2" font-family="'Helvetica'" font-size="32">webpages.</tspan></text>
<g>
	<g>
		
			<line fill="none" stroke="#000000" stroke-width="4" stroke-miterlimit="10" x1="183.657" y1="113.588" x2="399.504" y2="113.588"/>
		<g>
			<path d="M423.645,113.588c-11.359,4.215-25.453,11.406-34.189,19.023l6.881-19.023l-6.881-19.02
				C398.192,102.186,412.286,109.377,423.645,113.588z"/>
		</g>
	</g>
</g>
<path fill="#010101" d="M445.559,79.21v241.062h240V0H524.764L445.559,79.21z M512.79,28.916v38.317h-38.316L512.79,28.916
	L512.79,28.916z M457.53,308.29V79.21h67.229V11.977h148.828V308.29H457.534H457.53z"/>
<rect x="472.12" y="101.136" fill="none" width="188" height="192"/>
<text transform="matrix(1 0 0 1 472.1196 132.8877)"><tspan x="0" y="0" font-family="'Georgia'" font-size="42">Yet </tspan><tspan x="0" y="50.4" font-family="'Georgia'" font-size="42">another </tspan><tspan x="0" y="100.8" font-family="'Georgia'" font-size="42">webpage.</tspan></text>
<path fill="#FFFFFF" d="M169.327,134.622c-0.933,0-1.781,0.254-2.459,0.678c-0.764-1.611-2.375-2.714-4.24-2.714
	c-0.934,0-1.781,0.255-2.46,0.679c-0.764-1.611-2.375-2.714-4.24-2.714c-0.679,0-1.442,0.169-2.036,0.425v-12.723
	c0-2.629-2.119-4.664-4.664-4.664s-4.664,2.12-4.664,4.664v21.287l-1.442-2.968c-0.679-1.78-2.46-3.054-4.41-3.054
	c-0.509,0-1.103,0.086-1.611,0.255c-2.46,0.849-3.731,3.562-2.799,6.021c0,0,0,0.085,0.085,0.085l9.753,20.693
	c0,0.085,0.085,0.085,0.085,0.17c1.018,1.526,2.205,2.883,3.646,4.071c0.085,0.086,0.17,0.086,0.255,0.17l0,0
	c0.085,0.084,0.085,0.084,0.169,0.17c2.799,2.035,6.106,3.139,9.584,3.139c8.65,0,15.774-6.785,16.114-15.352c0,0,0-0.084,0-0.17
	c0-0.254,0-0.509,0-0.764c0-0.084,0-0.084,0-0.169v-0.169c0-0.17,0-0.255,0-0.424v-11.959
	C174.077,136.741,171.957,134.622,169.327,134.622z"/>
<path fill="#010101" d="M169.327,134.622c-0.933,0-1.781,0.254-2.459,0.678c-0.764-1.611-2.375-2.714-4.24-2.714
	c-0.934,0-1.781,0.255-2.46,0.679c-0.764-1.611-2.375-2.714-4.24-2.714c-0.679,0-1.442,0.169-2.036,0.425v-12.723
	c0-2.629-2.119-4.664-4.664-4.664s-4.664,2.12-4.664,4.664v21.287l-1.442-2.968c-0.679-1.78-2.46-3.054-4.41-3.054
	c-0.509,0-1.103,0.086-1.611,0.255c-2.46,0.849-3.731,3.562-2.799,6.021c0,0,0,0.085,0.085,0.085l9.753,20.693
	c0,0.085,0.085,0.085,0.085,0.17c1.018,1.526,2.205,2.883,3.646,4.071c0.085,0.086,0.17,0.086,0.255,0.17l0,0
	c0.085,0.084,0.085,0.084,0.169,0.17c2.799,2.035,6.106,3.139,9.584,3.139c8.65,0,15.774-6.785,16.114-15.352c0,0,0-0.084,0-0.17
	c0-0.254,0-0.509,0-0.764c0-0.084,0-0.084,0-0.169v-0.169c0-0.17,0-0.255,0-0.424v-11.959
	C174.077,136.741,171.957,134.622,169.327,134.622z M157.878,165.661c-2.884,0-5.598-0.848-7.887-2.543l-0.17-0.17
	c-0.17-0.17-0.34-0.254-0.51-0.34c-1.102-0.934-2.035-1.951-2.798-3.138l-9.669-20.608c-0.17-0.51-0.17-1.018,0.085-1.527
	c0.255-0.508,0.594-0.848,1.103-1.018c1.018-0.339,2.205,0.17,2.545,1.188c0,0,0,0.085,0.084,0.085l3.986,8.481
	c0.254,0.594,0.934,0.848,1.527,0.763c0.593-0.169,1.018-0.679,1.018-1.272v-27.309c0-1.102,0.933-2.035,2.035-2.035
	s2.035,0.934,2.035,2.035v16.963c0,0.763,0.594,1.356,1.357,1.356c0.763,0,1.356-0.594,1.356-1.356c0-1.104,0.933-2.036,2.035-2.036
	c1.104,0,2.036,0.933,2.036,2.036v2.035c0,0.764,0.594,1.357,1.356,1.357c0.764,0,1.357-0.594,1.357-1.357
	c0-1.104,0.933-2.035,2.035-2.035s2.035,0.932,2.035,2.035v2.035c0,0.764,0.594,1.357,1.357,1.357s1.356-0.594,1.356-1.357
	c0-1.103,0.934-2.035,2.036-2.035s2.035,0.933,2.035,2.035v12.128v0.339c0,0.17,0,0.254,0,0.424c0,0.255,0,0.424,0,0.68
	C170.938,159.979,165.087,165.661,157.878,165.661z"/>
</svg>
